<svg xmlns="http://www.w3.org/2000/svg" width="122" height="27" viewBox="0 0 122 27">
    <defs>
        <style>
            .cls-1{fill:#fff}
        </style>
    </defs>
    <g id="_logo_ibk" data-name="@logo_ibk">
        <path id="패스_145" d="M363.722 189.838a2.715 2.715 0 0 1-1.478-1.051 2.794 2.794 0 0 1-1.5 1.205l-.413-.526c1.36-.487 1.56-1.244 1.56-1.49h-1.173v-.567h3.032v.567h-1.18a1.906 1.906 0 0 0 1.476 1.311zm-2.365 2.626v-2.134h3.857v2.134zm.023-5.525v-.569h1.749v.569zm3.2 3.979h-2.588v.96h2.588zm.634-2.458v1.555h-.634v-3.644h.634v1.472h.8v.617z" data-name="패스 145" transform="translate(-330.033 -186.331)"/>
        <path id="패스_146" d="M372.043 192.545h-.822v-.884h.822zm-.755-3.4v-2.686h.692v2.686l-.2 1.825h-.3z" data-name="패스 146" transform="translate(-333.542 -186.361)"/>
        <path id="패스_147" d="M379.86 189.5v-.546h2.44v-.636h.656v.636h2.446v.546zm5.18-1.3l-.34.488a3.265 3.265 0 0 1-2.069-.965 3.27 3.27 0 0 1-2.073.989l-.342-.492c.521-.064 1.762-.408 2.05-.974h-1.751v-.569h4.238v.569H383a2.975 2.975 0 0 0 2.04.954zm-4.746 2.859v-.506h4.67v.506zm2.351 1.682c-1.072 0-2.07-.19-2.07-.76s1.03-.754 2.07-.754c1.013 0 2.062.186 2.062.754s-1.107.761-2.061.761zm-1.339-2.454v-.495h2.625v.495zm1.339 1.434c-.587 0-1.3.007-1.3.268s.712.251 1.3.251c.531 0 1.292 0 1.292-.251s-.742-.266-1.291-.266z" data-name="패스 147" transform="translate(-336.326 -186.43)"/>
        <path id="패스_148" d="M389.086 190.087v-.6h5.548v.6zm2.77-1.113c-1.356 0-2.111-.548-2.111-1.316s.749-1.346 2.111-1.346 2.111.58 2.111 1.346-.73 1.316-2.111 1.316zm-2.056 3.406v-1.753h.628v1.162h3.656v.591zm2.06-5.521c-.87 0-1.442.335-1.442.791s.6.763 1.436.763c.85 0 1.453-.287 1.453-.749s-.577-.806-1.445-.806z" data-name="패스 148" transform="translate(-339.299 -186.312)"/>
        <path id="패스_149" d="M401.575 190.087v-.6h5.547v.6zm2.767-1.113c-1.356 0-2.112-.548-2.112-1.316s.75-1.346 2.112-1.346 2.111.58 2.111 1.346-.731 1.316-2.111 1.316zm-2.055 3.405v-1.753h.629v1.162h3.66v.591zm2.062-5.521c-.871 0-1.444.335-1.444.791s.607.763 1.437.763c.852 0 1.454-.287 1.454-.749s-.577-.805-1.446-.805z" data-name="패스 149" transform="translate(-343.323 -186.312)"/>
        <path id="패스_150" d="M410.63 187.875v-.536h2.818v.536zm1.4 2.248c-.765 0-1.267-.409-1.267-.992s.5-.961 1.273-.961 1.271.386 1.271.97-.496.982-1.278.982zm-.732-3.148v-.54h1.463v.54zm2.227 5.681c-1.389 0-2.151-.5-2.151-1.163s.776-1.118 2.162-1.118 2.144.472 2.144 1.139-.76 1.141-2.156 1.141zm-1.489-3.972c-.436 0-.651.174-.651.456s.215.471.651.471.651-.182.651-.471-.207-.456-.652-.456zm1.491 2.227c-.866 0-1.467.2-1.467.59s.593.6 1.467.6c.853 0 1.442-.22 1.442-.6-.002-.394-.575-.591-1.444-.591zm1.567-.683v-1.678h-.651v1.542h-.592v-3.615h.592v1.435h.651v-1.541h.59v3.857z" data-name="패스 150" transform="translate(-346.24 -186.331)"/>
        <path id="패스_151" d="M321.832 189.931a2.869 2.869 0 0 0-1.446 1.671l-4.608 13.888a2.888 2.888 0 0 0 1.821 3.651l15.115 5.087a2.883 2.883 0 0 0 3.648-1.828l4.612-13.886a2.9 2.9 0 0 0-1.827-3.655l-15.114-5.089a2.859 2.859 0 0 0-2.2.162" class="cls-1" data-name="패스 151" transform="translate(-315.629 -187.379)"/>
        <path id="패스_152" d="M329.681 203.746a7.907 7.907 0 0 1-3.03 2.12l-.687.265v-6.437l.675.262a7.91 7.91 0 0 1 3.042 2.112 6.978 6.978 0 0 0-3.364-10.146l-2.181-.733a1.868 1.868 0 0 0-2.36 1.2l-4.624 13.9a1.9 1.9 0 0 0 1.213 2.389l10.491 3.513a6.986 6.986 0 0 0 .826-8.449m-6.069 2.782h-1.04v-7.218h1.04z" data-name="패스 152" transform="translate(-316.089 -187.853)"/>
        <path id="패스_153" d="M333.783 207.669a6.9 6.9 0 0 0-2.111-1.683v3.383a6.912 6.912 0 0 0 2.111-1.7" data-name="패스 153" transform="translate(-320.798 -192.616)"/>
        <path id="패스_154" d="M345.26 197.166l-9.628-3.217a7.933 7.933 0 0 1 .7 9.841 7.934 7.934 0 0 1-.458 9.607l3.618 1.208a1.859 1.859 0 0 0 2.356-1.2l4.626-13.859a1.9 1.9 0 0 0-1.211-2.382m-2.553 10.214h-1.3l-2.675-3.6 2.715-3.6 1.314-.005-2.725 3.609z" data-name="패스 154" transform="translate(-322.074 -188.711)"/>
        <path id="사각형_580" d="M0 0h2.538v15.15H0z" data-name="사각형 580" transform="translate(31.325 9.216)"/>
        <path id="패스_155" d="M370.769 199.813v15.146h4.618c3.922-.005 5.775-1.391 5.781-4.159a3.541 3.541 0 0 0-2.611-3.546l-.149-.043.144-.061a3.357 3.357 0 0 0 2.24-3.375c0-2.588-1.77-3.955-5.345-3.962h-4.678zm4.179 8.451c1.81 0 3.553.287 3.556 2.345a1.869 1.869 0 0 1-.807 1.69 4.883 4.883 0 0 1-2.543.5h-1.846v-4.535h1.64m.834-6.291c.729 0 2.468.251 2.473 2.013a1.752 1.752 0 0 1-1.029 1.8 6.527 6.527 0 0 1-2.487.319h-1.43v-4.131h2.473" data-name="패스 155" transform="translate(-333.396 -190.6)"/>
        <path id="패스_156" d="M401.643 199.813c-.8.836-6.816 7.184-6.816 7.184s6.526 7.077 7.351 7.962h-3.538c-.332-.378-5.924-6.824-5.924-6.824v6.83h-2.538v-15.15h2.538v6.127s5.337-5.79 5.654-6.13z" data-name="패스 156" transform="translate(-339.65 -190.6)"/>
        <path id="패스_157" d="M437.027 208.469v1.553h-6.164v-1.549h-2.013v6.427h10.222v-6.429zm0 4.856h-6.163v-1.838h6.163zm-4-6.763a3.7 3.7 0 0 0 1.411-2.212h2.6v3.293h2.029v-7.874h-2.029v3.118h-2.582a3.51 3.51 0 0 0-1.364-2.3 4.335 4.335 0 0 0-2.721-.9 4.388 4.388 0 0 0-2.94 1.093 3.651 3.651 0 0 0 0 5.538 4.329 4.329 0 0 0 2.94 1.1 4.284 4.284 0 0 0 2.652-.856zm-4.2-1.3a2.469 2.469 0 0 1-.607-1.7 2.361 2.361 0 0 1 .62-1.678 2 2 0 0 1 1.539-.668 1.934 1.934 0 0 1 1.551.665 2.484 2.484 0 0 1 .569 1.681 2.541 2.541 0 0 1-.585 1.7 1.961 1.961 0 0 1-1.574.689 1.93 1.93 0 0 1-1.522-.691zm-6.616-5.483v15.145h2.029v-15.146zM412 201.637h5.3v1.155a7.868 7.868 0 0 1-6.056 7.5l-.085.019 1.034 1.278.038-.009c3.9-1.141 7.12-4.767 7.12-8.756v-2.652H412z" data-name="패스 157" transform="translate(-346.413 -190.558)"/>
        <path id="패스_158" d="M460.238 214.87h-2.046v4.893h10.218V218.3h-8.172z" data-name="패스 158" transform="translate(-361.566 -195.452)"/>
        <path id="패스_159" d="M466.433 200.159a6.41 6.41 0 0 0-6.781 0 3.114 3.114 0 0 0-1.425 2.714 3.074 3.074 0 0 0 1.425 2.681 6.448 6.448 0 0 0 6.781 0 3.065 3.065 0 0 0 1.425-2.681 3.11 3.11 0 0 0-1.425-2.714zm-1.417 4.3a3.406 3.406 0 0 1-3.927 0 1.951 1.951 0 0 1-.765-1.587 2.07 2.07 0 0 1 .765-1.627 3.22 3.22 0 0 1 3.924 0 2.05 2.05 0 0 1 .762 1.627 1.938 1.938 0 0 1-.758 1.587z" data-name="패스 159" transform="translate(-361.578 -190.434)"/>
        <path id="사각형_581" d="M0 0h13.484v1.584H0z" data-name="사각형 581" transform="translate(94.689 16.859)"/>
        <path id="패스_160" d="M489.279 214.566a6.976 6.976 0 0 0-6.507 0 2.481 2.481 0 0 0 0 4.422 7.12 7.12 0 0 0 6.507 0 2.49 2.49 0 0 0 0-4.422zm-1.344 3.385a4.149 4.149 0 0 1-3.809 0 1.351 1.351 0 0 1-.742-1.165 1.412 1.412 0 0 1 .742-1.2 3.937 3.937 0 0 1 3.809 0 1.409 1.409 0 0 1 .744 1.2 1.348 1.348 0 0 1-.744 1.165z" data-name="패스 160" transform="translate(-369.049 -195.095)"/>
        <path id="사각형_582" d="M0 0h4.583v1.358H0z" data-name="사각형 582" transform="translate(110.052 9.384)"/>
        <path id="패스_161" d="M491.3 199.841v3.494h-1.143v-3.494h-1.938v8.559h1.938v-3.7h1.143v4.29h1.942v-9.145z" data-name="패스 161" transform="translate(-371.241 -190.639)"/>
        <path id="패스_162" d="M483.848 202.855h-7.041v1.345h1.482a2.911 2.911 0 0 0-1.421 2.435 3.5 3.5 0 0 0 6.946 0 2.913 2.913 0 0 0-1.422-2.435h1.457zm-3.513 5.6a1.82 1.82 0 1 1 1.652-1.813 1.741 1.741 0 0 1-1.651 1.811z" data-name="패스 162" transform="translate(-367.564 -191.608)"/>
    </g>
</svg>
