<svg xmlns="http://www.w3.org/2000/svg" width="122" height="20" viewBox="0 0 122 20">
    <defs>
        <style>
            .cls-1{fill:#030504}
        </style>
    </defs>
    <g id="_logo_kbbank" data-name="@logo_kbbank">
        <path id="패스_435" d="M561.332 439.423l-.249-.154a4.468 4.468 0 0 0-3.58-1.095 6.831 6.831 0 0 0-3.13 1.061v-.035a12.207 12.207 0 0 1 .091-1.262 12.376 12.376 0 0 0 .094-1.283 2.956 2.956 0 0 0-.2-1.166.232.232 0 0 0-.225-.14 3.442 3.442 0 0 0-1.443.466l-.108.232a9.134 9.134 0 0 1-.214 1.9l-.055.157a22.753 22.753 0 0 0-.017 4.822c.018.139.289.346.5.421a3.209 3.209 0 0 0 1.36-.259l.155-.023a.234.234 0 0 0 .2-.269l.01-.4a4 4 0 0 1 2.935-2.831 2.052 2.052 0 0 1 1.949.617 2.583 2.583 0 0 1-.316 1.943 4.073 4.073 0 0 1-2.232 1.731 8.692 8.692 0 0 1-3.413.472l-1.255-.836a18.256 18.256 0 0 0-3.583-2.094 4.366 4.366 0 0 1-.815-.572l-.122-.1c-.691-.545-2.005-1.407-3.062-2.1 0 0-.475-.316-.568-.375v-.118c.032-.034.7-.424.7-.424a7.141 7.141 0 0 0 1.448-.932c-.019.022.124-.072.124-.072l2.3-1.283a28.266 28.266 0 0 0 6.029-3.889l.063-.2.03-.183a1.231 1.231 0 0 0 .019-.759.24.24 0 0 0-.179-.174 5.059 5.059 0 0 0-3.556 1.618 3.208 3.208 0 0 1-.742.5l-.183.1c-1.33.744-4.324 2.573-5.891 3.559a50.44 50.44 0 0 1 .8-5.983l-.043-.234-.161-.3-.123-.213-.034-.01a1.014 1.014 0 0 0-.756-.046l-.314.114-.417.149a.225.225 0 0 0-.173.145 24.623 24.623 0 0 0-1.521 7.047 36.415 36.415 0 0 0-3.556-1.934l-.019-.011-.081-.016a2.533 2.533 0 0 1-.827-.377l-.571-.365-.869-.546c.007.005-.23-.052-.23-.052a2.725 2.725 0 0 0-1.3.859.259.259 0 0 0-.038.138.857.857 0 0 0 .038.2l.04.174.04.1a12.5 12.5 0 0 0 2.5 1.665l1.2.624 1.828.982c0 .008.313.243.313.243l.215.123.039.023c-.487.322-3.327 2.185-3.327 2.185l-1.751 1.141a10.159 10.159 0 0 1-1.008.476 1.439 1.439 0 0 0-.785.638l-.047.1.047.065.133.1c-.005 0 .179.116.179.116l.194.13.182.028a4.679 4.679 0 0 0 1.615-.528c.782-.341 2.908-1.6 3.815-2.14l.388-.23a.864.864 0 0 0 .5-.236 4.761 4.761 0 0 1 .819-.486c.007 0 .145-.079.275-.15v.1a35.554 35.554 0 0 0 .5 6.251v.026l.03.063a6.6 6.6 0 0 1 .472 1.434l.346 1.142c.007.014.1.107.1.107a2.329 2.329 0 0 0 1.2.313l.1-.012.064-.139a2.609 2.609 0 0 0 .046-.522c0-.208-.016-.438-.035-.72l-.027-.41c-.128-1.909-.254-4.665-.254-6.5v-.146l1.771 1.1c2.453 1.565 6.16 3.932 8.4 4.557a.334.334 0 0 0 .325-.072c0-.005.345-.218.345-.218l.063-.027a.6.6 0 0 0 .23-.5c1.888-.092 4.521-.807 5.93-2.55a3.593 3.593 0 0 0 .791-2.209 1.857 1.857 0 0 0-.461-1.358" class="cls-1" data-name="패스 435" transform="translate(-533.251 -429.16)"/>
        <path id="패스_436" d="M664.476 439.219h-4.764V435.3h4.764zm1.724-5.419h-8.216v6.936h8.216z" class="cls-1" data-name="패스 436" transform="translate(-576.963 -430.782)"/>
        <path id="패스_437" d="M641.68 439.322v2.113h5.081v5.5h-1.735V442.9h-10.2v-1.463h5.118v-2.113h-6.18v-1.461h11.176v-2.924h-9.92v-1.452h11.662v4.366h1.241v1.472z" class="cls-1" data-name="패스 437" transform="translate(-568.516 -430.645)"/>
        <path id="패스_438" d="M671.268 451.725h-10.9v-5.1h1.732v3.6h9.164z" class="cls-1" data-name="패스 438" transform="translate(-577.821 -435.409)"/>
        <path id="사각형_649" d="M0 0h1.726v9.106H0z" class="cls-1" data-name="사각형 649" transform="translate(91.565 2.711)"/>
        <path id="패스_439" d="M693.263 445.841v-1.5h-14.147v1.5h1.529v5.1h11.318v-1.5h-9.59v-3.6z" class="cls-1" data-name="패스 439" transform="translate(-584.574 -434.616)"/>
        <path id="패스_440" d="M714.278 440.116h1.682v-2.738h.961v3.18h1.679v-7.269h-1.684v2.647h-.961v-2.647h-1.682z" class="cls-1" data-name="패스 440" transform="translate(-596.651 -430.578)"/>
        <path id="패스_441" d="M687.242 437.842c-1.79 0-3.238-.62-3.238-2s1.448-2 3.238-2 3.238.628 3.238 2-1.452 2-3.238 2m0-5.585c-2.793 0-5.06 1.181-5.06 3.582 0 2.385 2.267 3.585 5.06 3.585s5.061-1.2 5.061-3.585c0-2.4-2.265-3.582-5.061-3.582" class="cls-1" data-name="패스 441" transform="translate(-585.627 -430.224)"/>
        <path id="패스_442" d="M708.985 433.583h-3.061v-1.22H704.2v1.22h-3.082v1.465h1.233a2.477 2.477 0 0 0-.99 2.056c0 1.883 1.653 2.836 3.693 2.836s3.694-.953 3.694-2.836a2.478 2.478 0 0 0-.993-2.056h1.233zm-3.934 4.776c-1.056 0-1.911-.456-1.911-1.483s.854-1.488 1.911-1.488 1.908.467 1.908 1.488-.857 1.483-1.908 1.483" class="cls-1" data-name="패스 442" transform="translate(-592.13 -430.26)"/>
        <path id="패스_443" d="M586.6 433.462h2.2v6.025l7.412-6.025h3.12l-7.834 6.08 8.483 7.38h-3.115l-8.066-7.212v7.212h-2.2z" class="cls-1" data-name="패스 443" transform="translate(-551.963 -430.638)"/>
        <path id="패스_444" d="M609.317 433.506h6.78c3.224 0 4.912 1.046 4.912 3.332a3.1 3.1 0 0 1-2.711 3.045v.057c2.219.257 3.269 1.679 3.269 3.281 0 2.009-1.508 3.746-5.254 3.746h-7zm2.2 5.671h4.474c1.66 0 2.888-.616 2.888-2.053 0-1.249-.6-2.084-3.142-2.084h-4.22zm0 6.263h4.335c2.692 0 3.407-1.027 3.407-2.33 0-1.548-1.1-2.4-3.523-2.4h-4.22z" class="cls-1" data-name="패스 444" transform="translate(-559.928 -430.653)"/>
        <path id="패스_445" d="M710.726 450.022c-1.768 0-3.2-.618-3.2-2.012s1.432-2.01 3.2-2.01 3.2.628 3.2 2.01-1.433 2.012-3.2 2.012m.007-5.569c-2.759 0-4.99 1.171-4.99 3.561 0 2.367 2.231 3.559 4.99 3.559s4.986-1.192 4.986-3.559c0-2.39-2.234-3.561-4.986-3.561" class="cls-1" data-name="패스 445" transform="translate(-593.72 -434.665)"/>
    </g>
</svg>
