<svg xmlns="http://www.w3.org/2000/svg" width="123.073" height="20.993" viewBox="0 0 123.073 20.993">
    <defs>
        <style>
            .cls-1{stroke:rgba(0,0,0,0)}
        </style>
    </defs>
    <path id="_logo_kbfg" d="M9.4 19.682l-.1-.107-.338-1.141A6.978 6.978 0 0 0 8.5 17l-.029-.061v-.027a36.623 36.623 0 0 1-.495-6.253v-.1a6.024 6.024 0 0 1-.27.149 4.8 4.8 0 0 0-.8.487.842.842 0 0 1-.484.238l-.38.228c-.889.538-2.971 1.8-3.737 2.14a4.522 4.522 0 0 1-1.582.527L.542 14.3l-.19-.13s-.181-.115-.175-.115l-.132-.1L0 13.887l.045-.1a1.417 1.417 0 0 1 .769-.639 9.881 9.881 0 0 0 .988-.475l1.713-1.141S6.3 9.669 6.776 9.346c-.013-.009-.039-.023-.039-.023L6.526 9.2s-.306-.236-.306-.244l-1.791-.981-1.171-.623A12.22 12.22 0 0 1 .811 5.687l-.041-.1-.037-.18a.828.828 0 0 1-.038-.2.256.256 0 0 1 .038-.138 2.665 2.665 0 0 1 1.277-.86s.231.057.224.052l.852.548s.528.345.559.362a2.408 2.408 0 0 0 .81.378l.078.018.018.01a35.46 35.46 0 0 1 3.484 1.931A25.062 25.062 0 0 1 9.525.46a.224.224 0 0 1 .168-.145L10.1.166l.306-.115A.97.97 0 0 1 11.15.1l.035.009.115.211.16.3.04.233a52.014 52.014 0 0 0-.783 5.982c1.537-.986 4.47-2.813 5.771-3.557l.18-.1a3.135 3.135 0 0 0 .728-.5 4.9 4.9 0 0 1 3.483-1.618.239.239 0 0 1 .175.174 1.249 1.249 0 0 1-.019.76l-.028.183-.064.2a27.574 27.574 0 0 1-5.9 3.889S12.8 7.543 12.788 7.547a.9.9 0 0 1-.121.074 7.007 7.007 0 0 1-1.417.929s-.65.392-.681.425v.117l.557.375c1.035.691 2.322 1.554 3 2.1l.121.1a4.234 4.234 0 0 0 .8.573 17.757 17.757 0 0 1 3.509 2.1s1.175.8 1.23.834a8.324 8.324 0 0 0 3.344-.472 4 4 0 0 0 2.185-1.73 2.632 2.632 0 0 0 .311-1.943 1.987 1.987 0 0 0-1.91-.618 3.955 3.955 0 0 0-2.874 2.831s-.012.394-.01.4a.233.233 0 0 1-.2.268l-.152.024a3.1 3.1 0 0 1-1.331.259c-.2-.076-.47-.284-.488-.421a23.263 23.263 0 0 1 .017-4.823s.058-.161.054-.155a9.392 9.392 0 0 0 .21-1.9l.106-.234a3.344 3.344 0 0 1 1.415-.465.227.227 0 0 1 .219.141A3 3 0 0 1 20.87 7.5a12.7 12.7 0 0 1-.091 1.281 12.439 12.439 0 0 0-.09 1.263v.034a6.587 6.587 0 0 1 3.066-1.059 4.316 4.316 0 0 1 3.507 1.094l.242.155a1.878 1.878 0 0 1 .452 1.357 3.638 3.638 0 0 1-.774 2.209c-1.38 1.743-3.959 2.458-5.808 2.552a.623.623 0 0 1-.225.5l-.064.026s-.334.213-.337.217a.317.317 0 0 1-.319.072c-2.194-.625-5.824-2.99-8.228-4.556l-1.735-1.1v.146c0 1.832.125 4.587.249 6.495l.027.412c.019.282.034.511.034.719a2.71 2.71 0 0 1-.045.523l-.062.138-.1.013a.948.948 0 0 1-.111.006 2.371 2.371 0 0 1-1.058-.315zm71.332-5.787a2.773 2.773 0 0 1 2.016-2.5v-1.6h-3.177V8.324h13.858v1.471H90.28v1.613a2.76 2.76 0 0 1 1.983 2.487c0 2.087-2.582 3.137-5.768 3.137s-5.768-1.051-5.768-3.137zm1.779 0c0 1.155 1.783 1.67 3.987 1.67s3.988-.515 3.988-1.67-1.788-1.667-3.988-1.667-3.992.525-3.992 1.672zm6.08-2.969V9.795h-4.153v1.128a12.931 12.931 0 0 1 4.147.005zm-39.647 5.44V2.782h6.65c3.163 0 4.816 1.055 4.816 3.362a3.1 3.1 0 0 1-2.662 3.076v.056a3.277 3.277 0 0 1 3.2 3.311c0 2.029-1.478 3.782-5.154 3.782zm2.155-1.544h4.253c2.64 0 3.34-1.034 3.34-2.352 0-1.561-1.076-2.425-3.454-2.425h-4.144zm0-6.321h4.388c1.631 0 2.833-.621 2.833-2.068 0-1.264-.594-2.107-3.082-2.107h-4.144zm-6.717 7.862l-7.915-7.276v7.279h-2.16V2.782h2.16v6.079l7.271-6.079h3.057l-7.683 6.135 8.321 7.449zm21.409-.063v-5.825h11.438V16.3zm1.691-1.489h8.06v-2.855h-8.06zm41.8 1.468V11.4h1.662v1h8.233v-1h1.671v4.878zm1.662-1.443h8.237v-1.028h-8.237zm-17.144.252v-1.463h10V4.493h-9.052V3.029H105.5v10.6h1.273v1.463zm20.477-3.122v-1.208h-6.136V9.3H122v1.457h-5.993v1.207zm-49.7-3.154V7.338h10.88V4.257H65.87V2.792h11.29v4.536h1.285v1.483zm44.742-.212V4.987h9.762v-.745h-9.762V2.806h11.42v3.57h-9.765v.787h9.8V8.6zm-27.94-3.8c0-1.935 2.294-2.887 5.124-2.887s5.122.952 5.122 2.887-2.293 2.885-5.125 2.885-5.121-.967-5.121-2.885zm1.775 0c0 1 1.494 1.449 3.343 1.449S89.839 5.8 89.839 4.8s-1.5-1.448-3.341-1.448-3.344.455-3.344 1.448zM43.723 2.778z" class="cls-1" data-name="@logo_kbfg" transform="translate(.573 .493)"/>
</svg>
