<svg xmlns="http://www.w3.org/2000/svg" width="22.16" height="18" viewBox="0 0 22.16 18">
    <defs>
        <style>
            .cls-1{fill:#010002}
        </style>
    </defs>
    <g id="twitter-logo-silhouette" transform="translate(-.001 -57.441)">
        <g id="그룹_398" data-name="그룹 398" transform="translate(.001 57.441)">
            <path id="패스_885" d="M22.161 59.571a9.078 9.078 0 0 1-2.61.716 4.565 4.565 0 0 0 2-2.513 9.164 9.164 0 0 1-2.889 1.1 4.549 4.549 0 0 0-7.746 4.144 12.906 12.906 0 0 1-9.369-4.75 4.551 4.551 0 0 0 1.405 6.072 4.546 4.546 0 0 1-2.059-.57v.057a4.55 4.55 0 0 0 3.646 4.457 4.6 4.6 0 0 1-1.2.159 4.363 4.363 0 0 1-.856-.084 4.548 4.548 0 0 0 4.246 3.157 9.121 9.121 0 0 1-5.646 1.943A9.663 9.663 0 0 1 0 73.4a12.85 12.85 0 0 0 6.968 2.045A12.844 12.844 0 0 0 19.9 62.508l-.015-.589a9.078 9.078 0 0 0 2.276-2.348z" class="cls-1" data-name="패스 885" transform="translate(-.001 -57.441)"/>
        </g>
    </g>
</svg>
