<svg xmlns="http://www.w3.org/2000/svg" width="18" height="18" viewBox="0 0 18 18">
    <defs>
        <style>
            .cls-1{fill:#030104}
        </style>
    </defs>
    <g id="web-link">
        <g id="그룹_399" data-name="그룹 399">
            <path id="패스_886" d="M6.592 14.281l-.911.9a2.038 2.038 0 0 1-2.863 0 1.981 1.981 0 0 1 0-2.816l3.353-3.322c.695-.689 2-1.7 2.954-.759A1.115 1.115 0 0 0 10.7 6.7c-1.619-1.607-4.013-1.31-6.1.758l-3.353 3.329a4.209 4.209 0 0 0 0 5.982 4.276 4.276 0 0 0 6.005 0l.911-.9a1.115 1.115 0 0 0-1.572-1.582zM16.752 1.36a3.984 3.984 0 0 0-5.781-.222L9.836 2.265a1.115 1.115 0 1 0 1.572 1.583l1.135-1.126a1.807 1.807 0 0 1 2.639.222 1.98 1.98 0 0 1 0 2.816L11.6 9.308c-1.636 1.623-2.4.861-2.73.536a1.115 1.115 0 1 0-1.57 1.582 3.517 3.517 0 0 0 2.506 1.115 4.911 4.911 0 0 0 3.367-1.651l3.577-3.548a4.209 4.209 0 0 0 0-5.982z" class="cls-1" data-name="패스 886"/>
        </g>
    </g>
</svg>
