<svg xmlns="http://www.w3.org/2000/svg" width="45.75" height="779.964" viewBox="0 0 45.75 779.964">
  <g id="arrow" transform="translate(0.75 0.75)">
    <g id="그룹_29950" data-name="그룹 29950" transform="translate(-3 0)">
      <path id="패스_233" data-name="패스 233" d="M533.9,20.852H9.635A10.311,10.311,0,0,1-.75,10.642V-3A.75.75,0,0,1,0-3.75.75.75,0,0,1,.75-3V10.642a8.809,8.809,0,0,0,8.885,8.711H533.9a.75.75,0,0,1,0,1.5Z" transform="translate(23.102) rotate(90)" fill="#242424"/>
      <path id="패스_28437" data-name="패스 28437" d="M0,26.852a.75.75,0,0,1-.75-.75V12.461A10.311,10.311,0,0,1,9.635,2.25H76.351a.75.75,0,0,1,0,1.5H9.635A8.809,8.809,0,0,0,.75,12.461V26.1A.75.75,0,0,1,0,26.852Z" transform="translate(0 611.213) rotate(-90)" fill="#242424"/>
    </g>
    <path id="패스_28439" data-name="패스 28439" d="M0,23.852a.75.75,0,0,1-.75-.75V9.461A10.311,10.311,0,0,1,9.635-.75H162.047a.75.75,0,0,1,.75.75.75.75,0,0,1-.75.75H9.635A8.809,8.809,0,0,0,.75,9.461V23.1A.75.75,0,0,1,0,23.852Z" transform="translate(12 773.261) rotate(-90)" fill="#242424"/>
    <circle id="타원_1609" data-name="타원 1609" cx="6" cy="6" r="6" transform="translate(33 767.214)" fill="#018c4d"/>
  </g>
</svg>
