<?xml version="1.0" encoding="utf-8"?>
<!-- Generator: Adobe Illustrator 27.0.1, SVG Export Plug-In . SVG Version: 6.00 Build 0)  -->
<svg version="1.1" id="Layer_1" xmlns="http://www.w3.org/2000/svg" xmlns:xlink="http://www.w3.org/1999/xlink" x="0px" y="0px"
	 viewBox="0 0 20 20" style="enable-background:new 0 0 20 20;" xml:space="preserve">
<style type="text/css">
	.st0{fill:#014BB4;}
</style>
<g id="_" transform="translate(-1064.051 -2901.075)">
	<g id="패스_6545">
		<path class="st0" d="M1082,2909.2h-15.9c-0.6,0-1-0.4-1-1s0.4-1,1-1h13.5l-3.8-3.8c-0.4-0.4-0.4-1,0-1.4s1-0.4,1.4,0l5.5,5.5
			c0.3,0.3,0.4,0.7,0.2,1.1C1082.8,2909,1082.4,2909.2,1082,2909.2z"/>
	</g>
	<g id="패스_6569">
		<path class="st0" d="M1071.6,2920.5c-0.3,0-0.5-0.1-0.7-0.3l-5.5-5.5c-0.3-0.3-0.4-0.7-0.2-1.1s0.5-0.6,0.9-0.6h15.9
			c0.6,0,1,0.4,1,1s-0.4,1-1,1h-13.5l3.8,3.8c0.4,0.4,0.4,1,0,1.4C1072.1,2920.4,1071.8,2920.5,1071.6,2920.5z"/>
	</g>
</g>
</svg>
