<svg xmlns="http://www.w3.org/2000/svg" width="80.75" height="648.815" viewBox="0 0 80.75 648.815">
  <g id="arrow" transform="translate(-32.25 160.964)">
    <path id="패스_28440" data-name="패스 28440" d="M533.9,17.852H9.635A10.311,10.311,0,0,1-.75,7.642V1.19A.75.75,0,0,1,0,.44a.75.75,0,0,1,.75.75V7.642a8.809,8.809,0,0,0,8.885,8.711H533.9a.75.75,0,0,1,0,1.5Z" transform="translate(50.102 -160.214) rotate(90)" fill="#242424"/>
    <path id="패스_28441" data-name="패스 28441" d="M0,78.25a.75.75,0,0,1-.75-.75V15.461A10.311,10.311,0,0,1,9.635,5.25H110.189a.75.75,0,0,1,0,1.5H9.635A8.809,8.809,0,0,0,.75,15.461V77.5A.75.75,0,0,1,0,78.25Z" transform="translate(27 483.689) rotate(-90)" fill="#242424"/>
    <circle id="타원_1610" data-name="타원 1610" cx="6" cy="6" r="6" transform="translate(101 475.852)" fill="#018c4d"/>
  </g>
</svg>
