<svg xmlns="http://www.w3.org/2000/svg" xmlns:xlink="http://www.w3.org/1999/xlink" width="750" height="2278" viewBox="0 0 750 2278">
  <defs>
    <clipPath id="clip-path">
      <rect id="사각형_22602" data-name="사각형 22602" width="750" height="2278" transform="translate(-15 3525)" fill="#f6fbf1"/>
    </clipPath>
  </defs>
  <g id="bg" transform="translate(15 -3525)" clip-path="url(#clip-path)">
    <path id="web_bg" data-name="web bg" d="M396.993,835.77c-62.368-62.7-78.167-147.812-48.285-242.82,28.232-91.11,45.253-168.937-13.147-232.807-41.934-46.059-96.836-64.025-193.383-61.761C67.4,300.8-.335,245.2,0,170.4c-.091-35.575,14.83-66.857,40.473-92.912,28.612-29.17,71.334-51.4,121.689-63.415,110.184-27.54,257.364-25.293,435.078,106.053,11.948,8.2,45.123,32.407,83.679,72.893l1.677,1.509c53.055,56.115,102.451,129.8,128.811,214.055,32.042,100.947,46.232,279.157-90.065,416.194-47.9,48.157-110.321,76.281-173.066,76.278C495.206,901.047,441.9,880.92,396.993,835.77Z" transform="translate(944.5 5450.465) rotate(150)" fill="#f9fcf6"/>
    <ellipse id="타원_1601" data-name="타원 1601" cx="165" cy="164.5" rx="165" ry="164.5" transform="translate(465 3535)" fill="#f9fcf6"/>
  </g>
</svg>
