<svg xmlns="http://www.w3.org/2000/svg" xmlns:xlink="http://www.w3.org/1999/xlink" width="1920" height="2278" viewBox="0 0 1920 2278">
  <defs>
    <clipPath id="clip-path">
      <rect id="사각형_22602" data-name="사각형 22602" width="1920" height="2278" transform="translate(-15 3525)" fill="#f6fbf1"/>
    </clipPath>
  </defs>
  <g id="bg" transform="translate(15 -3525)" clip-path="url(#clip-path)">
    <path id="web_bg" data-name="web bg" d="M828.293,1742.67C698.2,1611.912,665.213,1434.461,727.484,1236.4c58.833-189.94,94.292-352.193-27.526-485.382-87.472-96.048-201.975-133.531-403.316-128.856C140.7,627.161-.584,511.2.083,355.254c-.206-74.169,30.895-139.381,84.36-193.691C144.1,100.761,233.181,54.424,338.187,29.408,567.956-27.958,874.89-23.2,1245.561,250.721c24.92,17.105,94.115,67.585,174.541,152.012l3.5,3.146c110.668,117.019,213.714,270.664,268.727,446.34,66.869,210.477,96.545,582.031-187.627,867.674-99.863,100.38-230.031,158.985-360.88,158.949C1033.138,1878.811,921.963,1836.823,828.293,1742.67Z" transform="translate(2128.134 5194.91) rotate(150)" fill="#f9fcf6"/>
    <ellipse id="타원_1601" data-name="타원 1601" cx="344.179" cy="344" rx="344.179" ry="344" transform="translate(1222.645 3683)" fill="#f9fcf6"/>
  </g>
</svg>
