<svg width="130" height="127" viewBox="0 0 130 127" fill="none" xmlns="http://www.w3.org/2000/svg">
<path d="M130 63.3611C130 68.0586 122.828 71.9173 121.819 76.3073C120.782 80.865 125.545 87.408 123.556 91.5184C121.539 95.6847 113.414 96.0482 110.556 99.6273C107.67 103.234 109.127 111.203 105.513 114.083C101.927 116.936 94.4461 113.776 90.2716 115.789C86.153 117.774 83.9957 125.604 79.4569 126.638C75.0582 127.645 69.7069 121.549 65 121.549C60.2931 121.549 54.9418 127.645 50.5431 126.638C45.9763 125.604 43.819 117.774 39.7284 115.789C35.5539 113.776 28.0733 116.963 24.4871 114.083C20.8728 111.203 22.3297 103.234 19.444 99.6273C16.5862 96.0482 8.46121 95.6847 6.44397 91.5184C4.45474 87.408 9.21767 80.865 8.18103 76.3073C7.17241 71.9173 0 68.0866 0 63.3611C0 58.6355 7.17241 54.8048 8.18103 50.4148C9.21767 45.8571 4.45474 39.3141 6.44397 35.2037C8.46121 31.0374 16.5862 30.6739 19.444 27.0948C22.3297 23.4878 20.8728 15.5187 24.4871 12.6387C28.0733 9.7866 35.5539 12.9463 39.7284 10.933C43.847 8.94775 46.0043 1.1185 50.5431 0.0839157C54.9418 -0.922702 60.2931 5.17293 65 5.17293C69.7069 5.17293 75.0582 -0.922702 79.4569 0.0839157C84.0237 1.1185 86.181 8.94775 90.2716 10.933C94.4461 12.9463 101.927 9.75864 105.513 12.6387C109.127 15.5187 107.67 23.4878 110.556 27.0948C113.414 30.6739 121.539 31.0374 123.556 35.2037C125.545 39.3141 120.782 45.8571 121.819 50.4148C122.828 54.8328 130 58.6635 130 63.3611Z" fill="#FFC33F"/>
</svg>
