<?xml version="1.0" encoding="utf-8"?>
<!-- Generator: Adobe Illustrator 27.5.0, SVG Export Plug-In . SVG Version: 6.00 Build 0)  -->
<svg version="1.1" id="Layer_1" xmlns="http://www.w3.org/2000/svg" xmlns:xlink="http://www.w3.org/1999/xlink" x="0px" y="0px"
	 viewBox="0 0 302 302" style="enable-background:new 0 0 302 302;" xml:space="preserve">
<style type="text/css">
	.st0{fill:#2A81EB;}
	.st1{fill:#1B1B1B;}
</style>
<g id="콘텐츠제작" transform="translate(-460.256 -4096.038)">
	<circle id="타원_1449" class="st0" cx="611.5" cy="4247.2" r="150"/>
	<path id="패스_28259" class="st1" d="M621,4097.1c5.7,0.3,11.4,0.9,17.1,1.8c14.8,2.4,29.2,7,42.7,13.7c0.5,0.2,0.7,0.8,0.5,1.3
		c-0.2,0.5-0.8,0.7-1.3,0.5c-18.5-9.1-38.6-14.4-59.2-15.5c-39.7-2.1-78.5,11.7-108.1,38.2c-61.1,54.4-66.5,148.1-12,209.2
		c0.4,0.4,0.7,0.8,1.1,1.2c0.4,0.4,0.3,1-0.1,1.4c-0.4,0.4-1,0.3-1.4-0.1c-6.9-7.6-13-15.9-18.2-24.7c-10.1-17-16.7-35.8-19.4-55.3
		c-2.7-19.2-1.7-38.8,3-57.6c4.8-19.2,13.3-37.2,25.1-53c24.7-33.2,61.9-55,103-60.2C602.7,4097,611.9,4096.6,621,4097.1z"/>
</g>
</svg>
