<?xml version="1.0" encoding="utf-8"?>
<!-- Generator: Adobe Illustrator 27.5.0, SVG Export Plug-In . SVG Version: 6.00 Build 0)  -->
<svg version="1.1" id="Layer_1" xmlns="http://www.w3.org/2000/svg" xmlns:xlink="http://www.w3.org/1999/xlink" x="0px" y="0px"
	 viewBox="0 0 302 302" style="enable-background:new 0 0 302 302;" xml:space="preserve">
<style type="text/css">
	.st0{fill:#2A81EB;}
	.st1{fill:#1B1B1B;}
</style>
<g id="UX_라이팅" transform="translate(-1242.737 -4104)">
	<circle id="타원_1450" class="st0" cx="1393.7" cy="4254.6" r="150"/>
	<path id="패스_28261" class="st1" d="M1245.8,4282.3c0.3-0.5,0.9-0.6,1.4-0.3c0.2,0.1,0.4,0.4,0.4,0.6
		c15.2,80.4,92.6,133.3,173,118.1c0.5-0.1,1.1-0.2,1.6-0.3c39-7.6,73.3-30.4,95.5-63.3c11.5-17.1,19.4-36.3,23.2-56.6
		c0.1-0.5,0.6-0.9,1.2-0.8c0.5,0.1,0.9,0.6,0.8,1.2c-5.7,29.6-19.9,56.8-40.9,78.3c-28.9,29.6-68.6,46.3-110,46
		c-19.7-0.1-39.2-4.2-57.4-11.9c-17.9-7.6-34.1-18.5-47.8-32.2c-13.9-14-25-30.5-32.5-48.8c-3.9-9.5-6.8-19.3-8.7-29.4
		C1245.6,4282.8,1245.6,4282.6,1245.8,4282.3z"/>
</g>
</svg>
