<svg width="180" height="176" viewBox="0 0 180 176" fill="none" xmlns="http://www.w3.org/2000/svg">
<path d="M180 87.7306C180 94.2349 170.069 99.5777 168.672 105.656C167.237 111.967 173.832 121.026 171.078 126.718C168.284 132.486 157.034 132.99 153.078 137.945C149.082 142.94 151.099 153.974 146.095 157.962C141.129 161.911 130.772 157.536 124.991 160.323C119.289 163.072 116.302 173.913 110.017 175.345C103.927 176.739 96.5172 168.299 90 168.299C83.4828 168.299 76.0733 176.739 69.9828 175.345C63.6595 173.913 60.6724 163.072 55.0086 160.323C49.2285 157.536 38.8707 161.949 33.9052 157.962C28.9009 153.974 30.9181 142.94 26.9224 137.945C22.9655 132.99 11.7155 132.486 8.92241 126.718C6.1681 121.026 12.7629 111.967 11.3276 105.656C9.93104 99.5777 0 94.2736 0 87.7306C0 81.1876 9.93104 75.8835 11.3276 69.8051C12.7629 63.4943 6.1681 54.4348 8.92241 48.7435C11.7155 42.9748 22.9655 42.4715 26.9224 37.5158C30.9181 32.5215 28.9009 21.4874 33.9052 17.4996C38.8707 13.5506 49.2285 17.9255 55.0086 15.1379C60.7112 12.3891 63.6983 1.54859 69.9828 0.116097C76.0733 -1.27768 83.4828 7.16242 90 7.16242C96.5172 7.16242 103.927 -1.27768 110.017 0.116097C116.341 1.54859 119.328 12.3891 124.991 15.1379C130.772 17.9255 141.129 13.5119 146.095 17.4996C151.099 21.4874 149.082 32.5215 153.078 37.5158C157.034 42.4715 168.284 42.9748 171.078 48.7435C173.832 54.4348 167.237 63.4943 168.672 69.8051C170.069 75.9222 180 81.2263 180 87.7306Z" fill="#FF4D4D"/>
</svg>
