<?xml version="1.0" encoding="utf-8"?>
<!-- Generator: Adobe Illustrator 27.5.0, SVG Export Plug-In . SVG Version: 6.00 Build 0)  -->
<svg version="1.1" id="Layer_1" xmlns="http://www.w3.org/2000/svg" xmlns:xlink="http://www.w3.org/1999/xlink" x="0px" y="0px"
	 viewBox="0 0 302 302" style="enable-background:new 0 0 302 302;" xml:space="preserve">
<style type="text/css">
	.st0{fill:#2A81EB;}
	.st1{fill:#1B1B1B;}
</style>
<g id="SEO_컨설팅" transform="translate(-442.737 -4043.527)">
	<circle id="타원_1449" class="st0" cx="593.7" cy="4195.4" r="150"/>
	<path id="패스_28260" class="st1" d="M719.4,4111c3.2,4.7,6.1,9.7,8.8,14.7c7,13.3,11.9,27.5,14.7,42.3c0.1,0.5-0.3,1.1-0.8,1.2
		c-0.5,0.1-1.1-0.3-1.2-0.8c-3.8-20.2-11.7-39.5-23.2-56.6c-22.2-32.9-56.5-55.7-95.5-63.3c-80.2-16.1-158.2,35.9-174.3,116.1
		c-0.1,0.5-0.2,1.1-0.3,1.6c-0.1,0.5-0.6,0.9-1.2,0.8c-0.5-0.1-0.9-0.6-0.8-1.2c1.9-10.1,4.8-19.9,8.7-29.4
		c7.5-18.2,18.6-34.8,32.5-48.8c13.7-13.7,29.9-24.7,47.8-32.2c18.2-7.7,37.7-11.7,57.4-11.8c41.4-0.3,81.1,16.4,110,46.1
		C708.5,4096.3,714.2,4103.4,719.4,4111z"/>
</g>
</svg>
