<?xml version="1.0" encoding="utf-8"?>
<!-- Generator: Adobe Illustrator 27.5.0, SVG Export Plug-In . SVG Version: 6.00 Build 0)  -->
<svg version="1.1" id="Layer_1" xmlns="http://www.w3.org/2000/svg" xmlns:xlink="http://www.w3.org/1999/xlink" x="0px" y="0px"
	 viewBox="0 0 302 302" style="enable-background:new 0 0 302 302;" xml:space="preserve">
<style type="text/css">
	.st0{fill:#2A81EB;}
	.st1{fill:#1B1B1B;}
</style>
<g id="접근성_컨설팅" transform="translate(-1266 -4104)">
	<circle id="타원_1450" class="st0" cx="1416.4" cy="4254.6" r="150"/>
	<path id="패스_28258" class="st1" d="M1420.8,4405.4c-5.7,0.2-11.4,0.1-17.2-0.4c-15-1.1-29.7-4.5-43.7-9.9
		c-0.5-0.2-0.8-0.8-0.6-1.3c0.2-0.5,0.8-0.8,1.3-0.6l0,0c19.2,7.5,39.7,11,60.3,10.3c39.7-1.4,77.1-18.5,104.3-47.4
		c56.1-59.5,53.3-153.2-6.2-209.3c-0.4-0.4-0.8-0.7-1.2-1.1c-0.4-0.4-0.4-1-0.1-1.4c0.4-0.4,1-0.4,1.4-0.1c7.5,7,14.3,14.7,20.3,23
		c11.5,16,19.7,34.2,24.2,53.4c4.4,18.9,5.1,38.4,2,57.6c-3.1,19.5-10,38.2-20.4,54.9c-21.7,35.2-56.8,60.1-97.3,68.9
		C1439.1,4403.9,1430,4405,1420.8,4405.4z"/>
</g>
</svg>
