<svg id="_7" data-name="7" xmlns="http://www.w3.org/2000/svg" xmlns:xlink="http://www.w3.org/1999/xlink" width="80" height="80" viewBox="0 0 80 80">
  <defs>
    <clipPath id="clip-path">
      <rect id="사각형_22134" data-name="사각형 22134" width="80" height="80" fill="none"/>
    </clipPath>
  </defs>
  <g id="그룹_688" data-name="그룹 688" clip-path="url(#clip-path)">
    <path id="패스_6220" data-name="패스 6220" d="M21.145,20.083V63.237c5.759,0,7.532-.1,9.56,3.319s3.8,3.32,9.56,3.32H53.879A4.981,4.981,0,0,0,58.858,64.9V20.083" fill="#97d7df"/>
    <path id="패스_6221" data-name="패스 6221" d="M21.145,57.6a1,1,0,0,1-1-1V20.083a1,1,0,1,1,2,0V56.6A1,1,0,0,1,21.145,57.6Z" fill="#606563"/>
    <path id="패스_6222" data-name="패스 6222" d="M39.367,70.876c-5.127,0-7.316-.1-9.522-3.808-1.681-2.834-2.937-2.834-8.223-2.831h-.478a1,1,0,0,1,0-2h.477c5.433,0,7.682,0,9.944,3.81,1.683,2.832,2.939,2.832,8.222,2.829H53.879A3.984,3.984,0,0,0,57.858,64.9V20.083a1,1,0,0,1,2,0V64.9a5.986,5.986,0,0,1-5.979,5.979H39.367Z" fill="#606563"/>
    <path id="선_140" data-name="선 140" d="M46.473,1H0A1,1,0,0,1-1,0,1,1,0,0,1,0-1H46.473a1,1,0,0,1,1,1A1,1,0,0,1,46.473,1Z" transform="translate(16.764 20.083)" fill="#606563"/>
    <path id="패스_6223" data-name="패스 6223" d="M30.413,45.151a9.589,9.589,0,1,1,19.177,0" fill="#ffcb69"/>
    <path id="패스_6224" data-name="패스 6224" d="M49.59,46.151a1,1,0,0,1-1-1,8.589,8.589,0,1,0-17.177,0,1,1,0,0,1-2,0,10.589,10.589,0,1,1,21.177,0A1,1,0,0,1,49.59,46.151Z" fill="#606563"/>
    <path id="패스_6225" data-name="패스 6225" d="M45.166,30.4A5.164,5.164,0,1,1,40,25.233,5.167,5.167,0,0,1,45.166,30.4" fill="#ffcb69"/>
    <path id="패스_6226" data-name="패스 6226" d="M40,36.563A6.165,6.165,0,1,1,46.166,30.4,6.17,6.17,0,0,1,40,36.563Zm0-10.33A4.165,4.165,0,1,0,44.166,30.4,4.168,4.168,0,0,0,40,26.233Z" fill="#606563"/>
    <path id="패스_6227" data-name="패스 6227" d="M64.9,31.041H58.858a1,1,0,0,1,0-2H64.9a3.983,3.983,0,0,0,3.979-3.979V10.124a1,1,0,1,1,2,0V25.062A5.986,5.986,0,0,1,64.9,31.041Z" fill="#606563"/>
    <path id="패스_6228" data-name="패스 6228" d="M21.142,31.041H15.1a5.986,5.986,0,0,1-5.979-5.979V10.124a1,1,0,1,1,2,0V25.062A3.984,3.984,0,0,0,15.1,29.041h6.038a1,1,0,0,1,0,2Z" fill="#606563"/>
    <path id="선_141" data-name="선 141" d="M19.917,1H0A1,1,0,0,1-1,0,1,1,0,0,1,0-1H19.917a1,1,0,0,1,1,1A1,1,0,0,1,19.917,1Z" transform="translate(30.051 51.79)" fill="#606563"/>
    <path id="선_142" data-name="선 142" d="M19.917,1H0A1,1,0,0,1-1,0,1,1,0,0,1,0-1H19.917a1,1,0,0,1,1,1A1,1,0,0,1,19.917,1Z" transform="translate(30.051 58.429)" fill="#606563"/>
  </g>
</svg>
