<svg id="_2" data-name="2" xmlns="http://www.w3.org/2000/svg" xmlns:xlink="http://www.w3.org/1999/xlink" width="80" height="80" viewBox="0 0 80 80">
  <defs>
    <clipPath id="clip-path">
      <rect id="사각형_22128" data-name="사각형 22128" width="80" height="80" fill="none"/>
    </clipPath>
  </defs>
  <g id="그룹_680" data-name="그룹 680" clip-path="url(#clip-path)">
    <path id="패스_6190" data-name="패스 6190" d="M14.74,39.425V37.844a4.735,4.735,0,0,1,4.733-4.736H66.842a4.733,4.733,0,0,1,4.736,4.736v21.69a4.737,4.737,0,0,1-4.736,4.736H65.264" fill="#ffcb69"/>
    <path id="패스_6191" data-name="패스 6191" d="M66.842,65.27H65.264a1,1,0,1,1,0-2h1.578a3.74,3.74,0,0,0,3.736-3.736V37.844a3.74,3.74,0,0,0-3.736-3.736H19.473a3.739,3.739,0,0,0-3.733,3.736v1.581a1,1,0,0,1-2,0V37.844a5.741,5.741,0,0,1,5.733-5.736H66.842a5.743,5.743,0,0,1,5.736,5.736v21.69A5.742,5.742,0,0,1,66.842,65.27Z" fill="#606563"/>
    <path id="패스_6192" data-name="패스 6192" d="M8.422,64.686c5.48,0,7.171-.093,9.1,3.159S21.143,71,26.616,71H60.527a4.734,4.734,0,0,0,4.737-4.736V44.16a4.734,4.734,0,0,0-4.737-4.736H13.162a4.738,4.738,0,0,0-4.74,4.736V64.686Z" fill="#97d7df"/>
    <path id="패스_6193" data-name="패스 6193" d="M25.809,72c-4.933,0-7.035-.087-9.15-3.644a4.359,4.359,0,0,0-2.539-2.321,20.4,20.4,0,0,0-5.254-.349H8.422a1,1,0,1,1,0-2h.444c5.2,0,7.35,0,9.513,3.65C19.917,69.921,20.952,70,26.189,70H60.527a3.741,3.741,0,0,0,3.737-3.736V44.16a3.741,3.741,0,0,0-3.737-3.736H13.162a3.742,3.742,0,0,0-3.74,3.736V58.372a1,1,0,0,1-2,0V44.16a5.744,5.744,0,0,1,5.74-5.736H60.527a5.743,5.743,0,0,1,5.737,5.736v22.1A5.743,5.743,0,0,1,60.527,72H25.809Z" fill="#606563"/>
    <path id="패스_6194" data-name="패스 6194" d="M38.266,17.33a1,1,0,0,1-.784-.378l-5.041-6.345L27.4,16.952a1,1,0,1,1-1.566-1.244l5.825-7.33A1,1,0,0,1,32.441,8h0a1,1,0,0,1,.783.378l5.824,7.33a1,1,0,0,1-.782,1.622Z" fill="#606563"/>
    <path id="선_123" data-name="선 123" d="M0,17.362a1,1,0,0,1-1-1V0A1,1,0,0,1,0-1,1,1,0,0,1,1,0V16.362A1,1,0,0,1,0,17.362Z" transform="translate(32.441 9.465)" fill="#606563"/>
    <path id="패스_6195" data-name="패스 6195" d="M47.558,28.332h0a1,1,0,0,1-.783-.378l-5.824-7.33a1,1,0,1,1,1.566-1.244l5.041,6.345L52.6,19.38a1,1,0,1,1,1.566,1.244l-5.825,7.33A1,1,0,0,1,47.558,28.332Z" fill="#606563"/>
    <path id="선_124" data-name="선 124" d="M0,17.362a1,1,0,0,1-1-1V0A1,1,0,0,1,0-1,1,1,0,0,1,1,0V16.362A1,1,0,0,1,0,17.362Z" transform="translate(47.558 10.504)" fill="#606563"/>
    <path id="패스_6196" data-name="패스 6196" d="M32.516,62.553h0a1,1,0,0,1-.946-.678L27.25,49.194a1,1,0,1,1,1.893-.645l3.373,9.9L35.9,48.549a1,1,0,0,1,1.893,0l3.371,9.9,3.372-9.9a1,1,0,1,1,1.893.645L42.109,61.875a1,1,0,0,1-.947.678h0a1,1,0,0,1-.947-.678l-3.373-9.9-3.381,9.905A1,1,0,0,1,32.516,62.553Z" fill="#606563"/>
    <path id="선_125" data-name="선 125" d="M4.275,1H0A1,1,0,0,1-1,0,1,1,0,0,1,0-1H4.275a1,1,0,0,1,1,1A1,1,0,0,1,4.275,1Z" transform="translate(43.98 53.292)" fill="#606563"/>
    <path id="선_126" data-name="선 126" d="M4.279,1H0A1,1,0,0,1-1,0,1,1,0,0,1,0-1H4.279a1,1,0,0,1,1,1A1,1,0,0,1,4.279,1Z" transform="translate(25.43 53.292)" fill="#606563"/>
  </g>
</svg>
