<svg id="_8" data-name="8" xmlns="http://www.w3.org/2000/svg" xmlns:xlink="http://www.w3.org/1999/xlink" width="80" height="80" viewBox="0 0 80 80">
  <defs>
    <clipPath id="clip-path">
      <rect id="사각형_22135" data-name="사각형 22135" width="80" height="80" fill="none"/>
    </clipPath>
  </defs>
  <g id="그룹_690" data-name="그룹 690" clip-path="url(#clip-path)">
    <path id="패스_6229" data-name="패스 6229" d="M60.15,71a4.651,4.651,0,0,0,4.65-4.65V33.821H55.5V71h4.808" fill="#ffcb69"/>
    <path id="패스_6230" data-name="패스 6230" d="M55.5,66.349V13.65A4.651,4.651,0,0,0,50.85,9h-31A4.652,4.652,0,0,0,15.2,13.65V64.8c5.379,0,7.034-.093,8.928,3.1S27.681,71,33.056,71H60.15" fill="#97d7df"/>
    <path id="패스_6231" data-name="패스 6231" d="M30.86,32.738h0a1,1,0,0,1-.946-.678L25.432,18.9a1,1,0,1,1,1.893-.645l3.536,10.382,3.544-10.382a1,1,0,0,1,1.893,0l3.535,10.379,3.534-10.379a1,1,0,0,1,1.893.645L40.78,32.06a1,1,0,0,1-1.893,0L35.35,21.678,31.807,32.061A1,1,0,0,1,30.86,32.738Z" fill="#606563"/>
    <path id="선_143" data-name="선 143" d="M4.437,1H0A1,1,0,0,1-1,0,1,1,0,0,1,0-1H4.437a1,1,0,0,1,1,1A1,1,0,0,1,4.437,1Z" transform="translate(42.756 23.167)" fill="#606563"/>
    <path id="선_144" data-name="선 144" d="M4.44,1H0A1,1,0,0,1-1,0,1,1,0,0,1,0-1H4.44a1,1,0,0,1,1,1A1,1,0,0,1,4.44,1Z" transform="translate(23.507 23.167)" fill="#606563"/>
    <path id="선_145" data-name="선 145" d="M26.173,1H0A1,1,0,0,1-1,0,1,1,0,0,1,0-1H26.173a1,1,0,0,1,1,1A1,1,0,0,1,26.173,1Z" transform="translate(22.263 41.318)" fill="#606563"/>
    <path id="선_146" data-name="선 146" d="M26.173,1H0A1,1,0,0,1-1,0,1,1,0,0,1,0-1H26.173a1,1,0,0,1,1,1A1,1,0,0,1,26.173,1Z" transform="translate(22.263 50.617)" fill="#606563"/>
    <path id="선_147" data-name="선 147" d="M16,1H0A1,1,0,0,1-1,0,1,1,0,0,1,0-1H16a1,1,0,0,1,1,1A1,1,0,0,1,16,1Z" transform="translate(32.436 59.916)" fill="#606563"/>
    <path id="패스_6232" data-name="패스 6232" d="M60.15,72a1,1,0,1,1,0-2,3.654,3.654,0,0,0,3.65-3.65V34.821H55.5a1,1,0,0,1,0-2h9.3a1,1,0,0,1,1,1V66.349A5.656,5.656,0,0,1,60.15,72Z" fill="#606563"/>
    <path id="패스_6233" data-name="패스 6233" d="M55.5,67.349a1,1,0,0,1-1-1V13.65A3.654,3.654,0,0,0,50.85,10h-31A3.654,3.654,0,0,0,16.2,13.65V58.6a1,1,0,1,1-2,0V13.65A5.656,5.656,0,0,1,19.85,8h31A5.656,5.656,0,0,1,56.5,13.65v52.7A1,1,0,0,1,55.5,67.349Z" fill="#606563"/>
    <path id="패스_6234" data-name="패스 6234" d="M60.15,72a5.656,5.656,0,0,1-5.65-5.65,1,1,0,0,1,2,0A3.654,3.654,0,0,0,60.15,70a1,1,0,0,1,0,2Z" fill="#606563"/>
    <path id="패스_6235" data-name="패스 6235" d="M32.219,72c-4.816,0-6.872-.09-8.951-3.59a4.269,4.269,0,0,0-2.481-2.27,19.962,19.962,0,0,0-5.143-.341H15.2a1,1,0,0,1,0-2h.443c5.1,0,7.213,0,9.345,3.59a4.274,4.274,0,0,0,2.482,2.269A19.947,19.947,0,0,0,32.612,70H60.15a1,1,0,0,1,0,2H32.219Z" fill="#606563"/>
  </g>
</svg>
