<svg id="_9" data-name="9" xmlns="http://www.w3.org/2000/svg" xmlns:xlink="http://www.w3.org/1999/xlink" width="80" height="80" viewBox="0 0 80 80">
  <defs>
    <clipPath id="clip-path">
      <rect id="사각형_22136" data-name="사각형 22136" width="80" height="80" fill="none"/>
    </clipPath>
  </defs>
  <g id="그룹_692" data-name="그룹 692" clip-path="url(#clip-path)">
    <path id="패스_6236" data-name="패스 6236" d="M13.443,59.917c11.515,0,15.061-.2,19.12,6.639s7.6,6.639,19.124,6.639h9.889a4.979,4.979,0,0,0,4.979-4.979V11.783A4.979,4.979,0,0,0,61.577,6.8H18.424a4.98,4.98,0,0,0-4.98,4.979V59.917Z" fill="#97d7df"/>
    <path id="패스_6237" data-name="패스 6237" d="M13.443,59.917c11.515,0,15.061-.2,19.12,6.639s7.6,6.639,19.124,6.639h9.889a4.979,4.979,0,0,0,4.979-4.979V11.783A4.979,4.979,0,0,0,61.577,6.8H18.424a4.98,4.98,0,0,0-4.98,4.979V59.917Z" fill="#97d7df"/>
    <path id="패스_6238" data-name="패스 6238" d="M13.445,54.278a1,1,0,0,1-1-1V11.784a5.986,5.986,0,0,1,5.979-5.979H61.578a5.986,5.986,0,0,1,5.979,5.979v16.77a1,1,0,0,1-2,0V11.784a3.984,3.984,0,0,0-3.979-3.979H18.424a3.984,3.984,0,0,0-3.979,3.979V53.278A1,1,0,0,1,13.445,54.278Z" fill="#606563"/>
    <path id="선_148" data-name="선 148" d="M24.9,1H0A1,1,0,0,1-1,0,1,1,0,0,1,0-1H24.9a1,1,0,0,1,1,1A1,1,0,0,1,24.9,1Z" transform="translate(21.743 37.492)" fill="#606563"/>
    <path id="선_149" data-name="선 149" d="M18.257,1H0A1,1,0,0,1-1,0,1,1,0,0,1,0-1H18.257a1,1,0,0,1,1,1A1,1,0,0,1,18.257,1Z" transform="translate(21.743 47.451)" fill="#606563"/>
    <path id="선_150" data-name="선 150" d="M18.808,1H0A1,1,0,0,1-1,0,1,1,0,0,1,0-1H18.808a1,1,0,0,1,1,1A1,1,0,0,1,18.808,1Z" transform="translate(21.193 16.75)" fill="#606563"/>
    <path id="패스_6239" data-name="패스 6239" d="M49.882,74.195c-5,0-8.384-.043-11.08-.87-2.936-.9-4.993-2.714-7.1-6.259-1.849-3.114-3.52-4.62-5.962-5.369-2.56-.786-6.056-.784-11.349-.781h-.95a1,1,0,0,1,0-2h.949c5.473,0,9.089,0,11.936.869,2.934.9,4.99,2.714,7.094,6.26,1.85,3.114,3.522,4.619,5.965,5.368,2.562.786,6.063.784,11.361.781H61.576a3.984,3.984,0,0,0,3.979-3.979V61.792a1,1,0,1,1,2,0v6.423a5.986,5.986,0,0,1-5.979,5.979H49.882Z" fill="#606563"/>
    <path id="패스_6240" data-name="패스 6240" d="M74.237,45.008a11,11,0,1,1-11-11,11,11,0,0,1,11,11" fill="#ffcb69"/>
    <path id="타원_131" data-name="타원 131" d="M11-1A12,12,0,0,1,23,11,12,12,0,0,1,11,23,12,12,0,0,1-1,11,12,12,0,0,1,11-1Zm0,22A10,10,0,1,0,1,11,10.011,10.011,0,0,0,11,21Z" transform="translate(52.237 34.008)" fill="#606563"/>
    <path id="패스_6241" data-name="패스 6241" d="M65.665,49.942h0a.75.75,0,0,1-.71-.508l-1.718-5.047-1.721,5.048a.75.75,0,0,1-1.42,0L57.666,42.3a.75.75,0,1,1,1.42-.484l1.721,5.049,1.721-5.049a.75.75,0,0,1,.71-.508h0a.75.75,0,0,1,.71.508l1.718,5.047,1.721-5.048a.75.75,0,1,1,1.42.484l-2.431,7.132A.75.75,0,0,1,65.665,49.942Z" fill="#606563"/>
    <path id="선_151" data-name="선 151" d="M2.4.75H0A.75.75,0,0,1-.75,0,.75.75,0,0,1,0-.75H2.4a.75.75,0,0,1,.75.75A.75.75,0,0,1,2.4.75Z" transform="translate(67.249 44.546)" fill="#606563"/>
    <path id="선_152" data-name="선 152" d="M2.4.75H0A.75.75,0,0,1-.75,0,.75.75,0,0,1,0-.75H2.4a.75.75,0,0,1,.75.75A.75.75,0,0,1,2.4.75Z" transform="translate(56.82 44.546)" fill="#606563"/>
  </g>
</svg>
