<svg id="아이콘" xmlns="http://www.w3.org/2000/svg" xmlns:xlink="http://www.w3.org/1999/xlink" width="130" height="130" viewBox="0 0 130 130">
  <defs>
    <clipPath id="clip-path">
      <rect id="사각형_22360" data-name="사각형 22360" width="130" height="130" fill="none"/>
    </clipPath>
  </defs>
  <g id="그룹_895" data-name="그룹 895" clip-path="url(#clip-path)">
    <path id="패스_6509" data-name="패스 6509" d="M96.281,87.344H33.718a22.344,22.344,0,0,1,0-44.688H96.281a22.344,22.344,0,0,1,0,44.688" fill="#ffcb69" fill-rule="evenodd"/>
    <path id="패스_6510" data-name="패스 6510" d="M96.282,88.969H33.719a23.969,23.969,0,0,1,0-47.938H96.282a23.969,23.969,0,0,1,0,47.938M33.719,44.281a20.719,20.719,0,0,0,0,41.438H96.282a20.719,20.719,0,0,0,0-41.438Z" fill="#333"/>
    <path id="패스_6511" data-name="패스 6511" d="M36.469,53.381c-6.734,0-12.194,4.311-12.194,9.633,0,3.418,2.261,6.419,5.658,8.132l-1.149,4.289a.353.353,0,0,0,.087.366.349.349,0,0,0,.249.1.343.343,0,0,0,.212-.081l4.941-3.338a15.445,15.445,0,0,0,2.2.161c6.734,0,12.195-4.311,12.195-9.632S43.2,53.381,36.469,53.381" fill="#333" fill-rule="evenodd"/>
    <path id="패스_6512" data-name="패스 6512" d="M58.939,71.014v6.22h-4.43V54.3h3.125l.546,1.456a6.29,6.29,0,0,1,4.673-1.942c4.339,0,6.4,3.246,6.371,8.495,0,5.492-3.185,9.011-7.737,9.011a9.7,9.7,0,0,1-2.548-.3m0-13.016v9.921a12.652,12.652,0,0,0,1.426.091c3.155,0,4.369-2.215,4.369-5.7,0-3.064-.819-4.915-3.337-4.915A5.762,5.762,0,0,0,58.939,58" fill="#333"/>
    <path id="패스_6513" data-name="패스 6513" d="M78.87,60.759h2.518v-.546c0-1.82-1.032-2.67-2.822-2.67a11.1,11.1,0,0,0-4.551,1.093L72.8,55.662a11.6,11.6,0,0,1,6.159-1.851c4.247,0,6.553,2.246,6.553,6.524V70.863H82.39l-.456-1.4a8.371,8.371,0,0,1-4.915,1.851c-3.246,0-5.067-1.942-5.067-5.219,0-3.489,2.428-5.34,6.918-5.34m2.518,5.856V63.581H79.355c-2.275,0-3.428.819-3.428,2.458,0,1.243.637,1.85,1.942,1.85a6.107,6.107,0,0,0,3.519-1.274" fill="#333"/>
    <path id="패스_6514" data-name="패스 6514" d="M98.924,69.163c-1.548,4.126-3.4,7.13-6.1,8.8L90.1,75.443a15.327,15.327,0,0,0,3.671-4.49L87.88,54.9l4.4-1.183,3.763,13.016,3.731-13.077,4.339,1.214Z" fill="#333"/>
  </g>
</svg>
