<svg id="아이콘" xmlns="http://www.w3.org/2000/svg" xmlns:xlink="http://www.w3.org/1999/xlink" width="130" height="130" viewBox="0 0 130 130">
  <defs>
    <clipPath id="clip-path">
      <rect id="사각형_22359" data-name="사각형 22359" width="130" height="130" fill="none"/>
    </clipPath>
  </defs>
  <g id="그룹_893" data-name="그룹 893" clip-path="url(#clip-path)">
    <path id="패스_6488" data-name="패스 6488" d="M11.375,71.052V42.018a7.66,7.66,0,0,1,7.661-7.661h91.928a7.66,7.66,0,0,1,7.661,7.661V87.982a7.661,7.661,0,0,1-7.661,7.661H30.527A15.322,15.322,0,0,0,15.2,80.321h-3.83Z" fill="#97d7df" fill-rule="evenodd"/>
    <path id="패스_6489" data-name="패스 6489" d="M110.964,97.268H30.526A1.624,1.624,0,0,1,28.9,95.643a13.712,13.712,0,0,0-13.7-13.7H11.376a1.625,1.625,0,0,1,0-3.25H15.2A16.971,16.971,0,0,1,32.074,94.018h78.89A6.043,6.043,0,0,0,117,87.981V42.017a6.043,6.043,0,0,0-6.037-6.035H19.036A6.041,6.041,0,0,0,13,42.017V71.052a1.625,1.625,0,0,1-3.25,0V42.017a9.3,9.3,0,0,1,9.285-9.285h91.928a9.3,9.3,0,0,1,9.287,9.285V87.981a9.3,9.3,0,0,1-9.287,9.287" fill="#333"/>
    <path id="패스_6490" data-name="패스 6490" d="M47.972,55.5a6.7,6.7,0,1,1-6.7-6.7,6.7,6.7,0,0,1,6.7,6.7" fill="#ffcb69" fill-rule="evenodd"/>
    <path id="패스_6491" data-name="패스 6491" d="M41.27,63.825A8.328,8.328,0,1,1,49.6,55.5a8.336,8.336,0,0,1-8.328,8.328m0-13.406A5.078,5.078,0,1,0,46.348,55.5a5.084,5.084,0,0,0-5.078-5.078" fill="#333"/>
    <path id="패스_6492" data-name="패스 6492" d="M29.778,73.692a11.491,11.491,0,1,1,22.982,0" fill="#ffcb69" fill-rule="evenodd"/>
    <path id="패스_6493" data-name="패스 6493" d="M52.761,75.317a1.624,1.624,0,0,1-1.625-1.625,9.867,9.867,0,0,0-19.733,0,1.625,1.625,0,0,1-3.25,0,13.117,13.117,0,0,1,26.233,0,1.624,1.624,0,0,1-1.625,1.625" fill="#333"/>
    <line id="선_197" data-name="선 197" y2="5.46" transform="translate(63.7 56.304)" fill="#333"/>
    <path id="패스_6494" data-name="패스 6494" d="M63.7,63.389a1.625,1.625,0,0,1-1.625-1.625V56.3a1.625,1.625,0,1,1,3.25,0v5.46A1.625,1.625,0,0,1,63.7,63.389" fill="#333"/>
    <line id="선_198" data-name="선 198" x2="5.193" y2="1.687" transform="translate(58.507 60.077)" fill="#333"/>
    <path id="패스_6495" data-name="패스 6495" d="M63.7,63.39a1.614,1.614,0,0,1-.5-.08l-5.193-1.687a1.625,1.625,0,1,1,1-3.091L64.2,60.219a1.625,1.625,0,0,1-.5,3.171" fill="#333"/>
    <line id="선_199" data-name="선 199" y1="4.417" x2="3.209" transform="translate(60.49 61.765)" fill="#333"/>
    <path id="패스_6496" data-name="패스 6496" d="M60.489,67.807a1.625,1.625,0,0,1-1.312-2.581l3.208-4.417a1.624,1.624,0,1,1,2.628,1.91l-3.208,4.417a1.622,1.622,0,0,1-1.316.671" fill="#333"/>
    <line id="선_200" data-name="선 200" x1="3.209" y1="4.417" transform="translate(63.7 61.765)" fill="#333"/>
    <path id="패스_6497" data-name="패스 6497" d="M66.911,67.807a1.624,1.624,0,0,1-1.316-.67l-3.21-4.418a1.624,1.624,0,1,1,2.628-1.91l3.21,4.417a1.625,1.625,0,0,1-1.312,2.581" fill="#333"/>
    <line id="선_201" data-name="선 201" x1="5.193" y2="1.687" transform="translate(63.7 60.077)" fill="#333"/>
    <path id="패스_6498" data-name="패스 6498" d="M63.7,63.39a1.625,1.625,0,0,1-.5-3.171l5.194-1.687a1.625,1.625,0,1,1,1,3.091L64.2,63.31a1.614,1.614,0,0,1-.5.08" fill="#333"/>
    <line id="선_202" data-name="선 202" y2="5.46" transform="translate(81.606 56.304)" fill="#333"/>
    <path id="패스_6499" data-name="패스 6499" d="M81.606,63.389a1.625,1.625,0,0,1-1.625-1.625V56.3a1.625,1.625,0,0,1,3.25,0v5.46a1.625,1.625,0,0,1-1.625,1.625" fill="#333"/>
    <line id="선_203" data-name="선 203" x2="5.193" y2="1.687" transform="translate(76.413 60.077)" fill="#333"/>
    <path id="패스_6500" data-name="패스 6500" d="M81.606,63.39a1.614,1.614,0,0,1-.5-.08l-5.194-1.687a1.625,1.625,0,1,1,1-3.091l5.194,1.687a1.625,1.625,0,0,1-.5,3.171" fill="#333"/>
    <line id="선_204" data-name="선 204" y1="4.417" x2="3.209" transform="translate(78.396 61.765)" fill="#333"/>
    <path id="패스_6501" data-name="패스 6501" d="M78.394,67.807a1.625,1.625,0,0,1-1.312-2.581l3.21-4.417a1.624,1.624,0,1,1,2.628,1.91l-3.21,4.418a1.624,1.624,0,0,1-1.316.67" fill="#333"/>
    <line id="선_205" data-name="선 205" x1="3.209" y1="4.417" transform="translate(81.606 61.765)" fill="#333"/>
    <path id="패스_6502" data-name="패스 6502" d="M84.816,67.807a1.622,1.622,0,0,1-1.316-.671l-3.208-4.417a1.624,1.624,0,1,1,2.628-1.91l3.208,4.417a1.625,1.625,0,0,1-1.312,2.581" fill="#333"/>
    <line id="선_206" data-name="선 206" x1="5.193" y2="1.687" transform="translate(81.606 60.077)" fill="#333"/>
    <path id="패스_6503" data-name="패스 6503" d="M81.606,63.39a1.625,1.625,0,0,1-.5-3.171L86.3,58.532a1.625,1.625,0,1,1,1,3.091L82.107,63.31a1.614,1.614,0,0,1-.5.08" fill="#333"/>
    <line id="선_207" data-name="선 207" y2="5.46" transform="translate(99.512 56.304)" fill="#333"/>
    <path id="패스_6504" data-name="패스 6504" d="M99.511,63.389a1.625,1.625,0,0,1-1.625-1.625V56.3a1.625,1.625,0,1,1,3.25,0v5.46a1.625,1.625,0,0,1-1.625,1.625" fill="#333"/>
    <line id="선_208" data-name="선 208" x2="5.193" y2="1.687" transform="translate(94.319 60.077)" fill="#333"/>
    <path id="패스_6505" data-name="패스 6505" d="M99.511,63.39a1.614,1.614,0,0,1-.5-.08l-5.193-1.687a1.625,1.625,0,1,1,1-3.091l5.192,1.687a1.625,1.625,0,0,1-.5,3.171" fill="#333"/>
    <line id="선_209" data-name="선 209" y1="4.417" x2="3.209" transform="translate(96.302 61.765)" fill="#333"/>
    <path id="패스_6506" data-name="패스 6506" d="M96.3,67.807a1.625,1.625,0,0,1-1.312-2.581L98.2,60.809a1.624,1.624,0,1,1,2.628,1.91l-3.208,4.417a1.622,1.622,0,0,1-1.316.671" fill="#333"/>
    <line id="선_210" data-name="선 210" x1="3.209" y1="4.417" transform="translate(99.512 61.765)" fill="#333"/>
    <path id="패스_6507" data-name="패스 6507" d="M102.723,67.807a1.624,1.624,0,0,1-1.316-.67L98.2,62.719a1.624,1.624,0,1,1,2.628-1.91l3.21,4.417a1.625,1.625,0,0,1-1.312,2.581" fill="#333"/>
    <line id="선_211" data-name="선 211" x1="5.193" y2="1.687" transform="translate(99.512 60.077)" fill="#333"/>
    <path id="패스_6508" data-name="패스 6508" d="M99.511,63.39a1.625,1.625,0,0,1-.5-3.171l5.194-1.687a1.625,1.625,0,1,1,1,3.091l-5.194,1.687a1.614,1.614,0,0,1-.5.08" fill="#333"/>
  </g>
</svg>
