<svg id="아이콘" xmlns="http://www.w3.org/2000/svg" xmlns:xlink="http://www.w3.org/1999/xlink" width="136" height="136" viewBox="0 0 136 136">
  <defs>
    <clipPath id="clip-path">
      <rect id="사각형_22361" data-name="사각형 22361" width="136" height="136" fill="none"/>
    </clipPath>
  </defs>
  <g id="그룹_897" data-name="그룹 897" clip-path="url(#clip-path)">
    <path id="패스_6515" data-name="패스 6515" d="M47.61,27.876a118.515,118.515,0,0,0-13.391,3.472,6.768,6.768,0,0,0-4.677,6.423V78.376s2.818,12.152,33.942,28.292a6.7,6.7,0,0,0,6.134,0c31.125-16.14,33.943-28.292,33.943-28.292V37.77a6.767,6.767,0,0,0-4.678-6.423,118.514,118.514,0,0,0-13.391-3.472,96.531,96.531,0,0,0-37.881,0" transform="translate(1.292 1.137)" fill="#97d7df"/>
    <path id="패스_6516" data-name="패스 6516" d="M66.622,109.183a8.347,8.347,0,0,1-3.849-.937C31.318,91.934,28.083,79.359,27.96,78.831a1.752,1.752,0,0,1-.043-.383V37.843A8.442,8.442,0,0,1,33.765,29.8a120.081,120.081,0,0,1,13.584-3.52,97.8,97.8,0,0,1,38.546,0A120.081,120.081,0,0,1,99.48,29.8a8.442,8.442,0,0,1,5.848,8.038V78.448a1.752,1.752,0,0,1-.043.383c-.123.528-3.358,13.1-34.815,29.415a8.332,8.332,0,0,1-3.847.937M31.309,78.2c.468,1.352,5.063,12.533,33.025,27.033a4.976,4.976,0,0,0,4.574,0C96.789,90.778,101.442,79.619,101.936,78.2V37.843a5.056,5.056,0,0,0-3.506-4.812,116.787,116.787,0,0,0-13.2-3.42,94.469,94.469,0,0,0-37.214,0,116.786,116.786,0,0,0-13.2,3.42,5.056,5.056,0,0,0-3.506,4.812Z" transform="translate(1.221 1.066)" fill="#333"/>
    <path id="패스_6517" data-name="패스 6517" d="M70.7,44.582a5.466,5.466,0,1,1-5.466-5.466A5.467,5.467,0,0,1,70.7,44.582" transform="translate(2.615 1.711)" fill="#ffcb69"/>
    <path id="패스_6518" data-name="패스 6518" d="M65.3,51.814a7.161,7.161,0,1,1,7.162-7.16,7.17,7.17,0,0,1-7.162,7.16m0-10.93a3.769,3.769,0,1,0,3.77,3.77,3.774,3.774,0,0,0-3.77-3.77" transform="translate(2.544 1.64)" fill="#333"/>
    <path id="패스_6519" data-name="패스 6519" d="M65.071,87.647a1.7,1.7,0,0,1-1.7-1.7V50.217a1.7,1.7,0,1,1,3.392,0V85.951a1.7,1.7,0,0,1-1.7,1.7" transform="translate(2.773 2.123)" fill="#333"/>
    <path id="패스_6520" data-name="패스 6520" d="M70.811,82.977h-5.74a1.7,1.7,0,0,1,0-3.392h5.74a1.7,1.7,0,0,1,0,3.392" transform="translate(2.773 3.482)" fill="#333"/>
    <path id="패스_6521" data-name="패스 6521" d="M70.811,77.791h-5.74a1.7,1.7,0,0,1,0-3.392h5.74a1.7,1.7,0,0,1,0,3.392" transform="translate(2.773 3.255)" fill="#333"/>
    <path id="패스_6522" data-name="패스 6522" d="M65.515,63.815a1.692,1.692,0,0,1-.884-.25L49.006,53.994A1.7,1.7,0,0,1,50.778,51.1L66.4,60.674a1.7,1.7,0,0,1-.888,3.142" transform="translate(2.109 2.225)" fill="#333"/>
    <path id="패스_6523" data-name="패스 6523" d="M49.894,73.122a1.7,1.7,0,0,1-.888-3.142l10.9-6.68a1.7,1.7,0,0,1,1.769,2.9l-10.9,6.676a1.692,1.692,0,0,1-.884.25" transform="translate(2.109 2.758)" fill="#333"/>
    <path id="패스_6524" data-name="패스 6524" d="M80.705,73.122a1.692,1.692,0,0,1-.884-.25L68.92,66.2a1.7,1.7,0,0,1,1.769-2.9l10.9,6.68a1.7,1.7,0,0,1-.888,3.142" transform="translate(2.98 2.758)" fill="#333"/>
    <path id="패스_6525" data-name="패스 6525" d="M65.209,63.867a1.7,1.7,0,0,1-.9-3.135l.486-.3L80.022,51.1a1.7,1.7,0,1,1,1.772,2.891L66.1,63.61a1.679,1.679,0,0,1-.894.257" transform="translate(2.779 2.225)" fill="#333"/>
  </g>
</svg>
