<svg id="_5" data-name="5" xmlns="http://www.w3.org/2000/svg" xmlns:xlink="http://www.w3.org/1999/xlink" width="80" height="80" viewBox="0 0 80 80">
  <defs>
    <clipPath id="clip-path">
      <rect id="사각형_22133" data-name="사각형 22133" width="80" height="80" fill="none"/>
    </clipPath>
  </defs>
  <g id="그룹_686" data-name="그룹 686" clip-path="url(#clip-path)">
    <path id="패스_6214" data-name="패스 6214" d="M18.98,45.368V38.479a21.652,21.652,0,0,1,43.3,0v6.889" fill="#97d7df"/>
    <path id="패스_6215" data-name="패스 6215" d="M62.284,46.368a1,1,0,0,1-1-1V38.479a20.652,20.652,0,0,0-41.3,0v6.889a1,1,0,0,1-2,0V38.479a22.652,22.652,0,1,1,45.3,0v6.889A1,1,0,0,1,62.284,46.368Z" fill="#606563"/>
    <path id="패스_6216" data-name="패스 6216" d="M44.474,39.891h0a1,1,0,0,1-.947-.677l-2.9-8.5-2.9,8.5a1,1,0,0,1-1.893,0L32,27.937a1,1,0,0,1,1.893-.645l2.9,8.5,2.9-8.5a1,1,0,0,1,.947-.677h0a1,1,0,0,1,.947.677l2.9,8.5,2.9-8.5a1,1,0,0,1,1.893.645L45.421,39.214A1,1,0,0,1,44.474,39.891Z" fill="#606563"/>
    <path id="선_138" data-name="선 138" d="M3.8,1H0A1,1,0,0,1-1,0,1,1,0,0,1,0-1H3.8a1,1,0,0,1,1,1A1,1,0,0,1,3.8,1Z" transform="translate(46.978 31.547)" fill="#606563"/>
    <path id="선_139" data-name="선 139" d="M3.8,1H0A1,1,0,0,1-1,0,1,1,0,0,1,0-1H3.8a1,1,0,0,1,1,1A1,1,0,0,1,3.8,1Z" transform="translate(30.482 31.547)" fill="#606563"/>
    <path id="패스_6217" data-name="패스 6217" d="M40.632,17.826a10.429,10.429,0,0,1-10.4-10.4V6a1,1,0,0,1,1-1h18.8a1,1,0,0,1,1,1V7.425a10.429,10.429,0,0,1-10.4,10.4ZM32.23,7v.425a8.4,8.4,0,0,0,16.8,0V7Z" fill="#606563"/>
    <path id="패스_6218" data-name="패스 6218" d="M60.219,71.421H29.287a9.93,9.93,0,0,1-7.02-2.909l-.017-.018L9.738,55.34A3.044,3.044,0,0,1,11.9,50.152h5.11a7.5,7.5,0,0,1,4.9,1.822l.047.039,6.088,5.3H39.941a1,1,0,1,1,0,2H27.676a1,1,0,0,1-.656-.246l-6.347-5.523a5.52,5.52,0,0,0-3.662-1.39H11.9a1.044,1.044,0,0,0-.739,1.783l.017.018L23.69,67.107a7.984,7.984,0,0,0,5.6,2.314H60.219a1,1,0,0,1,0,2Z" fill="#606563"/>
    <rect id="사각형_22131" data-name="사각형 22131" width="13.124" height="21.473" transform="translate(61.148 52.527)" fill="#ffcb69"/>
    <path id="사각형_22132" data-name="사각형 22132" d="M0-1H13.124a1,1,0,0,1,1,1V21.473a1,1,0,0,1-1,1H0a1,1,0,0,1-1-1V0A1,1,0,0,1,0-1ZM12.124,1H1V20.473H12.124Z" transform="translate(61.148 52.527)" fill="#606563"/>
    <path id="패스_6219" data-name="패스 6219" d="M60.158,59.309a21.866,21.866,0,0,1-6.091-.489,6.97,6.97,0,0,1-4.084-3.579c-1.838-3.093-3.2-3.092-8.936-3.089H33.256a1.162,1.162,0,0,0-1.034.605,1.175,1.175,0,0,0,.023,1.2c1.356,2.223,3.945,3.35,7.7,3.35a1,1,0,0,1,0,2c-5.6,0-8.205-2.342-9.4-4.307a3.187,3.187,0,0,1,2.718-4.85h7.79c2.992,0,4.968,0,6.57.489A6.979,6.979,0,0,1,51.7,54.22c1.835,3.093,3.2,3.092,8.931,3.089h.516a1,1,0,0,1,0,2h-.992Z" fill="#606563"/>
  </g>
</svg>
