<svg id="_1" data-name="1" xmlns="http://www.w3.org/2000/svg" xmlns:xlink="http://www.w3.org/1999/xlink" width="80" height="80" viewBox="0 0 80 80">
  <defs>
    <clipPath id="clip-path">
      <rect id="사각형_22127" data-name="사각형 22127" width="80" height="80" fill="none"/>
    </clipPath>
  </defs>
  <g id="그룹_678" data-name="그룹 678" clip-path="url(#clip-path)">
    <path id="패스_6185" data-name="패스 6185" d="M13.443,59.917c11.515,0,15.061-.2,19.12,6.639s7.6,6.639,19.124,6.639h9.889a4.979,4.979,0,0,0,4.979-4.979V11.783A4.979,4.979,0,0,0,61.577,6.8H18.424a4.98,4.98,0,0,0-4.98,4.979V59.917Z" fill="#97d7df"/>
    <path id="선_120" data-name="선 120" d="M24.9,1H0A1,1,0,0,1-1,0,1,1,0,0,1,0-1H24.9a1,1,0,0,1,1,1A1,1,0,0,1,24.9,1Z" transform="translate(21.744 37.493)" fill="#606563"/>
    <path id="선_121" data-name="선 121" d="M18.257,1H0A1,1,0,0,1-1,0,1,1,0,0,1,0-1H18.257a1,1,0,0,1,1,1A1,1,0,0,1,18.257,1Z" transform="translate(21.744 47.452)" fill="#606563"/>
    <path id="선_122" data-name="선 122" d="M18.808,1H0A1,1,0,0,1-1,0,1,1,0,0,1,0-1H18.808a1,1,0,0,1,1,1A1,1,0,0,1,18.808,1Z" transform="translate(21.194 16.751)" fill="#606563"/>
    <path id="패스_6186" data-name="패스 6186" d="M13.446,54.278a1,1,0,0,1-1-1V11.784A5.986,5.986,0,0,1,18.425,5.8H61.579a5.986,5.986,0,0,1,5.979,5.98v4.979a1,1,0,0,1-2,0V11.784A3.984,3.984,0,0,0,61.579,7.8H18.425a3.984,3.984,0,0,0-3.979,3.98V53.278A1,1,0,0,1,13.446,54.278Z" fill="#606563"/>
    <path id="패스_6187" data-name="패스 6187" d="M49.884,74.2c-5,0-8.385-.043-11.081-.87-2.936-.9-4.993-2.714-7.1-6.259-1.849-3.114-3.52-4.62-5.962-5.369-2.56-.786-6.056-.784-11.349-.781h-.95a1,1,0,0,1,0-2h.949c5.473,0,9.089,0,11.936.869,2.934.9,4.99,2.714,7.094,6.26,1.85,3.114,3.522,4.619,5.965,5.368,2.562.786,6.063.784,11.361.781H61.577a3.983,3.983,0,0,0,3.979-3.979V49.982a1,1,0,0,1,2,0V68.216a5.986,5.986,0,0,1-5.979,5.979H49.884Z" fill="#606563"/>
    <path id="패스_6188" data-name="패스 6188" d="M67.831,23.386l-22,38.1-.083,6.333,5.447-3.24,22-38.1Z" fill="#ffcb69"/>
    <path id="패스_6189" data-name="패스 6189" d="M67.831,22.386a1,1,0,0,1,.5.134l5.364,3.1a1,1,0,0,1,.366,1.366l-22,38.1a1,1,0,0,1-.355.359l-5.447,3.24a1,1,0,0,1-1.511-.873l.083-6.333a1,1,0,0,1,.134-.487l22-38.1a1,1,0,0,1,.866-.5Zm4,4.463-3.632-2.1L46.83,61.765l-.056,4.287,3.688-2.194Z" fill="#606563"/>
  </g>
</svg>
