<svg id="아이콘" xmlns="http://www.w3.org/2000/svg" xmlns:xlink="http://www.w3.org/1999/xlink" width="130" height="130" viewBox="0 0 130 130">
  <defs>
    <clipPath id="clip-path">
      <rect id="사각형_22362" data-name="사각형 22362" width="130" height="130" fill="none"/>
    </clipPath>
  </defs>
  <g id="그룹_899" data-name="그룹 899" clip-path="url(#clip-path)">
    <path id="패스_6526" data-name="패스 6526" d="M37.578,90.232V27.393a6.268,6.268,0,0,1,6.268-6.268H87.721a6.268,6.268,0,0,1,6.268,6.268v75.214a6.268,6.268,0,0,1-6.268,6.268H53.248A12.537,12.537,0,0,0,40.712,96.339H37.578Z" fill="#97d7df" fill-rule="evenodd"/>
    <path id="패스_6527" data-name="패스 6527" d="M93.989,36.41H37.577a1.625,1.625,0,0,1,0-3.25H93.989a1.625,1.625,0,0,1,0,3.25" fill="#333"/>
    <path id="패스_6528" data-name="패스 6528" d="M93.989,91.857H37.577a1.625,1.625,0,0,1,0-3.25H93.989a1.625,1.625,0,0,1,0,3.25" fill="#333"/>
    <path id="패스_6529" data-name="패스 6529" d="M72.052,100.053H59.515a1.625,1.625,0,0,1,0-3.25H72.052a1.625,1.625,0,0,1,0,3.25" fill="#333"/>
    <path id="패스_6530" data-name="패스 6530" d="M87.721,110.5H53.247a1.624,1.624,0,0,1-1.625-1.625,10.922,10.922,0,0,0-10.91-10.91H37.578a1.625,1.625,0,0,1,0-3.25h3.134A14.182,14.182,0,0,1,54.78,107.25H87.721a4.649,4.649,0,0,0,4.643-4.643V27.393a4.649,4.649,0,0,0-4.643-4.643H43.846A4.649,4.649,0,0,0,39.2,27.393V90.232a1.625,1.625,0,0,1-3.25,0V27.393A7.9,7.9,0,0,1,43.846,19.5H87.721a7.9,7.9,0,0,1,7.893,7.893v75.214a7.9,7.9,0,0,1-7.893,7.893" fill="#333"/>
    <path id="패스_6531" data-name="패스 6531" d="M79.1,62.509A14.1,14.1,0,1,1,65,48.406a14.1,14.1,0,0,1,14.1,14.1" fill="#ffcb69"/>
    <path id="패스_6532" data-name="패스 6532" d="M65,78.237A15.728,15.728,0,1,1,80.727,62.509,15.746,15.746,0,0,1,65,78.237m0-28.206A12.478,12.478,0,1,0,77.477,62.509,12.491,12.491,0,0,0,65,50.031" fill="#333"/>
    <path id="패스_6533" data-name="패스 6533" d="M65,70.08a1.624,1.624,0,0,1-1.017-.357L56.57,63.777A1.626,1.626,0,0,1,58.6,61.241l6.028,4.837L74,52.04a1.625,1.625,0,1,1,2.7,1.8L66.352,69.356a1.628,1.628,0,0,1-1.1.7A1.593,1.593,0,0,1,65,70.08" fill="#333"/>
  </g>
</svg>
