<svg id="_6" data-name="6" xmlns="http://www.w3.org/2000/svg" xmlns:xlink="http://www.w3.org/1999/xlink" width="80" height="80" viewBox="0 0 80 80">
  <defs>
    <clipPath id="clip-path">
      <rect id="사각형_22138" data-name="사각형 22138" width="80" height="80" fill="none"/>
    </clipPath>
  </defs>
  <g id="그룹_697" data-name="그룹 697" clip-path="url(#clip-path)">
    <path id="패스_6251" data-name="패스 6251" d="M13.443,59.917c11.515,0,15.061-.2,19.12,6.639s7.6,6.639,19.124,6.639h9.889a4.979,4.979,0,0,0,4.979-4.979V11.783A4.979,4.979,0,0,0,61.577,6.8H18.424a4.98,4.98,0,0,0-4.98,4.979V59.917Z" fill="#97d7df"/>
    <path id="패스_6252" data-name="패스 6252" d="M13.443,59.917c11.515,0,15.061-.2,19.12,6.639s7.6,6.639,19.124,6.639h9.889a4.979,4.979,0,0,0,4.979-4.979V11.783A4.979,4.979,0,0,0,61.577,6.8H18.424a4.98,4.98,0,0,0-4.98,4.979V59.917Z" fill="#97d7df"/>
    <path id="패스_6253" data-name="패스 6253" d="M13.444,59.917c11.515,0,15.061-.2,19.12,6.639s7.6,6.639,19.124,6.639h9.889a4.979,4.979,0,0,0,4.979-4.979v-44.6L13.444,58.782Z" fill="#ffcb69"/>
    <path id="선_157" data-name="선 157" d="M16.357,1H0A1,1,0,0,1-1,0,1,1,0,0,1,0-1H16.357a1,1,0,0,1,1,1A1,1,0,0,1,16.357,1Z" transform="translate(43.051 55.462)" fill="#606563"/>
    <path id="선_158" data-name="선 158" d="M11.995,1H0A1,1,0,0,1-1,0,1,1,0,0,1,0-1h12a1,1,0,0,1,1,1A1,1,0,0,1,11.995,1Z" transform="translate(47.413 61.978)" fill="#606563"/>
    <path id="패스_6254" data-name="패스 6254" d="M49.882,74.195c-5.255,0-8.64-.064-11.319-.946-2.813-.926-4.8-2.718-6.859-6.183-3.506-5.906-6.3-6.15-16.431-6.15H13.443a1,1,0,0,1-1-1V11.784a5.987,5.987,0,0,1,5.98-5.98H61.577a5.986,5.986,0,0,1,5.979,5.98V68.215a5.986,5.986,0,0,1-5.979,5.979ZM15.272,58.915c5.244,0,8.622.064,11.3.947,2.81.927,4.795,2.718,6.851,6.182,1.81,3.047,3.426,4.535,5.765,5.3,2.4.789,5.638.846,10.694.846H61.576a3.984,3.984,0,0,0,3.979-3.979V11.784A3.984,3.984,0,0,0,61.577,7.8H18.424a3.985,3.985,0,0,0-3.98,3.98V58.916Z" fill="#606563"/>
    <path id="패스_6255" data-name="패스 6255" d="M25.78,26.305h0a1,1,0,0,1-.946-.678l-3.406-10a1,1,0,1,1,1.893-.645l2.461,7.224,2.467-7.225a1,1,0,0,1,1.893,0L32.6,22.2l2.459-7.22a1,1,0,1,1,1.893.645l-3.406,10a1,1,0,0,1-.947.678h0a1,1,0,0,1-.947-.678L29.193,18.4l-2.466,7.224A1,1,0,0,1,25.78,26.305Z" fill="#606563"/>
    <path id="선_159" data-name="선 159" d="M3.372,1H0A1,1,0,0,1-1,0,1,1,0,0,1,0-1H3.372a1,1,0,0,1,1,1A1,1,0,0,1,3.372,1Z" transform="translate(34.821 18.792)" fill="#606563"/>
    <path id="선_160" data-name="선 160" d="M3.374,1H0A1,1,0,0,1-1,0,1,1,0,0,1,0-1H3.374a1,1,0,0,1,1,1A1,1,0,0,1,3.374,1Z" transform="translate(20.193 18.792)" fill="#606563"/>
    <path id="패스_6256" data-name="패스 6256" d="M8.316,63.478a2.5,2.5,0,0,1-1.381-4.585l63.37-41.955a2.5,2.5,0,0,1,2.76,4.17L9.695,63.063a2.5,2.5,0,0,1-1.379.415" fill="#606563"/>
    <path id="패스_6257" data-name="패스 6257" d="M71.684,18.022a1,1,0,0,1,.553,1.834L8.867,61.811a1,1,0,0,1-1.1-1.667l63.37-41.956a1,1,0,0,1,.552-.166m0-3a3.986,3.986,0,0,0-2.207.665L6.106,57.642a4,4,0,0,0,4.415,6.672L73.893,22.358a4,4,0,0,0-2.209-7.336" fill="#fff"/>
  </g>
</svg>
