<svg id="_3" data-name="3" xmlns="http://www.w3.org/2000/svg" xmlns:xlink="http://www.w3.org/1999/xlink" width="80" height="80" viewBox="0 0 80 80">
  <defs>
    <clipPath id="clip-path">
      <rect id="사각형_22129" data-name="사각형 22129" width="80" height="80" fill="none"/>
    </clipPath>
  </defs>
  <g id="그룹_682" data-name="그룹 682" clip-path="url(#clip-path)">
    <path id="패스_6197" data-name="패스 6197" d="M13.443,59.917c11.515,0,15.061-.2,19.12,6.639s7.6,6.639,19.124,6.639h9.889a4.979,4.979,0,0,0,4.979-4.979V11.783A4.979,4.979,0,0,0,61.577,6.8H18.424a4.98,4.98,0,0,0-4.98,4.979V59.917Z" fill="#97d7df"/>
    <path id="패스_6198" data-name="패스 6198" d="M13.443,59.917c11.515,0,15.061-.2,19.12,6.639s7.6,6.639,19.124,6.639h9.889a4.979,4.979,0,0,0,4.979-4.979V11.783A4.979,4.979,0,0,0,61.577,6.8H18.424a4.98,4.98,0,0,0-4.98,4.979V59.917Z" fill="#97d7df"/>
    <path id="패스_6199" data-name="패스 6199" d="M13.445,54.278a1,1,0,0,1-1-1V11.784a5.986,5.986,0,0,1,5.979-5.979H61.578a5.986,5.986,0,0,1,5.979,5.979v16.77a1,1,0,0,1-2,0V11.784a3.984,3.984,0,0,0-3.979-3.979H18.424a3.984,3.984,0,0,0-3.979,3.979V53.278A1,1,0,0,1,13.445,54.278Z" fill="#606563"/>
    <path id="선_127" data-name="선 127" d="M24.9,1H0A1,1,0,0,1-1,0,1,1,0,0,1,0-1H24.9a1,1,0,0,1,1,1A1,1,0,0,1,24.9,1Z" transform="translate(21.743 37.492)" fill="#606563"/>
    <path id="선_128" data-name="선 128" d="M18.257,1H0A1,1,0,0,1-1,0,1,1,0,0,1,0-1H18.257a1,1,0,0,1,1,1A1,1,0,0,1,18.257,1Z" transform="translate(21.743 47.451)" fill="#606563"/>
    <path id="선_129" data-name="선 129" d="M18.808,1H0A1,1,0,0,1-1,0,1,1,0,0,1,0-1H18.808a1,1,0,0,1,1,1A1,1,0,0,1,18.808,1Z" transform="translate(21.193 16.75)" fill="#606563"/>
    <path id="패스_6200" data-name="패스 6200" d="M49.882,74.195c-5,0-8.384-.043-11.08-.87-2.936-.9-4.993-2.714-7.1-6.259-1.849-3.114-3.52-4.62-5.962-5.369-2.56-.786-6.056-.784-11.349-.781h-.95a1,1,0,0,1,0-2h.949c5.473,0,9.089,0,11.936.869,2.934.9,4.99,2.714,7.094,6.26,1.85,3.114,3.522,4.619,5.965,5.368,2.562.786,6.063.784,11.361.781H61.576a3.984,3.984,0,0,0,3.979-3.979V61.792a1,1,0,1,1,2,0v6.423a5.986,5.986,0,0,1-5.979,5.979H49.882Z" fill="#606563"/>
    <path id="패스_6201" data-name="패스 6201" d="M74.237,45.008a11,11,0,1,1-11-11,11,11,0,0,1,11,11" fill="#ffcb69"/>
    <path id="타원_130" data-name="타원 130" d="M11-1A12,12,0,0,1,23,11,12,12,0,0,1,11,23,12,12,0,0,1-1,11,12,12,0,0,1,11-1Zm0,22A10,10,0,1,0,1,11,10.011,10.011,0,0,0,11,21Z" transform="translate(52.237 34.008)" fill="#606563"/>
    <path id="패스_6202" data-name="패스 6202" d="M70.237,45.258a.75.75,0,0,1-.75-.75,6.25,6.25,0,1,0-12.5,0,.75.75,0,0,1-1.5,0,7.75,7.75,0,1,1,15.5,0A.75.75,0,0,1,70.237,45.258Z" fill="#606563"/>
    <path id="선_130" data-name="선 130" d="M1.8.75H0A.75.75,0,0,1-.75,0,.75.75,0,0,1,0-.75H1.8A.75.75,0,0,1,2.55,0,.75.75,0,0,1,1.8.75Z" transform="translate(68.437 44.508)" fill="#606563"/>
    <path id="선_131" data-name="선 131" d="M0,2.023A.748.748,0,0,1-.53,1.8.75.75,0,0,1-.53.743L.743-.53A.75.75,0,0,1,1.8-.53.75.75,0,0,1,1.8.53L.53,1.8A.748.748,0,0,1,0,2.023Z" transform="translate(66.837 39.477)" fill="#606563"/>
    <path id="선_132" data-name="선 132" d="M1.273,2.023a.748.748,0,0,1-.53-.22L-.53.53A.75.75,0,0,1-.53-.53.75.75,0,0,1,.53-.53L1.8.743a.75.75,0,0,1-.53,1.28Z" transform="translate(58.361 39.477)" fill="#606563"/>
    <path id="선_133" data-name="선 133" d="M1.8.75H0A.75.75,0,0,1-.75,0,.75.75,0,0,1,0-.75H1.8A.75.75,0,0,1,2.55,0,.75.75,0,0,1,1.8.75Z" transform="translate(56.236 44.508)" fill="#606563"/>
    <path id="선_134" data-name="선 134" d="M0,2.55A.75.75,0,0,1-.75,1.8V0A.75.75,0,0,1,0-.75.75.75,0,0,1,.75,0V1.8A.75.75,0,0,1,0,2.55Z" transform="translate(63.236 37.508)" fill="#606563"/>
    <path id="패스_6203" data-name="패스 6203" d="M63.361,45.008a.125.125,0,1,1-.125-.125.125.125,0,0,1,.125.125" fill="#606563"/>
    <path id="패스_6204" data-name="패스 6204" d="M63.236,46.383a1.375,1.375,0,1,1,1.375-1.375,1.377,1.377,0,0,1-1.375,1.375m0-2.5a1.125,1.125,0,1,0,1.125,1.125,1.127,1.127,0,0,0-1.125-1.125" fill="#606563"/>
    <path id="패스_6205" data-name="패스 6205" d="M64.5,45.008a1.32,1.32,0,1,1-1.319-1.319A1.319,1.319,0,0,1,64.5,45.008" fill="#606563"/>
  </g>
</svg>
