<svg id="_4" data-name="4" xmlns="http://www.w3.org/2000/svg" xmlns:xlink="http://www.w3.org/1999/xlink" width="80" height="80" viewBox="0 0 80 80">
  <defs>
    <clipPath id="clip-path">
      <rect id="사각형_22130" data-name="사각형 22130" width="80" height="80" fill="none"/>
    </clipPath>
  </defs>
  <g id="그룹_684" data-name="그룹 684" clip-path="url(#clip-path)">
    <path id="패스_6206" data-name="패스 6206" d="M13.443,59.917c11.515,0,15.061-.2,19.12,6.639s7.6,6.639,19.124,6.639h9.889a4.979,4.979,0,0,0,4.979-4.979V11.783A4.979,4.979,0,0,0,61.577,6.8H18.424a4.98,4.98,0,0,0-4.98,4.979V59.917Z" fill="#97d7df"/>
    <path id="패스_6207" data-name="패스 6207" d="M57.569,36.851a5.669,5.669,0,1,0,11.338,0Z" fill="#ffcb69"/>
    <path id="패스_6208" data-name="패스 6208" d="M57.569,35.851H68.907a1,1,0,0,1,1,1,6.669,6.669,0,1,1-13.338,0A1,1,0,0,1,57.569,35.851Zm10.23,2H58.677a4.669,4.669,0,0,0,9.122,0Z" fill="#606563"/>
    <path id="패스_6209" data-name="패스 6209" d="M70.573,62.364a4.383,4.383,0,0,0,4.368-4.372V54.225a11.7,11.7,0,1,0-23.409,0v3.767A4.386,4.386,0,0,0,55.9,62.364Z" fill="#ffcb69"/>
    <path id="패스_6210" data-name="패스 6210" d="M70.573,63.364H55.9a5.378,5.378,0,0,1-5.372-5.372V54.225a12.7,12.7,0,0,1,25.409,0v3.767A5.376,5.376,0,0,1,70.573,63.364ZM63.237,43.52a10.717,10.717,0,0,0-10.7,10.705v3.767A3.376,3.376,0,0,0,55.9,61.364H70.573a3.374,3.374,0,0,0,3.368-3.372V54.225A10.717,10.717,0,0,0,63.237,43.52Z" fill="#606563"/>
    <path id="패스_6211" data-name="패스 6211" d="M61.362,57.37a.75.75,0,0,1-.71-.507l-1.18-3.453H57.956a.75.75,0,0,1,0-1.5h1l-.385-1.129a.75.75,0,0,1,1.42-.485h0l0,.011L61.36,54.3l1.36-4a.75.75,0,0,1,.71-.509h0a.75.75,0,0,1,.71.508l1.366,4,.625-1.828q.007-.027.016-.054l.727-2.121a.75.75,0,0,1,1.419.486l-.386,1.128h1a.75.75,0,0,1,0,1.5H67.394l-1.18,3.453a.75.75,0,0,1-.71.507h0a.75.75,0,0,1-.71-.508l-1.364-4-1.359,4a.75.75,0,0,1-.71.509Z" fill="#606563"/>
    <path id="선_135" data-name="선 135" d="M24.9,1H0A1,1,0,0,1-1,0,1,1,0,0,1,0-1H24.9a1,1,0,0,1,1,1A1,1,0,0,1,24.9,1Z" transform="translate(21.743 37.493)" fill="#606563"/>
    <path id="선_136" data-name="선 136" d="M18.257,1H0A1,1,0,0,1-1,0,1,1,0,0,1,0-1H18.257a1,1,0,0,1,1,1A1,1,0,0,1,18.257,1Z" transform="translate(21.743 47.452)" fill="#606563"/>
    <path id="선_137" data-name="선 137" d="M18.808,1H0A1,1,0,0,1-1,0,1,1,0,0,1,0-1H18.808a1,1,0,0,1,1,1A1,1,0,0,1,18.808,1Z" transform="translate(21.193 16.751)" fill="#606563"/>
    <path id="패스_6212" data-name="패스 6212" d="M13.445,54.278a1,1,0,0,1-1-1V11.784a5.986,5.986,0,0,1,5.979-5.979H61.578a5.986,5.986,0,0,1,5.979,5.979v16.77a1,1,0,0,1-2,0V11.784a3.984,3.984,0,0,0-3.979-3.979H18.424a3.984,3.984,0,0,0-3.979,3.979V53.278A1,1,0,0,1,13.445,54.278Z" fill="#606563"/>
    <path id="패스_6213" data-name="패스 6213" d="M49.882,74.2c-5,0-8.384-.043-11.08-.87-2.936-.9-4.993-2.714-7.1-6.259-1.849-3.114-3.52-4.62-5.962-5.369-2.56-.786-6.056-.784-11.349-.781h-.95a1,1,0,1,1,0-2h.949c5.473,0,9.089,0,11.936.869,2.934.9,4.99,2.714,7.094,6.26,1.85,3.114,3.522,4.619,5.965,5.368,2.562.786,6.063.784,11.361.781H61.576a3.984,3.984,0,0,0,3.979-3.979,1,1,0,0,1,2,0,5.986,5.986,0,0,1-5.979,5.979H49.882Z" fill="#606563"/>
  </g>
</svg>
