<svg id="_10" data-name="10" xmlns="http://www.w3.org/2000/svg" xmlns:xlink="http://www.w3.org/1999/xlink" width="80" height="80" viewBox="0 0 80 80">
  <defs>
    <clipPath id="clip-path">
      <rect id="사각형_22137" data-name="사각형 22137" width="80" height="80" fill="none"/>
    </clipPath>
  </defs>
  <g id="그룹_694" data-name="그룹 694" clip-path="url(#clip-path)">
    <path id="패스_6242" data-name="패스 6242" d="M13.443,59.917c11.515,0,15.061-.2,19.12,6.639s7.6,6.639,19.124,6.639h9.889a4.979,4.979,0,0,0,4.979-4.979V11.783A4.979,4.979,0,0,0,61.577,6.8H18.424a4.98,4.98,0,0,0-4.98,4.979V59.917Z" fill="#97d7df"/>
    <path id="패스_6243" data-name="패스 6243" d="M13.443,59.917c11.515,0,15.061-.2,19.12,6.639s7.6,6.639,19.124,6.639h9.889a4.979,4.979,0,0,0,4.979-4.979V11.783A4.979,4.979,0,0,0,61.577,6.8H18.424a4.98,4.98,0,0,0-4.98,4.979V59.917Z" fill="#97d7df"/>
    <path id="패스_6244" data-name="패스 6244" d="M13.445,54.278a1,1,0,0,1-1-1V11.784a5.986,5.986,0,0,1,5.979-5.979H61.578a5.986,5.986,0,0,1,5.979,5.979v16.77a1,1,0,0,1-2,0V11.784a3.984,3.984,0,0,0-3.979-3.979H18.424a3.984,3.984,0,0,0-3.979,3.979V53.278A1,1,0,0,1,13.445,54.278Z" fill="#606563"/>
    <path id="선_153" data-name="선 153" d="M24.9,1H0A1,1,0,0,1-1,0,1,1,0,0,1,0-1H24.9a1,1,0,0,1,1,1A1,1,0,0,1,24.9,1Z" transform="translate(21.743 37.492)" fill="#606563"/>
    <path id="선_154" data-name="선 154" d="M18.257,1H0A1,1,0,0,1-1,0,1,1,0,0,1,0-1H18.257a1,1,0,0,1,1,1A1,1,0,0,1,18.257,1Z" transform="translate(21.743 47.451)" fill="#606563"/>
    <path id="패스_6245" data-name="패스 6245" d="M49.882,74.195c-5,0-8.384-.043-11.08-.87-2.936-.9-4.993-2.714-7.1-6.259-1.849-3.114-3.52-4.62-5.962-5.369-2.56-.786-6.056-.784-11.349-.781h-.95a1,1,0,0,1,0-2h.949c5.473,0,9.089,0,11.936.869,2.934.9,4.99,2.714,7.094,6.26,1.85,3.114,3.522,4.619,5.965,5.368,2.562.786,6.063.784,11.361.781H61.576a3.984,3.984,0,0,0,3.979-3.979V61.792a1,1,0,1,1,2,0v6.423a5.986,5.986,0,0,1-5.979,5.979H49.882Z" fill="#606563"/>
    <path id="패스_6246" data-name="패스 6246" d="M27.4,28.861a1,1,0,0,1-.947-.678L22.671,17.072a1,1,0,1,1,1.893-.645L27.4,24.762l2.845-8.335a1,1,0,0,1,.946-.677h0a1,1,0,0,1,.946.678l2.837,8.331,2.837-8.331a1,1,0,0,1,1.893.645L35.925,28.183a1,1,0,0,1-1.893,0l-2.839-8.335-2.845,8.335A1,1,0,0,1,27.4,28.861Z" fill="#606563"/>
    <path id="선_155" data-name="선 155" d="M3.746,1H0A1,1,0,0,1-1,0,1,1,0,0,1,0-1H3.746a1,1,0,0,1,1,1A1,1,0,0,1,3.746,1Z" transform="translate(37.446 20.624)" fill="#606563"/>
    <path id="선_156" data-name="선 156" d="M3.749,1H0A1,1,0,0,1-1,0,1,1,0,0,1,0-1H3.749a1,1,0,0,1,1,1A1,1,0,0,1,3.749,1Z" transform="translate(21.193 20.624)" fill="#606563"/>
    <path id="패스_6247" data-name="패스 6247" d="M57.09,42.319h9.8V44.5L73.6,38l-6.7-6.5v2.184h-9.8" fill="#ffcb69"/>
    <path id="패스_6248" data-name="패스 6248" d="M66.893,45.253a.75.75,0,0,1-.75-.75V43.069H57.09a.75.75,0,0,1,0-1.5h9.8a.75.75,0,0,1,.75.75v.412L72.518,38l-4.876-4.727v.412a.75.75,0,0,1-.75.75h-9.8a.75.75,0,0,1,0-1.5h9.053V31.5a.75.75,0,0,1,1.272-.538l6.7,6.5a.75.75,0,0,1,0,1.077l-6.7,6.5A.75.75,0,0,1,66.893,45.253Z" fill="#606563"/>
    <path id="패스_6249" data-name="패스 6249" d="M70.929,56.27h-9.8v2.184l-6.7-6.5,6.7-6.5v2.184h9.8" fill="#ffcb69"/>
    <path id="패스_6250" data-name="패스 6250" d="M61.126,59.2a.75.75,0,0,1-.522-.212l-6.7-6.5a.75.75,0,0,1,0-1.077l6.7-6.5a.75.75,0,0,1,1.272.538v1.434h9.053a.75.75,0,0,1,0,1.5h-9.8a.75.75,0,0,1-.75-.75v-.412L55.5,51.953l4.876,4.729V56.27a.75.75,0,0,1,.75-.75h9.8a.75.75,0,0,1,0,1.5H61.876v1.434a.75.75,0,0,1-.75.75Z" fill="#606563"/>
  </g>
</svg>
