<svg xmlns="http://www.w3.org/2000/svg" xmlns:xlink="http://www.w3.org/1999/xlink" width="258" height="220" viewBox="0 0 258 220">
  <defs>
    <linearGradient id="linear-gradient" x1="0.969" y1="0.381" x2="0" y2="0.582" gradientUnits="objectBoundingBox">
      <stop offset="0" stop-color="#bdbdbe"/>
      <stop offset="1" stop-color="#13447e" stop-opacity="0.071"/>
    </linearGradient>
  </defs>
  <g id="img_258_200" data-name="img_258*200" transform="translate(9 39.151)">
    <g id="area_258_200" data-name="area 258*200" opacity="0">
      <rect id="area_258_200-2" data-name="area 258*200" width="258" height="200" transform="translate(-9 -38.151)" fill="red"/>
      <path id="area_258_200_-_윤곽선" data-name="area 258*200 - 윤곽선" d="M1,1V199H257V1H1M0,0H258V200H0Z" transform="translate(-9 -38.151)" fill="red"/>
    </g>
    <path id="그림자" d="M3287.878,2835.847a28.009,28.009,0,0,1-3.394-.2c-14.267-1.747-35.815-41.365-27.34-81.182l-.337-.324c8.4-19.951,36.4-48.684,70.529-51.828l.22-.281.3.223,5.829-13.167c-6.688-6.225-16.488-25.409-6.434-36.293,4.305-4.661,8.541-6.4,12.044-6.833a14.515,14.515,0,0,1,8.632,1.518s19.667.025,23.874,6.007c5.757,8.181,2.657,14.4.337,17.356a16.678,16.678,0,0,1,1.351,5.367,4.545,4.545,0,0,1,.4,1.391,4.413,4.413,0,0,1-.5,2.681l-.492,6.819c-.582,8.1-7.723,15.361-15.481,16.354l-.234,2.391.291-.542,1.634,1.918c15.879,6.571,32.148,19.886,47.727,42.761l.581.081h0c-4.91-4.972-6.049-12.208-6.459-19.178-.343-5.927,1.739-14.713,5.708-19.76a3.3,3.3,0,0,1,5.37.25,36.238,36.238,0,0,1,2.842,5.247l-.366-18.024c0-.027,0-.054,0-.08h-.084q-.147.008-.295.011c-.1,0-.193,0-.288,0l-.191,0v-.011c-6.457-.375-11.878-10.321-12.216-22.612-.34-12.6,4.783-22.889,11.449-22.987a6.541,6.541,0,0,1,1.3.111l7.122-.111c6.416-.1,11.882,10,12.216,22.556s-4.6,22.816-11.02,22.917l-1.656.025c0,.016,0,.031,0,.047l.068,3.368,6.445-2.671a6.071,6.071,0,0,1,8.367,6.323l.1-.177s.575,2.732,1.238,6.443a6.064,6.064,0,0,1,1.118,6.894,74.849,74.849,0,0,1,.851,8.988c.007.15.007.3,0,.451a9.36,9.36,0,0,1-.369,2.992c-1.67,4.355-7.691,18.483-7.691,18.483s1.672,26.177-1.407,46.444c-1.359,8.944-7.765,12.652-14.765,12.652a23.343,23.343,0,0,1-12.771-4h0c-11.282-1.169-22.08-8.943-30.591-17.211-1.85,10.677-5.383,33.624-5.383,33.624l-.442-.132.359.191s-9.048-3.127-36.333-4.477q-2.238-.111-4.356-.183c.055.206.1.4.139.57a4.67,4.67,0,0,1-1.319,3.605,28.3,28.3,0,0,1,1.479,4.389c.719,3.334-6.167,8.5-8.6,8.078s-5.163-4.445-5.163-4.445h0c-4.449,2.476-14.179,7.175-23.937,7.176ZM3421.4,2726.219a6.067,6.067,0,0,1,1.021-.542l.834-.346a6.1,6.1,0,0,1-1.89-.746Zm-.242-11.883c.056-.036.112-.072.168-.107-.057,0-.114,0-.17-.007Zm11.711-4.407c.116,0,.232.01.348.02l.242-.432A5.8,5.8,0,0,1,3432.872,2709.929Z" transform="translate(-3226.454 -2669.999)" fill="url(#linear-gradient)"/>
    <g id="그룹_29937" data-name="그룹 29937" transform="translate(24.773 -38.529)">
      <g id="옷" transform="translate(1.629 61.763)">
        <path id="패스_23945" data-name="패스 23945" d="M1712.6,944.88c-64.094-94.29-139.686-31.4-154.677,4.3l53.127,51.287,58.391,21.163s4.761-27.01,6.667-38.039c8.776,8.541,19.909,16.572,31.542,17.78l5.549-56.4Z" transform="translate(-1557.927 -895.345)" fill="#71aef5"/>
        <path id="선_405" data-name="선 405" d="M0,41.673a.635.635,0,0,1-.1-.009.631.631,0,0,1-.519-.726L6.224-.1A.631.631,0,0,1,6.95-.622.631.631,0,0,1,7.469.1L.622,41.145A.631.631,0,0,1,0,41.673Z" transform="translate(118.185 47.201)" fill="#242424"/>
        <path id="패스_28003" data-name="패스 28003" d="M20.254,84.791l-10.025,9.1,0,.188-.1-.095-.1.095,0-.191L0,84.791,6.116,73.154.161,9.921,10.1,0,24.554,11.626l-11.69,62Z" transform="matrix(-0.998, 0.07, -0.07, -0.998, 110.93, 109.742)" fill="#fff"/>
        <path id="패스_28311" data-name="패스 28311" d="M0,36.677,5.416,0,79.744,38.118S68.3,34.742,42.76,33.645,0,36.677,0,36.677Z" transform="matrix(0.999, 0.035, -0.035, 0.999, 32.835, 84.847)" fill="#71aef5"/>
        <path id="패스_28312" data-name="패스 28312" transform="translate(13.667 22.236)" fill="#707070"/>
      </g>
      <g id="머리" transform="translate(130.449 76.706) rotate(173)">
        <path id="패스_23946" data-name="패스 23946" d="M44.9,0c6.146,6.1,15.135,28.6,2.9,38.991s-21.829,2.852-21.829,2.852S5.848,39.345,2.3,32.683C-4.592,19.775,6.216,13.131,6.216,13.131Z" transform="translate(0 32.798)" fill="#242424"/>
        <path id="패스_23969" data-name="패스 23969" d="M45.413,3.131c11.044,6.664,7.954,12.221,7.954,12.221l-11,18.417-3.523,5.894A6.527,6.527,0,0,1,40.6,44.925c-.364,3.42-3.112,5.943-6.142,5.626a4.883,4.883,0,0,1-1.385-.358,1.131,1.131,0,0,1-.149-.065,17.366,17.366,0,0,1-14.436,9.843,17.016,17.016,0,0,1-4.514-.285c-.065-.017-.129-.024-.195-.041a17.237,17.237,0,0,1-8.16-4.178,17.455,17.455,0,0,1-4.9-7.821,17.226,17.226,0,0,1-.4-8.281l1.667-8.488c1.616-8.23,9.837-14.779,17.9-14.823q1.294-5.789,2.581-11.6C23.338.581,31.269-2.61,45.413,3.131Z" transform="translate(3.414 0)" fill="#fcded7"/>
        <path id="패스_23948" data-name="패스 23948" d="M7.183,10.488A6.409,6.409,0,0,1,9.127,4.841a9.822,9.822,0,0,1,7.861-2.917A13.661,13.661,0,0,0,8.754.075,10.269,10.269,0,0,0,1.526,4.207a8.251,8.251,0,0,0-.794,8.146,6.918,6.918,0,0,0,7.033,3.836c1.237-.194,3.508-1.107,3.712-2.521C9.563,13.168,7.72,12.864,7.183,10.488Z" transform="translate(8.973 47.294)" fill="#242424"/>
        <path id="패스_23951" data-name="패스 23951" d="M3.388,4.729A.631.631,0,0,1,2.8,4.337,8.4,8.4,0,0,0-.345.528.631.631,0,0,1-.528-.345.631.631,0,0,1,.345-.528,9.674,9.674,0,0,1,3.972,3.858a.631.631,0,0,1-.584.87Z" transform="translate(36.652 42.624)" fill="#242424"/>
        <path id="패스_23953" data-name="패스 23953" d="M10.434,4.79S.629,4.057.085,4.067,1.64.151,5.168,0,10.434,4.79,10.434,4.79Z" transform="matrix(0.998, -0.07, 0.07, 0.998, 11.246, 26.585)" fill="#fff"/>
        <path id="패스_23953_-_윤곽선" data-name="패스 23953 - 윤곽선" d="M10.435,5.421l-.047,0C6.51,5.129.57,4.7.1,4.7H.083a.717.717,0,0,1-.714-.73A4.839,4.839,0,0,1,.947,1.341,6.4,6.4,0,0,1,5.142-.627c.061,0,.123,0,.184,0,3.829,0,5.629,5,5.7,5.212a.631.631,0,0,1-.6.84ZM.859,3.474c1.852.113,6.434.45,8.576.609C8.8,2.8,7.4.631,5.326.631L5.2.634A5.129,5.129,0,0,0,1.924,2.151,6.319,6.319,0,0,0,.859,3.474Z" transform="matrix(0.998, -0.07, 0.07, 0.998, 11.246, 26.585)" fill="#242424"/>
        <path id="패스_23954" data-name="패스 23954" d="M0,12.122A12.109,12.109,0,0,1,4.443,2.616,12.114,12.114,0,0,1,14.681.314a11.425,11.425,0,0,1-2.559,8.727A11.614,11.614,0,0,1,3.9,13.105,7.223,7.223,0,0,1,0,12.122Z" transform="translate(21.783 49.625)" fill="#242424"/>
        <path id="패스_23955" data-name="패스 23955" d="M.808,6.826H.789a.631.631,0,0,1-.612-.649A5.663,5.663,0,0,0-.2,4.354c-.06-.19-.123-.386-.18-.583A3.915,3.915,0,0,1-.264.687,2.694,2.694,0,0,1,3.274-.333a.631.631,0,1,1-.6,1.108A1.434,1.434,0,0,0,.837,1.3a2.774,2.774,0,0,0,0,2.117c.052.182.11.361.17.551a6.686,6.686,0,0,1,.434,2.241A.631.631,0,0,1,.808,6.826Z" transform="matrix(0.998, -0.07, 0.07, 0.998, 13.303, 35.288)" fill="#242424"/>
        <circle id="타원_904" data-name="타원 904" cx="1.296" cy="1.296" r="1.296" transform="matrix(0.998, -0.07, 0.07, 0.998, 20.462, 39.451)" fill="#242424"/>
        <circle id="타원_905" data-name="타원 905" cx="1.296" cy="1.296" r="1.296" transform="matrix(0.998, -0.07, 0.07, 0.998, 6.781, 39.109)" fill="#242424"/>
        <path id="타원_1446" data-name="타원 1446" d="M4.52,1.26A3.5,3.5,0,0,0,1.26,4.952,3.5,3.5,0,0,0,4.52,8.644a3.5,3.5,0,0,0,3.26-3.692A3.5,3.5,0,0,0,4.52,1.26M4.52,0a4.751,4.751,0,0,1,4.52,4.952A4.751,4.751,0,0,1,4.52,9.9,4.751,4.751,0,0,1,0,4.952,4.751,4.751,0,0,1,4.52,0Z" transform="translate(2.523 35.542)" fill="#242424"/>
        <path id="타원_1447" data-name="타원 1447" d="M4.52,1.26A3.5,3.5,0,0,0,1.26,4.952,3.5,3.5,0,0,0,4.52,8.644a3.5,3.5,0,0,0,3.26-3.692A3.5,3.5,0,0,0,4.52,1.26M4.52,0a4.751,4.751,0,0,1,4.52,4.952A4.751,4.751,0,0,1,4.52,9.9,4.751,4.751,0,0,1,0,4.952,4.751,4.751,0,0,1,4.52,0Z" transform="translate(17.484 35.721)" fill="#242424"/>
        <path id="패스_28006" data-name="패스 28006" d="M11.648,9.382a.627.627,0,0,1-.378-.126L-.378.5A.63.63,0,0,1-.5-.378.63.63,0,0,1,.378-.5L12.027,8.248a.63.63,0,0,1-.379,1.134Z" transform="translate(25.737 42.469)" fill="#242424"/>
      </g>
      <path id="패스_28004" data-name="패스 28004" d="M477.143,445.273l-6.159,7.892,21.477,25.476,7.965-13.049,7.557,10.514,5.556-20.921-5.556-6.533L500.426,462.8Z" transform="translate(-402.568 -383.273)" fill="#71aef5"/>
      <g id="돋보기" transform="translate(143.066 11.407)">
        <path id="패스_23957" data-name="패스 23957" d="M1766.374,906.157a3.4,3.4,0,0,0-5.537-.258c-4.092,5.214-6.239,14.29-5.885,20.413.423,7.2,1.6,14.675,6.66,19.811,0,0-16.636,29.066-13.43,45.316s33.1,23.08,36.269,2.144,1.451-47.978,1.451-47.978,6.208-14.6,7.93-19.094-2.929-26.62-2.929-26.62l-16.785,30.034s1.023-5.246-2.146-7.7-1.91-2.958-1.79-7.04C1770.255,912.768,1768.125,908.909,1766.374,906.157Z" transform="translate(-1747.772 -846.149)" fill="#fcded7"/>
        <path id="패스_23958" data-name="패스 23958" d="M1780.616,938.266l-.446.009a3.044,3.044,0,0,1-3.1-2.98l-.9-44.283a3.047,3.047,0,0,1,2.983-3.105l.446-.011a3.043,3.043,0,0,1,3.1,2.981l.9,44.286A3.043,3.043,0,0,1,1780.616,938.266Z" transform="translate(-1755.012 -843.975)" fill="#43bec8"/>
        <path id="패스_23959" data-name="패스 23959" d="M1780.345,828.741l-9.128.142.218,8.284a38.757,38.757,0,0,0-2.451,15.247,39.149,39.149,0,0,0,3.253,15.159l.217,8.284,9.124-.141c6.616-.1,11.7-10.7,11.362-23.674S1786.96,828.637,1780.345,828.741Z" transform="translate(-1752.185 -828.74)" fill="#43bec8"/>
        <path id="패스_23960" data-name="패스 23960" d="M1784.453,852.3c.354,13.012-4.93,23.644-11.8,23.744s-12.733-10.36-13.09-23.369,4.931-23.645,11.8-23.747S1784.1,839.29,1784.453,852.3Z" transform="translate(-1751.886 -828.93)" fill="#fff"/>
        <path id="패스_25759" data-name="패스 25759" d="M1772.057,874.878a8.2,8.2,0,0,1-5.036-1.852,16.211,16.211,0,0,1-4.125-5,35.911,35.911,0,0,1-4.037-16.267c-.232-8.591,2.08-16.489,6.035-20.612a8.556,8.556,0,0,1,6.017-2.911h.011a.7.7,0,0,1,.01,1.4,7.1,7.1,0,0,0-5.027,2.481c-3.7,3.863-5.868,11.375-5.646,19.605a34.5,34.5,0,0,0,3.858,15.62c2.225,3.964,5.042,6.141,7.941,6.141h.1a.7.7,0,0,1,.01,1.4Z" transform="translate(-1751.887 -828.002)" fill="#242424"/>
        <path id="패스_23961" data-name="패스 23961" d="M1794.544,902.776l-8.446,3.511a6.267,6.267,0,0,1-4.814-11.574l8.451-3.511a6.266,6.266,0,1,1,4.809,11.573Z" transform="translate(-1755.333 -843.555)" fill="#fcded7"/>
        <path id="패스_23961_-_윤곽선" data-name="패스 23961 - 윤곽선" d="M1783.694,907.4a6.9,6.9,0,0,1-2.652-13.269l8.451-3.511a6.9,6.9,0,1,1,5.294,12.738l-8.446,3.511A6.863,6.863,0,0,1,1783.694,907.4Zm8.444-16.048a5.6,5.6,0,0,0-2.161.434l-8.451,3.511a5.636,5.636,0,1,0,4.33,10.408l8.446-3.511a5.637,5.637,0,0,0-2.163-10.842Z" transform="translate(-1755.333 -843.555)" fill="#e2b3a8"/>
        <path id="패스_23962" data-name="패스 23962" d="M1798.733,918.35l-8.447,3.51a6.266,6.266,0,0,1-4.811-11.572l8.448-3.513a6.267,6.267,0,0,1,4.81,11.575Z" transform="translate(-1756.401 -847.557)" fill="#fcded7"/>
        <path id="패스_23962_-_윤곽선" data-name="패스 23962 - 윤곽선" d="M1787.881,922.973a6.9,6.9,0,0,1-2.648-13.268l8.448-3.513a6.9,6.9,0,0,1,5.295,12.74l-8.447,3.51A6.859,6.859,0,0,1,1787.881,922.973Zm8.444-16.048a5.6,5.6,0,0,0-2.16.433l-8.448,3.513a5.635,5.635,0,1,0,4.327,10.406l8.447-3.51a5.637,5.637,0,0,0-2.166-10.842Z" transform="translate(-1756.401 -847.557)" fill="#e2b3a8"/>
        <path id="패스_23963" data-name="패스 23963" d="M1799.068,934.829l-8.447,3.51a6.267,6.267,0,1,1-4.812-11.573l8.449-3.51a6.266,6.266,0,1,1,4.811,11.573Z" transform="translate(-1756.486 -851.791)" fill="#fcded7"/>
        <path id="패스_23963_-_윤곽선" data-name="패스 23963 - 윤곽선" d="M1788.215,939.452a6.9,6.9,0,0,1-2.65-13.269l8.449-3.51a6.9,6.9,0,1,1,5.295,12.738l-8.447,3.51A6.858,6.858,0,0,1,1788.215,939.452Zm8.445-16.047a5.606,5.606,0,0,0-2.161.433l-8.449,3.51a5.636,5.636,0,1,0,4.328,10.407l8.448-3.51a5.636,5.636,0,0,0-2.166-10.841Z" transform="translate(-1756.486 -851.791)" fill="#e2b3a8"/>
        <path id="패스_23968" data-name="패스 23968" d="M1776.075,964.511a20.727,20.727,0,0,0,15.936-4.21" transform="translate(-1754.989 -861.413)" fill="#fcded7"/>
        <path id="패스_23968_-_윤곽선" data-name="패스 23968 - 윤곽선" d="M1779.16,965.381a20.479,20.479,0,0,1-3.184-.246.631.631,0,1,1,.2-1.247,20.149,20.149,0,0,0,15.444-4.08.631.631,0,0,1,.787.987,21.25,21.25,0,0,1-7.763,3.874A21.523,21.523,0,0,1,1779.16,965.381Z" transform="translate(-1754.989 -861.413)" fill="#e2b3a8"/>
      </g>
      <g id="그룹_28277" data-name="그룹 28277" transform="translate(0 107.966)">
        <path id="패스_23964" data-name="패스 23964" d="M1557.752,965.162c-8.834,41.187,13.425,82.219,28.154,84.027s30.767-8.742,30.767-8.742l-6.157-28.7-9.244.224s-2.254-38.39-2.462-39.511C1596.923,962.457,1569.171,948.358,1557.752,965.162Z" transform="translate(-1555.74 -957.363)" fill="#fcded7"/>
        <path id="패스_23965" data-name="패스 23965" d="M1622.074,1029.419s10.129-2.784,13.963-3.248,8.083,9.927,8.823,13.372-6.356,8.776-8.861,8.344-5.327-4.594-5.327-4.594" transform="translate(-1572.654 -974.903)" fill="#fcded7"/>
        <path id="패스_23965_-_윤곽선" data-name="패스 23965 - 윤곽선" d="M1636.308,1048.612a2.512,2.512,0,0,1-.427-.035,7.8,7.8,0,0,1-4-2.671,20.485,20.485,0,0,1-1.79-2.222.7.7,0,1,1,1.16-.784c.738,1.09,3.052,3.988,4.864,4.3,1.08.186,3.985-1.319,6.114-3.539,1.454-1.516,2.163-2.962,1.946-3.968-.845-3.934-4.911-12.835-7.883-12.835a1.449,1.449,0,0,0-.172.01c-3.739.452-13.76,3.2-13.861,3.228a.7.7,0,0,1-.371-1.35c.416-.114,10.223-2.8,14.064-3.268,1.993-.239,4.1,1.637,6.271,5.578a36.363,36.363,0,0,1,3.321,8.342c.321,1.489-.5,3.347-2.3,5.231a16.924,16.924,0,0,1-3.768,2.925A7.2,7.2,0,0,1,1636.308,1048.612Z" transform="translate(-1572.654 -974.903)" fill="#e2b3a8"/>
        <path id="패스_23966" data-name="패스 23966" d="M1618.468,1041.729s12.979-4.395,16.813-4.857,8.08,9.927,8.824,13.37-6.36,8.776-8.866,8.346-5.323-4.594-5.323-4.594" transform="translate(-1571.735 -977.632)" fill="#fcded7"/>
        <path id="패스_23966_-_윤곽선" data-name="패스 23966 - 윤곽선" d="M1635.547,1059.312a2.512,2.512,0,0,1-.425-.034,7.813,7.813,0,0,1-4-2.672,20.491,20.491,0,0,1-1.788-2.22.7.7,0,1,1,1.16-.784c.738,1.089,3.049,3.985,4.861,4.3,1.079.185,3.986-1.321,6.115-3.541,1.454-1.516,2.164-2.962,1.948-3.969-.85-3.932-4.922-12.832-7.885-12.832a1.454,1.454,0,0,0-.171.01c-3.718.448-16.543,4.781-16.672,4.825a.7.7,0,1,1-.449-1.326c.533-.18,13.093-4.424,16.954-4.889,1.991-.24,4.1,1.638,6.268,5.579a36.509,36.509,0,0,1,3.324,8.338c.32,1.491-.5,3.349-2.306,5.233a16.939,16.939,0,0,1-3.769,2.926A7.206,7.206,0,0,1,1635.547,1059.312Z" transform="translate(-1571.735 -977.632)" fill="#e2b3a8"/>
        <path id="패스_23967" data-name="패스 23967" d="M1618.691,1052.817s12.977-4.394,16.814-4.855,8.079,9.924,8.822,13.369-6.358,8.777-8.864,8.345-5.322-4.592-5.322-4.592" transform="translate(-1571.792 -980.461)" fill="#fcded7"/>
        <path id="패스_23967_-_윤곽선" data-name="패스 23967 - 윤곽선" d="M1635.772,1070.4a2.512,2.512,0,0,1-.427-.035,7.8,7.8,0,0,1-4-2.669,20.449,20.449,0,0,1-1.788-2.221.7.7,0,1,1,1.16-.784c.737,1.09,3.048,3.986,4.86,4.294a4.911,4.911,0,0,0,2.671-.865,15.467,15.467,0,0,0,3.442-2.672c1.455-1.517,2.166-2.964,1.949-3.97-.866-4.01-5.079-13.182-8.054-12.821-3.722.448-16.545,4.78-16.674,4.823a.7.7,0,0,1-.449-1.326c.533-.18,13.091-4.422,16.955-4.887,1.991-.241,4.1,1.635,6.267,5.576a36.467,36.467,0,0,1,3.323,8.34c.321,1.49-.5,3.349-2.307,5.235a16.932,16.932,0,0,1-3.768,2.924A7.2,7.2,0,0,1,1635.772,1070.4Z" transform="translate(-1571.792 -980.461)" fill="#e2b3a8"/>
      </g>
      <path id="패스_28005" data-name="패스 28005" d="M72.139,82.935a.63.63,0,0,1-.507-.256L53.962,58.688a.63.63,0,1,1,1.015-.747L72.091,81.178l.47-.767.013-.02L82.681,65.235a.63.63,0,0,1,1-.069l10.391,11.69L101.831,56.7a.63.63,0,1,1,1.176.453L94.871,78.275a.63.63,0,0,1-1.059.192L83.276,66.613,73.628,81.08l-.953,1.555a.63.63,0,0,1-.51.3Z" transform="translate(14.311 16.887)" fill="#242424"/>
    </g>
  </g>
</svg>
