<svg xmlns="http://www.w3.org/2000/svg" xmlns:xlink="http://www.w3.org/1999/xlink" width="258" height="200" viewBox="0 0 258 200">
  <defs>
    <clipPath id="clip-path">
      <rect id="area_258_200" data-name="area 258*200" width="258" height="200" transform="translate(42 -0.314)" fill="red" stroke="red" stroke-width="1" opacity="0"/>
    </clipPath>
    <linearGradient id="linear-gradient" x1="0.204" y1="0.533" x2="1.031" y2="0.525" gradientUnits="objectBoundingBox">
      <stop offset="0" stop-color="#ccd8e5"/>
      <stop offset="1" stop-color="#0055c7"/>
    </linearGradient>
  </defs>
  <g id="img_258_200" data-name="img_258*200" transform="translate(-42 0.314)">
    <g id="area_258_200-2" data-name="area 258*200" opacity="0">
      <rect id="area_258_200-3" data-name="area 258*200" width="258" height="200" transform="translate(42 -0.314)" fill="red"/>
      <path id="area_258_200_-_윤곽선" data-name="area 258*200 - 윤곽선" d="M1,1V199H257V1H1M0,0H258V200H0Z" transform="translate(42 -0.314)" fill="red"/>
    </g>
    <g id="마스크_그룹_28138" data-name="마스크 그룹 28138" clip-path="url(#clip-path)">
      <path id="그림자" d="M68.713,170.354h0C24.815,177.3,0,97.017,0,97.017l42.387-4.906,17.8,22.218S77.692,77.564,97.35,71.7c6.183-2.318,31.735-2.837,31.735-2.837q1.622.428,3.177.866L139.138.522c17.714-3.378,39.285,10.011,38.354,29.535s-14.69,33.472-4.463,42.584,34.588,19.9,31.985,40.538c-1.055,8.367-3.669,13.984-6.4,17.705,4.844,20.711,4.9,43.255-4.494,55.225-.172.22-1.3.322-3.2.322C171.309,186.432,68.723,175.562,68.713,170.354Z" transform="translate(75.907 0.833)" fill="url(#linear-gradient)"/>
      <g id="그룹_28190" data-name="그룹 28190" transform="translate(47.43 0.066)">
        <path id="패스_23386" data-name="패스 23386" d="M2375.989,400.391c17.714-3.378,39.285,10.01,38.355,29.535s-14.69,33.472-4.463,42.584,34.589,19.9,31.985,40.538-14.69,24.545-14.69,24.545L2366.182,499.1Z" transform="translate(-2212.981 -399.869)" fill="#242424"/>
        <path id="패스_23390" data-name="패스 23390" d="M2475.2,400.515c-11.472-.318-21.5,11.921-22.689,27.728s-5.949,40.792-12.917,47.251,20.309,6.8,20.608,7.649,22.733-69.178,22.733-69.178Z" transform="translate(-2312.194 -399.993)" fill="#242424"/>
        <g id="손" transform="translate(0 48.024)">
          <path id="패스_23393" data-name="패스 23393" d="M2616.47,481.311c-7.221-5.95-13.716-14.106-17.037-12.746s-2.719,9.028.6,12.746S2616.47,481.311,2616.47,481.311Z" transform="translate(-2573.878 -461.112)" fill="#fcded7"/>
          <path id="패스_23395" data-name="패스 23395" d="M2643.027,480.855l-8.82-15.547a15.185,15.185,0,0,0-3.495-4.643,5.154,5.154,0,0,0-5.459-.832,5.089,5.089,0,0,0-2.374,4.164,14.091,14.091,0,0,0,.8,4.91q2.154,7.372,5.036,14.508c4.765-.629,9.625-1.854,14.39-2.481C2643.2,481.068,2642.924,480.721,2643.027,480.855Z" transform="translate(-2621.224 -459.368)" fill="#fcded7"/>
          <path id="패스_23397" data-name="패스 23397" d="M2568.808,474.736a3.937,3.937,0,0,1,2.663-2.24,5.691,5.691,0,0,1,6.584,2.508c1.651,2.691,4.227,6.332,6.461,7.041,0,0,25.222-1.534,30.659.64s19.125,24.151,19.125,24.151c-3.832,12.769-38.574,7.8-39.383,4.659s-2.766-10.39-3.946-12.5c-1.428-2.544-4.238-3.228-7.024-4.089C2572.433,491.349,2567.6,478.059,2568.808,474.736Z" transform="translate(-2568.627 -461.847)" fill="#fcded7"/>
          <path id="패스_25513" data-name="패스 25513" d="M2633.049,496.9a.7.7,0,0,1-.572-.3c-7-9.888-10.242-12.672-11.73-13.266s-5.666-1.268-17.093-1.086c-6.89.11-13.2.49-13.264.494a.7.7,0,0,1-.254-.031c-1.93-.613-4.233-3.083-6.845-7.342a5.009,5.009,0,0,0-5.767-2.21,3.237,3.237,0,0,0-2.226,1.815.7.7,0,1,1-1.316-.478,4.547,4.547,0,0,1,3.1-2.666,6.2,6.2,0,0,1,4.184.118,6.586,6.586,0,0,1,3.218,2.689c2.3,3.758,4.414,6.127,5.96,6.7.967-.056,6.83-.387,13.183-.488,9.362-.15,15.3.249,17.639,1.186,2.453.98,6.494,5.48,12.353,13.757a.7.7,0,0,1-.571,1.1Z" transform="translate(-2574.458 -461.847)" fill="#e2b3a8"/>
        </g>
        <path id="패스_23399" data-name="패스 23399" d="M2412.75,508.433l17.8,22.218s17.507-36.766,37.166-42.63c6.182-2.318,31.735-2.836,31.735-2.836,20.672,5.451,32.875,12.24,41.573,16.451a37.64,37.64,0,0,1,15.984,14.45c13.738,22.979,22.167,67.611,7.473,86.346a21.269,21.269,0,0,1-7.476,5.882l-57.625-4.746h-59.93s-.362-11.178-.373-16.892h0c-43.9,6.946-68.712-73.336-68.712-73.336Z" transform="translate(-2346.491 -416.322)" fill="#71aef5"/>
        <path id="패스_23544" data-name="패스 23544" d="M3.226,73.18l2.032,4.594,6.451,1.3,55.727-.1V0L0,9.761.03,70.239Z" transform="translate(176.923 196.939) rotate(-172.089)" fill="#fff"/>
        <path id="패스_22769" data-name="패스 22769" d="M25.646,17.329a.7.7,0,0,1-.7-.632c-.232-2.373-.619-6.216-.7-6.757a.7.7,0,0,1-.028-.2,3.73,3.73,0,0,0-2.008-3.624,5.2,5.2,0,0,0-1.463-.474V7.307a3.136,3.136,0,1,1-3.136-3.136h1.657a5.268,5.268,0,0,0-.48-1.458A3.717,3.717,0,0,0,15.221.7L.085,2.549a.7.7,0,0,1-.78-.61.7.7,0,0,1,.61-.78L15.094-.695A.7.7,0,0,1,15.179-.7a5.066,5.066,0,0,1,4.876,2.81A6.764,6.764,0,0,1,20.7,4.22,6.035,6.035,0,0,1,24.146,5.8a5.3,5.3,0,0,1,1.475,3.853q.006.028.01.058c.009.057.019.135.032.239.022.182.053.448.09.791.062.573.145,1.371.247,2.373.173,1.7.342,3.428.344,3.445a.7.7,0,0,1-.628.765C25.692,17.328,25.669,17.329,25.646,17.329ZM17.615,5.571A1.736,1.736,0,1,0,19.35,7.307V5.571Z" transform="matrix(0.966, 0.259, -0.259, 0.966, 165.237, 114.096)" fill="#242424"/>
        <path id="손-2" data-name="손" d="M2508.418,579.135s-8.818-13.228-10.779-15.841-6.206-1.634-7.021,2.123.979,10.289.979,10.289-13.556-5.226-16.168-.49,0,9.962,0,9.962-4.246,2.4-4.573,7a7.118,7.118,0,0,0,2.92,6.578s-4.718.14-3.736,7.326c.707,5.188,33.07,8,33.07,8Z" transform="translate(-2363.06 -431.102)" fill="#fcded7"/>
        <path id="패스_23404" data-name="패스 23404" d="M2463.931,625.321c-14.933,6.039-73.692-7.28-73.692-7.28s-6.13-35.95,11.189-44.658l37.351,6.983" transform="translate(-2253.419 -433.331)" fill="#71aef5"/>
        <path id="패스_23405" data-name="패스 23405" d="M2434.757,523.572c15.853-.069,29.1-20.591,33.97-29.215a175.662,175.662,0,0,0-26.373-9.177,68.266,68.266,0,0,1-12.164,1.742c-1.667,10.914-6.19,36.695,4.567,36.651" transform="translate(-2288.306 -415.231)" fill="#fff"/>
        <path id="패스_23407" data-name="패스 23407" d="M2471.849,444.506h0c-.068,0-.136,0-.2,0a5.776,5.776,0,0,1-4.285-2.2,7.47,7.47,0,0,1,.285-9.558,5.818,5.818,0,0,1,4.3-1.957c.068,0,.136,0,.2,0,3.375.124,6.009,3.3,5.87,7.079a7.282,7.282,0,0,1-1.871,4.678A5.817,5.817,0,0,1,2471.849,444.506Zm.094-12.318c-2.567,0-4.662,2.322-4.77,5.286a5.862,5.862,0,0,0,1.271,3.942,4.4,4.4,0,0,0,3.252,1.687l.153,0c2.567,0,4.662-2.322,4.77-5.286.11-3.008-1.919-5.534-4.522-5.629Z" transform="translate(-2329.192 -405.967)" fill="#707070"/>
        <path id="패스_23408" data-name="패스 23408" d="M2466.474,437.449c-.125,3.4,2.2,6.245,5.2,6.354s5.524-2.558,5.647-5.958-2.2-6.244-5.2-6.354S2466.6,434.049,2466.474,437.449Z" transform="translate(-2329.192 -405.967)" fill="#fcded7"/>
        <path id="패스_23408_-_윤곽선" data-name="패스 23408 - 윤곽선" d="M2471.943,430.788h0c.068,0,.136,0,.2,0,3.375.124,6.009,3.3,5.87,7.079a7.283,7.283,0,0,1-1.871,4.678,5.817,5.817,0,0,1-4.3,1.957c-.068,0-.136,0-.2,0a5.776,5.776,0,0,1-4.285-2.2,7.47,7.47,0,0,1,.285-9.558A5.818,5.818,0,0,1,2471.943,430.788Zm-.094,12.318c2.567,0,4.662-2.322,4.77-5.286.11-3.008-1.919-5.534-4.522-5.629l-.153,0c-2.567,0-4.662,2.322-4.77,5.286a5.862,5.862,0,0,0,1.271,3.942,4.4,4.4,0,0,0,3.252,1.687Z" transform="translate(-2329.192 -405.967)" fill="#242424"/>
        <path id="패스_23421" data-name="패스 23421" d="M2414.528,436.112l2.833-10.535a20.2,20.2,0,0,1,24.749-14.255l1.1.295a20.2,20.2,0,0,1,14.253,24.749l-.582,2.167a5.171,5.171,0,0,1,4.638-.137c2.7,1.308,3.676,4.85,2.192,7.911s-4.876,4.481-7.571,3.173a4.866,4.866,0,0,1-1.82-1.543,20.187,20.187,0,0,1-1.513,3.479q-.5,14.4-.99,28.794c-5.039,11.223-17.341,15.711-25.987,11.681-6.243-2.91-10.242-10.1-10.155-18.057l5.734-16.712A20.2,20.2,0,0,1,2414.528,436.112Z" transform="translate(-2273.781 -401.944)" fill="#fcded7"/>
        <path id="패스_23411" data-name="패스 23411" d="M2414.521,400.516c-2.987,6.883.157,26.255,17.094,38.194l10.073-7.4s-10.672-26.248-27.167-30.793" transform="translate(-2250.916 -399.994)" fill="#242424"/>
        <path id="패스_23413" data-name="패스 23413" d="M2517.621,548.835a.7.7,0,0,1-.684-.852c2.231-10.009,4.785-17.879,7.591-23.391a.7.7,0,1,1,1.248.635c-2.752,5.408-5.266,13.167-7.472,23.061A.7.7,0,0,1,2517.621,548.835Z" transform="translate(-2418.308 -423.983)" fill="#242424"/>
        <path id="패스_23416" data-name="패스 23416" d="M11.558,4.281a.7.7,0,0,1-.647-.432C8.907-.982.262,1.183.175,1.206A.7.7,0,0,1-.678.7a.7.7,0,0,1,.5-.853A20.24,20.24,0,0,1,4.952-.692c3.706.115,6.214,1.5,7.253,4.005a.7.7,0,0,1-.646.968Z" transform="matrix(-0.996, 0.087, -0.087, -0.996, 162.605, 43.182)" fill="#242424"/>
        <path id="패스_23419" data-name="패스 23419" d="M2416.553,452.683a.7.7,0,0,1-.552-1.13,4.954,4.954,0,0,1,5.143-1.684.7.7,0,1,1-.381,1.347,3.57,3.57,0,0,0-3.657,1.2A.7.7,0,0,1,2416.553,452.683Z" transform="translate(-2233.135 -409.168)" fill="#242424"/>
        <path id="패스_23420" data-name="패스 23420" d="M0,5.944a.7.7,0,0,1-.611-.358.7.7,0,0,1,.269-.953A11.478,11.478,0,0,0,.927,3.782c.851-.665,1.087-1.106,1.092-1.262C2.039,1.861,1.188.891.773.525A.7.7,0,0,1,.711-.463.7.7,0,0,1,1.7-.525c.181.159,1.766,1.6,1.72,3.088C3.4,3.29,2.858,4.053,1.775,4.9a12.725,12.725,0,0,1-1.433.959A.7.7,0,0,1,0,5.944Z" transform="matrix(-0.996, 0.087, -0.087, -0.996, 157.494, 36.904)" fill="#242424"/>
        <path id="패스_25505" data-name="패스 25505" d="M2425.861,489.333a7.672,7.672,0,0,1-2.567-.414,7.245,7.245,0,0,1-3.972-3.6,19.255,19.255,0,0,1-1.864-7.66.7.7,0,0,1,.649-.748l.05,0a.7.7,0,0,1,.7.651c.4,5.652,2.05,9.028,4.906,10.035,3.595,1.268,9.335-1.068,16.6-6.756a99.347,99.347,0,0,0,10.156-9.269.7.7,0,1,1,1.025.953,100.9,100.9,0,0,1-10.319,9.419,46.545,46.545,0,0,1-9.158,5.814A15.38,15.38,0,0,1,2425.861,489.333Z" transform="translate(-2278.628 -380.602)" fill="#242424"/>
        <ellipse id="타원_865" data-name="타원 865" cx="1.714" cy="1.714" rx="1.714" ry="1.714" transform="matrix(-0.996, 0.087, -0.087, -0.996, 169.96, 34.51)" fill="#242424"/>
        <ellipse id="타원_866" data-name="타원 866" cx="1.714" cy="1.714" rx="1.714" ry="1.714" transform="matrix(-0.996, 0.087, -0.087, -0.996, 151.844, 31.965)" fill="#242424"/>
        <path id="패스_25511" data-name="패스 25511" d="M2421.866,618.741a.7.7,0,0,1-.689-.582,94.516,94.516,0,0,1-.909-19.225,48.905,48.905,0,0,1,3.084-15.162c2.124-5.244,5.282-8.949,9.389-11.014a.7.7,0,0,1,.589-.018c1.1.29,15.532,3.011,25.094,4.794a.7.7,0,1,1-.257,1.376c-.063-.012-6.372-1.188-12.606-2.367-3.662-.692-6.581-1.25-8.678-1.657-1.246-.242-2.213-.433-2.872-.568-.357-.073-.633-.132-.82-.173l-.06-.014c-8.458,4.441-10.906,15.963-11.467,24.89a92.926,92.926,0,0,0,.892,18.9.7.7,0,0,1-.691.818Z" transform="translate(-2285.048 -433.332)" fill="#242424"/>
      </g>
    </g>
  </g>
</svg>
