<svg xmlns="http://www.w3.org/2000/svg" width="222" height="193.111" viewBox="0 0 222 193.111">
  <g id="illust_300" data-name="illust 300" transform="translate(0 0.111)">
    <g id="illust_240_180" data-name="illust_240*180" transform="translate(0 0)">
      <g id="그룹_27956" data-name="그룹 27956" transform="translate(0 46.91)">
        <path id="패스_25220_-_윤곽선" data-name="패스 25220 - 윤곽선" d="M94.461-28.95a27.455,27.455,0,0,1,11.907,2.466l78.581,39.29c3.158,1.579,4.932,3.72,4.932,5.953s-1.774,4.374-4.932,5.953L106.368,64c-6.576,3.288-17.238,3.288-23.814,0L3.974,24.713C.816,23.134-.958,20.993-.958,18.76s1.774-4.374,4.932-5.953l78.581-39.29A27.455,27.455,0,0,1,94.461-28.95Z" transform="translate(0.958 79.621)" fill="#a2d0ff"/>
        <path id="패스_25219_-_윤곽선" data-name="패스 25219 - 윤곽선" d="M94.12-28.95a27.356,27.356,0,0,1,11.864,2.457l78.3,39.15c3.147,1.573,4.914,3.707,4.914,5.932s-1.768,4.359-4.914,5.932l-78.3,39.15c-6.552,3.276-17.176,3.276-23.729,0l-78.3-39.15C.809,22.948-.958,20.814-.958,18.589S.809,14.23,3.956,12.657l78.3-39.15A27.356,27.356,0,0,1,94.12-28.95Z" transform="translate(0.958 54.172)" fill="#7eb9ff"/>
        <path id="패스_25218_-_윤곽선" data-name="패스 25218 - 윤곽선" d="M94.461-28.95a27.455,27.455,0,0,1,11.907,2.466l78.581,39.29c3.158,1.579,4.932,3.72,4.932,5.953s-1.774,4.374-4.932,5.953L106.368,64c-6.576,3.288-17.238,3.288-23.814,0L3.974,24.713C.816,23.134-.958,20.993-.958,18.76s1.774-4.374,4.932-5.953l78.581-39.29A27.455,27.455,0,0,1,94.461-28.95Z" transform="translate(0.958 28.95)" fill="#53a2ff"/>
        <path id="패스_25218_-_윤곽선-2" data-name="패스 25218 - 윤곽선" d="M80.927,53.966A28.192,28.192,0,0,1,68.607,51.4L47.959,41.078a1,1,0,1,1,.894-1.789L69.5,49.613c6.3,3.15,16.55,3.15,22.85,0L152.77,19.4a1,1,0,1,1,.894,1.789L93.246,51.4A28.192,28.192,0,0,1,80.927,53.966Z" transform="translate(14.216 42.359)" fill="#242424"/>
        <path id="패스_25218_-_윤곽선-3" data-name="패스 25218 - 윤곽선" d="M100.517,40.651a1,1,0,0,1-.448-1.895L138.774,19.4a1,1,0,0,1,.894,1.789L100.964,40.545A1,1,0,0,1,100.517,40.651Z" transform="translate(4.109 45.86)" fill="#242424"/>
        <path id="패스_25218_-_윤곽선-4" data-name="패스 25218 - 윤곽선" d="M100.517,39.243a1,1,0,0,1-.448-1.895l25.4-12.7a1,1,0,1,1,.894,1.789l-25.4,12.7A1,1,0,0,1,100.517,39.243Z" transform="translate(-8.591 45.792)" fill="#242424"/>
      </g>
      <g id="그룹_27958" data-name="그룹 27958" transform="translate(24.805 0)">
        <g id="그룹_27957" data-name="그룹 27957" transform="translate(0)">
          <path id="합치기_169" data-name="합치기 169" d="M78.8,66.887v.16H20.336a20.632,20.632,0,0,1,0-41.261c.141,0,.28,0,.421,0a30.441,30.441,0,0,1,60.168,0c.14,0,.28,0,.422,0a20.632,20.632,0,0,1,0,41.261A20.194,20.194,0,0,1,78.8,66.887Z" fill="#fff"/>
          <path id="패스_25218" data-name="패스 25218" d="M0,61.891a1,1,0,0,1-1-1,1,1,0,0,1,1-1A29.446,29.446,0,1,0,0,1,1,1,0,0,1-1,0,1,1,0,0,1,0-1,31.414,31.414,0,0,1,12.274,1.471,31.433,31.433,0,0,1,22.3,8.209a31.335,31.335,0,0,1,6.758,10,31.464,31.464,0,0,1,0,24.483,31.335,31.335,0,0,1-6.758,10A31.433,31.433,0,0,1,12.274,59.42,31.414,31.414,0,0,1,0,61.891Z" transform="translate(20.864 31.423) rotate(-90)" fill="#242424"/>
          <path id="패스_25219" data-name="패스 25219" d="M16,41.567a1,1,0,0,1-.014-2c.025,0,2.489-.035,4.96-.053,3.686-.026,4.829,0,5.276.052A19.283,19.283,0,0,0,26.142,1a1,1,0,0,1-1-1,1,1,0,0,1,1-1,21.277,21.277,0,0,1,15.05,36.333,21.22,21.22,0,0,1-15.05,6.234h-.212l-.066-.029c-.859-.06-5.619-.031-9.849.029Z" transform="translate(55.606 26.334)" fill="#242424"/>
          <path id="패스_25220" data-name="패스 25220" d="M54.425,41.567h0c-3.256-.014-7.992-.028-9.552-.015l-.008.015h-.577A21.277,21.277,0,0,1,29.234,5.234,21.22,21.22,0,0,1,44.283-1a1,1,0,0,1,1,1,1,1,0,0,1-1,1,19.283,19.283,0,0,0-.043,38.567c.053,0,.1-.006.133-.007l.342-.006c.267,0,.658,0,1.161-.006.844,0,2.018,0,3.489,0,2.5.006,5.038.017,5.063.017a1,1,0,0,1,0,2Z" transform="translate(-23.434 26.334)" fill="#242424"/>
        </g>
        <text id="IT" transform="translate(39.309 48.403)" fill="#242424" font-size="27" font-family="Pretendard-SemiBold, Pretendard" font-weight="600"><tspan x="0" y="0">IT</tspan></text>
        <g id="그룹_27954" data-name="그룹 27954" transform="translate(31.012 63.548)">
          <path id="패스_25212" data-name="패스 25212" d="M40,10.538a1,1,0,0,1-1-1V1.932a1,1,0,0,1,.293-.707l4.778-4.778v-8.4a1,1,0,0,1,1-1,1,1,0,0,1,1,1v8.811a1,1,0,0,1-.293.707L41,2.346V9.538A1,1,0,0,1,40,10.538Z" transform="translate(-37.463 11.95)" fill="#242424"/>
          <path id="타원_817" data-name="타원 817" d="M2.537-1A3.545,3.545,0,1,1-1,2.545,3.545,3.545,0,0,1,2.537-1Zm0,5.089A1.545,1.545,0,1,0,1,2.545,1.543,1.543,0,0,0,2.537,4.089Z" transform="translate(0 21.565)" fill="#242424"/>
        </g>
        <g id="그룹_27959" data-name="그룹 27959" transform="translate(63.995 63.548)">
          <path id="패스_25212-2" data-name="패스 25212" d="M45.071,15.609a1,1,0,0,1-1-1V6.149L39.293,1.371A1,1,0,0,1,39,.664V-11.95a1,1,0,0,1,1-1,1,1,0,0,1,1,1V.25l4.778,4.778a1,1,0,0,1,.293.707v8.874A1,1,0,0,1,45.071,15.609Z" transform="translate(-40 11.95)" fill="#242424"/>
          <path id="타원_817-2" data-name="타원 817" d="M2.537-1A3.545,3.545,0,1,1-1,2.545,3.545,3.545,0,0,1,2.537-1Zm0,5.089A1.545,1.545,0,1,0,1,2.545,1.543,1.543,0,0,0,2.537,4.089Z" transform="translate(2.537 26.654)" fill="#242424"/>
        </g>
        <g id="그룹_27960" data-name="그룹 27960" transform="translate(48.772 63.548)">
          <path id="패스_25212-3" data-name="패스 25212" d="M40,16.976a1,1,0,0,1-1-1V-11.95a1,1,0,0,1,1-1,1,1,0,0,1,1,1V15.976A1,1,0,0,1,40,16.976Z" transform="translate(-37.463 11.95)" fill="#242424"/>
          <path id="타원_817-3" data-name="타원 817" d="M2.537-1A3.545,3.545,0,1,1-1,2.545,3.545,3.545,0,0,1,2.537-1Zm0,5.089A1.545,1.545,0,1,0,1,2.545,1.543,1.543,0,0,0,2.537,4.089Z" transform="translate(0 27.926)" fill="#242424"/>
        </g>
      </g>
      <g id="그룹_27961" data-name="그룹 27961" transform="translate(117.238 26.59)">
        <path id="패스_25218_-_윤곽선-5" data-name="패스 25218 - 윤곽선" d="M50.47-.037,67.239,11.8,16.75,38.376-.02,26.535Z" transform="matrix(0.469, -0.883, 0.883, 0.469, 31.346, 137.305)" fill="#f5bf26"/>
        <path id="패스_25218_-_윤곽선-6" data-name="패스 25218 - 윤곽선" d="M39.833,5.518,32.079-.024,73.05.813,60.965,20.561,56.6,17.36,16.751,36.839-.019,25Z" transform="matrix(0.469, -0.883, 0.883, 0.469, 0, 64.526)" fill="#f5bf26"/>
        <path id="패스_25218_-_윤곽선-7" data-name="패스 25218 - 윤곽선" d="M30.238-29.677,11.677-20.369,43.362-5.06l18.561-9.307Z" transform="translate(42.84 170.198)" fill="#fed45c"/>
        <path id="패스_25218_-_윤곽선-8" data-name="패스 25218 - 윤곽선" d="M30.413-29.411,11.853-20.1,44.806-3.522,63.367-12.83Z" transform="translate(9.975 96.358)" fill="#fed45c"/>
      </g>
    </g>
  </g>
</svg>
