<svg width="220" height="81" viewBox="0 0 220 81" fill="none" xmlns="http://www.w3.org/2000/svg">
<path d="M153.739 25.1115C153.739 26.6252 153.494 27.9314 153.004 29.0301C152.538 30.1287 151.863 31.0321 150.981 31.7401C150.098 32.4481 149.019 32.9731 147.744 33.3149C146.494 33.6567 145.084 33.8398 143.515 33.8642C141.799 33.8886 140.034 33.8154 138.219 33.6445C136.429 33.498 134.86 33.3027 133.512 33.0585V4.31011H144.582C146.053 4.31011 147.303 4.52985 148.333 4.96931C149.387 5.38437 150.233 5.95811 150.87 6.69056C151.532 7.39859 152.011 8.21648 152.305 9.14424C152.623 10.072 152.783 11.0242 152.783 12.0008C152.783 12.6111 152.685 13.2581 152.489 13.9417C152.292 14.6009 151.998 15.2235 151.606 15.8095C151.238 16.3954 150.772 16.9203 150.208 17.3842C149.669 17.8237 149.044 18.1289 148.333 18.2998V18.4096C149.093 18.5317 149.804 18.8003 150.466 19.2153C151.128 19.606 151.692 20.1065 152.158 20.7168C152.648 21.3028 153.028 21.9742 153.298 22.7311C153.592 23.4879 153.739 24.2814 153.739 25.1115ZM137.851 17.018H143.736C144.545 17.018 145.244 16.8959 145.832 16.6518C146.42 16.3832 146.911 16.0292 147.303 15.5897C147.695 15.1259 147.99 14.6009 148.186 14.015C148.382 13.4046 148.48 12.7576 148.48 12.074C148.48 10.5603 148.063 9.36397 147.23 8.48504C146.396 7.5817 145.244 7.13002 143.772 7.13002H137.851V17.018ZM137.851 30.6414C138.636 30.7635 139.568 30.8612 140.646 30.9344C141.725 31.0077 142.73 31.0321 143.662 31.0077C144.692 30.9833 145.575 30.8246 146.31 30.5316C147.046 30.2386 147.634 29.8358 148.075 29.3231C148.541 28.7859 148.884 28.1633 149.105 27.4553C149.326 26.7473 149.436 25.966 149.436 25.1115C149.436 24.2082 149.265 23.4269 148.921 22.7677C148.603 22.1085 148.173 21.5592 147.634 21.1197C147.095 20.6802 146.469 20.3628 145.758 20.1675C145.072 19.9478 144.373 19.8379 143.662 19.8379H137.851V30.6414Z" fill="#0C70F5"/>
<path d="M165.803 12.5135C166.098 12.5135 166.429 12.5257 166.796 12.5501C167.164 12.5745 167.544 12.6111 167.936 12.66C168.329 12.7088 168.709 12.7698 169.076 12.8431C169.444 12.9163 169.775 12.9896 170.069 13.0628C171.59 13.5023 172.693 14.2225 173.379 15.2235C174.066 16.2001 174.409 17.3964 174.409 18.8125V32.7289C173.796 32.9486 173.122 33.1318 172.386 33.2782C171.651 33.4247 170.879 33.5468 170.069 33.6445C169.285 33.7665 168.476 33.852 167.642 33.9008C166.809 33.9496 166.012 33.9741 165.252 33.9741C164.369 33.9741 163.572 33.9374 162.861 33.8642C162.15 33.791 161.476 33.6811 160.838 33.5346C160.078 33.3637 159.441 33.0585 158.926 32.619C158.436 32.204 158.031 31.7157 157.712 31.1542C157.418 30.5926 157.21 29.97 157.087 29.2864C156.965 28.6028 156.903 27.907 156.903 27.199C156.903 26.0759 157.026 25.0993 157.271 24.2692C157.516 23.4391 157.921 22.7555 158.485 22.2184C159.049 21.6568 159.784 21.2418 160.691 20.9732C161.623 20.6802 162.751 20.5093 164.075 20.4605C164.516 20.4361 165.007 20.4239 165.546 20.4239C166.085 20.4239 166.625 20.4361 167.164 20.4605C167.703 20.4849 168.231 20.5093 168.745 20.5337C169.285 20.5581 169.775 20.5826 170.217 20.607V19.0322C170.217 18.2998 170.082 17.7016 169.812 17.2377C169.542 16.7494 169.187 16.371 168.745 16.1025C168.304 15.8095 167.802 15.6142 167.238 15.5165C166.698 15.3944 166.147 15.3334 165.583 15.3334C165.043 15.3334 164.467 15.37 163.854 15.4433C163.266 15.5165 162.677 15.6142 162.089 15.7362C161.525 15.8339 160.973 15.956 160.434 16.1025C159.895 16.2245 159.404 16.3588 158.963 16.5053L158.191 13.8685C159.318 13.4779 160.544 13.1605 161.868 12.9163C163.217 12.6478 164.528 12.5135 165.803 12.5135ZM170.217 23.4269C169.775 23.4025 169.285 23.3781 168.745 23.3536C168.231 23.3292 167.703 23.317 167.164 23.317C166.649 23.2926 166.134 23.2804 165.619 23.2804C165.105 23.2804 164.651 23.2926 164.259 23.317C162.984 23.3658 162.15 23.6954 161.758 24.3058C161.366 24.8918 161.169 25.8073 161.169 27.0525C161.169 28.1023 161.329 28.9935 161.648 29.7259C161.966 30.4583 162.518 30.8856 163.303 31.0077C163.646 31.0565 164.014 31.0931 164.406 31.1175C164.798 31.142 165.203 31.1542 165.619 31.1542C166.306 31.1542 167.017 31.142 167.753 31.1175C168.513 31.0931 169.334 31.0199 170.217 30.8978V23.4269Z" fill="#0C70F5"/>
<path d="M192.178 33.3515V19.2886C192.178 16.7006 190.989 15.4066 188.611 15.4066C187.679 15.4066 186.71 15.4677 185.705 15.5897C184.724 15.7118 183.842 15.8705 183.057 16.0658V33.3515H178.828V14.0516C180.152 13.661 181.66 13.307 183.351 12.9896C185.043 12.6722 186.686 12.5135 188.28 12.5135C189.04 12.5135 189.8 12.5379 190.56 12.5867C191.344 12.6111 192.104 12.7576 192.84 13.0262C194.237 13.5145 195.181 14.2713 195.672 15.2968C196.162 16.3222 196.407 17.5429 196.407 18.959V33.3515H192.178Z" fill="#0C70F5"/>
<path d="M205.616 33.3515H201.387V3.39456H205.616V21.376L213.413 13.0628H218.745L209.993 21.8888C210.36 21.962 210.777 22.1573 211.243 22.4747C211.709 22.7677 212.064 23.0851 212.31 23.4269L219.702 33.3515H215.031L208.816 25.0016C208.546 24.6354 208.24 24.2814 207.896 23.9396C207.553 23.5978 207.063 23.4269 206.425 23.4269H205.616V33.3515Z" fill="#0C70F5"/>
<path d="M60.9541 18.666C60.9541 21.5293 60.6438 23.94 60.0233 25.8978C59.4276 27.8557 58.5713 29.422 57.4544 30.5967C56.3375 31.7959 54.9972 32.6525 53.4335 33.1664C51.8698 33.7049 50.1448 33.9741 48.2584 33.9741C46.3721 33.9741 44.647 33.7049 43.0833 33.1664C41.5197 32.6525 40.1669 31.7959 39.0252 30.5967C37.9083 29.3975 37.0396 27.8312 36.419 25.8978C35.7985 23.94 35.4883 21.5293 35.4883 18.666C35.4883 15.8026 35.7985 13.4042 36.419 11.4708C37.0396 9.51291 37.9083 7.94661 39.0252 6.77189C40.1669 5.57269 41.5197 4.71612 43.0833 4.20218C44.647 3.66377 46.3721 3.39456 48.2584 3.39456C50.1448 3.39456 51.8698 3.66377 53.4335 4.20218C54.9972 4.71612 56.3375 5.57269 57.4544 6.77189C58.5713 7.94661 59.4276 9.51291 60.0233 11.4708C60.6438 13.4042 60.9541 15.8026 60.9541 18.666ZM41.743 18.666C41.743 21.0154 41.892 22.9488 42.1898 24.4662C42.5125 25.9835 42.9468 27.1827 43.4929 28.0637C44.0638 28.9448 44.7463 29.5566 45.5406 29.8992C46.3597 30.2419 47.2656 30.4132 48.2584 30.4132C49.2512 30.4132 50.1448 30.2419 50.939 29.8992C51.7333 29.5566 52.4034 28.9448 52.9495 28.0637C53.5204 27.1827 53.9547 25.9835 54.2526 24.4662C54.5504 22.9488 54.6993 21.0154 54.6993 18.666C54.6993 16.3165 54.5628 14.3831 54.2898 12.8658C54.0168 11.3484 53.6072 10.1615 53.0612 9.30489C52.5151 8.42384 51.845 7.81201 51.0507 7.46938C50.2565 7.12675 49.3257 6.95544 48.2584 6.95544C47.1663 6.95544 46.2107 7.12675 45.3917 7.46938C44.5974 7.81201 43.9272 8.42384 43.3812 9.30489C42.8351 10.1615 42.4256 11.3484 42.1526 12.8658C41.8796 14.3831 41.743 16.3165 41.743 18.666Z" fill="#1D74E8"/>
<path d="M72.3162 3.94521C73.1849 3.94521 73.8054 4.10429 74.1777 4.42244C74.5748 4.71613 74.8975 5.19336 75.1457 5.85414L83.4854 28.5777V3.94521H89.07V33.4234H82.4057C81.537 33.4234 80.904 33.2643 80.5069 32.9462C80.1098 32.6525 79.7871 32.1753 79.5389 31.5145L71.1992 8.79095V33.4234H65.6146V3.94521H72.3162Z" fill="#1D74E8"/>
<path d="M94.6648 33.4234V3.94521H113.876V7.39596H100.808V16.4266H112.871V19.8774H100.808V29.9727H106.802C107.472 29.9727 108.155 29.9482 108.85 29.8992C109.569 29.8258 110.252 29.7402 110.897 29.6423C111.568 29.5444 112.188 29.4343 112.759 29.3119C113.33 29.1895 113.814 29.0672 114.211 28.9448L114.918 32.2854C114.596 32.4567 114.136 32.6036 113.541 32.7259C112.945 32.8728 112.287 32.9951 111.568 33.093C110.848 33.1909 110.078 33.2643 109.259 33.3133C108.465 33.3867 107.696 33.4234 106.951 33.4234H94.6648Z" fill="#1D74E8"/>
<path fill-rule="evenodd" clip-rule="evenodd" d="M38.6541 30.944C37.4754 29.6785 36.5737 28.0416 35.9356 26.0535L35.935 26.0517C35.2939 24.0287 34.9805 21.5625 34.9805 18.6659C34.9805 15.7699 35.2937 13.3153 35.9353 11.3158C36.5731 9.30374 37.4754 7.6641 38.6577 6.4206C39.8562 5.16177 41.28 4.25951 42.9226 3.71902C44.5457 3.16062 46.3266 2.8848 48.2603 2.8848C50.1939 2.8848 51.9748 3.16062 53.5979 3.71902C55.2406 4.25953 56.6528 5.16197 57.8274 6.42247C59.0098 7.66678 59.8991 9.30698 60.5117 11.3187C61.1526 13.3177 61.4656 15.7713 61.4656 18.6659C61.4656 21.5612 61.1525 24.0264 60.5119 26.0489C59.8994 28.061 59.01 29.7015 57.8273 30.946C56.6528 32.2065 55.2406 33.1089 53.5979 33.6494C51.9748 34.2078 50.1939 34.4836 48.2603 34.4836C46.3266 34.4836 44.5457 34.2078 42.9226 33.6494C41.28 33.1089 39.8564 32.2069 38.6579 30.9481L38.6541 30.944ZM57.4563 30.5966C58.5732 29.4219 59.4295 27.8556 60.0252 25.8977C60.6457 23.9399 60.9559 21.5292 60.9559 18.6659C60.9559 15.8025 60.6457 13.4041 60.0252 11.4707C59.4295 9.5128 58.5732 7.94651 57.4563 6.77178C56.3393 5.57259 54.999 4.71602 53.4353 4.20208C51.8716 3.66366 50.1466 3.39445 48.2603 3.39445C46.3739 3.39445 44.6489 3.66366 43.0852 4.20208C41.5215 4.71602 40.1688 5.57259 39.0271 6.77178C37.9101 7.94651 37.0414 9.5128 36.4209 11.4707C35.8004 13.4041 35.4901 15.8025 35.4901 18.6659C35.4901 21.5292 35.8004 23.9399 36.4209 25.8977C37.0414 27.8311 37.9101 29.3974 39.0271 30.5966C40.1688 31.7958 41.5215 32.6524 43.0852 33.1663C44.6489 33.7048 46.3739 33.974 48.2603 33.974C50.1466 33.974 51.8716 33.7048 53.4353 33.1663C54.999 32.6524 56.3393 31.7958 57.4563 30.5966ZM52.5236 27.7865C53.0466 26.9793 53.4636 25.8489 53.7543 24.3679C54.0434 22.8949 54.1915 20.9974 54.1915 18.6659C54.1915 16.3327 54.0557 14.4323 53.79 12.9559C53.5233 11.4734 53.1301 10.3581 52.6333 9.57874L52.6298 9.57329C52.1275 8.76291 51.5316 8.23096 50.8507 7.93725C50.1332 7.62775 49.2739 7.46499 48.2603 7.46499C47.2218 7.46499 46.3365 7.62775 45.5928 7.93835C44.913 8.2323 44.3179 8.7639 43.8163 9.57327L43.8128 9.57877C43.316 10.3581 42.9228 11.4734 42.656 12.9559C42.3904 14.4323 42.2546 16.3327 42.2546 18.6659C42.2546 20.9954 42.4024 22.8916 42.691 24.364C43.0063 25.8449 43.4232 26.9791 43.9252 27.7908C44.4519 28.6021 45.0604 29.1355 45.7418 29.4301C46.4909 29.743 47.3281 29.9034 48.2603 29.9034C49.1939 29.9034 50.0172 29.7425 50.739 29.4312C51.4199 29.1375 52.0159 28.6055 52.5181 27.7952L52.5236 27.7865ZM45.5424 29.8991C44.7482 29.5565 44.0656 28.9447 43.4947 28.0636C42.9487 27.1826 42.5143 25.9834 42.1917 24.4661C41.8938 22.9487 41.7449 21.0153 41.7449 18.6659C41.7449 16.3164 41.8814 14.383 42.1544 12.8657C42.4275 11.3483 42.837 10.1613 43.383 9.30478C43.9291 8.42374 44.5992 7.8119 45.3935 7.46928C46.2126 7.12665 47.1682 6.95533 48.2603 6.95533C49.3275 6.95533 50.2583 7.12665 51.0526 7.46928C51.8468 7.8119 52.517 8.42374 53.063 9.30478C53.6091 10.1613 54.0186 11.3483 54.2916 12.8657C54.5647 14.383 54.7012 16.3164 54.7012 18.6659C54.7012 21.0153 54.5523 22.9487 54.2544 24.4661C53.9566 25.9834 53.5222 27.1826 52.9513 28.0636C52.4053 28.9447 51.7351 29.5565 50.9409 29.8991C50.1466 30.2418 49.2531 30.4131 48.2603 30.4131C47.2674 30.4131 46.3615 30.2418 45.5424 29.8991ZM75.6246 5.67482L75.626 5.67843L82.9775 25.7096V3.43545H89.5815V33.933H82.4075C81.5018 33.933 80.7298 33.7718 80.1979 33.3501C79.6986 32.9777 79.3309 32.4051 79.0636 31.6936L79.0623 31.69L71.7107 11.6588V33.933H65.1068V3.43545H72.318C73.2154 3.43545 73.9834 3.59346 74.4966 4.02302C74.9927 4.39546 75.3585 4.96631 75.6246 5.67482ZM74.1795 4.42234C73.8072 4.10418 73.1867 3.94511 72.318 3.94511H65.6165V33.4233H71.2011V8.79084L79.5407 31.5144C79.789 32.1752 80.1116 32.6524 80.5087 32.9461C80.9059 33.2642 81.5388 33.4233 82.4075 33.4233H89.0718V3.94511H83.4872V28.5776L75.1475 5.85403C74.8993 5.19325 74.5767 4.71602 74.1795 4.42234ZM94.1569 33.933V3.43545H114.387V7.90551H101.319V15.9169H113.382V20.3869H101.319V29.4629H106.804C107.459 29.4629 108.127 29.4391 108.808 29.3913C109.517 29.3188 110.189 29.2344 110.823 29.1383L110.826 29.1379C111.486 29.0413 112.096 28.9331 112.654 28.8134C113.216 28.6931 113.684 28.5742 114.063 28.4576L114.596 28.2933L115.498 32.5554L115.159 32.7354C114.777 32.9386 114.267 33.0968 113.655 33.223C113.041 33.3738 112.369 33.4985 111.638 33.5979C110.906 33.6974 110.127 33.7718 109.3 33.8214C108.494 33.8957 107.711 33.933 106.953 33.933H94.1569ZM109.261 33.3132C110.08 33.2642 110.85 33.1908 111.569 33.0929C112.289 32.995 112.947 32.8727 113.543 32.7258C114.138 32.6035 114.597 32.4566 114.92 32.2853L114.213 28.9447C114.062 28.9913 113.898 29.0379 113.721 29.0844C113.434 29.1602 113.114 29.236 112.761 29.3118C112.19 29.4342 111.569 29.5443 110.899 29.6422C110.254 29.7401 109.571 29.8257 108.852 29.8991C108.157 29.9481 107.474 29.9726 106.804 29.9726H100.81V19.8773H112.872V16.4265H100.81V7.39586H113.878V3.94511H94.6666V33.4233H106.953C107.697 33.4233 108.467 33.3866 109.261 33.3132Z" fill="#1D74E8"/>
<path d="M1.68359 13.5918H5.04582C6.92236 13.5918 8.44359 15.113 8.44359 16.9896V33.9782H5.08136C3.20483 33.9782 1.68359 32.457 1.68359 30.5804V13.5918Z" fill="#1D74E8"/>
<path d="M10.14 5.09661C10.14 7.91138 7.87008 10.1932 5.07 10.1932C2.26992 10.1932 0 7.91138 0 5.09661C0 2.28185 2.26992 3.05176e-05 5.07 3.05176e-05C7.87008 3.05176e-05 10.14 2.28185 10.14 5.09661Z" fill="#FD5435"/>
<path d="M16.8984 16.9883H25.3307C27.2072 16.9883 28.7284 18.5095 28.7284 20.386H20.2962C18.4197 20.386 16.8984 18.8648 16.8984 16.9883Z" fill="#1D74E8"/>
<path d="M103.835 53.0117H107.963V78.8691C107.963 79.3191 107.749 79.642 107.319 79.8376C106.89 80.0529 106.421 80.1605 105.914 80.1605C105.406 80.1605 104.928 80.0529 104.479 79.8376C104.05 79.642 103.835 79.3191 103.835 78.8691V53.0117ZM99.9122 54.6847V57.5023C99.9122 59.6938 99.639 61.6504 99.0925 63.3723C98.546 65.0746 97.7458 66.6008 96.6918 67.9509C95.6574 69.301 94.3692 70.5141 92.8273 71.5903C91.3049 72.6469 89.5678 73.6252 87.6161 74.5253L85.9766 72.1773C87.6356 71.2968 89.0701 70.3771 90.2802 69.4184C91.4903 68.44 92.4955 67.3639 93.2957 66.1899C94.0959 64.9963 94.6912 63.6756 95.0816 62.2276C95.4719 60.7797 95.6769 59.1263 95.6964 57.2675H88.0259C87.577 57.2675 87.2647 57.1403 87.0891 56.8859C86.9134 56.6316 86.8256 56.3381 86.8256 56.0054C86.8256 55.6728 86.9134 55.3695 87.0891 55.0956C87.2647 54.8217 87.577 54.6847 88.0259 54.6847H99.9122Z" fill="#333333"/>
<path d="M120.763 53.2759C121.875 53.2759 122.851 53.4129 123.691 53.6868C124.53 53.9412 125.242 54.3031 125.828 54.7727C126.413 55.2228 126.882 55.7609 127.233 56.387C127.584 56.9936 127.828 57.649 127.965 58.3534H132.269V53.0117H136.397V65.4268C136.397 65.8768 136.172 66.2094 135.723 66.4247C135.294 66.6399 134.816 66.7475 134.289 66.7475C133.781 66.7475 133.313 66.6399 132.883 66.4247C132.473 66.2094 132.269 65.8768 132.269 65.4268V60.9362H128.023C127.906 61.6798 127.672 62.3744 127.321 63.0201C126.97 63.6462 126.491 64.1941 125.886 64.6637C125.301 65.1333 124.579 65.5051 123.72 65.779C122.881 66.0529 121.895 66.1899 120.763 66.1899C119.514 66.1899 118.43 66.0236 117.513 65.6909C116.596 65.3387 115.835 64.8691 115.23 64.2821C114.625 63.6951 114.166 63.0103 113.854 62.2276C113.561 61.445 113.414 60.6134 113.414 59.7329C113.414 58.872 113.561 58.0502 113.854 57.2675C114.166 56.4848 114.625 55.8 115.23 55.213C115.835 54.626 116.596 54.1564 117.513 53.8042C118.45 53.452 119.533 53.2759 120.763 53.2759ZM118.538 68.215H122.607V71.6783H132.356V68.215H136.367V76.2569C136.367 77.0005 136.133 77.6168 135.665 78.106C135.196 78.5951 134.562 78.9865 133.762 79.28C132.981 79.593 132.054 79.8181 130.98 79.955C129.926 80.092 128.814 80.1702 127.643 80.1898C127.233 80.1898 126.657 80.1702 125.916 80.1311C125.193 80.1115 124.403 80.0529 123.544 79.955C122.705 79.8572 121.836 79.73 120.939 79.5735C120.06 79.4365 119.26 79.2506 118.538 79.0158V68.215ZM123.954 59.7329C123.954 58.4219 123.7 57.4436 123.193 56.7979C122.685 56.1522 121.875 55.8293 120.763 55.8293C119.553 55.8293 118.714 56.1522 118.245 56.7979C117.796 57.4436 117.572 58.4219 117.572 59.7329C117.572 61.0243 117.796 62.0026 118.245 62.6679C118.714 63.3136 119.553 63.6364 120.763 63.6364C121.895 63.6364 122.705 63.3038 123.193 62.6385C123.7 61.9733 123.954 61.0047 123.954 59.7329ZM132.356 74.1731H122.607V77.1961C122.92 77.2744 123.3 77.3331 123.749 77.3722C124.218 77.4309 124.686 77.4701 125.154 77.4896C125.642 77.5288 126.101 77.5483 126.53 77.5483C126.96 77.5679 127.311 77.5777 127.584 77.5777C128.15 77.5581 128.716 77.5288 129.282 77.4896C129.848 77.4701 130.356 77.4114 130.805 77.3135C131.273 77.2353 131.644 77.1179 131.917 76.9613C132.21 76.8048 132.356 76.5993 132.356 76.345V74.1731Z" fill="#333333"/>
</svg>
