<svg width="51" height="28" viewBox="0 0 51 28" fill="none" xmlns="http://www.w3.org/2000/svg">
<path d="M17.8587 0.44043H21.9867V26.2977C21.9867 26.7478 21.772 27.0706 21.3426 27.2663C20.9132 27.4815 20.4448 27.5891 19.9374 27.5891C19.4299 27.5891 18.9517 27.4815 18.5028 27.2663C18.0734 27.0706 17.8587 26.7478 17.8587 26.2977V0.44043ZM13.9357 2.11338V4.93097C13.9357 7.12244 13.6624 9.0791 13.1159 10.801C12.5694 12.5033 11.7692 14.0295 10.7152 15.3796C9.68079 16.7297 8.39262 17.9428 6.85072 19.019C5.32834 20.0756 3.59126 21.0539 1.63949 21.954L0 19.606C1.65901 18.7255 3.09356 17.8058 4.30366 16.8471C5.51376 15.8687 6.51892 14.7926 7.31915 13.6186C8.11937 12.425 8.71466 11.1043 9.10502 9.65632C9.49537 8.20839 9.70031 6.55501 9.71983 4.69617H2.04936C1.60045 4.69617 1.28817 4.56899 1.11251 4.31462C0.936851 4.06026 0.849021 3.76676 0.849021 3.43413C0.849021 3.10149 0.936851 2.79821 1.11251 2.52428C1.28817 2.25034 1.60045 2.11338 2.04936 2.11338H13.9357Z" fill="#333333"/>
<path d="M34.7863 0.704579C35.8988 0.704579 36.8747 0.841546 37.714 1.11548C38.5532 1.36985 39.2656 1.73183 39.8512 2.20143C40.4367 2.65146 40.9051 3.18954 41.2564 3.81568C41.6077 4.42224 41.8517 5.07772 41.9883 5.78212H46.292V0.44043H50.42V12.8555C50.42 13.3055 50.1955 13.6381 49.7466 13.8534C49.3172 14.0686 48.8391 14.1762 48.3121 14.1762C47.8046 14.1762 47.3362 14.0686 46.9068 13.8534C46.4969 13.6381 46.292 13.3055 46.292 12.8555V8.36492H42.0469C41.9298 9.10845 41.6956 9.80307 41.3443 10.4488C40.9929 11.0749 40.5148 11.6228 39.9097 12.0924C39.3242 12.562 38.602 12.9337 37.7432 13.2077C36.904 13.4816 35.9183 13.6186 34.7863 13.6186C33.5372 13.6186 32.4539 13.4522 31.5366 13.1196C30.6193 12.7674 29.8581 12.2978 29.253 11.7108C28.648 11.1238 28.1893 10.439 27.877 9.65632C27.5843 8.87365 27.4379 8.04207 27.4379 7.16157C27.4379 6.30064 27.5843 5.47884 27.877 4.69617C28.1893 3.91351 28.648 3.22868 29.253 2.64168C29.8581 2.05468 30.6193 1.58508 31.5366 1.23288C32.4735 0.88068 33.5567 0.704579 34.7863 0.704579ZM32.5613 15.6437H36.6307V19.107H46.3798V15.6437H50.3907V23.6856C50.3907 24.4291 50.1565 25.0455 49.6881 25.5346C49.2197 26.0238 48.5853 26.4151 47.7851 26.7086C47.0044 27.0217 46.0773 27.2467 45.0038 27.3837C43.9499 27.5207 42.8374 27.5989 41.6663 27.6185C41.2564 27.6185 40.6807 27.5989 39.939 27.5598C39.2168 27.5402 38.4264 27.4815 37.5676 27.3837C36.7283 27.2859 35.8598 27.1587 34.962 27.0021C34.0837 26.8652 33.2834 26.6793 32.5613 26.4445V15.6437ZM37.9775 7.16157C37.9775 5.85061 37.7237 4.87227 37.2163 4.22658C36.7088 3.58088 35.8988 3.25803 34.7863 3.25803C33.5762 3.25803 32.7369 3.58088 32.2685 4.22658C31.8196 4.87227 31.5952 5.85061 31.5952 7.16157C31.5952 8.45297 31.8196 9.4313 32.2685 10.0966C32.7369 10.7423 33.5762 11.0651 34.7863 11.0651C35.9183 11.0651 36.7283 10.7325 37.2163 10.0672C37.7237 9.40195 37.9775 8.4334 37.9775 7.16157ZM46.3798 21.6018H36.6307V24.6248C36.943 24.7031 37.3236 24.7618 37.7725 24.8009C38.2409 24.8596 38.7094 24.8987 39.1778 24.9183C39.6657 24.9574 40.1244 24.977 40.5538 24.977C40.9832 24.9966 41.3345 25.0063 41.6077 25.0063C42.1738 24.9868 42.7398 24.9574 43.3058 24.9183C43.8718 24.8987 44.3793 24.84 44.8282 24.7422C45.2966 24.6639 45.6674 24.5465 45.9407 24.39C46.2335 24.2335 46.3798 24.028 46.3798 23.7736V21.6018Z" fill="#333333"/>
</svg>
