<svg width="194" height="39" viewBox="0 0 194 39" fill="none" xmlns="http://www.w3.org/2000/svg">
<g clip-path="url(#clip0_190_2087)">
<path d="M189.329 9.1C191.842 9.1 193.879 7.0629 193.879 4.55C193.879 2.0371 191.842 0 189.329 0C186.816 0 184.779 2.0371 184.779 4.55C184.779 7.0629 186.816 9.1 189.329 9.1Z" fill="#14B7CC"/>
<path d="M180.59 19.5401C179.91 17.9501 178.95 16.5201 177.72 15.3001C176.49 14.0701 175.05 13.1101 173.46 12.4401C171.81 11.7401 170.05 11.3901 168.24 11.3901C166.43 11.3901 164.67 11.7401 163.02 12.4401C161.42 13.1101 159.99 14.0801 158.76 15.3001C157.53 16.5201 156.56 17.9501 155.89 19.5401C155.19 21.1901 154.84 22.9401 154.84 24.7401C154.84 26.5401 155.19 28.2901 155.89 29.9401C156.57 31.5301 157.53 32.9601 158.76 34.1801C159.99 35.4101 161.43 36.3701 163.02 37.0401C164.67 37.7401 166.43 38.0901 168.24 38.0901C170.6 38.0901 172.92 37.4701 174.95 36.3001C175.02 36.2601 175.06 36.1901 175.06 36.1201V31.7601C175.06 31.6901 175.04 31.6201 174.99 31.5601C174.64 31.1001 174.18 30.8201 173.7 30.7601C173.28 30.7101 172.86 30.8301 172.52 31.1001C172.17 31.3901 171.75 31.6201 171.29 31.8001C168.08 33.0501 164.71 32.2901 162.5 29.8201C160.3 27.3601 159.94 23.8901 161.58 20.7601C162.17 19.6301 163.12 18.6901 164.26 18.1001C166.95 16.7101 169.86 16.7501 172.24 18.2101C174.55 19.6201 175.92 22.0601 175.92 24.7401V37.6101C175.92 37.7301 176.02 37.8201 176.13 37.8201H181.43C181.55 37.8201 181.64 37.7201 181.64 37.6101V24.7401C181.64 22.9401 181.29 21.1901 180.59 19.5401Z" fill="#444444"/>
<path d="M192.239 11.4199H186.409C186.293 11.4199 186.199 11.5139 186.199 11.6299V37.8699C186.199 37.9859 186.293 38.0799 186.409 38.0799H192.239C192.355 38.0799 192.449 37.9859 192.449 37.8699V11.6299C192.449 11.5139 192.355 11.4199 192.239 11.4199Z" fill="#444444"/>
<path d="M148.68 37.8699C150.254 37.8699 151.53 36.5939 151.53 35.0199C151.53 33.4459 150.254 32.1699 148.68 32.1699C147.106 32.1699 145.83 33.4459 145.83 35.0199C145.83 36.5939 147.106 37.8699 148.68 37.8699Z" fill="#444444"/>
<path d="M18.6801 14.8301C20.7201 12.6401 23.5901 11.3901 26.5901 11.3901C30.8601 11.3901 34.6701 13.8701 36.5301 17.8601C37.0801 19.0401 37.3601 20.3901 37.3601 21.8801V37.8701C37.3601 37.9901 37.2601 38.0801 37.1501 38.0801H31.8501C31.7301 38.0801 31.6401 37.9801 31.6401 37.8701V22.1101C31.6401 20.2301 30.6001 18.5301 28.9201 17.6501C27.1201 16.7201 25.0101 16.9401 23.1401 18.2601C22.1401 18.9601 21.5501 20.1401 21.5501 21.4101V37.8701C21.5501 37.9901 21.4501 38.0801 21.3401 38.0801H16.0401C15.9201 38.0801 15.8301 37.9801 15.8301 37.8701V22.1101C15.8301 22.1101 15.5601 17.9601 18.6901 14.8301H18.6801Z" fill="#1885D4"/>
<path d="M18.6802 14.8301C16.7902 12.7901 14.2302 11.5801 11.4402 11.4101C11.2102 11.4001 10.9802 11.3901 10.7502 11.3901C6.77023 11.3901 3.20023 13.5301 1.18023 17.1201C0.400234 18.5101 -0.00976562 20.1501 -0.00976562 21.8701V37.8701C-0.00976562 37.9901 0.0902344 38.0801 0.200234 38.0801H5.50023C5.62023 38.0801 5.71023 37.9801 5.71023 37.8701V21.4101C5.71023 20.1401 6.31024 18.9601 7.30023 18.2601C9.18023 16.9401 11.2802 16.7201 13.0802 17.6501C14.7202 18.5001 15.7502 20.1501 15.7902 21.9701C15.7802 21.2501 15.8502 17.6301 18.6602 14.8201L18.6802 14.8301Z" fill="#0765A8"/>
<path d="M120.731 14.8301C122.771 12.6401 125.641 11.3901 128.641 11.3901C132.911 11.3901 136.721 13.8701 138.581 17.8601C139.131 19.0401 139.411 20.3901 139.411 21.8801V37.8701C139.411 37.9901 139.311 38.0801 139.201 38.0801H133.901C133.781 38.0801 133.691 37.9801 133.691 37.8701V22.1101C133.691 20.2301 132.651 18.5301 130.971 17.6501C129.171 16.7201 127.061 16.9401 125.191 18.2601C124.191 18.9601 123.601 20.1401 123.601 21.4101V37.8701C123.601 37.9901 123.501 38.0801 123.391 38.0801H118.091C117.971 38.0801 117.881 37.9801 117.881 37.8701V22.1101C117.881 22.1101 117.611 17.9601 120.741 14.8301H120.731Z" fill="#87B236"/>
<path d="M120.729 14.8301C118.839 12.7901 116.279 11.5801 113.489 11.4101C113.259 11.4001 113.029 11.3901 112.799 11.3901C108.819 11.3901 105.249 13.5301 103.229 17.1201C102.449 18.5101 102.039 20.1501 102.039 21.8701V37.8701C102.039 37.9901 102.139 38.0801 102.249 38.0801H107.549C107.669 38.0801 107.759 37.9801 107.759 37.8701V21.4101C107.759 20.1401 108.359 18.9601 109.349 18.2601C111.229 16.9401 113.329 16.7201 115.129 17.6501C116.769 18.5001 117.799 20.1501 117.839 21.9701C117.829 21.2501 117.899 17.6301 120.709 14.8201L120.729 14.8301Z" fill="#7B9A1F"/>
<path d="M97.2805 11.3801H91.9806C91.8606 11.3801 91.7705 11.4801 91.7705 11.5901V26.0401C91.7705 28.3301 90.5205 30.4501 88.5005 31.5701C87.5505 32.1001 86.5105 32.3701 85.4605 32.3701C85.4405 32.3701 85.4206 32.3701 85.4106 32.3701C83.8406 32.3701 82.5605 33.6501 82.5605 35.2201C82.5605 36.7901 83.8406 38.0701 85.4106 38.0701C87.0406 38.0701 88.6306 37.7501 90.1206 37.1301C91.5606 36.5201 92.8505 35.6501 93.9605 34.5501C95.0705 33.4401 95.9406 32.1601 96.5506 30.7201C97.1806 29.2301 97.5005 27.6601 97.5005 26.0301V11.5801C97.5005 11.4601 97.4005 11.3701 97.2906 11.3701L97.2805 11.3801Z" fill="#FBAF07"/>
<path d="M91.7598 11.6C91.7598 11.6 91.7598 11.54 91.7798 11.52C91.7698 11.55 91.7598 11.57 91.7598 11.6Z" fill="#FE900D"/>
<path d="M97.4905 26.04C97.4905 26.24 97.4905 26.45 97.4805 26.65C97.4905 26.45 97.4905 26.25 97.4905 26.04Z" fill="#FE900D"/>
<path d="M97.4707 11.52C97.4707 11.52 97.4907 11.57 97.4907 11.6C97.4907 11.6 97.4907 11.54 97.4707 11.52Z" fill="#FE900D"/>
<path d="M85.4006 38.0801C83.8306 38.0801 82.5506 36.8001 82.5506 35.2301C82.5506 33.6601 83.8205 32.3901 85.3805 32.3801C84.0805 32.3801 82.7505 31.9801 81.4905 31.2001C79.9705 30.2601 79.0305 28.5601 79.0305 26.7501V11.6001C79.0305 11.5401 79.0106 11.4901 78.9706 11.4501C78.9306 11.4101 78.8805 11.3901 78.8205 11.3901H73.5205C73.4005 11.3901 73.3105 11.4901 73.3105 11.6001V26.0501C73.3105 27.6701 73.6306 29.2501 74.2606 30.7401C74.8706 32.1701 75.7405 33.4601 76.8505 34.5701C77.9605 35.6701 79.2506 36.5401 80.6906 37.1501C82.1806 37.7801 83.7606 38.0901 85.4006 38.0901V38.0801Z" fill="#FE900D"/>
<path d="M55.3305 17.0901C56.7405 17.0901 58.1005 17.4601 59.3405 18.2101C61.6505 19.6201 63.0205 22.0601 63.0205 24.7401V37.6101C63.0205 37.7301 63.1205 37.8201 63.2305 37.8201H68.5305C68.6505 37.8201 68.7405 37.7201 68.7405 37.6101V24.7401C68.7405 22.9401 68.3905 21.1901 67.6905 19.5401C67.0205 17.9501 66.0505 16.5201 64.8205 15.3001C63.5905 14.0701 62.1505 13.1101 60.5605 12.4401C58.9105 11.7401 57.1505 11.3901 55.3405 11.3901C55.3405 11.3901 55.3405 11.3901 55.3305 11.3901C53.7605 11.3901 52.4805 12.6701 52.4805 14.2401C52.4805 15.8101 53.7605 17.0901 55.3305 17.0901Z" fill="#EC504B"/>
<path d="M51.3499 18.1001C50.2199 18.7001 49.2599 19.6301 48.6699 20.7601C47.0299 23.8901 47.3899 27.3601 49.5899 29.8201C51.7999 32.2901 55.1699 33.0501 58.3799 31.7901C58.8399 31.6101 59.2599 31.3701 59.6099 31.0801C59.9399 30.8101 60.3599 30.6901 60.7899 30.7401C61.2799 30.8001 61.7299 31.0901 62.0799 31.5501C62.1199 31.6101 62.1399 31.6701 62.1399 31.7401V36.1001C62.1399 36.1801 62.0999 36.2501 62.0299 36.2801C59.9999 37.4501 57.6799 38.0701 55.3199 38.0701C53.5099 38.0701 51.7499 37.7201 50.0999 37.0201C48.5099 36.3501 47.0699 35.3901 45.8399 34.1601C44.6099 32.9401 43.6399 31.5101 42.9699 29.9201C42.2699 28.2701 41.9199 26.5201 41.9199 24.7201C41.9199 22.9201 42.2699 21.1701 42.9699 19.5201C43.6499 17.9301 44.6099 16.5001 45.8399 15.2801C47.0699 14.0501 48.5099 13.0901 50.0999 12.4201C51.7499 11.7301 53.4899 11.3701 55.2899 11.3701C53.7199 11.3701 52.4499 12.6501 52.4499 14.2201C52.4499 15.7901 53.7299 17.0701 55.2999 17.0701C55.2999 17.0701 53.3599 17.0001 51.3299 18.0801L51.3499 18.1001Z" fill="#C73937"/>
<path d="M55.3401 11.3799L55.3301 11.3899H55.3401V11.3799Z" fill="#C73937"/>
</g>
<defs>
<clipPath id="clip0_190_2087">
<rect width="193.88" height="38.08" fill="white"/>
</clipPath>
</defs>
</svg>
