<svg xmlns="http://www.w3.org/2000/svg" xmlns:xlink="http://www.w3.org/1999/xlink" width="107.886" height="85.962" viewBox="0 0 107.886 85.962">
  <defs>
    <linearGradient id="linear-gradient" x1="0.3" y1="0.5" x2="1" y2="0.5" gradientUnits="objectBoundingBox">
      <stop offset="0" stop-color="#f7f7f7"/>
      <stop offset="1" stop-color="#e3e3e3"/>
    </linearGradient>
  </defs>
  <g id="그룹_1747" data-name="그룹 1747" transform="translate(-174.652 -2617)">
    <path id="합치기_16" data-name="합치기 16" d="M57.054,83.245V69.5H0V15.037H57.054V1.291a2,2,0,0,1,3.317-1.5L77.8,15.037h0l29.4,25.725a2,2,0,0,1,0,3.01L77.8,69.5h0L60.371,84.749a1.965,1.965,0,0,1-1.306.5A2,2,0,0,1,57.054,83.245Z" transform="translate(174.653 2617.713)" fill="url(#linear-gradient)"/>
    <path id="합치기_18" data-name="합치기 18" d="M5.2,11.7V7.8H1.3a1.3,1.3,0,1,1,0-2.6H5.2V1.3a1.3,1.3,0,1,1,2.6,0V5.2h3.9a1.3,1.3,0,0,1,0,2.6H7.8v3.9a1.3,1.3,0,1,1-2.6,0Z" transform="translate(242 2652)"/>
  </g>
</svg>
