<svg xmlns="http://www.w3.org/2000/svg" xmlns:xlink="http://www.w3.org/1999/xlink" width="520" height="527" viewBox="0 0 520 527">
  <defs>
    <clipPath id="clip-path">
      <rect id="사각형_2390" data-name="사각형 2390" width="520" height="527" rx="24" transform="translate(1259 3777)" fill="#f2f0f5" stroke="#e4deeb" stroke-width="1"/>
    </clipPath>
    <clipPath id="clip-path-2">
      <rect id="사각형_1602" data-name="사각형 1602" width="365.238" height="287.857" rx="12.381" transform="translate(-0.076)" fill="#fff"/>
    </clipPath>
    <clipPath id="clip-path-3">
      <rect id="사각형_1598" data-name="사각형 1598" width="26.31" height="27.857" rx="6.19" transform="translate(0.622 -0.528)" fill="#fff"/>
    </clipPath>
    <clipPath id="clip-path-4">
      <rect id="사각형_1600" data-name="사각형 1600" width="146.881" height="27.818" fill="#fff"/>
    </clipPath>
  </defs>
  <g id="_3" data-name="3" transform="translate(-1259 -3777)" clip-path="url(#clip-path)">
    <g id="_3-2" data-name="3" transform="translate(-118.381 -3391.166)">
      <g id="사각형_1583" data-name="사각형 1583" transform="translate(1377.381 7168.571)" fill="#f2f0f5" stroke="#e4deeb" stroke-width="1.548">
        <rect width="520" height="526.19" rx="37.143" stroke="none"/>
        <rect x="0.774" y="0.774" width="518.452" height="524.643" rx="36.369" fill="none"/>
      </g>
      <g id="그룹_1571" data-name="그룹 1571" transform="translate(108.409 2747.024)">
        <rect id="그림자" width="365.238" height="287.857" rx="24.762" transform="translate(1343.257 4540.714)" fill="#fafafa"/>
        <g id="Card" transform="translate(1343.333 4540.714)">
          <g id="그룹_1570" data-name="그룹 1570" clip-path="url(#clip-path-2)">
            <rect id="사각형_1596" data-name="사각형 1596" width="365.238" height="287.857" rx="12.381" transform="translate(-0.076)" fill="#fff"/>
            <g id="그룹_1567" data-name="그룹 1567" transform="translate(321.207 17.552)" clip-path="url(#clip-path-3)">
              <rect id="사각형_1597" data-name="사각형 1597" width="26.31" height="27.857" rx="6.19" transform="translate(0.622 -0.528)" fill="#3f3361"/>
              <path id="패스_1994" data-name="패스 1994" d="M456.548,40.6l5.007,5.007L468.788,35.6" transform="translate(-449.498 -27.554)" fill="none" stroke="#fff" stroke-linecap="round" stroke-width="2.321"/>
            </g>
            <rect id="사각형_1599" data-name="사각형 1599" width="86.667" height="27.857" rx="6.19" transform="translate(16.948 17.024)" fill="#e94560"/>
            <path id="패스_1995" data-name="패스 1995" d="M48.872,33.975H47.667v9.9h1.2V39.1h2.048v-1H48.872ZM38.314,41.354l.517.958c3.9-1.216,6.39-3.8,6.39-7.288H38.876v1H43.92c-.251,2.388-2.357,4.313-5.605,5.325Zm2.078,5.856h9.1v-1H41.585V42.869H40.393ZM62.33,33.975H61.143v9.8H62.33V39.011h2.054v-1H62.335ZM52.4,41.368h1.049a31.107,31.107,0,0,0,6.359-.457l-.155-.989a27.982,27.982,0,0,1-6.07.441V36.151h4.838v-1H52.4Zm1.476,5.842h9.083v-1H55.049V42.784H53.877ZM76.418,33.975H75.231V37.26H72.5v1h2.738v3.057h1.187ZM65.275,40.608l.619.942a5.783,5.783,0,0,0,3.439-3.392,5.652,5.652,0,0,0,3.286,3.074l.619-.929a4.66,4.66,0,0,1-3.332-4.123v-.4h3.049V34.8H65.667v.989h3.058v.4a4.968,4.968,0,0,1-3.437,4.428Zm2.434,6.709h8.7V41.978H75.225v1.688H68.911V41.978h-1.2Zm1.2-.973V44.624h6.314v1.719Zm16.56-11.106v-.774H84.234v.774c0,1.939-2.476,3.56-4.914,3.894l.488.973a6.983,6.983,0,0,0,5.051-3.173A7.043,7.043,0,0,0,89.91,40.1l.487-.973c-2.436-.342-4.915-1.989-4.923-3.894ZM78.687,42.6H84.24v4.9h1.172V42.6h5.6v-1H78.69Zm25.786-2.191H92.153V41.4h12.322ZM92.857,38.646l.426.958a6.472,6.472,0,0,0,5.033-2.77,6.5,6.5,0,0,0,5.034,2.77l.441-.958c-2.4-.274-4.643-1.453-4.7-2.982h4.29v-.989H93.28v.989h4.259C97.486,37.208,95.211,38.372,92.857,38.646Zm.791,6.39c0,1.566,1.749,2.434,4.671,2.434s4.643-.867,4.655-2.434c-.015-1.548-1.757-2.45-4.655-2.45s-4.688.9-4.674,2.45Zm1.216,0c-.015-.95,1.286-1.49,3.453-1.506,2.145.015,3.447.556,3.453,1.506s-1.308,1.483-3.453,1.476-3.471-.534-3.448-1.476Z" transform="translate(-10.767 -9.547)" fill="#fff"/>
            <path id="패스_1996" data-name="패스 1996" d="M41.6,107.238H25.69v1.271H32.85v6h1.506v-6h7.257Zm-13.868-2.366H39.531V98.1H27.736Zm1.506-1.213v-4.3H38v4.3Zm15.883-4.87H43.658v11.384h6.67V98.788H48.9v4.245H45.125Zm0,10.112v-4.617H48.9V108.9Zm7.413,4.734h1.473V105.3h2.425v9.213h1.487V97.124H56.437v6.9H54.012V97.5H52.545Zm21.4-16.51H72.39V107.51h1.548v-4.556h2.6v-1.291h-2.6Zm-12.807,8.959h1.35a38.672,38.672,0,0,0,8.2-.587l-.155-1.272a37.608,37.608,0,0,1-7.882.607V99.724h6.22V98.452H61.131Zm1.447,5.065c.009,2.112,2.219,3.326,5.77,3.326s5.726-1.213,5.726-3.326c0-2.083-2.181-3.3-5.726-3.306s-5.765,1.223-5.774,3.306Zm1.506,0c.009-1.281,1.644-2.054,4.264-2.034,2.6-.02,4.254.754,4.245,2.034s-1.644,2.083-4.245,2.092-4.259-.8-4.268-2.092ZM91.605,98.885H79.3v1.272H90.1v.665a35.715,35.715,0,0,1-.619,7.531l1.506.176a37.819,37.819,0,0,0,.619-7.707Zm-13.97,13.162H93.476v-1.272H87.414v-5.726H85.908v5.726H83.092v-5.726H81.56v5.726H77.629Zm33.232-1.037H103.61V107.25h5.3V98.357H107.4v3.149H98.368V98.357H96.821v8.893h5.28v3.756H94.945v1.272h15.922Zm-12.5-5v-3.25H107.4v3.25ZM126.6,97.124h-1.507v9.016H126.6Zm-14.223,7.628.8,1.213a7.532,7.532,0,0,0,4.479-4.361,7.274,7.274,0,0,0,4.44,4.024l.763-1.193a6.036,6.036,0,0,1-4.44-5.477V97.628h-1.571v1.329a6.375,6.375,0,0,1-4.473,5.794Zm2.94,3.5h9.779v1.741h-9.747v4.323h11.892v-1.252H116.845v-1.877H126.6v-4.166h-11.3Zm28.342,4.6h-10.49v-3.714h-1.548v5.007h12.03Zm-14.083-5.107h15.9v-1.291H138.23V103.5h-1.507v2.953h-7.158Zm1.035-4.323.619,1.213a8.854,8.854,0,0,0,6.259-4.089,8.882,8.882,0,0,0,6.259,4.089l.607-1.213c-3.043-.48-6.1-2.581-6.1-5.047V97.59H136.7v.783c.008,2.448-3.053,4.544-6.1,5.05Zm21.967-5.027c-2.749.009-4.7,1.673-4.694,4.087s1.947,4.078,4.694,4.087a4.124,4.124,0,1,0,0-8.176ZM146.979,109.4l.215,1.311a63.273,63.273,0,0,0,11.383-.763l-.116-1.134a80.972,80.972,0,0,1-11.488.59Zm2.405-6.924a3.214,3.214,0,1,1,3.19,2.738,2.863,2.863,0,0,1-3.194-2.735Zm10.23,12.071h1.526V97.124h-1.526Zm20.5-3.482h-4.323v-3.3h2.719v-1.272h-10.8v-2.817H178.1V98.415H166.148v1.272h10.436v2.719h-10.4v5.359h2.476v3.306h-4.468v1.286h15.922Zm-9.937,0v-3.3h4.107v3.306Zm25.663-13.946H194.29v17.428h1.548Zm-13.323,13.221h8.215V98.611h-1.506v4.6H184.04v-4.6h-1.526Zm1.526-1.291V104.44h5.183v4.617Zm30.689,1.956h-7.257V107.25h5.3V98.357h-1.507v3.149h-9.037V98.357h-1.548v8.893h5.28v3.756h-7.155v1.272h15.922Zm-12.5-5v-3.25h9.037v3.25Zm28.3-8.88h-1.548v5.3h-2.953v1.258h2.953v3.977h1.548Zm-14.393,3.1H226.29V98.975h-4.323V96.968h-1.506v1.995h-4.322Zm1.037,3.99c0,1.877,1.673,3.111,4.024,3.111s4.024-1.238,4.049-3.111c-.02-1.818-1.682-3.1-4.049-3.1s-4.025,1.264-4.025,3.084Zm1.467,0c0-1.114,1.048-1.9,2.563-1.9s2.563.783,2.563,1.9c0,1.155-1.048,1.917-2.563,1.936-1.518-.031-2.566-.794-2.566-1.947Zm.529,10.073h11.364v-5.684H219.172Zm1.526-1.252V109.85h8.332v3.188Zm13.809-5.5a16.25,16.25,0,0,0,2.818,9.389h1.486a18.451,18.451,0,0,1,0-18.757h-1.486a16.189,16.189,0,0,0-2.823,9.355Zm20.518-10.386h-1.467v4.576h-2.366V97.477h-1.467v9.761h1.467v-4.245h2.366V107.8h1.467Zm-14.65,9.467.782,1.155c4.381-1.857,6.738-5.027,6.748-9.213h-6.786v1.257H246.3c-.308,2.965-2.371,5.313-5.93,6.789Zm2.973,4.617c0,2.034,2.26,3.208,5.926,3.208s5.946-1.173,5.946-3.208-2.28-3.227-5.946-3.227-5.93,1.2-5.93,3.214Zm1.526,0c.009-1.261,1.692-2.012,4.4-2.012s4.4.754,4.4,2.012-1.712,2.012-4.4,2.012-4.4-.763-4.406-2.024Zm27.051-14.083H270.4v12.752h1.526Zm-14.181,9.037.842,1.193a7.738,7.738,0,0,0,4.372-4.655,7.526,7.526,0,0,0,4.352,4.343l.8-1.238a6.44,6.44,0,0,1-4.381-5.966v-1.75h-1.565V99.86a6.9,6.9,0,0,1-4.426,6.32Zm2.953,7.961h11.774v-1.291H262.224v-4.14H260.7Zm24.039-15.061h-4.092v-2.1h-1.526V99.08h-4.225v1.252h9.838Zm-8.8,5.359c-.02,1.947,1.585,3.218,3.931,3.227s3.962-1.281,3.97-3.227-1.642-3.218-3.97-3.208-3.956,1.26-3.936,3.2Zm1.428,0c-.009-1.223.987-2.034,2.5-2.054,1.5.02,2.524.831,2.543,2.054-.019,1.223-1.046,2.044-2.543,2.034s-2.52-.823-2.509-2.046Zm.351,7.08c0,1.868,2.2,2.953,5.848,2.953s5.83-1.083,5.83-2.953c0-1.9-2.2-2.973-5.83-2.973s-5.853,1.063-5.853,2.961Zm1.585,0c.009-1.134,1.623-1.77,4.264-1.78,2.6.009,4.206.645,4.206,1.78,0,1.1-1.6,1.77-4.206,1.76-2.645-.006-4.259-.667-4.268-1.772Zm5.417-5.554h3.032v2.407H289.3V97.124h-1.548V101.3h-3.012v1.272h3.012v2.112h-3.032Zm11.815,1.565a16.2,16.2,0,0,0-2.817-9.369h-1.487a18.444,18.444,0,0,1,0,18.757h1.487a16.261,16.261,0,0,0,2.809-9.4Zm8.958,9.389h4.148v-1.408h-2.563V99.551h2.563V98.158h-4.148Zm11.325-16.508V98.2h-1.506v2.151a6.616,6.616,0,0,1-4.422,6.064l.822,1.252a7.619,7.619,0,0,0,4.372-4.587,7.4,7.4,0,0,0,4.179,4.157l.861-1.193a6.251,6.251,0,0,1-4.309-5.632Zm-2.778,13.73h11.638v-1.291H315.583v-4.179h-1.548Zm5.828-11.618h3.869v7.648h1.548V97.144h-1.548v4.087h-3.869Zm15.845-4.127H328.96v8.371h1.094a31.549,31.549,0,0,0,6.514-.489l-.155-1.271a29.694,29.694,0,0,1-5.985.464v-2.413h5.087v-1.213h-5.1V99.691H335.7Zm-4.48,11.443h10.214v4.675h1.506v-5.94H331.234Zm6.378-2.269h1.428V102.94h2.445v4.753h1.467V97.144h-1.467v4.535h-2.445v-4.2h-1.428ZM40.47,128.281H39v4.753H36.679v-4.4H35.232v10.033h1.447v-4.361H39v4.98h1.467Zm-14.865,3.326h8.919v-1.238H30.847v-1.95H29.321v1.956H25.607Zm.763,3.912c-.009,1.789,1.526,2.953,3.714,2.953s3.727-1.164,3.736-2.953c-.009-1.818-1.535-2.982-3.736-2.973S26.359,133.7,26.368,135.519Zm1.37,0c0-1.1.958-1.839,2.348-1.839s2.348.734,2.348,1.839c0,1.066-.958,1.8-2.348,1.8s-2.349-.735-2.349-1.8Zm1.155,7.119c-.02,1.907,2.167,2.993,5.828,2.993s5.839-1.083,5.848-2.993c-.009-1.956-2.191-3.05-5.848-3.05s-5.848,1.091-5.83,3.05Zm1.526,0c-.02-1.193,1.594-1.857,4.3-1.839,2.7-.02,4.3.645,4.322,1.839-.02,1.125-1.623,1.809-4.322,1.8s-4.326-.675-4.305-1.8Zm15.453.136h-1.9l-1.083,5.321h1.447Zm12.636-13.046a4.66,4.66,0,0,0-4.952,4.753,4.581,4.581,0,0,0,4.643,4.674,4.322,4.322,0,0,0,3.612-1.88h.2c-.02,3.443-1.428,5.438-3.736,5.438a2.775,2.775,0,0,1-2.855-2.212H53.673a4.386,4.386,0,0,0,4.6,3.776c3.315,0,5.38-2.807,5.38-7.843,0-5.209-2.708-6.676-5.149-6.7Zm-3.227,4.734a3.16,3.16,0,0,1,3.227-3.188,3.208,3.208,0,0,1,3.227,3.149,3.281,3.281,0,0,1-3.286,3.188,3.086,3.086,0,0,1-3.171-3.149Zm15.433,9.82c3.14,0,4.952-2.64,4.952-7.274,0-4.6-1.839-7.274-4.952-7.274s-4.952,2.679-4.952,7.274c-.009,4.634,1.809,7.274,4.949,7.274Zm-3.25-7.274c.009-3.668,1.213-5.74,3.25-5.751s3.238,2.083,3.227,5.751-1.184,5.712-3.227,5.712-3.238-2.041-3.25-5.715ZM81,136.5c1.818.009,2.826-1.379,2.837-3.4-.009-1.995-.978-3.383-2.837-3.383-1.789,0-2.846,1.393-2.837,3.383C78.155,135.116,79.17,136.5,81,136.5Zm-1.452,7.585h1.585l9.741-14.161H89.3Zm.039-10.988c0-1.3.48-2.167,1.408-2.167.987-.02,1.408.87,1.408,2.167s-.45,2.19-1.408,2.19-1.405-.873-1.405-2.19Zm7.218,7.8c-.02,2.012.987,3.394,2.837,3.383,1.809.009,2.817-1.37,2.817-3.383s-.987-3.394-2.817-3.4-2.852,1.387-2.834,3.4Zm1.408,0c.009-1.32.48-2.181,1.428-2.191.978-.02,1.393.87,1.393,2.191s-.44,2.181-1.393,2.167-1.416-.859-1.427-2.17Zm22.357,1.271h-7.254v-3.758h5.3v-8.9h-1.506v3.148H98.074v-3.148H96.527v8.9h5.28v3.755H94.651v1.272h15.922Zm-12.5-5.007v-3.25h9.04v3.25Zm19.775-5.571v-.743h3.912v-1.272h-9.386v1.272h3.971v.743a6.207,6.207,0,0,1-4.44,5.633l.783,1.238a7.311,7.311,0,0,0,4.431-4.3,6.93,6.93,0,0,0,4.275,3.795l.723-1.213a5.691,5.691,0,0,1-4.265-5.155Zm-3.638,10.833c.009,2.034,2.191,3.208,5.77,3.208s5.726-1.175,5.726-3.208c0-2.012-2.167-3.17-5.726-3.17s-5.763,1.161-5.763,3.166Zm1.548,0c-.02-1.213,1.6-1.936,4.225-1.936s4.234.723,4.245,1.936c-.009,1.252-1.614,1.986-4.245,1.975s-4.244-.726-4.219-1.978Zm8.274-3.638h1.526v-4.776h2.622v-1.291h-2.622v-4.44h-1.526Zm9.584-.1a16.19,16.19,0,0,0-2.817-9.369H129.31a18.445,18.445,0,0,1,0,18.759H130.8a16.25,16.25,0,0,0,2.817-9.393Z" transform="translate(-7.195 -27.249)"/>
            <g id="그룹_1568" data-name="그룹 1568" transform="translate(17.804 152.167)" clip-path="url(#clip-path-4)">
              <path id="패스_1997" data-name="패스 1997" d="M38.78,228.071h-13.2v1.059h13.2ZM26.327,226.18l.457,1.028a6.933,6.933,0,0,0,5.4-2.975,6.964,6.964,0,0,0,5.4,2.975l.472-1.028c-2.568-.294-4.98-1.557-5.036-3.194h4.6v-1.057H26.785v1.059h4.564c-.057,1.653-2.495,2.9-5.02,3.193Zm.848,6.845c-.008,1.679,1.874,2.608,5,2.608,3.1,0,4.971-.929,4.988-2.608-.017-1.662-1.882-2.631-4.988-2.631-3.128.008-5.011.975-5,2.632Zm1.3,0c-.017-1.018,1.377-1.6,3.7-1.614,2.3.017,3.691.6,3.7,1.614s-1.4,1.589-3.7,1.582c-2.323.012-3.716-.57-3.7-1.58Zm16.626-7.953v-2.64H43.8v2.64a7.636,7.636,0,0,1-3.815,6.5l.831,1.028a8.159,8.159,0,0,0,3.651-4.9,7.819,7.819,0,0,0,3.651,4.643l.774-1.043a7.128,7.128,0,0,1-3.784-6.229Zm2.2,2.1h3.439V235.7h1.272V221.18H50.745v4.952H47.306Zm19.136-5.982H65.155v4.075H61.731v-3.114H60.476v2.575H56.434v-2.575H55.163v7.286h6.568v-3.1h3.423v5.571h1.288Zm-10.008,7.189v-2.64h4.042v2.64Zm.636,6.975h9.7v-1.083H58.358v-3.416H57.07Zm24.3-12.028H76.075v-1.907H74.82v1.9H69.507v1.059H81.372ZM68.849,233.972H82.117v-1.055H76.075V230.88c2.56-.139,4.148-1.142,4.14-2.77.008-1.721-1.842-2.738-4.759-2.722-2.959-.015-4.776,1-4.759,2.722-.015,1.63,1.548,2.631,4.124,2.77v2.037H68.854Zm3.129-5.867c-.015-1.083,1.312-1.712,3.471-1.712,2.136,0,3.464.636,3.456,1.712.008,1.1-1.32,1.736-3.456,1.744-2.154-.009-3.485-.647-3.467-1.746Z" transform="translate(-24.991 -214.317)"/>
            </g>
            <path id="패스_1998" data-name="패스 1998" d="M364.263,234.819h7.661v-1.3H366.3v-.1l2.707-2.786c2.086-2.151,2.7-3.177,2.705-4.5a3.4,3.4,0,0,0-3.668-3.276,3.467,3.467,0,0,0-3.733,3.488H365.7a2.337,2.337,0,0,1,4.643-.212c-.008,1.093-.676,1.891-2.069,3.375l-4.024,4.237Zm13.975-11.807h-1.483l-2.94,1.955v1.483l2.869-1.907h.065v10.27h1.483Zm7.221,11.963a3.686,3.686,0,0,0,4.107-3.374,2.727,2.727,0,0,0-2.461-2.837v-.08a2.631,2.631,0,0,0,2.012-2.673,3.275,3.275,0,0,0-3.617-3.154,3.572,3.572,0,0,0-3.912,3.131h1.419a2.252,2.252,0,0,1,2.476-1.857,1.967,1.967,0,0,1,2.2,1.972c.008,1.213-1,2.021-2.43,2.021h-.961v1.289h.961c1.834.008,2.862.913,2.869,2.2-.008,1.238-1.133,2.071-2.69,2.071-1.41,0-2.526-.7-2.608-1.826h-1.483c.074,1.87,1.761,3.125,4.109,3.125Zm5.934-2.575h5.726v2.413h1.4v-2.407h1.647v-1.288h-1.654v-8.106H396.7l-5.31,8.187Zm1.582-1.288v-.1l3.99-6.146h.147v6.243Zm12.5-1.467-.1-2.526,2.153,1.353.554-.961-2.233-1.175,2.233-1.19-.554-.961-2.153,1.353.1-2.526h-1.108l.1,2.526-2.153-1.353-.554.961,2.25,1.19-2.25,1.175.554.961,2.153-1.353-.1,2.526Zm7.857,0-.1-2.526,2.153,1.353.554-.961-2.233-1.175,2.233-1.19-.554-.961-2.153,1.353.1-2.526h-1.108l.1,2.526-2.153-1.353-.554.961,2.249,1.19-2.249,1.175.554.961,2.153-1.353-.1,2.526Zm7.856,0-.1-2.526,2.153,1.353.554-.961-2.233-1.175,2.233-1.19-.554-.961-2.153,1.353.1-2.526h-1.108l.1,2.526-2.151-1.353-.554.961,2.249,1.19-2.249,1.175.554.961,2.151-1.353-.1,2.526Zm7.857,0-.1-2.526,2.153,1.353.554-.961-2.233-1.175,2.233-1.19-.554-.961-2.153,1.353.1-2.526h-1.108l.1,2.526-2.153-1.353-.554.961,2.25,1.19-2.25,1.175.554.961,2.153-1.353-.1,2.526Zm4.488,5.168H441.2v-1.3h-5.624v-.1l2.707-2.786c2.086-2.151,2.7-3.177,2.707-4.5a3.4,3.4,0,0,0-3.668-3.276,3.468,3.468,0,0,0-3.733,3.488h1.393a2.337,2.337,0,0,1,4.643-.212c-.008,1.093-.676,1.891-2.069,3.375l-4.024,4.237Zm13.969-11.8h-1.483l-2.94,1.955v1.483l2.869-1.907h.065v10.27H447.5Z" transform="translate(-102.353 -62.623)"/>
            <g id="그룹_1569" data-name="그룹 1569" transform="translate(17.804 188.887)" clip-path="url(#clip-path-4)">
              <path id="패스_1999" data-name="패스 1999" d="M38.845,283.77H32.8v-3.129h4.417v-7.416H35.96v2.631H28.43v-2.631H27.142v7.416h4.4v3.129H25.578v1.06H38.845ZM28.43,279.591v-2.705H35.96v2.705Zm23.586-7.4H50.728v4.417H48.267v1.059h2.461v3.309h1.288Zm-12,2.575h8.459v-1.043h-3.6v-1.653H43.626v1.662H40.02Zm.864,3.324c0,1.565,1.393,2.592,3.358,2.592s3.358-1.028,3.374-2.592c-.015-1.517-1.4-2.575-3.374-2.575s-3.357,1.065-3.357,2.581Zm1.223,0c0-.929.871-1.582,2.136-1.582s2.136.652,2.136,1.582c0,.961-.871,1.6-2.136,1.614-1.263-.011-2.134-.647-2.134-1.608Zm.44,8.394h9.47V281.76H42.546Zm1.271-1.043v-2.656h6.947v2.656Zm23.88-1.63h-3.6v-2.755H66.36V280h-9v-2.348h8.656v-4.384H56.059v1.059h8.7v2.266H56.1v4.466h2.071v2.755H54.428V284.9H67.7Zm-8.28,0v-2.755h3.419v2.755Z" transform="translate(-24.991 -265.338)"/>
            </g>
            <path id="패스_2000" data-name="패스 2000" d="M391.285,285.424h1.532l5.395-10.432v-1.373h-7.76v1.3H396.7V275Zm12.437.155c2.615,0,4.124-2.2,4.124-6.064,0-3.83-1.532-6.064-4.124-6.064s-4.132,2.233-4.124,6.064c0,3.872,1.509,6.071,4.124,6.071Zm-2.707-6.064c.008-3.055,1.011-4.784,2.707-4.8s2.7,1.736,2.69,4.8-.986,4.76-2.69,4.76-2.7-1.695-2.705-4.753Zm10.214,4.808h-1.574l-.9,4.434h1.206Zm2.445,1.091h7.661v-1.3h-5.624v-.1l2.707-2.786c2.086-2.151,2.7-3.177,2.705-4.5a3.4,3.4,0,0,0-3.668-3.276,3.467,3.467,0,0,0-3.731,3.488h1.393a2.337,2.337,0,0,1,4.643-.212c-.008,1.093-.676,1.891-2.069,3.375l-4.024,4.237ZM422.916,283h5.726v2.413h1.4V283h1.647v-1.288h-1.647v-8.1h-1.809l-5.313,8.182Zm1.582-1.288v-.1l3.993-6.146h.147v6.243Zm12.991,3.869c2.615,0,4.124-2.2,4.124-6.064,0-3.83-1.532-6.064-4.124-6.064s-4.132,2.233-4.124,6.064c0,3.868,1.517,6.067,4.131,6.067Zm-2.705-6.064c.008-3.055,1.011-4.784,2.705-4.8s2.7,1.736,2.69,4.8-.986,4.76-2.69,4.76-2.691-1.7-2.7-4.757ZM455,272.271h-1.288v8.574h-3v.929h3v1.5H455Zm-12.03,6.715.18,1.043c1.215,0,2.608,0,4.075-.057v2.795h1.289v-2.86c1.328-.082,2.69-.212,3.977-.416l-.08-.929a85.613,85.613,0,0,1-9.439.424Zm1.175-3.6c-.008,1.548,1.442,2.509,3.586,2.509s3.578-.961,3.586-2.509c-.008-1.524-1.459-2.527-3.586-2.527s-3.594,1-3.586,2.527Zm.913,11.05h10.3v-1.083h-9.015V282.19h-1.288Zm.31-11.05c-.017-.929.944-1.566,2.363-1.548,1.376-.017,2.354.619,2.363,1.548s-.987,1.555-2.363,1.565c-1.418-.009-2.379-.621-2.363-1.565Z" transform="translate(-109.718 -76.508)"/>
            <path id="패스_2001" data-name="패스 2001" d="M0,326.548H364.977v35.608a17.8,17.8,0,0,1-17.8,17.8H17.8A17.8,17.8,0,0,1,0,362.155Z" transform="translate(0 -91.761)" fill="#f8f8f8"/>
            <path id="패스_2002" data-name="패스 2002" d="M241.429,357.5l8.9,10.015,8.9-10.015" transform="translate(-67.841 -100.459)" fill="none" stroke="#000" stroke-linecap="round" stroke-width="1.548"/>
          </g>
          <rect id="사각형_1603" data-name="사각형 1603" width="363.714" height="286.816" rx="12.381" transform="translate(0.692 0.692)" fill="none" stroke="#ddd" stroke-width="1.548"/>
        </g>
      </g>
    </g>
  </g>
</svg>
