<svg xmlns="http://www.w3.org/2000/svg" width="1643" height="816.961" viewBox="0 0 1643 816.961">
  <g id="그룹_1747" data-name="그룹 1747" transform="translate(-211.805 -172.47)">
    <rect id="BG" width="1643" height="816.961" rx="24.206" transform="translate(211.805 172.47)" fill="#848484"/>
    <path id="BG_-_윤곽선" data-name="BG - 윤곽선" d="M24.206,1.513A22.674,22.674,0,0,0,1.513,24.206V792.755a22.673,22.673,0,0,0,22.693,22.693H1618.794a22.674,22.674,0,0,0,22.694-22.693V24.206a22.674,22.674,0,0,0-22.694-22.693H24.206m0-1.513H1618.794A24.206,24.206,0,0,1,1643,24.206V792.755a24.206,24.206,0,0,1-24.206,24.206H24.206A24.206,24.206,0,0,1,0,792.755V24.206A24.206,24.206,0,0,1,24.206,0Z" transform="translate(211.805 172.47)" fill="#888"/>
    <g id="left_bg">
      <path id="사각형_2053" data-name="사각형 2053" d="M24.206,0h308.63V816.961H24.206A24.206,24.206,0,0,1,0,792.755V24.206A24.206,24.206,0,0,1,24.206,0Z" transform="translate(211.805 172.47)" fill="#464646"/>
      <text id="컴포넌트" transform="translate(242.063 219.369)" fill="#fff" font-size="21" font-family="Pretendard-Medium, Pretendard" font-weight="500" opacity="0.9"><tspan x="0" y="0">컴포넌트</tspan></text>
      <text id="템플릿" transform="translate(338.888 219.369)" fill="#fff" font-size="21" font-family="Pretendard-Medium, Pretendard" font-weight="500" opacity="0.3"><tspan x="0" y="0">템플릿</tspan></text>
      <rect id="사각형_2055" data-name="사각형 2055" width="332.836" height="1.513" transform="translate(211.805 248.114)" fill="#3e3e3e"/>
      <rect id="사각형_2060" data-name="사각형 2060" width="332.836" height="1.513" transform="translate(211.805 382.762)" fill="#3e3e3e"/>
      <rect id="사각형_2058" data-name="사각형 2058" width="272.32" height="24.206" rx="6.052" transform="translate(242.063 279.885)" fill="#3b3b3b"/>
      <rect id="사각형_2059" data-name="사각형 2059" width="173.982" height="24.206" rx="6.052" transform="translate(242.063 328.297)" fill="#3b3b3b"/>
      <rect id="사각형_2061" data-name="사각형 2061" width="173.982" height="24.206" rx="6.052" transform="translate(242.063 414.532)" fill="#3b3b3b"/>
      <rect id="사각형_2062" data-name="사각형 2062" width="128.596" height="75.645" rx="6.052" transform="translate(242.063 462.945)" fill="#3b3b3b"/>
      <rect id="사각형_2065" data-name="사각형 2065" width="128.596" height="75.645" rx="6.052" transform="translate(242.063 553.718)" fill="#3b3b3b"/>
      <rect id="사각형_2067" data-name="사각형 2067" width="128.596" height="75.645" rx="6.052" transform="translate(242.063 644.492)" fill="#3b3b3b"/>
      <rect id="사각형_2063" data-name="사각형 2063" width="128.596" height="75.645" rx="6.052" transform="translate(385.787 462.945)" fill="#3b3b3b"/>
      <rect id="사각형_2064" data-name="사각형 2064" width="128.596" height="75.645" rx="6.052" transform="translate(385.787 553.718)" fill="#3b3b3b"/>
      <rect id="사각형_2084" data-name="사각형 2084" width="1.513" height="816.961" transform="translate(543.128 172.47)" fill="#3e3e3e"/>
    </g>
    <g id="right_bg">
      <path id="사각형_2054" data-name="사각형 2054" d="M0,0H308.63a24.206,24.206,0,0,1,24.206,24.206V792.755a24.206,24.206,0,0,1-24.206,24.206H0Z" transform="translate(1521.969 172.47)" fill="#464646"/>
      <text id="Design" transform="translate(1552.227 219.369)" fill="#fff" font-size="21" font-family="Pretendard-Medium, Pretendard" font-weight="500" opacity="0.9"><tspan x="0" y="0">Design</tspan></text>
      <text id="Code" transform="translate(1552.227 621.798)" fill="#fff" font-size="21" font-family="Pretendard-Medium, Pretendard" font-weight="500" opacity="0.9"><tspan x="0" y="0">Code</tspan></text>
      <text id="Prototype" transform="translate(1643 219.369)" fill="#fff" font-size="21" font-family="Pretendard-Medium, Pretendard" font-weight="500" opacity="0.3"><tspan x="0" y="0">Prototype</tspan></text>
      <rect id="사각형_2056" data-name="사각형 2056" width="332.836" height="1.513" transform="translate(1521.969 248.114)" fill="#3e3e3e"/>
      <rect id="사각형_2057" data-name="사각형 2057" width="332.836" height="1.513" transform="translate(1521.969 576.412)" fill="#3e3e3e"/>
      <rect id="사각형_2074" data-name="사각형 2074" width="272.32" height="24.206" rx="6.052" transform="translate(1552.227 349.478)" fill="#3b3b3b"/>
      <rect id="사각형_2076" data-name="사각형 2076" width="272.32" height="24.206" rx="6.052" transform="translate(1552.227 652.056)" fill="#3b3b3b"/>
      <rect id="사각형_2075" data-name="사각형 2075" width="173.982" height="24.206" rx="6.052" transform="translate(1552.227 397.89)" fill="#3b3b3b"/>
      <rect id="사각형_2077" data-name="사각형 2077" width="173.982" height="24.206" rx="6.052" transform="translate(1552.227 700.469)" fill="#3b3b3b"/>
      <rect id="사각형_2078" data-name="사각형 2078" width="45.387" height="45.387" rx="6.052" transform="translate(1552.227 279.885)" fill="#3b3b3b"/>
      <rect id="사각형_2079" data-name="사각형 2079" width="45.387" height="45.387" rx="6.052" transform="translate(1621.82 279.885)" fill="#3b3b3b"/>
      <rect id="사각형_2080" data-name="사각형 2080" width="45.387" height="45.387" rx="6.052" transform="translate(1691.412 279.885)" fill="#3b3b3b"/>
      <rect id="사각형_2081" data-name="사각형 2081" width="45.387" height="45.387" rx="6.052" transform="translate(1761.005 279.885)" fill="#3b3b3b"/>
      <rect id="사각형_2085" data-name="사각형 2085" width="1.513" height="816.961" transform="translate(1521.969 172.47)" fill="#3e3e3e"/>
    </g>
    <g id="디자인툴" transform="translate(-48.412 102.877)">
      <rect id="사각형_2044" data-name="사각형 2044" width="45.387" height="45.387" rx="6.052" transform="translate(1341.935 86.235)" fill="#4b4b4b"/>
      <rect id="사각형_2045" data-name="사각형 2045" width="45.387" height="45.387" rx="6.052" transform="translate(1394.886 86.235)" fill="#4b4b4b"/>
      <rect id="사각형_2046" data-name="사각형 2046" width="45.387" height="45.387" rx="6.052" transform="translate(1447.837 86.235)" fill="#4b4b4b"/>
      <rect id="사각형_2047" data-name="사각형 2047" width="45.387" height="45.387" rx="6.052" transform="translate(1500.788 86.235)" fill="#4b4b4b"/>
      <path id="패스_2082" data-name="패스 2082" d="M1477.338,118.006a.756.756,0,0,1-.756-.756V100.607a.756.756,0,0,1,1.513,0v16.642A.756.756,0,0,1,1477.338,118.006Zm-12.86-.756V100.607a.756.756,0,0,0-1.513,0v16.642a.756.756,0,0,0,1.513,0Zm9.834-5.3V105.9a3.026,3.026,0,0,0-3.026-3.026h-1.513a3.026,3.026,0,0,0-3.026,3.026v6.052a3.026,3.026,0,0,0,3.026,3.026h1.513A3.026,3.026,0,0,0,1474.313,111.954Zm-3.026-7.564a1.513,1.513,0,0,1,1.513,1.513v6.052a1.513,1.513,0,0,1-1.513,1.513h-1.513a1.513,1.513,0,0,1-1.513-1.513V105.9a1.513,1.513,0,0,1,1.513-1.513Z" fill="#fff" opacity="0.8"/>
      <path id="패스_2083" data-name="패스 2083" d="M1531.409,107.993l-7.927,4.76-7.928-4.76a.756.756,0,0,0-.56-.068.712.712,0,0,0-.454.342.728.728,0,0,0-.091.56.743.743,0,0,0,.318.464l8.321,4.993a.768.768,0,0,0,.787,0l8.321-4.993a.743.743,0,0,0,.318-.464.767.767,0,0,0-.53-.908.791.791,0,0,0-.575.068Z" fill="#fff" opacity="0.8"/>
      <path id="패스_2084" data-name="패스 2084" d="M1531.409,111.45l-7.927,4.758-7.928-4.758a.756.756,0,0,0-.56-.068.714.714,0,0,0-.454.342.728.728,0,0,0-.091.56.743.743,0,0,0,.318.464l8.321,4.993a.77.77,0,0,0,.787,0l8.321-4.993a.7.7,0,0,0,.227-.2.87.87,0,0,0,.136-.269.68.68,0,0,0,.015-.3.909.909,0,0,0-.091-.284.779.779,0,0,0-.212-.222.658.658,0,0,0-.272-.126.756.756,0,0,0-.3-.008.784.784,0,0,0-.287.11Z" fill="#fff" opacity="0.8"/>
      <path id="패스_2085" data-name="패스 2085" d="M1523.482,110.866a2.311,2.311,0,0,1-1.165-.321l-7.549-4.539a.934.934,0,0,1-.272-.275.809.809,0,0,1,0-.744.935.935,0,0,1,.272-.275l7.549-4.539a2.27,2.27,0,0,1,2.33,0l7.549,4.539a.744.744,0,0,1,.257.275.707.707,0,0,1,0,.744.741.741,0,0,1-.257.275l-7.549,4.539A2.305,2.305,0,0,1,1523.482,110.866Zm-6.854-5.5,6.475,3.882a.708.708,0,0,0,.378.1.748.748,0,0,0,.378-.1l6.475-3.882-6.475-3.884a.747.747,0,0,0-.378-.1.707.707,0,0,0-.378.1Z" fill="#fff" opacity="0.8"/>
      <path id="패스_2086" data-name="패스 2086" d="M1422.874,99.851h-10.59a3.782,3.782,0,0,0-3.782,3.782v10.59a3.782,3.782,0,0,0,3.782,3.782h10.59a3.782,3.782,0,0,0,3.782-3.782v-10.59A3.782,3.782,0,0,0,1422.874,99.851Zm2.269,14.372a2.269,2.269,0,0,1-2.269,2.269h-10.59a2.269,2.269,0,0,1-2.269-2.269v-10.59a2.269,2.269,0,0,1,2.269-2.269h10.59a2.269,2.269,0,0,1,2.269,2.269Zm-3.026-7.564a.756.756,0,1,1-1.513,0,.756.756,0,0,0-.756-.756h-1.513v6.052h.756a.756.756,0,1,1,0,1.513h-3.026a.756.756,0,1,1,0-1.513h.756V105.9h-1.513a.756.756,0,0,0-.756.756.756.756,0,1,1-1.513,0,2.269,2.269,0,0,1,2.269-2.269h4.539A2.269,2.269,0,0,1,1422.118,106.659Z" fill="#fff" opacity="0.8"/>
      <path id="패스_2087" data-name="패스 2087" d="M1368.277,105.94a1.136,1.136,0,1,0,.859.115,1.136,1.136,0,0,0-.859-.115Z" fill="#fff" opacity="0.8"/>
      <path id="패스_2088" data-name="패스 2088" d="M1364.495,103.671a1.136,1.136,0,1,0,.859.115A1.136,1.136,0,0,0,1364.495,103.671Z" fill="#fff" opacity="0.8"/>
      <path id="패스_2089" data-name="패스 2089" d="M1360.713,105.94a1.136,1.136,0,1,0,.859.115,1.136,1.136,0,0,0-.859-.115Z" fill="#fff" opacity="0.8"/>
      <path id="패스_2090" data-name="패스 2090" d="M1360.713,110.479a1.136,1.136,0,1,0,.859.115,1.136,1.136,0,0,0-.859-.115Z" fill="#fff" opacity="0.8"/>
      <path id="패스_2091" data-name="패스 2091" d="M1364.779,99.851a9.079,9.079,0,0,0-.315,18.155c.256,0,.507-.017.756-.038a.756.756,0,0,0,.693-.756l-.021-2.714a2.7,2.7,0,0,1,4.6-1.938l.076.076a1.447,1.447,0,0,0,1.337.393,1.428,1.428,0,0,0,1.041-.89,9.008,9.008,0,0,0,.587-3.437A9.194,9.194,0,0,0,1364.779,99.851Zm6.794,11.649h-.012a4.21,4.21,0,0,0-7.182,3.009l.015,1.983a7.565,7.565,0,1,1,.068-15.129h.266a7.661,7.661,0,0,1,7.3,7.369,7.468,7.468,0,0,1-.454,2.761Z" fill="#fff" opacity="0.8"/>
    </g>
  </g>
</svg>
