<svg xmlns="http://www.w3.org/2000/svg" xmlns:xlink="http://www.w3.org/1999/xlink" width="107.886" height="85.962" viewBox="0 0 107.886 85.962">
  <defs>
    <linearGradient id="linear-gradient" x1="0.3" y1="0.5" x2="1" y2="0.5" gradientUnits="objectBoundingBox">
      <stop offset="0" stop-color="#f7f7f7"/>
      <stop offset="1" stop-color="#e3e3e3"/>
    </linearGradient>
  </defs>
  <g id="그룹_1748" data-name="그룹 1748" transform="translate(-424.916 -2617)">
    <path id="합치기_17" data-name="합치기 17" d="M57.054,83.245V69.5H0V15.037H57.054V1.291a2,2,0,0,1,3.317-1.5L77.8,15.037h0l29.4,25.725a2,2,0,0,1,0,3.01L77.8,69.5h0L60.371,84.749a1.965,1.965,0,0,1-1.306.5A2,2,0,0,1,57.054,83.245Z" transform="translate(424.917 2617.713)" fill="url(#linear-gradient)"/>
    <path id="합치기_19" data-name="합치기 19" d="M1.334,8a1.333,1.333,0,0,1,0-2.667H8.666A1.333,1.333,0,1,1,8.666,8Zm0-5.333A1.333,1.333,0,0,1,1.334,0H8.666a1.333,1.333,0,1,1,0,2.667Z" transform="translate(492 2655)"/>
  </g>
</svg>
