<svg xmlns="http://www.w3.org/2000/svg" xmlns:xlink="http://www.w3.org/1999/xlink" width="302.578" height="559.77" viewBox="0 0 302.578 559.77">
  <defs>
    <clipPath id="clip-path">
      <rect id="mo2" width="302.578" height="559.77" rx="12.103" transform="translate(1063.563 301.065)" fill="#fff"/>
    </clipPath>
    <clipPath id="clip-path-2">
      <rect id="사각형_2119" data-name="사각형 2119" width="302.578" height="554.727" fill="#fff"/>
    </clipPath>
    <clipPath id="clip-path-3">
      <rect id="사각형_2141" data-name="사각형 2141" width="275.682" height="558.089" rx="13.448" transform="translate(13.448 55.473)" fill="#fff"/>
    </clipPath>
    <clipPath id="clip-path-4">
      <rect id="사각형_2126" data-name="사각형 2126" width="20.171" height="20.171" rx="3.362" transform="translate(255.511 68.921)" fill="#fff"/>
    </clipPath>
    <clipPath id="clip-path-5">
      <rect id="사각형_2128" data-name="사각형 2128" width="110.945" height="21.013" transform="translate(26.896 463.954)" fill="#fff"/>
    </clipPath>
    <clipPath id="clip-path-6">
      <rect id="사각형_2129" data-name="사각형 2129" width="110.945" height="21.013" transform="translate(26.896 491.69)" fill="#fff"/>
    </clipPath>
    <clipPath id="clip-path-7">
      <rect id="사각형_2130" data-name="사각형 2130" width="110.945" height="21.013" transform="translate(26.896 519.426)" fill="#fff"/>
    </clipPath>
    <clipPath id="clip-path-8">
      <rect id="사각형_2132" data-name="사각형 2132" width="49.59" height="21.013" transform="translate(26.896 256.35)" fill="#fff"/>
    </clipPath>
    <clipPath id="clip-path-9">
      <rect id="사각형_2133" data-name="사각형 2133" width="110.945" height="21.013" transform="translate(26.896 284.088)" fill="#fff"/>
    </clipPath>
    <clipPath id="clip-path-10">
      <rect id="사각형_2134" data-name="사각형 2134" width="110.945" height="21.013" transform="translate(26.896 311.824)" fill="#fff"/>
    </clipPath>
    <clipPath id="clip-path-11">
      <rect id="사각형_2135" data-name="사각형 2135" width="110.945" height="21.013" transform="translate(26.896 339.559)" fill="#fff"/>
    </clipPath>
    <clipPath id="clip-path-12">
      <rect id="사각형_2136" data-name="사각형 2136" width="110.945" height="21.013" transform="translate(26.896 367.297)" fill="#fff"/>
    </clipPath>
    <clipPath id="clip-path-13">
      <rect id="사각형_2137" data-name="사각형 2137" width="110.945" height="21.013" transform="translate(26.896 395.033)" fill="#fff"/>
    </clipPath>
    <clipPath id="clip-path-14">
      <rect id="사각형_2139" data-name="사각형 2139" width="110.945" height="21.013" transform="translate(40.344 180.706)" fill="#fff"/>
    </clipPath>
    <clipPath id="clip-path-15">
      <rect id="사각형_2140" data-name="사각형 2140" width="110.945" height="21.013" transform="translate(40.344 208.443)" fill="#fff"/>
    </clipPath>
  </defs>
  <g id="화면2" transform="translate(-1063.563 -301.065)" clip-path="url(#clip-path)">
    <g id="Android_Small_-_6" data-name="Android Small - 6" transform="translate(1063.563 303.587)" clip-path="url(#clip-path-2)">
      <rect id="사각형_2120" data-name="사각형 2120" width="302.578" height="554.727" fill="#fff"/>
      <g id="그룹_1688" data-name="그룹 1688" opacity="0.35">
        <path id="패스_2254" data-name="패스 2254" d="M275.363,15.827h14.1a2.182,2.182,0,0,1,2.19,2.125v4.779a2.18,2.18,0,0,1-2.241,2.125h-14a2.182,2.182,0,0,1-2.241-2.125V17.953A2.182,2.182,0,0,1,275.363,15.827Zm14.059.842H275.4a1.343,1.343,0,0,0-1.384,1.3v4.74a1.343,1.343,0,0,0,1.384,1.3h14.029a1.346,1.346,0,0,0,1.384-1.3v-4.74a1.345,1.345,0,0,0-1.384-1.3Z"/>
      </g>
      <path id="패스_2255" data-name="패스 2255" d="M292.492,18.76v3.177a1.8,1.8,0,0,0,.812-.634,1.64,1.64,0,0,0,0-1.9,1.8,1.8,0,0,0-.812-.64Z" opacity="0.4"/>
      <path id="패스_2256" data-name="패스 2256" d="M288.85,17.436H275.962a1.089,1.089,0,0,0-1.121,1.059v3.7a1.089,1.089,0,0,0,1.121,1.059H288.85a1.089,1.089,0,0,0,1.121-1.059v-3.7a1.089,1.089,0,0,0-1.121-1.058Z"/>
      <path id="패스_2257" data-name="패스 2257" d="M262.512,24.541a.28.28,0,0,1-.1-.02.265.265,0,0,1-.085-.054l-1.681-1.6a.242.242,0,0,1-.059-.083.233.233,0,0,1,0-.2.249.249,0,0,1,.064-.082,3.009,3.009,0,0,1,3.714,0,.247.247,0,0,1,.062.082.221.221,0,0,1,.027.1.235.235,0,0,1-.02.1.268.268,0,0,1-.059.083l-1.681,1.6a.266.266,0,0,1-.182.068Zm2.949-2.8a.271.271,0,0,1-.18-.068,4.306,4.306,0,0,0-5.534,0,.275.275,0,0,1-.28.048.26.26,0,0,1-.085-.053l-.97-.924a.253.253,0,0,1-.059-.083.242.242,0,0,1,0-.2.254.254,0,0,1,.059-.083,6.286,6.286,0,0,1,8.2,0,.254.254,0,0,1,.062.083.242.242,0,0,1-.056.281l-.968.924a.268.268,0,0,1-.085.053A.274.274,0,0,1,265.461,21.737Zm2.232-2.127a.268.268,0,0,1-.1-.018.255.255,0,0,1-.082-.051,7.584,7.584,0,0,0-10.008,0,.256.256,0,0,1-.082.051.266.266,0,0,1-.1.018.274.274,0,0,1-.1-.018.262.262,0,0,1-.085-.053l-.967-.924a.251.251,0,0,1-.059-.083.239.239,0,0,1,0-.2.253.253,0,0,1,.059-.083,9.568,9.568,0,0,1,12.675,0,.256.256,0,0,1,.062.083.236.236,0,0,1,0,.2.252.252,0,0,1-.059.083l-.973.923a.26.26,0,0,1-.086.054.275.275,0,0,1-.1.015Z"/>
      <path id="패스_2258" data-name="패스 2258" d="M251.028,24.569h-.841a.867.867,0,0,1-.595-.231.769.769,0,0,1-.247-.56V16.91a.768.768,0,0,1,.247-.56.865.865,0,0,1,.595-.231h.841a.865.865,0,0,1,.595.231.769.769,0,0,1,.247.56v6.869a.768.768,0,0,1-.247.56A.867.867,0,0,1,251.028,24.569Zm-3.923,0h-.841a.867.867,0,0,1-.595-.231.769.769,0,0,1-.247-.56V18.76a.768.768,0,0,1,.247-.56.867.867,0,0,1,.595-.231h.841a.867.867,0,0,1,.595.231.769.769,0,0,1,.247.56v5.018a.768.768,0,0,1-.247.56.868.868,0,0,1-.595.231Zm-3.923,0h-.841a.867.867,0,0,1-.595-.231.769.769,0,0,1-.247-.56V20.6a.768.768,0,0,1,.247-.56.867.867,0,0,1,.595-.231h.841a.867.867,0,0,1,.595.231.769.769,0,0,1,.247.56v3.177a.768.768,0,0,1-.247.56.867.867,0,0,1-.593.231Zm-3.921,0h-.841a.867.867,0,0,1-.595-.231.769.769,0,0,1-.247-.56V22.193a.768.768,0,0,1,.247-.56.867.867,0,0,1,.595-.231h.841a.867.867,0,0,1,.595.231.769.769,0,0,1,.247.56v1.586a.768.768,0,0,1-.247.56.867.867,0,0,1-.595.231Z"/>
      <path id="패스_2259" data-name="패스 2259" d="M20.51,20.727a1.4,1.4,0,0,0,.708,1.268,1.567,1.567,0,0,0,.756.185,1.719,1.719,0,0,0,1.362-.658,5.466,5.466,0,0,0,.794-2.69,2.068,2.068,0,0,1-.917.825,2.918,2.918,0,0,1-1.169.234,2.635,2.635,0,0,1-2.02-.794,2.874,2.874,0,0,1-.738-2.044,3.272,3.272,0,0,1,.732-2.118,2.608,2.608,0,0,1,2.16-.908,2.657,2.657,0,0,1,2.66,1.735,6.118,6.118,0,0,1,.405,2.393,7.867,7.867,0,0,1-.486,2.874,2.814,2.814,0,0,1-2.734,2.08,2.648,2.648,0,0,1-1.967-.678,2.316,2.316,0,0,1-.67-1.7Zm1.681-1.815a1.882,1.882,0,0,0,1.2-.431,1.843,1.843,0,0,0,.548-1.52,1.923,1.923,0,0,0-.493-1.446,1.7,1.7,0,0,0-1.244-.48,1.632,1.632,0,0,0-1.292.548,2.129,2.129,0,0,0-.474,1.452,2.1,2.1,0,0,0,.419,1.372,1.638,1.638,0,0,0,1.336.516Zm5.061-2.572h1.286V17.7H27.252Zm0,5.165h1.286v1.342H27.252Zm6.278-1.779v-3.98l-2.819,4Zm.018,3.121V20.707H29.683V19.624l4.038-5.6h.936v5.719h1.3v.967h-1.3v2.154ZM37.586,16.6v-.85a4.57,4.57,0,0,0,1.675-.387,1.941,1.941,0,0,0,.708-1.3h.879v8.775H39.666V16.619Z"/>
      <rect id="사각형_2121" data-name="사각형 2121" width="302.578" height="47.068" fill="#fff"/>
      <path id="패스_2260" data-name="패스 2260" d="M27.317,30.886a.628.628,0,0,1-.418-.159L18.8,23.533,26.9,16.339a.63.63,0,1,1,.837.942L20.7,23.533l7.035,6.252a.63.63,0,0,1-.419,1.1Z"/>
      <rect id="사각형_2122" data-name="사각형 2122" width="6.301" height="1.26" rx="0.63" transform="translate(252.44 26.527) rotate(45)"/>
      <path id="사각형_2123" data-name="사각형 2123" d="M6.514-.63A7.144,7.144,0,1,1-.63,6.514,7.152,7.152,0,0,1,6.514-.63Zm0,13.028A5.884,5.884,0,1,0,.63,6.514,5.89,5.89,0,0,0,6.514,12.4Z" transform="translate(240.846 16.121)"/>
      <path id="패스_2261" data-name="패스 2261" d="M270.85,17.651a.631.631,0,0,1,.631-.631H286.61a.631.631,0,0,1,0,1.26H271.481a.631.631,0,0,1-.631-.629Zm0,5.884a.631.631,0,0,1,.631-.631H286.61a.631.631,0,0,1,0,1.26H271.481a.631.631,0,0,1-.631-.629Zm.631,5.253a.631.631,0,1,0,0,1.26H286.61a.631.631,0,0,0,0-1.26Z" fill-rule="evenodd"/>
      <path id="패스_2262" data-name="패스 2262" d="M150.861,26.929H145.54V24.336h3.934V17.422h-1.641v2.186h-6.191V17.422H140v6.914h3.915v2.593h-5.259v1.345h12.2ZM141.641,23V20.923h6.191v2.083Zm21.276-6.471h-1.643v3.959h-1.906v1.362h1.906v2.763h1.64ZM151.763,19.1h7.831V17.776h-3.1V16.432h-1.625v1.345h-3.1Zm.756,2.911c-.008,1.44,1.315,2.393,3.162,2.393s3.168-.953,3.177-2.393c-.008-1.4-1.315-2.393-3.177-2.393s-3.173,1-3.165,2.4Zm1.522,7.716h8.879v-4.5h-8.879Zm.044-7.716c0-.717.635-1.153,1.6-1.153s1.595.436,1.595,1.153-.643,1.166-1.595,1.166-1.6-.419-1.6-1.157Zm1.6,6.383V26.515h5.629v1.876Z"/>
      <g id="그룹_1701" data-name="그룹 1701" clip-path="url(#clip-path-3)">
        <rect id="사각형_2124" data-name="사각형 2124" width="275.682" height="558.089" rx="13.448" transform="translate(13.448 55.473)" fill="#fff"/>
        <g id="그룹_1689" data-name="그룹 1689" clip-path="url(#clip-path-4)">
          <rect id="사각형_2125" data-name="사각형 2125" width="20.171" height="20.171" rx="3.362" transform="translate(255.511 68.921)" fill="#3f3361"/>
          <path id="패스_2263" data-name="패스 2263" d="M265.254,83.337l-4.305-4.305a.63.63,0,0,1,.891-.891L265.1,81.4l5.03-6.965a.63.63,0,0,1,1.022.738Z" fill="#fff"/>
        </g>
        <rect id="사각형_2127" data-name="사각형 2127" width="64.718" height="20.171" rx="3.362" transform="translate(26.896 68.921)" fill="#e94560"/>
        <path id="패스_2264" data-name="패스 2264" d="M42.231,73.924h-.908v7.481h.908V77.8h1.54v-.756h-1.54ZM34.256,79.5l.39.725c2.947-.92,4.826-2.874,4.826-5.5H34.682v.756h3.809c-.191,1.8-1.782,3.259-4.235,4.023Zm1.575,4.424H42.7v-.756H36.727V80.646h-.9Zm16.571-10h-.9v7.4h.9v-3.6h1.551v-.756H52.4Zm-7.5,5.584h.791a23.5,23.5,0,0,0,4.8-.345l-.115-.747a21.136,21.136,0,0,1-4.586.333V75.572h3.654v-.756H44.9Zm1.115,4.413h6.861v-.756H46.9V80.578h-.885Zm17.031-10h-.9V76.4H60.077v.756h2.068v2.31h.9Zm-8.412,5.011.471.713a4.369,4.369,0,0,0,2.6-2.563,4.269,4.269,0,0,0,2.483,2.321l.471-.7a3.52,3.52,0,0,1-2.516-3.114v-.3h2.287v-.747H54.918v.747h2.31v.3a3.752,3.752,0,0,1-2.6,3.343ZM56.47,84h6.574V79.968h-.9v1.274H57.376V79.967h-.908Zm.908-.735v-1.3h4.769v1.3Zm12.5-8.389v-.585h-.93v.585c0,1.464-1.867,2.684-3.711,2.941l.368.735a5.274,5.274,0,0,0,3.816-2.4,5.321,5.321,0,0,0,3.816,2.4l.368-.735c-1.847-.259-3.72-1.5-3.726-2.943ZM64.752,80.44h4.194v3.7h.885v-3.7h4.236v-.756H64.752Zm19.477-1.655H74.923v.747H84.23Zm-8.775-1.333.322.725a4.888,4.888,0,0,0,3.8-2.1,4.908,4.908,0,0,0,3.8,2.1l.333-.725c-1.815-.207-3.51-1.1-3.551-2.253H83.4v-.747H75.773V75.2h3.218c-.041,1.168-1.758,2.047-3.539,2.254Zm.6,4.826c0,1.183,1.322,1.838,3.528,1.838s3.505-.655,3.516-1.838c-.012-1.172-1.327-1.85-3.516-1.85s-3.536.678-3.531,1.85Zm.92,0c-.012-.719.971-1.126,2.608-1.138,1.62.012,2.6.419,2.608,1.138S81.2,83.4,79.58,83.394s-2.622-.4-2.611-1.115Z" fill="#fff"/>
        <path id="패스_2265" data-name="패스 2265" d="M36.579,441.31H35.217v3.076h-1.74v1.085h1.74v4.009h1.362Zm-9.3,5.446.151,1.135a38.245,38.245,0,0,0,6.607-.428l-.1-.983c-.442.05-.908.1-1.387.139v-3.291h.983v-1.085h-5.95v1.085h.958v3.428Zm1.992,5.472h7.59V451.12h-6.2v-2.345H29.267Zm.605-5.484v-3.416h1.336v3.366c-.454.024-.9.036-1.337.05Zm17.33-.215h-6.46V443.4H47.1v-1.135h-7.69v5.371h7.8Zm-9.027,4.489H48.337v-1.135H38.17Zm20.2-9.708H57.009V442.8H54.767v-.983H53.431V443.2h-2.5v-1.387H49.573v4.891h5.194v-.856H57.01v1.21h1.362Zm-7.439,4.312v-1.362h2.5v1.362Zm.1,2.976h5.976v.756h-5.95v2.95h7.666V451.22h-6.3v-.832h5.95v-2.875H51.033Zm3.732-3.782v-.983h2.244v.983Zm17.506-3.505H70.909v2.017H69.346v1.109h1.563V445.5H69.346v1.135h1.563v2.9h1.362Zm-9.3,5.623.151,1.135a42.251,42.251,0,0,0,6.354-.378l-.076-1.009q-.587.076-1.21.113v-3.543h.983v-1.109h-5.9v1.109h.958v3.681Zm1.992,5.3h7.59V451.12h-6.2V448.9H64.959Zm.605-5.321v-3.657H66.87v3.619Zm17.55-5.6H81.752v5.976h1.362Zm-9.052,3.1a3.017,3.017,0,1,0,3-2.6,2.714,2.714,0,0,0-3,2.6Zm1.336,0a1.664,1.664,0,1,1,1.664,1.463,1.477,1.477,0,0,1-1.661-1.463Zm.353,7.893h7.363v-4.513H81.752v1.16H77.115v-1.16H75.753Zm1.362-1.109v-1.185h4.64V451.2Zm16.9-9.885H92.625v11.145h1.387Zm-8.673,8.522H90.76v-7.614H89.4v2.773H86.7v-2.773H85.339ZM86.7,448.7v-2.622h2.7V448.7Zm14.021-7.262c-2.546-.012-4.021.669-4.035,1.891.012,1.248,1.487,1.917,4.035,1.917,2.522,0,3.983-.669,3.983-1.917,0-1.222-1.461-1.9-3.983-1.891Zm-5.068,5.421h2.622v.882H96.839v1.033h6.328v.731H96.839v2.852h7.993V451.3H98.2v-.832h6.328V447.74h-1.387v-.882h2.648v-1.085H95.653Zm2.471-3.53c0-.567.882-.882,2.6-.882s2.584.315,2.572.882c.012.617-.87.908-2.572.908s-2.6-.289-2.6-.908Zm1.487,4.413v-.882h2.168v.882Z"/>
        <g id="그룹_1690" data-name="그룹 1690" clip-path="url(#clip-path-5)">
          <path id="패스_2266" data-name="패스 2266" d="M31.574,474.786h-3.9v.973h3.9Zm8.188-3.631v-.467H42.21V469.9h-5.9v.788h2.475v.48a4.021,4.021,0,0,1-2.778,3.573l.505.757a4.725,4.725,0,0,0,2.788-2.746,4.507,4.507,0,0,0,2.654,2.487l.505-.756a3.752,3.752,0,0,1-2.7-3.333Zm-2.091,5.92h6.39v3h.973v-3.8H37.671Zm4.2-4.26h2.192v2.874h.973v-6.563h-.973V472H41.868Zm14.023-3.669h-.961v6.008h.961Zm-8.483,1.33h4.038v1.39H47.432v3.065h.887a33.3,33.3,0,0,0,5.356-.357l-.11-.8a31.449,31.449,0,0,1-5.2.345v-1.492h4.038v-2.955H47.414Zm1.362,9.456h7.111v-4.224h-.961v1.306H49.747v-1.306h-.973Zm.973-.788v-1.362h5.183v1.362Zm16.707-9.419H59.018v.8h6.477v.012a13.026,13.026,0,0,1-.3,3.213H57.75v.8H67.778v-.8H66.165a14.17,14.17,0,0,0,.289-3.213Zm-7.474,10.208H66.5v-3.867H58.98Zm.961-.788v-2.315h5.6v2.315Z"/>
        </g>
        <path id="패스_2267" data-name="패스 2267" d="M255.75,470.169h-1.121l-2.216,1.477v1.121l2.168-1.44h.048v7.757h1.121Zm5.281,9.036a2.927,2.927,0,0,0,3.077-2.967,2.885,2.885,0,0,0-2.955-2.991,2.738,2.738,0,0,0-1.625.517h-.086l.331-2.611h3.9v-.985h-4.822l-.631,4.879H259.3a1.714,1.714,0,0,1,1.664-.8,1.986,1.986,0,0,1,2.068,2.02,1.932,1.932,0,0,1-1.994,1.967,1.717,1.717,0,0,1-1.815-1.39h-1.071a2.66,2.66,0,0,0,2.884,2.362Zm6.505-4.9c1.145,0,1.779-.867,1.785-2.142s-.616-2.13-1.785-2.13c-1.127,0-1.791.874-1.785,2.13s.629,2.148,1.781,2.142Zm-.908,4.778h1l6.132-8.914h-1Zm.024-6.918c0-.82.3-1.362.887-1.362.622-.012.887.548.887,1.362s-.283,1.378-.887,1.378-.894-.549-.894-1.38Zm4.539,4.912c-.012,1.268.622,2.136,1.785,2.13,1.139,0,1.773-.861,1.773-2.13s-.622-2.136-1.773-2.142-1.8.87-1.788,2.141Zm.887,0c0-.831.3-1.372.9-1.378s.874.548.874,1.378-.277,1.374-.874,1.362-.9-.537-.9-1.363Z"/>
        <g id="그룹_1691" data-name="그룹 1691" clip-path="url(#clip-path-6)">
          <path id="패스_2268" data-name="패스 2268" d="M31.574,502.522h-3.9v.973h3.9Zm10.268-5.652h-.973v10.946h.973Zm-8.914,8.1.53.788a8.18,8.18,0,0,0,5.144-7.695H33.435v.788h4.186a7.313,7.313,0,0,1-4.693,6.118Zm13.05-7.658h-.961v4.371h3.177v1.169H43.689v.8h9.973v-.8H49.155v-1.169h3.2v-4.371H51.4V498.7H45.98Zm-1,10.268h7.564v-.812H45.954v-2.241h-.973Zm1-6.673v-1.44H51.4v1.44Zm18.622,4.7H60.039v-2.36h3.336v-5.6h-.949v1.982H56.733V497.65h-.973v5.6h3.328v2.36h-4.5v.8H64.6Zm-7.867-3.151v-2.044h5.688v2.044Zm17.816-5.589h-.973v3.337H71.723v.8h1.859v2.5h.973Zm-9.062,1.946h6.39v-.788H69.154V496.77h-.949v1.256H65.482Zm.652,2.511c0,1.182,1.059,1.958,2.536,1.958s2.536-.776,2.549-1.958c-.012-1.145-1.059-1.946-2.549-1.946s-2.528.8-2.528,1.949Zm.923,0c0-.7.658-1.194,1.613-1.194s1.613.493,1.613,1.194c0,.726-.658,1.21-1.613,1.219-.946-.011-1.605-.49-1.605-1.216Zm.333,6.341h7.161V504.1H67.4Zm.961-.788v-2.006H73.6v2.006Zm18.037-1.231H83.669v-2.08H85.38v-.8H78.593v-1.773H85.13v-3.312H77.611v.8h6.575v1.711H77.634v3.374H79.2v2.08h-2.82v.812H86.4Zm-6.254,0v-2.08h2.586v2.08Z"/>
        </g>
        <path id="패스_2269" data-name="패스 2269" d="M255.75,497.9h-1.121l-2.216,1.477V500.5l2.168-1.44h.048v7.757h1.121Zm5.281,9.036a2.927,2.927,0,0,0,3.077-2.967,2.885,2.885,0,0,0-2.955-2.991,2.739,2.739,0,0,0-1.625.517h-.086l.331-2.611h3.9V497.9h-4.822l-.628,4.875H259.3a1.714,1.714,0,0,1,1.664-.8,1.986,1.986,0,0,1,2.068,2.02,1.932,1.932,0,0,1-1.994,1.967,1.717,1.717,0,0,1-1.815-1.39h-1.071A2.66,2.66,0,0,0,261.031,506.941Zm6.505-4.9c1.145,0,1.779-.867,1.785-2.142s-.616-2.13-1.785-2.13c-1.127,0-1.791.874-1.785,2.13s.629,2.15,1.781,2.142Zm-.908,4.778h1l6.132-8.914h-1Zm.024-6.918c0-.82.3-1.362.887-1.362.622-.012.887.548.887,1.362s-.283,1.378-.887,1.378-.894-.548-.894-1.378Zm4.539,4.912c-.012,1.268.622,2.136,1.785,2.13,1.139,0,1.773-.861,1.773-2.13s-.622-2.136-1.773-2.142-1.8.874-1.788,2.141Zm.887,0c0-.831.3-1.372.9-1.378s.874.548.874,1.378-.277,1.374-.874,1.362-.9-.537-.9-1.363Z"/>
        <g id="그룹_1692" data-name="그룹 1692" clip-path="url(#clip-path-7)">
          <path id="패스_2270" data-name="패스 2270" d="M31.574,530.258h-3.9v.973h3.9Zm11.2.973H32.793v.812H37.3v3.534h.949v-3.534h4.519Zm-9.345-1.625.357.776a5.64,5.64,0,0,0,4.008-2.3,5.626,5.626,0,0,0,3.983,2.3l.357-.776c-1.958-.265-3.865-1.464-3.865-2.832v-.012H41.81v-.788H38.247v-1.362H37.3v1.362H33.766v.788H37.3v.012c-.008,1.377-1.927,2.567-3.879,2.832Zm18.739-4.993H51.2v10.946h.961v-5.676h1.773v-.825H52.16Zm-8.4,8.1.542.756a8.239,8.239,0,0,0,5.023-7.682H44.269v.812h4.085a7.457,7.457,0,0,1-4.59,6.107Zm19.379-8.089H62.18v5.7h.961v-2.437H64.8v-.826H63.141Zm-8.027,5.157h.874a26.628,26.628,0,0,0,5.159-.467l-.123-.812a24.458,24.458,0,0,1-4.937.467v-3.846h-.977Zm1.1,5.626h6.932V530.89H62.18v1.452H57.157V530.89h-.949Zm.949-.788v-1.478H62.18v1.478Zm17.36-10.009h-.961v5.873h.961Zm-8.775,3.053a2.894,2.894,0,1,0,2.874-2.511,2.592,2.592,0,0,0-2.882,2.507Zm.949,0a1.933,1.933,0,1,1,1.921,1.711,1.935,1.935,0,0,1-1.921-1.711Zm.738,7.745h7.092v-4.371h-.961v1.33H68.383v-1.33h-.961Zm.961-.788v-1.478h5.171v1.478Z"/>
        </g>
        <path id="패스_2271" data-name="패스 2271" d="M255.75,525.642h-1.121l-2.216,1.477v1.121l2.168-1.44h.048v7.757h1.121Zm5.281,9.036a2.927,2.927,0,0,0,3.077-2.967,2.885,2.885,0,0,0-2.955-2.991,2.738,2.738,0,0,0-1.625.517h-.086l.331-2.611h3.9v-.985h-4.822l-.628,4.875H259.3a1.714,1.714,0,0,1,1.664-.8,1.986,1.986,0,0,1,2.068,2.02,1.932,1.932,0,0,1-1.994,1.967,1.717,1.717,0,0,1-1.815-1.39h-1.071a2.66,2.66,0,0,0,2.88,2.365Zm6.505-4.9c1.145,0,1.779-.867,1.785-2.142s-.616-2.13-1.785-2.13c-1.127,0-1.791.874-1.785,2.13s.629,2.148,1.781,2.142Zm-.908,4.778h1l6.132-8.914h-1Zm.024-6.918c0-.82.3-1.362.887-1.362.622-.012.887.548.887,1.362s-.283,1.378-.887,1.378-.894-.549-.894-1.38Zm4.539,4.912c-.012,1.268.622,2.136,1.785,2.13,1.139,0,1.773-.861,1.773-2.13s-.622-2.136-1.773-2.142-1.8.873-1.788,2.141Zm.887,0c0-.831.3-1.372.9-1.378s.874.548.874,1.378-.277,1.374-.874,1.362-.9-.539-.9-1.363Z"/>
        <g id="그룹_1693" data-name="그룹 1693" clip-path="url(#clip-path-8)">
          <path id="패스_2272" data-name="패스 2272" d="M37.312,267.307H27.339v.788h9.973Zm-8.87-3.213c0,1.362,1.5,2.18,3.878,2.18,2.351,0,3.859-.818,3.865-2.18s-1.513-2.18-3.865-2.166C29.955,261.913,28.442,262.72,28.442,264.093Zm.185,8.15h7.564v-.812H29.6v-2.377h-.973Zm.812-8.15c0-.856,1.113-1.39,2.874-1.39s2.874.536,2.874,1.39-1.127,1.39-2.874,1.39-2.876-.522-2.87-1.39Zm18.087-2.561H46.6v2.992H45.139v-2.77h-.908v6.315h.908v-2.744H46.6v3.139h.923Zm-9.357,2.092h5.614v-.776H41.468v-1.23h-.961v1.23H38.173Zm.48,2.463c0,1.126.961,1.859,2.339,1.859s2.345-.732,2.351-1.859-.967-1.878-2.351-1.871-2.339.726-2.333,1.871Zm.862,0c0-.7.605-1.157,1.478-1.157s1.478.461,1.478,1.157c0,.67-.605,1.133-1.478,1.133s-1.474-.463-1.474-1.133Zm.726,4.481c-.012,1.2,1.362,1.884,3.669,1.884s3.675-.684,3.681-1.884c0-1.231-1.378-1.92-3.681-1.92s-3.676.688-3.663,1.92Zm.961,0c-.012-.756,1-1.169,2.708-1.157,1.7-.012,2.708.405,2.723,1.157-.012.708-1.021,1.139-2.723,1.133s-2.716-.425-2.7-1.133Zm17-9.036h-.968v1.785H54.671v-.949H49.649v4.862h5.023V266.3h2.561v1.723h.973Zm-7.6,4.912v-3.288H53.72v3.288Zm.3,3.965c0,1.3,1.392,2.044,3.669,2.044s3.669-.738,3.669-2.044-1.4-2.076-3.669-2.068-3.678.75-3.672,2.068Zm.961,0c0-.826,1.029-1.306,2.708-1.318,1.675.012,2.708.493,2.708,1.318,0,.793-1.035,1.28-2.708,1.28s-2.717-.487-2.711-1.28Zm2.806-4.926v-1.362h2.558v1.362Z"/>
          <path id="사각형_2131" data-name="사각형 2131" d="M5.463-.421A5.884,5.884,0,1,1-.421,5.463,5.89,5.89,0,0,1,5.463-.421Zm0,10.926A5.042,5.042,0,1,0,.421,5.463,5.048,5.048,0,0,0,5.463,10.506Z" transform="translate(64.298 261.394)"/>
          <path id="패스_2273" data-name="패스 2273" d="M69.139,268.034v.05h.837v-.05a1.271,1.271,0,0,1,.7-1.265,1.572,1.572,0,0,0,.837-1.419,1.6,1.6,0,0,0-1.781-1.576,1.648,1.648,0,0,0-1.8,1.617h.887a.874.874,0,0,1,.908-.879.831.831,0,0,1,.887.837,1.1,1.1,0,0,1-.605.944A1.685,1.685,0,0,0,69.139,268.034Zm-.132,1.239a.58.58,0,1,0,.17-.412.584.584,0,0,0-.17.412Z"/>
        </g>
        <path id="패스_2274" data-name="패스 2274" d="M241.566,261.882h-8.089v.756h1.687v2.118h-1.651v.756h8.018v-.756h-1.651v-2.118h1.687Zm-9.024,5.331h9.975v-.776h-9.973Zm1.21,1.711h6.539v.949h-6.513v2.487h7.793v-.738h-6.834v-1.047h6.505V268.2h-7.5Zm2.372-4.168v-2.118h2.794v2.118Zm16.35-3.213h-.961v6.008h.961Zm-8.483,1.33h4.038v1.39h-4.014v3.065h.887a33.316,33.316,0,0,0,5.356-.357l-.11-.8a31.439,31.439,0,0,1-5.2.345v-1.49h4.038v-2.955H244Zm1.362,9.456h7.111V268.1H251.5v1.306H246.32V268.1h-.973Zm.973-.788v-1.354h5.183v1.354ZM264.3,267.3h-9.973v.788H264.3Zm-8.864-3.213c0,1.362,1.5,2.18,3.878,2.18,2.351,0,3.861-.818,3.867-2.18s-1.513-2.18-3.867-2.166c-2.372-.011-3.875.8-3.875,2.169Zm.185,8.15h7.564v-.812h-6.6v-2.377h-.973Zm.812-8.15c0-.856,1.115-1.39,2.874-1.39s2.874.536,2.874,1.39-1.126,1.39-2.874,1.39-2.874-.519-2.874-1.387Zm18.087-2.561H273.6v2.992h-1.464v-2.77h-.908v6.315h.908v-2.744H273.6v3.139h.924Zm-9.357,2.092h5.614v-.776h-2.315v-1.23H267.5v1.23h-2.339Zm.481,2.463c0,1.126.959,1.859,2.339,1.859s2.345-.732,2.351-1.859-.967-1.878-2.351-1.871-2.342.729-2.336,1.874Zm.861,0c0-.7.605-1.157,1.478-1.157s1.478.461,1.478,1.157c0,.67-.605,1.133-1.478,1.133s-1.475-.46-1.475-1.13Zm.726,4.481c-.012,1.2,1.362,1.884,3.669,1.884s3.675-.684,3.681-1.884c0-1.231-1.378-1.92-3.681-1.92s-3.676.691-3.666,1.923Zm.961,0c-.012-.756,1-1.169,2.708-1.157,1.7-.012,2.71.405,2.723,1.157-.012.708-1.023,1.139-2.723,1.133s-2.717-.422-2.705-1.13Z"/>
        <g id="그룹_1694" data-name="그룹 1694" clip-path="url(#clip-path-9)">
          <path id="패스_2275" data-name="패스 2275" d="M36.709,289.265h-.923v10.946h.923Zm-9.38,7.879.592.7a8,8,0,0,0,3.8-4.728h1.853v1.946H31.538v.8H33.57v3.791h.923V289.567H33.57v2.758H31.905a9.138,9.138,0,0,0,.151-1.651H27.821v.8H31.1a7.111,7.111,0,0,1-3.769,5.673Zm14.749-5.909V291.1H44.54v-.812H38.617v.812H41.1v.135a3.678,3.678,0,0,1-2.82,3.3l.505.756a4.5,4.5,0,0,0,2.806-2.53,4.371,4.371,0,0,0,2.746,2.345l.454-.756a3.48,3.48,0,0,1-2.719-3.118ZM38.1,297.108l.151.812A41.407,41.407,0,0,0,45.1,297.5l-.062-.714c-.943.13-1.952.209-2.955.253v-2.2h-.973v2.235c-1.088.035-2.123.035-3.009.035Zm7.634,3.1H46.7v-5.566h1.785v-.825H46.7v-4.555h-.961Zm12.472-10.934h-.974v3.077H54.647V290H53.7v1.946H50.646V290h-.961v5.5h4.962v-2.339h2.586v4.21h.973Zm-7.564,5.43v-1.994H53.7v2Zm.48,5.269h7.325v-.812H52.093v-2.586h-.973ZM69.48,290.89h-4v-1.44h-.949v1.44H60.516v.8h8.962Zm-9.456,8.039H70.047v-.8H65.481V296.59c1.933-.1,3.133-.862,3.127-2.092,0-1.3-1.392-2.068-3.595-2.056-2.235-.012-3.607.756-3.595,2.056-.012,1.23,1.163,1.988,3.115,2.092v1.539H60.027Zm2.365-4.431c-.012-.812.991-1.292,2.622-1.292s2.616.48,2.61,1.292-1,1.312-2.61,1.318-2.631-.484-2.619-1.315Z"/>
        </g>
        <path id="패스_2276" data-name="패스 2276" d="M191.683,299.217h5.787v-.985h-4.248v-.074l2.044-2.106c1.576-1.625,2.038-2.4,2.044-3.4a2.572,2.572,0,0,0-2.77-2.475,2.619,2.619,0,0,0-2.82,2.635h1.047a1.764,1.764,0,0,1,3.508-.16c0,.826-.511,1.428-1.563,2.549l-3.041,3.2Zm10.478.123a2.785,2.785,0,0,0,3.1-2.548,2.062,2.062,0,0,0-1.859-2.142v-.062a1.982,1.982,0,0,0,1.513-2.018,2.472,2.472,0,0,0-2.723-2.389,2.7,2.7,0,0,0-2.955,2.365h1.071a1.7,1.7,0,0,1,1.871-1.4,1.486,1.486,0,0,1,1.664,1.489c0,.917-.756,1.527-1.835,1.527h-.726v.973h.726c1.386,0,2.16.69,2.168,1.664,0,.929-.856,1.564-2.032,1.564-1.059,0-1.909-.53-1.967-1.38H199.06c.061,1.415,1.334,2.362,3.108,2.362Zm7.608,0a2.927,2.927,0,0,0,3.077-2.967,2.885,2.885,0,0,0-2.955-2.991,2.736,2.736,0,0,0-1.625.517h-.086l.333-2.611h3.9V290.3H207.59l-.628,4.875h1.071a1.716,1.716,0,0,1,1.664-.8,1.988,1.988,0,0,1,2.068,2.02,1.932,1.932,0,0,1-1.994,1.967,1.716,1.716,0,0,1-1.815-1.39h-1.071a2.658,2.658,0,0,0,2.891,2.366Zm4.387-1.946h4.322v1.815h1.059v-1.815h1.244v-.973h-1.244V290.3h-1.362l-4.014,6.18Zm1.194-.973v-.074l3.017-4.642h.11v4.716Zm9.443-1.109-.074-1.908,1.625,1.023.419-.726-1.685-.887,1.685-.9-.419-.726-1.625,1.023.074-1.908h-.837l.073,1.908-1.625-1.023-.419.726,1.7.9-1.7.887.419.726,1.625-1.023-.073,1.908Zm5.934,0-.074-1.908,1.625,1.023.419-.726-1.687-.887,1.687-.9-.419-.726-1.625,1.023.074-1.908h-.837l.074,1.908-1.625-1.023-.419.726,1.7.9-1.7.887.419.726,1.625-1.023-.074,1.908Zm5.935,0-.074-1.908,1.625,1.023.419-.726-1.687-.887,1.687-.9-.419-.726-1.625,1.023.074-1.908h-.837l.074,1.908-1.625-1.023-.419.726,1.7.9-1.7.887.419.726L235.9,293.4l-.074,1.908Zm5.934,0-.074-1.908,1.625,1.023.419-.726-1.687-.887,1.687-.9-.419-.726-1.625,1.023.074-1.908h-.837l.074,1.908-1.625-1.023-.419.726,1.7.9-1.7.887.419.726,1.625-1.023-.074,1.908Zm3.386,3.9h5.785v-.985h-4.247v-.074l2.044-2.106c1.576-1.625,2.038-2.4,2.044-3.4a2.572,2.572,0,0,0-2.77-2.475,2.619,2.619,0,0,0-2.819,2.635h1.047a1.764,1.764,0,0,1,3.508-.16c0,.826-.51,1.428-1.563,2.549l-3.041,3.2Zm10.5.123a2.932,2.932,0,0,0,3.1-3,2.887,2.887,0,0,0-2.906-2.955,2.711,2.711,0,0,0-2.289,1.182h-.11c0-2.148.874-3.4,2.339-3.4a1.753,1.753,0,0,1,1.8,1.38h1.1a2.769,2.769,0,0,0-2.893-2.365c-2.092,0-3.386,1.767-3.386,4.924.023,3.3,1.72,4.219,3.265,4.238Zm-2.056-2.979a2.08,2.08,0,0,1,2.082-2.008,1.977,1.977,0,0,1,2.008,1.994,2.02,2.02,0,0,1-2.032,2.018,2.043,2.043,0,0,1-2.042-2Zm9.592,2.979a2.929,2.929,0,0,0,3.077-2.967,2.885,2.885,0,0,0-2.955-2.991,2.74,2.74,0,0,0-1.625.517h-.086l.331-2.611h3.9V290.3h-4.826l-.628,4.875h1.071a1.716,1.716,0,0,1,1.664-.8,1.988,1.988,0,0,1,2.068,2.02,1.932,1.932,0,0,1-1.994,1.967,1.716,1.716,0,0,1-1.815-1.39h-1.071a2.66,2.66,0,0,0,2.9,2.368Zm4.395-1.946h4.322v1.815H273.8v-1.815h1.244v-.973H273.8V290.3h-1.362l-4.014,6.18Zm1.194-.973v-.074l3.017-4.642h.11v4.716Z"/>
        <g id="그룹_1695" data-name="그룹 1695" clip-path="url(#clip-path-10)">
          <path id="패스_2277" data-name="패스 2277" d="M36.721,317.005h-.935v10.946h.935Zm-9.247,4.728c0,2.327.929,3.811,2.351,3.8a2.218,2.218,0,0,0,2.05-1.735h1.743v3.589h.923V317.238h-.923v2.421H31.877a2.245,2.245,0,0,0-2.05-1.735C28.4,317.934,27.48,319.406,27.474,321.733Zm.9,0c0-1.779.554-2.893,1.452-2.893s1.464,1.113,1.464,2.893-.572,2.893-1.464,2.874C28.928,324.626,28.367,323.5,28.373,321.733Zm3.707-1.268h1.539v2.523H32.085a7.238,7.238,0,0,0,.1-1.256,6.808,6.808,0,0,0-.116-1.269Zm14.861-2.874H39.5v.8H45.98v.012a13.026,13.026,0,0,1-.3,3.213H38.235v.8H48.261v-.8H46.65a14.166,14.166,0,0,0,.289-3.213ZM39.467,327.8h7.522v-3.867H39.467Zm.961-.788V324.7h5.6v2.315Zm14.233-8.459v-.074h3.495v-.788H50.068v.788h3.508v.074c0,1.464-1.952,2.708-3.853,2.991l.381.756a5.56,5.56,0,0,0,4.014-2.517,5.561,5.561,0,0,0,4.038,2.517l.357-.756c-1.908-.278-3.859-1.522-3.853-2.986Zm-5.528,5.49h4.493v3.9h.949v-3.9h4.531v-.8H49.131Z"/>
        </g>
        <path id="패스_2278" data-name="패스 2278" d="M249.213,317.719H244.14v.788h4.044c-.209,1.871-1.92,3.328-4.623,4.038l.395.756C247.181,322.453,249.213,320.482,249.213,317.719ZM245.359,327.8h7.111v-4.076h-7.111Zm.949-.788V324.5h5.221v2.511Zm5.207-3.817h.961v-6.18h-.961Zm6.489-3.25v-1.994h-.949v1.994a5.776,5.776,0,0,1-2.874,4.888l.616.776a6.177,6.177,0,0,0,2.752-3.657,5.917,5.917,0,0,0,2.7,3.446l.592-.776a5.511,5.511,0,0,1-2.84-4.678Zm3.841,8h.961v-5.664h1.834v-.837H262.8v-4.445h-.961Zm11.943-10.934h-.959v6.611h.959v-3.047h1.664v-.812h-1.664ZM265.7,318.5h4.014v1.39h-3.99v3.1h.85a30.02,30.02,0,0,0,5.257-.357l-.1-.812a27.538,27.538,0,0,1-5.061.357V320.65h3.985V317.7H265.7Zm.949,7.46c0,1.25,1.372,1.967,3.631,1.967,2.235,0,3.607-.72,3.607-1.967s-1.372-2-3.607-1.994c-2.26-.008-3.638.738-3.632,1.994Zm.949,0c-.012-.769,1-1.23,2.684-1.23,1.664,0,2.666.461,2.672,1.23s-1.015,1.225-2.672,1.219c-1.682.006-2.7-.455-2.685-1.219Z"/>
        <g id="그룹_1696" data-name="그룹 1696" clip-path="url(#clip-path-11)">
          <path id="패스_2279" data-name="패스 2279" d="M36.364,344.741h-.973v10.97h.973Zm-8.623,4.666c0,2.333,1.163,3.811,2.794,3.8s2.8-1.471,2.794-3.8-1.169-3.811-2.794-3.817-2.784,1.49-2.79,3.817Zm.935,0c0-1.779.756-2.949,1.859-2.955s1.859,1.176,1.859,2.955-.756,2.949-1.859,2.943-1.853-1.163-1.853-2.943Zm12.755-1.292v-.542h2.056v-.8H41.453v-1.625H40.53v1.625H38.444v.8h2.08v.542a5.41,5.41,0,0,1-2.377,4.593l.578.738a5.48,5.48,0,0,0,2.269-3.294,5.088,5.088,0,0,0,2.274,3.047l.554-.728a4.993,4.993,0,0,1-2.386-4.356Zm1.306,1.773h1.723v5.233h.908V345.012h-.908v4.052H42.741Zm3.934,5.8h.923V344.741H46.67Zm5.564-10.54a2.451,2.451,0,1,0,0,4.841,2.449,2.449,0,1,0,0-4.841Zm-1.9,2.421a1.918,1.918,0,1,1,1.9,1.629,1.921,1.921,0,0,1-1.9-1.629Zm.714,4.1h6.156V352.8H51.077v2.734h7.486v-.776H52.025v-1.231h6.144v-2.635H51.059Zm6.156-1.306h.961v-5.626h-.961Z"/>
        </g>
        <path id="패스_2280" data-name="패스 2280" d="M242.132,344.741H241.2v4.347h-1.527v-4.112h-.923v10.158h.923v-5.245H241.2v5.793h.935Zm-8.976,8h4.186v-6.722h-4.186Zm.908-.776V346.8h2.365v5.171Zm18.609-7.215H251.7v5.207h-2.224v.64h2.216v.605h.973Zm-9.061,4.124.11.726c.887,0,1.884,0,2.917-.036v1.675h.949v-1.711a31.44,31.44,0,0,0,3.275-.3l-.062-.628a66.1,66.1,0,0,1-7.191.272Zm.85-2.269c0,1.021,1.071,1.631,2.723,1.637s2.71-.616,2.723-1.637c-.012-1.017-1.089-1.651-2.723-1.651s-2.726.638-2.726,1.655Zm.825,5.687h6.427v.887h-6.377v2.377h7.695v-.714h-6.746v-.979h6.389V351.6h-7.387Zm.086-5.687c0-.585.708-.979,1.815-.973s1.8.389,1.815.973-.72.973-1.815.973-1.825-.39-1.817-.968Zm15.636,8.2a2.928,2.928,0,0,0,3.077-2.967,2.885,2.885,0,0,0-2.955-2.991,2.737,2.737,0,0,0-1.625.517h-.086l.333-2.611h3.9v-.985h-4.826l-.628,4.875h1.071a1.714,1.714,0,0,1,1.664-.8,1.988,1.988,0,0,1,2.068,2.02,1.932,1.932,0,0,1-1.994,1.967,1.716,1.716,0,0,1-1.815-1.39h-1.071a2.658,2.658,0,0,0,2.884,2.372Zm7.325-9.664a2.449,2.449,0,1,0,2.832,2.421,2.558,2.558,0,0,0-2.834-2.416Zm-1.9,2.421a1.693,1.693,0,0,1,1.9-1.613,1.64,1.64,0,1,1-1.9,1.613Zm.714,4.1h6.156V352.8h-6.132v2.734h7.486v-.776h-6.537v-1.231h6.144v-2.635h-7.111Zm6.156-1.306h.959V344.73h-.959Z"/>
        <g id="그룹_1697" data-name="그룹 1697" clip-path="url(#clip-path-12)">
          <path id="패스_2281" data-name="패스 2281" d="M35.9,372.474h-.961v6.365H35.9V376.1h1.649v-.825H35.9Zm-8.533,1.933h6.525v-.8H31.107v-1.231h-.961v1.231H27.364Zm.628,2.421c0,1.169,1.047,1.926,2.635,1.92s2.622-.756,2.635-1.92c-.012-1.169-1.059-1.915-2.635-1.921s-2.638.759-2.638,1.929Zm.923,0c0-.708.678-1.183,1.711-1.169,1.021-.012,1.711.454,1.723,1.169-.012.714-.7,1.182-1.723,1.182s-1.717-.46-1.711-1.174Zm.062,6.439H35.9v-3.952h-.961v1.169H29.943v-1.169h-.961Zm.961-.776v-1.242H34.93v1.244Zm11.979-7.953v-1.39h-.947v1.362a4.02,4.02,0,0,1-2.77,3.767l.53.776a4.655,4.655,0,0,0,2.746-2.808,4.628,4.628,0,0,0,2.7,2.537l.492-.776a3.843,3.843,0,0,1-2.746-3.46Zm-1.958,8.643H47.3v-.812H40.942v-2.586h-.985Zm5.873-2.622h.961v-3.9h1.651v-.826H46.792v-3.357h-.961Zm6.242-7.239c-1.619,0-2.752,1.489-2.746,3.817s1.127,3.811,2.746,3.8a2.528,2.528,0,0,0,2.365-1.749h2.806v4.248h.961V372.474h-.961v2.449H54.37a2.528,2.528,0,0,0-2.3-1.6Zm-1.815,3.817c0-1.779.744-2.949,1.815-2.955s1.815,1.176,1.815,2.955-.756,2.949-1.815,2.943-1.815-1.156-1.822-2.935Zm4.395-1.4h2.6v2.66H54.683a6.164,6.164,0,0,0,.123-1.256,5.859,5.859,0,0,0-.159-1.4Zm15.391,3.238H60.015v.788h4.507v3.657h.949v-3.649h4.567ZM61.3,377.64h7.449v-4.713h-.974v1.513H62.255v-1.513h-.961Zm.961-.788v-1.625h5.514v1.634Z"/>
        </g>
        <path id="패스_2282" data-name="패스 2282" d="M264.319,377.895h-4.53v-1.28h3.362v-.788h-6.6V373.77h6.525v-.776H255.6v3.62h3.253v1.28h-4.519v.776h9.985Zm-8.775,3.546c0,1.262,1.416,1.967,3.782,1.983,2.346-.012,3.755-.72,3.769-1.983-.012-1.25-1.422-1.967-3.769-1.967s-3.8.716-3.787,1.967Zm.985,0c-.012-.756,1.041-1.21,2.794-1.21s2.788.454,2.794,1.21-1.059,1.21-2.794,1.21-2.811-.44-2.8-1.21Zm12.288-8.17a2.6,2.6,0,1,0,2.943,2.572,2.664,2.664,0,0,0-2.947-2.566ZM265.3,380.2l.135.826a39.811,39.811,0,0,0,7.165-.481l-.074-.714a50.85,50.85,0,0,1-7.23.375Zm1.513-4.359a2.023,2.023,0,1,1,2.008,1.723,1.8,1.8,0,0,1-2.012-1.717Zm6.44,7.6h.959V372.474h-.959Z"/>
        <g id="그룹_1698" data-name="그룹 1698" clip-path="url(#clip-path-13)">
          <path id="패스_2283" data-name="패스 2283" d="M31.045,403.574v-1.428h2.463v-.8H27.548v.8H30.1v1.428a5.757,5.757,0,0,1-2.943,4.716l.592.764a6.282,6.282,0,0,0,2.826-3.651,5.827,5.827,0,0,0,2.764,3.38l.554-.756a5.276,5.276,0,0,1-2.846-4.452Zm3.8,7.584h.961V405.47h1.835v-.825H35.81v-4.433h-.961ZM48.22,405.63H43.689v-1.28h3.362v-.788h-6.6v-2.056h6.525v-.776H39.5v3.62h3.251v1.28H38.235v.776H48.22Zm-8.775,3.546c0,1.262,1.416,1.967,3.782,1.983,2.345-.012,3.755-.72,3.767-1.983-.012-1.25-1.422-1.967-3.767-1.967s-3.793.717-3.787,1.967Zm.985,0c-.012-.756,1.041-1.21,2.794-1.21s2.788.454,2.794,1.21-1.059,1.21-2.794,1.21-2.811-.44-2.8-1.21Zm18.062-8.962H57.57V411.16h.923ZM49,408.242l.616.726a5.732,5.732,0,0,0,2.284-3.48,5.3,5.3,0,0,0,2.222,3.219l.592-.714a5.366,5.366,0,0,1-2.369-4.657V402.3h2.006v-.8H49.3v.8H51.41v1.035a5.713,5.713,0,0,1-2.413,4.9Zm4.519-3.288h1.847V410.6h.908V400.49h-.908v3.681H53.514Zm16.491.135H60.039v.756h4.493v1.023h-3.3v.726h6.543v.949H61.258v2.5h7.793V410.3H62.219v-1.071h6.505v-2.363H65.487v-1.023h4.519Zm-9.431-1.244.283.738a5.54,5.54,0,0,0,4.162-1.759,5.51,5.51,0,0,0,4.15,1.759l.3-.738c-2.02-.129-3.731-.812-3.9-1.908h3.415v-.756H65.481V400.16h-.949v1.023H61.062v.756h3.4c-.179,1.1-1.89,1.778-3.9,1.906Zm23.5,1.576H74.1v.812h9.985Zm-8.775,3.743c0,1.268,1.416,1.967,3.782,1.967s3.755-.7,3.767-1.967c-.012-1.256-1.422-1.967-3.767-1.967s-3.8.711-3.8,1.967Zm.062-4.79h7.537v-.788H76.3v-2.118h6.525v-.812H75.356Zm.923,4.79c-.012-.756,1.041-1.21,2.794-1.219,1.735.012,2.788.454,2.794,1.219s-1.059,1.21-2.794,1.21-2.82-.44-2.808-1.21Zm18.714-2.917H90.468V405.09h3.48v-.776H87.236v-1.169H93.7V400.5H86.235v.788h6.489v1.133H86.276v2.672H89.5v1.157h-4.53v.8H94.993Zm-8.9,2.421h6.7v2.387h.973v-3.177H86.1Zm12.717-7.6c-1.619,0-2.752,1.489-2.744,3.817s1.126,3.811,2.744,3.8a2.528,2.528,0,0,0,2.365-1.749h2.808v4.248h.959v-10.97h-.959v2.449H101.12a2.528,2.528,0,0,0-2.3-1.6Zm-1.815,3.817c0-1.779.744-2.949,1.815-2.955s1.815,1.176,1.815,2.955-.756,2.949-1.815,2.943S97.007,406.665,97,404.88Zm4.4-1.4H104v2.66h-2.567a6.178,6.178,0,0,0,.123-1.256,5.881,5.881,0,0,0-.16-1.408Zm15.389,3.238H106.763v.788h4.507v3.657h.949v-3.657h4.567Zm-8.741-1.33H115.5v-4.716h-.973v1.513H109v-1.513h-.959Zm.959-.788v-1.625h5.516V404.6Z"/>
        </g>
        <path id="패스_2284" data-name="패스 2284" d="M274.7,401.247h-1.1v6.959h-.086l-4.826-6.959h-1.071v8.914h1.109v-6.944h.086l4.826,6.944H274.7Z"/>
        <rect id="사각형_2138" data-name="사각형 2138" width="248.786" height="75.645" rx="6.723" transform="translate(26.896 167.259)" fill="#f8f8f8"/>
        <g id="그룹_1699" data-name="그룹 1699" clip-path="url(#clip-path-14)">
          <path id="패스_2285" data-name="패스 2285" d="M50.759,191.095H40.788v.8h9.973Zm-9.406-1.428.345.776a5.237,5.237,0,0,0,4.076-2.247,5.257,5.257,0,0,0,4.076,2.247l.357-.776c-1.94-.222-3.761-1.176-3.8-2.421h3.472v-.8H41.7v.8h3.44C45.1,188.506,43.269,189.446,41.353,189.667Zm.64,5.171c0,1.268,1.416,1.967,3.782,1.967s3.755-.7,3.767-1.967c-.012-1.256-1.422-1.982-3.767-1.982S41.987,193.582,41.993,194.838Zm.985,0c-.012-.769,1.041-1.21,2.794-1.219,1.735.012,2.788.454,2.794,1.219s-1.059,1.2-2.794,1.194S42.966,195.6,42.978,194.838Zm12.557-6.008v-1.988H54.55v1.994a5.767,5.767,0,0,1-2.874,4.912l.628.776a6.163,6.163,0,0,0,2.758-3.7,5.9,5.9,0,0,0,2.758,3.5l.578-.788a5.384,5.384,0,0,1-2.861-4.708Zm1.664,1.589h2.6v6.439h.961v-10.97H59.8v3.743H57.2ZM71.654,185.9h-.973v3.077H68.1v-2.351h-.949v1.946H64.094v-1.946h-.961v5.511H68.1V189.8h2.586v4.21h.973Zm-7.564,5.43v-1.994h3.053v1.994Zm.48,5.269h7.325v-.812H65.54V193.2h-.973Zm18.357-9.086h-4v-1.44H77.98v1.44H73.968v.8h8.962Zm-9.456,8.039H83.5v-.8H78.929v-1.539c1.933-.1,3.133-.862,3.127-2.092,0-1.3-1.392-2.068-3.595-2.056-2.235-.012-3.607.756-3.595,2.056-.012,1.23,1.163,1.988,3.115,2.092v1.539H73.475Zm2.365-4.431c-.012-.812.991-1.292,2.622-1.292s2.616.48,2.61,1.292-1,1.312-2.61,1.318-2.631-.487-2.617-1.318Z"/>
        </g>
        <path id="패스_2286" data-name="패스 2286" d="M176.53,195.835h5.787v-.985h-4.25v-.074l2.044-2.106c1.576-1.625,2.038-2.4,2.044-3.4a2.572,2.572,0,0,0-2.77-2.475,2.619,2.619,0,0,0-2.82,2.635h1.047a1.764,1.764,0,0,1,3.508-.16c0,.826-.511,1.428-1.563,2.549l-3.041,3.2Zm10.551-8.914H185.96l-2.216,1.477v1.121l2.166-1.44h.05v7.757h1.121Zm2.154,7.091h4.322v1.815h1.059v-1.815h1.244v-.967h-1.244v-6.118h-1.362l-4.014,6.18Zm1.194-.973v-.074l3.017-4.642h.11v4.722Zm9.973,2.917a2.785,2.785,0,0,0,3.1-2.548,2.062,2.062,0,0,0-1.859-2.142V191.2a1.983,1.983,0,0,0,1.513-2.018,2.474,2.474,0,0,0-2.723-2.389,2.7,2.7,0,0,0-2.955,2.365h1.071a1.7,1.7,0,0,1,1.871-1.4,1.486,1.486,0,0,1,1.664,1.489c0,.917-.756,1.527-1.834,1.527h-.726v.973h.726c1.386,0,2.16.69,2.166,1.664,0,.929-.856,1.564-2.032,1.564-1.059,0-1.909-.53-1.967-1.38H197.3c.056,1.418,1.33,2.365,3.1,2.365Zm4.481-1.946H209.2v1.815h1.059V194.01h1.244v-.965h-1.244v-6.118H208.9l-4.014,6.18Zm1.194-.973v-.074l3.017-4.642h.11v4.723Zm9.443-1.109-.074-1.908,1.625,1.023.419-.726-1.687-.887,1.687-.9-.419-.726-1.625,1.023.074-1.908h-.841l.074,1.908-1.625-1.023-.419.726,1.7.9-1.7.887.419.726,1.625-1.023-.074,1.908Zm5.934,0-.074-1.908L223,191.043l.419-.726-1.687-.887,1.687-.9-.419-.726-1.625,1.023.074-1.908h-.837l.074,1.908-1.625-1.023-.419.726,1.7.9-1.7.887.419.726,1.625-1.023-.074,1.908Zm6.465,4.026a2.785,2.785,0,0,0,3.1-2.548,2.061,2.061,0,0,0-1.859-2.142V191.2a1.982,1.982,0,0,0,1.513-2.018,2.474,2.474,0,0,0-2.723-2.389A2.7,2.7,0,0,0,225,189.16h1.071a1.7,1.7,0,0,1,1.871-1.4,1.486,1.486,0,0,1,1.664,1.489c0,.917-.756,1.526-1.835,1.526h-.726v.973h.726c1.386,0,2.16.69,2.166,1.664,0,.929-.856,1.564-2.032,1.564-1.059,0-1.908-.53-1.967-1.38h-1.121c.057,1.419,1.333,2.366,3.106,2.366Zm4.7-.123h5.785v-.985h-4.247v-.074l2.044-2.106c1.576-1.625,2.038-2.4,2.044-3.4a2.572,2.572,0,0,0-2.77-2.475,2.619,2.619,0,0,0-2.82,2.635h1.047a1.764,1.764,0,0,1,3.508-.16c0,.826-.511,1.428-1.563,2.549l-3.041,3.2Zm10.477.123a2.785,2.785,0,0,0,3.1-2.548,2.062,2.062,0,0,0-1.859-2.142V191.2a1.983,1.983,0,0,0,1.513-2.018,2.474,2.474,0,0,0-2.723-2.389,2.7,2.7,0,0,0-2.955,2.365h1.071a1.7,1.7,0,0,1,1.871-1.4,1.486,1.486,0,0,1,1.664,1.489c0,.917-.756,1.526-1.834,1.526h-.728v.973h.728c1.384,0,2.16.69,2.166,1.664,0,.929-.856,1.564-2.032,1.564-1.059,0-1.909-.53-1.967-1.38H240c.058,1.419,1.331,2.366,3.1,2.366Zm4.481-1.946H251.9v1.815h1.059v-1.815h1.244v-.964h-1.244v-6.118H251.6l-4.014,6.18Zm1.194-.973v-.074l3.017-4.642h.11v4.725Zm6.9,2.8h5.787v-.985h-4.248v-.074l2.044-2.106c1.576-1.625,2.038-2.4,2.044-3.4a2.572,2.572,0,0,0-2.77-2.475,2.619,2.619,0,0,0-2.82,2.635h1.047a1.764,1.764,0,0,1,3.508-.16c0,.826-.511,1.428-1.563,2.549l-3.041,3.2Z"/>
        <g id="그룹_1700" data-name="그룹 1700" clip-path="url(#clip-path-15)">
          <path id="패스_2287" data-name="패스 2287" d="M50.809,222.365H46.242V220h3.336v-5.6h-.949v1.982H42.94V214.4h-.973V220H45.3v2.363H40.788v.8H50.809Zm-7.867-3.151v-2.044H48.63v2.048Zm17.816-5.593h-.973v3.337H57.926v.8h1.859v2.5h.973ZM51.7,215.566h6.39v-.788H55.372v-1.256h-.949v1.256H51.7Zm.652,2.511c0,1.182,1.059,1.958,2.536,1.958s2.536-.776,2.549-1.958c-.012-1.145-1.059-1.946-2.549-1.946s-2.537.8-2.537,1.949Zm.923,0c0-.7.658-1.194,1.613-1.194s1.613.493,1.613,1.194c0,.726-.658,1.21-1.613,1.219-.953-.009-1.611-.49-1.611-1.216Zm.333,6.341h7.154v-3.57H53.6Zm.961-.788v-2.006h5.245v2.006ZM72.6,222.4H69.877v-2.08h1.711v-.794H64.8v-1.773h6.537v-3.312H63.811v.8h6.575v1.713H63.835v3.374H65.4V222.4h-2.82v.812H72.6Zm-6.254,0v-2.08h2.586v2.08Z"/>
        </g>
        <path id="패스_2288" data-name="패스 2288" d="M216.324,214.658H215.2l-2.216,1.477v1.121l2.166-1.44h.05v7.757h1.121Zm2.377,8.914h5.787v-.985h-4.248v-.074l2.044-2.106c1.576-1.625,2.038-2.4,2.044-3.4a2.572,2.572,0,0,0-2.77-2.475,2.619,2.619,0,0,0-2.82,2.635h1.047a1.764,1.764,0,0,1,3.508-.16c0,.826-.511,1.428-1.563,2.549l-3.042,3.2Zm8.8-.825H226.31l-.678,3.348h.908Zm4.593.947a2.785,2.785,0,0,0,3.1-2.548A2.062,2.062,0,0,0,233.341,219v-.062a1.983,1.983,0,0,0,1.513-2.018,2.474,2.474,0,0,0-2.723-2.389,2.7,2.7,0,0,0-2.955,2.365h1.071a1.7,1.7,0,0,1,1.871-1.4,1.486,1.486,0,0,1,1.664,1.489c0,.917-.756,1.527-1.834,1.527h-.726v.973h.726c1.386,0,2.16.69,2.166,1.664,0,.929-.856,1.564-2.032,1.564-1.059,0-1.909-.53-1.967-1.38H229c.056,1.415,1.325,2.362,3.1,2.362Zm7.62,0c1.976,0,3.115-1.664,3.115-4.58,0-2.893-1.157-4.58-3.115-4.58s-3.121,1.687-3.115,4.58c-.008,2.918,1.138,4.579,3.114,4.579Zm-2.044-4.58c0-2.309.764-3.613,2.044-3.619s2.038,1.312,2.032,3.619-.744,3.6-2.032,3.6-2.042-1.287-2.042-3.6Zm6.415,2.635h4.322v1.815h1.059v-1.815h1.244v-.973H249.47V214.66h-1.362l-4.014,6.18Zm1.194-.973V220.7l3.017-4.642h.11v4.716Zm15.525-7.141h-.973v6.477h-2.269v.7h2.269v1.132h.973Zm-9.086,5.073.135.788c.918,0,1.967,0,3.077-.042v2.118h.973v-2.16c1-.062,2.032-.16,3-.315l-.062-.7a64.659,64.659,0,0,1-7.129.312Zm.887-2.723c0,1.169,1.089,1.9,2.71,1.9s2.7-.726,2.708-1.9-1.1-1.909-2.708-1.909-2.716.753-2.711,1.911Zm.69,8.347h7.781v-.812H254.27v-2.387H253.3Zm.234-8.347c-.012-.7.714-1.183,1.785-1.169,1.039-.012,1.779.467,1.785,1.169s-.746,1.176-1.785,1.182c-1.073,0-1.8-.466-1.787-1.18Z"/>
        <path id="패스_2289" data-name="패스 2289" d="M36.4,137.976h-.961v2.663H33.225v.817h2.216v2.475H36.4Zm-9.017,5.372.505.756a4.679,4.679,0,0,0,2.782-2.746,4.573,4.573,0,0,0,2.66,2.487l.505-.756a3.772,3.772,0,0,1-2.7-3.337v-.321h2.446v-.8h-5.9v.8h2.475v.321a4.021,4.021,0,0,1-2.778,3.6Zm1.967,5.43H36.4v-4.322h-.961v1.362H30.33v-1.362h-.973Zm.973-.788V146.6h5.109v1.39ZM43.723,139v-.628h-1V139c0,1.57-2,2.874-3.977,3.151l.393.788a5.649,5.649,0,0,0,4.085-2.572,5.7,5.7,0,0,0,4.085,2.572l.393-.788C45.739,141.876,43.733,140.548,43.723,139Zm-5.492,5.959h4.493v3.965h.949v-3.965H48.2v-.812H38.235Zm19.97-6.968h-.968v3.077H54.647v-2.351H53.7v1.946H50.646v-1.946h-.961v5.5h4.962v-2.34h2.586v4.21h.973Zm-7.564,5.43v-2h3.053v2Zm.48,5.269h7.325v-.812H52.087v-2.587h-.973Zm18.357-9.086H65.481v-1.44h-.949v1.44H60.516v.8h8.962Zm-9.456,8.04H70.047v-.8H65.481V145.3c1.933-.1,3.133-.862,3.127-2.092,0-1.3-1.392-2.068-3.595-2.056-2.235-.012-3.607.756-3.595,2.056-.012,1.23,1.163,1.988,3.115,2.092v1.539H60.027Zm2.365-4.431c-.012-.812.991-1.292,2.622-1.292s2.616.48,2.61,1.292-1,1.312-2.61,1.318-2.625-.489-2.613-1.319ZM75.242,148a.794.794,0,1,0-.788-.8.8.8,0,0,0,.788.8Zm-.788-5.749a.788.788,0,1,0,.788-.788A.788.788,0,0,0,74.454,142.254Zm6.39,5.676h5.787v-.985H82.386v-.074l2.044-2.106c1.576-1.625,2.038-2.4,2.044-3.4a2.572,2.572,0,0,0-2.77-2.484,2.619,2.619,0,0,0-2.82,2.635h1.047a1.764,1.764,0,0,1,3.508-.16c0,.826-.511,1.428-1.563,2.549l-3.041,3.2Zm10.5.123a2.932,2.932,0,0,0,3.1-3,2.887,2.887,0,0,0-2.906-2.955,2.713,2.713,0,0,0-2.283,1.177h-.11c0-2.148.874-3.4,2.34-3.4a1.752,1.752,0,0,1,1.8,1.38h1.1a2.77,2.77,0,0,0-2.9-2.369c-2.094,0-3.386,1.767-3.386,4.924,0,3.307,1.705,4.224,3.251,4.242Zm-2.055-2.982a2.08,2.08,0,0,1,2.086-2.008,1.977,1.977,0,0,1,2.008,1.994,2.02,2.02,0,0,1-2.032,2.018,2.042,2.042,0,0,1-2.062-2Zm9.6,2.979c1.976,0,3.115-1.664,3.115-4.58,0-2.893-1.157-4.58-3.115-4.58s-3.121,1.687-3.115,4.58C95.775,146.389,96.92,148.05,98.9,148.05Zm-2.044-4.58c0-2.309.756-3.613,2.044-3.619s2.038,1.312,2.032,3.619-.744,3.6-2.032,3.6-2.038-1.287-2.044-3.6Zm6.629,4.457h5.787v-.985h-4.241v-.074l2.044-2.106c1.576-1.625,2.038-2.4,2.044-3.4a2.572,2.572,0,0,0-2.772-2.481,2.619,2.619,0,0,0-2.819,2.635h1.047a1.764,1.764,0,0,1,3.508-.16c0,.826-.511,1.428-1.564,2.549l-3.035,3.207Zm9.955-3.9-.074-1.908,1.625,1.023.419-.726-1.687-.887,1.687-.9-.419-.726-1.625,1.023.074-1.908H112.6l.074,1.908-1.628-1.027-.419.726,1.7.9-1.7.887.419.726,1.625-1.023-.071,1.912Zm5.934,0-.073-1.908,1.625,1.023.419-.726-1.687-.887,1.687-.9-.419-.726-1.625,1.023.073-1.908h-.837l.074,1.908-1.625-1.023-.419.726,1.7.9-1.7.887.419.726,1.625-1.023-.074,1.908Zm5.935,0-.074-1.908,1.625,1.023.419-.726-1.687-.887,1.687-.9-.419-.726-1.625,1.023.074-1.908h-.837l.074,1.908-1.625-1.023-.419.726,1.7.9-1.7.887.419.726,1.625-1.023-.074,1.908Zm5.935,0-.073-1.911,1.625,1.023.419-.726-1.687-.887,1.687-.9-.419-.726-1.625,1.023.074-1.908H130.4l.074,1.908-1.625-1.023-.419.726,1.7.9-1.7.887.419.726,1.625-1.023-.076,1.911Zm6.463,4.026a2.785,2.785,0,0,0,3.1-2.548,2.061,2.061,0,0,0-1.859-2.142V143.3a1.982,1.982,0,0,0,1.513-2.018,2.474,2.474,0,0,0-2.723-2.389,2.7,2.7,0,0,0-2.955,2.365h1.076a1.7,1.7,0,0,1,1.871-1.4,1.486,1.486,0,0,1,1.664,1.489c0,.917-.756,1.527-1.835,1.527h-.726v.973h.726c1.386,0,2.16.69,2.166,1.664,0,.929-.856,1.564-2.032,1.564-1.059,0-1.908-.53-1.967-1.38H134.6c.051,1.412,1.325,2.359,3.1,2.359Zm4.7-.123h5.785v-.985h-4.247v-.074l2.048-2.109c1.576-1.625,2.038-2.4,2.044-3.4a2.572,2.572,0,0,0-2.775-2.481,2.619,2.619,0,0,0-2.818,2.635h1.047a1.764,1.764,0,0,1,3.508-.16c0,.826-.511,1.428-1.564,2.549l-3.041,3.2Zm10.3.123a2.927,2.927,0,0,0,3.077-2.967,2.885,2.885,0,0,0-2.955-2.991,2.738,2.738,0,0,0-1.625.517h-.086l.331-2.611h3.9v-.985h-4.825l-.628,4.875h1.071a1.714,1.714,0,0,1,1.664-.8,1.986,1.986,0,0,1,2.068,2.02,1.932,1.932,0,0,1-1.994,1.967,1.717,1.717,0,0,1-1.815-1.39h-1.071a2.66,2.66,0,0,0,2.884,2.363Zm7.7,0a2.785,2.785,0,0,0,3.1-2.548,2.062,2.062,0,0,0-1.859-2.142V143.3a1.983,1.983,0,0,0,1.513-2.018,2.474,2.474,0,0,0-2.723-2.389,2.7,2.7,0,0,0-2.955,2.365h1.071a1.7,1.7,0,0,1,1.871-1.4,1.486,1.486,0,0,1,1.664,1.489c0,.917-.756,1.527-1.834,1.527h-.726v.973h.726c1.386,0,2.16.69,2.166,1.664,0,.929-.856,1.564-2.032,1.564-1.059,0-1.909-.53-1.967-1.38h-1.121c.053,1.412,1.327,2.359,3.1,2.359Z" fill="#777"/>
        <path id="패스_2290" data-name="패스 2290" d="M37.592,107.415H36.439v13.162h1.153v-6.988h2.2v-.976h-2.2ZM28,117.282h1.035a33.12,33.12,0,0,0,6.278-.443l-.151-1a31.366,31.366,0,0,1-6.014.474v-6.649h4.979V108.7H28Zm23.329-9.867H50.166v13.162h1.166Zm-10.342,5.6c0,2.8,1.4,4.572,3.354,4.566s3.362-1.766,3.354-4.566-1.4-4.572-3.354-4.58S41,110.22,40.99,113.013Zm1.123,0c0-2.135.915-3.539,2.232-3.546s2.232,1.412,2.232,3.546-.908,3.539-2.232,3.531S42.113,115.148,42.113,113.013Zm22.619,3.25h-8.85v.932H63.6v3.353h1.138Zm-10.571-6.9h3.575V111.2H54.184v3.782h.843a23.926,23.926,0,0,0,4.979-.384l-.133-.961a21.156,21.156,0,0,1-4.566.413v-1.982h3.531v-3.649H54.162Zm5.2,2.393h1.664v3.753h1.107v-7.831H61.027V110.8H59.363Zm4.269,3.841H64.74v-8.17H63.632ZM77.3,114.518H69.387v-2.11h7.475v-.93H69.387v-1.944h7.757v-.983H68.2v6.915h9.086Zm-10.637,4.315H78.687v-.961H66.653Zm20.4-10.4c-1.943,0-3.3,1.788-3.3,4.58s1.353,4.572,3.3,4.566c1.832,0,3.147-1.6,3.272-4.182h2.932v7.182h1.153V107.415H93.268v5.023H90.32c-.183-2.461-1.475-4-3.263-4.006Zm-2.191,4.581c0-2.135.894-3.539,2.186-3.546s2.188,1.412,2.188,3.546-.908,3.539-2.188,3.531S84.873,115.148,84.873,113.013Zm22.557-5.586h-1.138v9.67h1.138ZM97.267,109.3h4.841v1.935H97.3v3.99h1.059a36.462,36.462,0,0,0,6.427-.454l-.118-.961a33.179,33.179,0,0,1-6.25.443v-2.1h4.841v-3.8H97.267Zm1.551,10.962h9v-.976H99.984v-2.95H98.816Zm21.689-12.852h-1.168v13.162h1.168Zm-10.342,5.6c0,2.8,1.4,4.572,3.354,4.566s3.362-1.766,3.354-4.566-1.4-4.572-3.354-4.58S110.172,110.22,110.164,113.013Zm1.123,0c0-2.135.917-3.539,2.232-3.546s2.23,1.412,2.23,3.546-.908,3.539-2.23,3.531S111.287,115.148,111.287,113.013Zm27.294,4.89h-5.487v-2.837h4v-6.723h-1.138v2.378h-6.825v-2.378h-1.168v6.722h3.989V117.9h-5.407v.961h12.032Zm-9.44-3.782v-2.452h6.826v2.452Zm21.373-6.705h-1.166v4h-2.232v.959h2.232v3h1.166Zm-10.873,2.331h7.667V108.8h-3.266v-1.513H142.9V108.8H139.64Zm.782,3.014c0,1.419,1.263,2.35,3.044,2.35s3.044-.93,3.059-2.35c-.015-1.374-1.271-2.334-3.059-2.334S140.422,111.387,140.422,112.76Zm1.109,0c0-.843.79-1.433,1.935-1.433s1.935.592,1.935,1.433c0,.871-.79,1.448-1.935,1.463-1.145-.014-1.936-.592-1.936-1.463Zm.4,7.608h8.584v-4.283h-8.584Zm1.153-.946v-2.407h6.3v2.409Zm14.221-4.151a12.283,12.283,0,0,0,2.127,7.092h1.123a13.937,13.937,0,0,1,0-14.168H159.43a12.232,12.232,0,0,0-2.121,7.076Zm10.082-6.344h-5.2v8.363h.843a23.833,23.833,0,0,0,4.964-.354l-.1-.961a24.518,24.518,0,0,1-4.595.325v-2.965h3.9v-.929h-3.9v-2.527h4.085Zm1.478,10.949h1.123v-6.215h1.8v6.885h1.123V107.415h-1.123v5.3h-1.8v-5.017h-1.123Zm9.38-11.45c-1.95,0-3.316,1.788-3.309,4.58s1.362,4.572,3.309,4.566,3.31-1.766,3.328-4.566c-.024-2.787-1.386-4.567-3.327-4.575Zm-2.215,4.586c0-2.135.908-3.539,2.215-3.546s2.2,1.412,2.2,3.546-.887,3.539-2.2,3.531S176.035,115.148,176.028,113.013Zm7.716,7.536H184.9v-6.887h2.2v-1h-2.2v-5.242h-1.153Zm7.344-5.275a12.226,12.226,0,0,0-2.129-7.076h-1.123a13.937,13.937,0,0,1,0,14.168h1.123a12.277,12.277,0,0,0,2.12-7.094Z"/>
      </g>
      <path id="사각형_2142" data-name="사각형 2142" d="M13.027-.421H261.815a13.448,13.448,0,0,1,13.448,13.448V544.22a13.448,13.448,0,0,1-13.448,13.448H13.027A13.448,13.448,0,0,1-.421,544.22V13.028A13.448,13.448,0,0,1,13.027-.421ZM261.815,556.827a12.621,12.621,0,0,0,12.607-12.607V13.028A12.621,12.621,0,0,0,261.815.421H13.027A12.621,12.621,0,0,0,.421,13.028V544.22a12.621,12.621,0,0,0,12.607,12.607Z" transform="translate(13.869 55.892)" fill="#ddd"/>
      <path id="패스_2291" data-name="패스 2291" d="M0,478.452H302.578V548a6.725,6.725,0,0,1-6.722,6.723H6.723A6.724,6.724,0,0,1,0,548Z" fill="#fff"/>
      <path id="패스_2292" data-name="패스 2292" d="M26.058,520.631H21.347v6.584h4.711Zm-3.837,5.855V521.36h2.941v5.126Zm5.711,3.328h.9V524.46h1.713v-.781H28.828v-4.085h-.9ZM39.515,519.6h-.908v10.239h.908Zm-8.047,4.353c0,2.177,1.086,3.557,2.608,3.551s2.614-1.372,2.608-3.551-1.092-3.557-2.608-3.563S31.477,521.78,31.468,523.952Zm.873,0c0-1.664.713-2.752,1.735-2.758s1.735,1.1,1.735,2.758-.707,2.752-1.735,2.746-1.732-1.086-1.732-2.746Z" fill="#3f3361"/>
      <g id="그룹_1702" data-name="그룹 1702" opacity="0.2">
        <rect id="사각형_2143" data-name="사각형 2143" width="20.171" height="20.171" transform="translate(20.171 491.9)" fill="#3f3361"/>
      </g>
      <path id="패스_2293" data-name="패스 2293" d="M89.563,520.149H82.622v.747h6.052v.012a12.142,12.142,0,0,1-.281,3H81.437v.747H90.79v-.747h-1.5a13.2,13.2,0,0,0,.271-3Zm-6.976,9.531h7.021v-3.608H82.587Zm.9-.735v-2.16h5.229v2.16Zm17.427-4.557h-9.3v.735h2.356v1.39c-.8.3-1.236.8-1.23,1.471,0,1.166,1.31,1.815,3.528,1.826,2.189-.011,3.505-.661,3.516-1.826a1.592,1.592,0,0,0-1.183-1.448v-1.411h2.316Zm-8.272-2.666c0,1.2,1.378,1.89,3.619,1.9s3.6-.7,3.608-1.9S98.48,519.8,96.256,519.8s-3.614.707-3.614,1.918Zm.93,0c0-.756,1.035-1.194,2.688-1.194s2.684.436,2.69,1.194-1.051,1.185-2.69,1.185-2.69-.437-2.684-1.185Zm.08,6.263c-.012-.7.971-1.1,2.608-1.115,1.62.012,2.6.419,2.608,1.115s-.988,1.109-2.608,1.1-2.608-.4-2.608-1.1Zm1.21-1.7v-1.16h2.815v1.166a8.829,8.829,0,0,0-1.425-.109,8.527,8.527,0,0,0-1.378.1Z" fill="#aaa"/>
      <g id="그룹_1703" data-name="그룹 1703" opacity="0.2">
        <rect id="사각형_2144" data-name="사각형 2144" width="20.171" height="20.171" transform="translate(80.687 491.9)" fill="#3f3361"/>
      </g>
      <path id="패스_2294" data-name="패스 2294" d="M145.366,521.252v-1.12h-.885v1.059a3.794,3.794,0,0,1-2.561,3.516l.483.725a4.366,4.366,0,0,0,2.545-2.614,4.236,4.236,0,0,0,2.465,2.327l.495-.713a3.533,3.533,0,0,1-2.54-3.18Zm-2.1,6.676c0,1.189,1.287,1.862,3.39,1.862s3.368-.672,3.368-1.862c0-1.166-1.269-1.85-3.368-1.85S143.281,526.762,143.271,527.928Zm.908,0c-.012-.694.943-1.126,2.483-1.126s2.487.431,2.493,1.126c0,.725-.949,1.144-2.493,1.148s-2.483-.424-2.483-1.148Zm4.861-2.118h.9v-2.793h1.54v-.756H149.94v-2.666h-.9Zm12.388-1.275H152.12v.747h4.206v1.21h-3.07v3.177h7.032v-3.183h-3.08v-1.21h4.218Zm-8.434-3.861h1.575v2.15h-1.54v.747h7.49v-.747h-1.54v-2.147h1.575v-.746H153Zm1.16,8.262V527.2H159.4v1.735Zm1.31-6.114v-2.145h2.608v2.15Z" fill="#aaa"/>
      <g id="그룹_1704" data-name="그룹 1704" opacity="0.2">
        <rect id="사각형_2145" data-name="사각형 2145" width="20.171" height="20.171" transform="translate(141.203 491.9)" fill="#3f3361"/>
      </g>
      <path id="패스_2295" data-name="패스 2295" d="M211.823,527.755H207.56V525.55h3.114v-5.229h-.884v1.85h-5.309v-1.85h-.908v5.229h3.1v2.206h-4.2v.747h9.353Zm-7.342-2.941v-1.908h5.309v1.908Zm16.628-5.216H220.2V522.7h-1.74v.756H220.2v2.333h.908Zm-8.457,1.815h5.961v-.735h-2.54v-1.171h-.885v1.171h-2.539Zm.605,2.344c0,1.1.982,1.828,2.368,1.828s2.366-.723,2.378-1.828c-.012-1.068-.988-1.815-2.378-1.815s-2.366.746-2.366,1.822Zm.862,0c0-.655.614-1.115,1.513-1.115s1.505.454,1.505,1.115c0,.678-.616,1.126-1.505,1.138-.9-.012-1.511-.46-1.511-1.132Zm.31,5.918h6.676v-3.328H214.43Zm.9-.735v-1.873h4.9v1.873Z" fill="#aaa"/>
      <g id="그룹_1705" data-name="그룹 1705" opacity="0.2">
        <rect id="사각형_2146" data-name="사각형 2146" width="20.171" height="20.171" transform="translate(201.718 491.9)" fill="#3f3361"/>
      </g>
      <path id="패스_2296" data-name="패스 2296" d="M271.454,519.609h-.908v2.826h-2.1v.747h2.1V527.1h.908Zm-8.424,5.446.472.735a4.4,4.4,0,0,0,2.6-2.572,4.251,4.251,0,0,0,2.483,2.333l.471-.723a3.5,3.5,0,0,1-2.516-3.114v-.528h2.287v-.752h-5.5v.747h2.31v.528a3.716,3.716,0,0,1-2.6,3.345Zm1.862,4.539h6.849v-.756H265.8v-2.421h-.908Zm11.25-6.849v-.505h1.918v-.746h-1.908v-1.513h-.862v1.513h-1.941v.747h1.941v.505a5.049,5.049,0,0,1-2.218,4.286l.54.69a5.112,5.112,0,0,0,2.118-3.074,4.744,4.744,0,0,0,2.126,2.844l.517-.678a4.661,4.661,0,0,1-2.232-4.07Zm1.21,1.655h1.608v4.884h.85v-9.434h-.85v3.782h-1.608Zm3.666,5.412h.862V519.6h-.862Z" fill="#aaa"/>
      <g id="그룹_1706" data-name="그룹 1706" opacity="0.2">
        <rect id="사각형_2147" data-name="사각형 2147" width="20.171" height="20.171" transform="translate(262.234 491.9)" fill="#3f3361"/>
      </g>
      <path id="패스_2297" data-name="패스 2297" d="M0,477.611H302.578v1.681H0Zm302.578,77.115ZM0,554.726Zm302.578-76.274Z" fill="#ddd"/>
    </g>
  </g>
</svg>
