<svg xmlns="http://www.w3.org/2000/svg" width="244.5" height="134" viewBox="0 0 244.5 134">
  <g id="화살표" transform="translate(-468 -5615)">
    <path id="사각형_2149" data-name="사각형 2149" d="M1,1V127.5H181.5V1H1M0,0H182.5V128.5H0Z" transform="translate(470 5617)" fill="rgba(85,19,209,0.6)"/>
    <rect id="사각형_2150" data-name="사각형 2150" width="6" height="6" transform="translate(468 5615)" fill="#fff"/>
    <path id="사각형_2150_-_윤곽선" data-name="사각형 2150 - 윤곽선" d="M1,1V5H5V1H1M0,0H6V6H0Z" transform="translate(468 5615)" fill="rgba(85,19,209,0.6)"/>
    <rect id="사각형_2151" data-name="사각형 2151" width="6" height="6" transform="translate(468 5743)" fill="#fff"/>
    <path id="사각형_2151_-_윤곽선" data-name="사각형 2151 - 윤곽선" d="M1,1V5H5V1H1M0,0H6V6H0Z" transform="translate(468 5743)" fill="rgba(85,19,209,0.6)"/>
    <rect id="사각형_2152" data-name="사각형 2152" width="6" height="6" transform="translate(650 5615)" fill="#fff"/>
    <path id="사각형_2152_-_윤곽선" data-name="사각형 2152 - 윤곽선" d="M1,1V5H5V1H1M0,0H6V6H0Z" transform="translate(650 5615)" fill="rgba(85,19,209,0.6)"/>
    <rect id="사각형_2153" data-name="사각형 2153" width="6" height="6" transform="translate(650 5743)" fill="#fff"/>
    <path id="사각형_2153_-_윤곽선" data-name="사각형 2153 - 윤곽선" d="M1,1V5H5V1H1M0,0H6V6H0Z" transform="translate(650 5743)" fill="rgba(85,19,209,0.6)"/>
    <path id="패스_2022" data-name="패스 2022" d="M2205.426-61.921c-6.083,0-11.364-.105-15.6-1.512-5.1-1.693-8.184-5.158-9.7-10.905-.72-2.724-2.677-4.908-5.815-6.491a30.249,30.249,0,0,0-9.954-2.671,68.043,68.043,0,0,0-13.586-.1.5.5,0,0,1-.552-.442.5.5,0,0,1,.442-.552,69.187,69.187,0,0,1,13.814.1,31.218,31.218,0,0,1,10.286,2.771c3.405,1.718,5.535,4.116,6.332,7.129,1.425,5.39,4.3,8.635,9.052,10.212,4.453,1.478,10.218,1.469,16.894,1.459l1.678,0a.5.5,0,0,1,.5.5.5.5,0,0,1-.5.5C2207.592-61.924,2206.5-61.921,2205.426-61.921Z" transform="translate(-1498 5772)" fill="#5513d1"/>
    <path id="다각형_108" data-name="다각형 108" d="M3.09.585a.5.5,0,0,1,.819,0l2.54,3.628A.5.5,0,0,1,6.04,5H.96a.5.5,0,0,1-.41-.787Z" transform="translate(712.5 5706.079) rotate(90)" fill="#5513d1"/>
    <circle id="타원_164" data-name="타원 164" cx="4" cy="4" r="4" transform="translate(648 5684)" fill="#fff"/>
    <path id="타원_164_-_윤곽선" data-name="타원 164 - 윤곽선" d="M4,1A3,3,0,1,0,7,4,3,3,0,0,0,4,1M4,0A4,4,0,1,1,0,4,4,4,0,0,1,4,0Z" transform="translate(648 5684)" fill="#5d00da"/>
  </g>
</svg>
