<svg xmlns="http://www.w3.org/2000/svg" xmlns:xlink="http://www.w3.org/1999/xlink" width="302.578" height="559.77" viewBox="0 0 302.578 559.77">
  <defs>
    <clipPath id="clip-path">
      <rect id="사각형_2088" data-name="사각형 2088" width="302.578" height="559.77" rx="12.103" transform="translate(700.469 301.065)" fill="#fff"/>
    </clipPath>
    <clipPath id="clip-path-2">
      <rect id="사각형_2119" data-name="사각형 2119" width="302.578" height="554.727" fill="#fff"/>
    </clipPath>
    <clipPath id="clip-path-3">
      <rect id="사각형_2099" data-name="사각형 2099" width="275.682" height="194.154" rx="13.448" transform="translate(13.869 231.976)" fill="#fff"/>
    </clipPath>
    <clipPath id="clip-path-4">
      <rect id="사각형_2095" data-name="사각형 2095" width="20.171" height="20.171" rx="3.362" transform="translate(255.931 245.424)" fill="#fff"/>
    </clipPath>
    <clipPath id="clip-path-5">
      <rect id="사각형_2097" data-name="사각형 2097" width="110.945" height="21.013" transform="translate(27.317 323.591)" fill="#fff"/>
    </clipPath>
    <clipPath id="clip-path-6">
      <rect id="사각형_2098" data-name="사각형 2098" width="110.945" height="21.013" transform="translate(27.317 351.327)" fill="#fff"/>
    </clipPath>
    <clipPath id="clip-path-7">
      <rect id="사각형_2106" data-name="사각형 2106" width="275.682" height="194.154" rx="13.448" transform="translate(13.869 439.58)" fill="#fff"/>
    </clipPath>
    <clipPath id="clip-path-8">
      <rect id="사각형_2103" data-name="사각형 2103" width="20.171" height="20.171" rx="3.362" transform="translate(255.931 453.026)" fill="#fff"/>
    </clipPath>
    <clipPath id="clip-path-9">
      <rect id="사각형_2105" data-name="사각형 2105" width="110.945" height="21.013" transform="translate(27.317 531.193)" fill="#fff"/>
    </clipPath>
  </defs>
  <g id="화면1" transform="translate(-700.469 -301.065)" clip-path="url(#clip-path)">
    <g id="Android_Small_-_3" data-name="Android Small - 3" transform="translate(700.469 303.587)" clip-path="url(#clip-path-2)">
      <rect id="사각형_2089" data-name="사각형 2089" width="302.578" height="554.727" fill="#fff"/>
      <g id="그룹_1675" data-name="그룹 1675" opacity="0.35">
        <path id="패스_2221" data-name="패스 2221" d="M275.363,15.827h14.1a2.182,2.182,0,0,1,2.19,2.125v4.779a2.18,2.18,0,0,1-2.241,2.125h-14a2.182,2.182,0,0,1-2.241-2.125V17.953A2.182,2.182,0,0,1,275.363,15.827Zm14.059.842H275.4a1.343,1.343,0,0,0-1.384,1.3v4.74a1.343,1.343,0,0,0,1.384,1.3h14.029a1.346,1.346,0,0,0,1.384-1.3v-4.74a1.345,1.345,0,0,0-1.384-1.3Z"/>
      </g>
      <path id="패스_2222" data-name="패스 2222" d="M292.492,18.76v3.177a1.8,1.8,0,0,0,.812-.634,1.64,1.64,0,0,0,0-1.9,1.8,1.8,0,0,0-.812-.64Z" opacity="0.4"/>
      <path id="패스_2223" data-name="패스 2223" d="M288.85,17.436H275.962a1.089,1.089,0,0,0-1.121,1.059v3.7a1.089,1.089,0,0,0,1.121,1.059H288.85a1.089,1.089,0,0,0,1.121-1.059v-3.7a1.089,1.089,0,0,0-1.121-1.058Z"/>
      <path id="패스_2224" data-name="패스 2224" d="M262.512,24.541a.28.28,0,0,1-.1-.02.265.265,0,0,1-.085-.054l-1.681-1.6a.242.242,0,0,1-.059-.083.233.233,0,0,1,0-.2.249.249,0,0,1,.064-.082,3.009,3.009,0,0,1,3.714,0,.247.247,0,0,1,.062.082.221.221,0,0,1,.027.1.235.235,0,0,1-.02.1.268.268,0,0,1-.059.083l-1.681,1.6a.266.266,0,0,1-.182.068Zm2.949-2.8a.271.271,0,0,1-.18-.068,4.306,4.306,0,0,0-5.534,0,.275.275,0,0,1-.28.048.26.26,0,0,1-.085-.053l-.97-.924a.253.253,0,0,1-.059-.083.242.242,0,0,1,0-.2.254.254,0,0,1,.059-.083,6.286,6.286,0,0,1,8.2,0,.254.254,0,0,1,.062.083.242.242,0,0,1-.056.281l-.968.924a.268.268,0,0,1-.085.053A.274.274,0,0,1,265.461,21.737Zm2.232-2.127a.268.268,0,0,1-.1-.018.255.255,0,0,1-.082-.051,7.584,7.584,0,0,0-10.008,0,.256.256,0,0,1-.082.051.266.266,0,0,1-.1.018.274.274,0,0,1-.1-.018.262.262,0,0,1-.085-.053l-.967-.924a.251.251,0,0,1-.059-.083.239.239,0,0,1,0-.2.253.253,0,0,1,.059-.083,9.568,9.568,0,0,1,12.675,0,.256.256,0,0,1,.062.083.236.236,0,0,1,0,.2.252.252,0,0,1-.059.083l-.973.923a.26.26,0,0,1-.086.054.275.275,0,0,1-.1.015Z"/>
      <path id="패스_2225" data-name="패스 2225" d="M251.028,24.569h-.841a.867.867,0,0,1-.595-.231.769.769,0,0,1-.247-.56V16.91a.768.768,0,0,1,.247-.56.865.865,0,0,1,.595-.231h.841a.865.865,0,0,1,.595.231.769.769,0,0,1,.247.56v6.869a.768.768,0,0,1-.247.56A.867.867,0,0,1,251.028,24.569Zm-3.923,0h-.841a.867.867,0,0,1-.595-.231.769.769,0,0,1-.247-.56V18.76a.768.768,0,0,1,.247-.56.867.867,0,0,1,.595-.231h.841a.867.867,0,0,1,.595.231.769.769,0,0,1,.247.56v5.018a.768.768,0,0,1-.247.56.868.868,0,0,1-.595.231Zm-3.923,0h-.841a.867.867,0,0,1-.595-.231.769.769,0,0,1-.247-.56V20.6a.768.768,0,0,1,.247-.56.867.867,0,0,1,.595-.231h.841a.867.867,0,0,1,.595.231.769.769,0,0,1,.247.56v3.177a.768.768,0,0,1-.247.56.867.867,0,0,1-.593.231Zm-3.921,0h-.841a.867.867,0,0,1-.595-.231.769.769,0,0,1-.247-.56V22.193a.768.768,0,0,1,.247-.56.867.867,0,0,1,.595-.231h.841a.867.867,0,0,1,.595.231.769.769,0,0,1,.247.56v1.586a.768.768,0,0,1-.247.56.867.867,0,0,1-.595.231Z"/>
      <path id="패스_2226" data-name="패스 2226" d="M20.51,20.727a1.4,1.4,0,0,0,.708,1.268,1.567,1.567,0,0,0,.756.185,1.719,1.719,0,0,0,1.362-.658,5.466,5.466,0,0,0,.794-2.69,2.068,2.068,0,0,1-.917.825,2.918,2.918,0,0,1-1.169.234,2.635,2.635,0,0,1-2.02-.794,2.874,2.874,0,0,1-.738-2.044,3.272,3.272,0,0,1,.732-2.118,2.608,2.608,0,0,1,2.16-.908,2.657,2.657,0,0,1,2.66,1.735,6.118,6.118,0,0,1,.405,2.393,7.867,7.867,0,0,1-.486,2.874,2.814,2.814,0,0,1-2.734,2.08,2.648,2.648,0,0,1-1.967-.678,2.316,2.316,0,0,1-.67-1.7Zm1.681-1.815a1.882,1.882,0,0,0,1.2-.431,1.843,1.843,0,0,0,.548-1.52,1.923,1.923,0,0,0-.493-1.446,1.7,1.7,0,0,0-1.244-.48,1.632,1.632,0,0,0-1.292.548,2.129,2.129,0,0,0-.474,1.452,2.1,2.1,0,0,0,.419,1.372,1.638,1.638,0,0,0,1.336.516Zm5.061-2.572h1.286V17.7H27.252Zm0,5.165h1.286v1.342H27.252Zm6.278-1.779v-3.98l-2.819,4Zm.018,3.121V20.707H29.683V19.624l4.038-5.6h.936v5.719h1.3v.967h-1.3v2.154ZM37.586,16.6v-.85a4.57,4.57,0,0,0,1.675-.387,1.941,1.941,0,0,0,.708-1.3h.879v8.775H39.666V16.619Z"/>
      <rect id="사각형_2090" data-name="사각형 2090" width="302.578" height="47.068" fill="#fff"/>
      <path id="패스_2227" data-name="패스 2227" d="M27.317,30.886a.628.628,0,0,1-.418-.159L18.8,23.533,26.9,16.339a.63.63,0,1,1,.837.942L20.7,23.533l7.035,6.252a.63.63,0,0,1-.419,1.1Z"/>
      <rect id="사각형_2091" data-name="사각형 2091" width="6.301" height="1.26" rx="0.63" transform="translate(252.44 26.527) rotate(45)"/>
      <path id="사각형_2092" data-name="사각형 2092" d="M6.514-.63A7.144,7.144,0,1,1-.63,6.514,7.152,7.152,0,0,1,6.514-.63Zm0,13.028A5.884,5.884,0,1,0,.63,6.514,5.89,5.89,0,0,0,6.514,12.4Z" transform="translate(240.846 16.121)"/>
      <path id="패스_2228" data-name="패스 2228" d="M270.85,17.651a.631.631,0,0,1,.631-.631H286.61a.631.631,0,0,1,0,1.26H271.481a.631.631,0,0,1-.631-.629Zm0,5.884a.631.631,0,0,1,.631-.631H286.61a.631.631,0,0,1,0,1.26H271.481a.631.631,0,0,1-.631-.629Zm.631,5.253a.631.631,0,1,0,0,1.26H286.61a.631.631,0,0,0,0-1.26Z" fill-rule="evenodd"/>
      <path id="패스_2229" data-name="패스 2229" d="M150.861,26.929H145.54V24.336h3.934V17.422h-1.641v2.186h-6.191V17.422H140v6.914h3.915v2.593h-5.259v1.345h12.2ZM141.641,23V20.923h6.191v2.083Zm21.276-6.471h-1.643v3.959h-1.906v1.362h1.906v2.763h1.64ZM151.763,19.1h7.831V17.776h-3.1V16.432h-1.625v1.345h-3.1Zm.756,2.911c-.008,1.44,1.315,2.393,3.162,2.393s3.168-.953,3.177-2.393c-.008-1.4-1.315-2.393-3.177-2.393s-3.173,1-3.165,2.4Zm1.522,7.716h8.879v-4.5h-8.879Zm.044-7.716c0-.717.635-1.153,1.6-1.153s1.595.436,1.595,1.153-.643,1.166-1.595,1.166-1.6-.419-1.6-1.157Zm1.6,6.383V26.515h5.629v1.876Z"/>
      <g id="그룹_1679" data-name="그룹 1679" clip-path="url(#clip-path-3)">
        <rect id="사각형_2093" data-name="사각형 2093" width="275.682" height="194.154" rx="13.448" transform="translate(13.869 231.976)" fill="#fff"/>
        <g id="그룹_1676" data-name="그룹 1676" clip-path="url(#clip-path-4)">
          <rect id="사각형_2094" data-name="사각형 2094" width="20.171" height="20.171" rx="3.362" transform="translate(255.931 245.424)" fill="#3f3361"/>
          <path id="패스_2230" data-name="패스 2230" d="M265.675,259.841l-4.305-4.305a.63.63,0,0,1,.891-.891l3.259,3.259,5.03-6.965a.63.63,0,1,1,1.022.738Z" fill="#fff"/>
        </g>
        <rect id="사각형_2096" data-name="사각형 2096" width="64.718" height="20.171" rx="3.362" transform="translate(27.317 245.424)" fill="#e94560"/>
        <path id="패스_2231" data-name="패스 2231" d="M42.651,250.427h-.908v7.481h.908V254.3h1.54v-.756h-1.54ZM34.677,256l.39.723c2.947-.918,4.826-2.874,4.826-5.5H35.1v.756h3.809c-.188,1.806-1.779,3.26-4.233,4.024Zm1.575,4.424h6.866v-.756H37.141v-2.516h-.9Zm16.571-10h-.9v7.4h.9v-3.6h1.551v-.756H52.821Zm-7.5,5.586h.793a23.5,23.5,0,0,0,4.8-.345l-.115-.747a21.141,21.141,0,0,1-4.586.333v-3.177h3.654v-.756H45.317Zm1.115,4.413h6.861v-.756H47.319v-2.586h-.885Zm17.029-10h-.9v2.483H60.5v.756h2.068v2.313h.9Zm-8.412,5.011.471.713a4.372,4.372,0,0,0,2.6-2.563A4.269,4.269,0,0,0,60.6,255.91l.471-.7a3.522,3.522,0,0,1-2.516-3.114v-.3h2.287v-.747H55.337v.747h2.3v.3a3.752,3.752,0,0,1-2.592,3.342Zm1.838,5.067h6.574v-4.033h-.9v1.275H57.792v-1.275h-.908Zm.908-.735v-1.3h4.769v1.3Zm12.5-8.387V250.8h-.93v.585c0,1.464-1.867,2.682-3.711,2.941l.368.735a5.275,5.275,0,0,0,3.816-2.4,5.319,5.319,0,0,0,3.816,2.4l.368-.735c-1.847-.26-3.72-1.5-3.726-2.943Zm-5.126,5.561h4.194v3.7h.885v-3.7h4.236v-.756H65.174Zm19.477-1.655H75.342v.747h9.307Zm-8.775-1.333.322.725a4.89,4.89,0,0,0,3.8-2.1,4.909,4.909,0,0,0,3.8,2.1l.333-.725c-1.815-.207-3.511-1.1-3.551-2.251h3.241v-.747H76.194v.747h3.218c-.041,1.163-1.758,2.042-3.54,2.25Zm.6,4.828c0,1.183,1.322,1.838,3.528,1.838s3.505-.655,3.516-1.838c-.012-1.172-1.327-1.85-3.516-1.85s-3.539.676-3.533,1.849Zm.92,0c-.012-.719.971-1.126,2.608-1.138,1.62.012,2.6.419,2.608,1.138S81.622,259.906,80,259.9s-2.625-.405-2.613-1.117Z" fill="#fff"/>
        <path id="패스_2232" data-name="패스 2232" d="M38.013,284.758H36.86V297.92h1.153v-6.991h2.2v-.976h-2.2Zm-9.589,9.869h1.035a33.12,33.12,0,0,0,6.279-.443l-.151-1a31.366,31.366,0,0,1-6.014.474V287h4.979v-.961H28.424Zm23.329-9.869H50.587V297.92h1.166Zm-10.342,5.6c0,2.8,1.4,4.572,3.354,4.566s3.362-1.766,3.354-4.566-1.4-4.572-3.354-4.579-3.347,1.788-3.354,4.581Zm1.123,0c0-2.135.915-3.539,2.232-3.546S47,288.221,47,290.356s-.908,3.539-2.232,3.531-2.232-1.395-2.232-3.53Zm22.619,3.25H56.3v.932h7.716v3.351h1.138Zm-10.578-6.9h3.575v1.832H54.6v3.782h.843a23.925,23.925,0,0,0,4.979-.384l-.133-.961a21.156,21.156,0,0,1-4.566.413v-1.971h3.531v-3.649h-4.69Zm5.2,2.393H61.44v3.754h1.107v-7.823H61.44v3.118H59.776Zm4.269,3.841h1.107v-8.17H64.045Zm13.666-1.079h-7.9v-2.118h7.475v-.93H69.808v-1.95h7.757v-.976h-8.94V292.8h9.086Zm-10.637,4.315H79.1v-.961H67.074Zm20.4-10.4c-1.943.008-3.3,1.788-3.3,4.579s1.353,4.572,3.3,4.566c1.832,0,3.147-1.6,3.272-4.182h2.932v7.18h1.153V284.756H93.681v5.023H90.734c-.177-2.458-1.474-3.994-3.257-4Zm-2.186,4.579c0-2.135.894-3.539,2.186-3.546s2.188,1.412,2.188,3.546-.908,3.539-2.188,3.531-2.179-1.393-2.186-3.528Zm22.56-5.586h-1.138v9.663h1.138Zm-10.164,1.878h4.841v1.935H97.716v3.99h1.059a36.459,36.459,0,0,0,6.427-.454l-.118-.961a33.183,33.183,0,0,1-6.25.443v-2.1h4.841v-3.8h-5.99Zm1.551,10.962h9v-.974H100.4v-2.955H99.237Zm21.689-12.86h-1.168v13.162h1.168Zm-10.342,5.6c0,2.8,1.4,4.572,3.354,4.566s3.362-1.766,3.354-4.566-1.4-4.572-3.354-4.579-3.347,1.8-3.356,4.59Zm1.123,0c0-2.135.917-3.539,2.232-3.546s2.23,1.412,2.23,3.546-.908,3.539-2.23,3.531-2.232-1.386-2.232-3.52ZM139,295.236h-5.481V292.4h4.008v-6.722h-1.138v2.378h-6.829v-2.378h-1.168V292.4h3.991v2.837h-5.41v.961h12.026Zm-9.44-3.782V289h6.826v2.452Zm21.379-6.707h-1.166v4h-2.233v.959h2.232v3h1.166Zm-10.873,2.334h7.667v-.946h-3.266v-1.513h-1.138v1.513h-3.265Zm.782,3.014c0,1.419,1.263,2.349,3.044,2.349s3.044-.93,3.059-2.349c-.015-1.374-1.271-2.334-3.059-2.334s-3.045.97-3.045,2.345Zm1.109,0c0-.843.79-1.433,1.935-1.433s1.935.592,1.935,1.433c0,.871-.79,1.448-1.935,1.463-1.147,0-1.936-.581-1.936-1.452Zm.4,7.608h8.584v-4.285h-8.584Zm1.153-.946V294.35h6.3v2.409Zm14.221-4.151a12.283,12.283,0,0,0,2.127,7.092h1.123a13.937,13.937,0,0,1,0-14.168h-1.123a12.232,12.232,0,0,0-2.121,7.086Zm10.076-6.337h-5.2v8.363h.843a23.835,23.835,0,0,0,4.964-.354l-.1-.961a24.519,24.519,0,0,1-4.595.325v-2.97h3.9v-.932h-3.9v-2.527h4.085Zm1.478,10.949H170.4V291h1.8v6.891h1.123V284.753H172.2v5.3h-1.8v-5.009h-1.123Zm9.38-11.45c-1.95.008-3.316,1.788-3.309,4.579s1.362,4.572,3.309,4.566,3.31-1.766,3.328-4.566c-.012-2.784-1.386-4.563-3.322-4.572Zm-2.215,4.579c0-2.135.908-3.539,2.215-3.546s2.2,1.412,2.2,3.546-.887,3.539-2.2,3.531-2.2-1.387-2.209-3.522Zm7.716,7.536h1.153V291h2.2v-1h-2.2v-5.245h-1.153Zm7.344-5.275a12.226,12.226,0,0,0-2.129-7.076h-1.123a13.937,13.937,0,0,1,0,14.168h1.123a12.277,12.277,0,0,0,2.13-7.083Z"/>
        <g id="그룹_1677" data-name="그룹 1677" clip-path="url(#clip-path-5)">
          <path id="패스_2233" data-name="패스 2233" d="M37.732,333.98H27.76v.8h9.971Zm-9.406-1.428.345.776a5.237,5.237,0,0,0,4.076-2.247,5.257,5.257,0,0,0,4.076,2.247l.357-.776c-1.94-.222-3.761-1.176-3.8-2.421h3.472v-.8h-8.17v.8h3.448C32.073,331.388,30.234,332.329,28.326,332.552Zm.64,5.171c0,1.268,1.416,1.967,3.782,1.967s3.755-.7,3.767-1.967c-.012-1.256-1.422-1.982-3.767-1.982s-3.788.726-3.782,1.98Zm.985,0c-.012-.769,1.041-1.21,2.794-1.219,1.735.012,2.788.454,2.794,1.219s-1.059,1.2-2.794,1.194-2.806-.431-2.79-1.2Zm12.557-6.008v-2h-.985v1.994a5.767,5.767,0,0,1-2.874,4.912l.628.776a6.164,6.164,0,0,0,2.758-3.7,5.9,5.9,0,0,0,2.758,3.5l.579-.788a5.384,5.384,0,0,1-2.859-4.7Zm1.664,1.589h2.6v6.439h.961v-10.97H46.77v3.743H44.176Zm14.454-4.519h-.973v3.077H55.069v-2.354h-.949v1.946H51.066v-1.946h-.961v5.5h4.964v-2.339h2.586v4.21h.973Zm-7.564,5.43V332.22h3.053v1.994Zm.48,5.269h7.325v-.812H52.512v-2.586H51.54ZM69.9,330.4H65.9v-1.44h-.949v1.44H60.941v.8H69.9Zm-9.456,8.039H70.461v-.8H65.9V336.1c1.933-.1,3.133-.862,3.127-2.092,0-1.3-1.392-2.068-3.595-2.056-2.235-.012-3.607.756-3.595,2.056-.012,1.23,1.163,1.988,3.115,2.092v1.539H60.448Zm2.365-4.431c-.012-.812.991-1.292,2.622-1.292s2.616.48,2.61,1.292-1,1.312-2.61,1.318S62.8,334.835,62.811,334Z"/>
        </g>
        <path id="패스_2234" data-name="패스 2234" d="M211.7,338.72h5.787v-.985h-4.248v-.074l2.047-2.1c1.576-1.625,2.038-2.4,2.044-3.4a2.572,2.572,0,0,0-2.77-2.475,2.619,2.619,0,0,0-2.819,2.635h1.047a1.764,1.764,0,0,1,3.508-.16c0,.826-.511,1.428-1.563,2.549l-3.042,3.2Zm10.545-8.909h-1.121l-2.216,1.477v1.121l2.166-1.44h.05v7.757h1.121Zm5.446,9.036a2.785,2.785,0,0,0,3.1-2.548,2.061,2.061,0,0,0-1.859-2.142v-.062a1.982,1.982,0,0,0,1.513-2.018,2.474,2.474,0,0,0-2.723-2.389,2.7,2.7,0,0,0-2.955,2.365h1.071a1.7,1.7,0,0,1,1.871-1.4,1.486,1.486,0,0,1,1.664,1.489c0,.917-.756,1.527-1.835,1.527h-.726v.973h.726c1.386,0,2.16.69,2.166,1.664,0,.929-.856,1.564-2.032,1.564-1.059,0-1.908-.53-1.967-1.38h-1.121c.077,1.41,1.345,2.357,3.117,2.357Zm4.481-1.946h4.322v1.815h1.059V336.9H238.8v-.973h-1.244V329.81h-1.362l-4.014,6.18Zm1.194-.973v-.074l3.017-4.642h.11v4.716Zm9.443-1.109-.074-1.908,1.625,1.023.419-.726-1.687-.887,1.687-.9-.419-.726-1.625,1.023.085-1.909h-.837l.074,1.908-1.625-1.023-.419.726,1.7.9-1.7.887.419.726,1.625-1.023-.074,1.908Zm5.935,0-.074-1.908,1.625,1.023.419-.726-1.687-.887,1.687-.9-.419-.726-1.625,1.023.074-1.908h-.837l.074,1.908-1.625-1.023-.419.726,1.7.9-1.7.887.419.726,1.625-1.023-.074,1.908Zm5.934,0-.074-1.908,1.625,1.023.419-.726-1.687-.887,1.687-.9-.419-.726L254.6,331.72l.074-1.908h-.837l.074,1.908L252.29,330.7l-.419.726,1.7.9-1.7.887.419.726,1.625-1.023-.074,1.908Zm5.935,0-.074-1.908,1.625,1.023.419-.726-1.687-.887,1.687-.9-.419-.726-1.625,1.023.074-1.908h-.837l.074,1.908-1.625-1.023-.419.726,1.7.9-1.7.887.419.726,1.625-1.023-.074,1.908Zm3.386,3.9h5.787v-.985h-4.248v-.074l2.044-2.106c1.576-1.625,2.038-2.4,2.044-3.4a2.572,2.572,0,0,0-2.77-2.475,2.619,2.619,0,0,0-2.82,2.635h1.047a1.764,1.764,0,0,1,3.508-.16c0,.826-.511,1.428-1.563,2.549l-3.041,3.2Zm10.566-8.912h-1.121l-2.216,1.477v1.121l2.166-1.44h.05v7.757h1.121Z"/>
        <g id="그룹_1678" data-name="그룹 1678" clip-path="url(#clip-path-6)">
          <path id="패스_2235" data-name="패스 2235" d="M37.781,365.248H33.214v-2.363H36.55v-5.6H35.6v1.982H29.913v-1.982h-.971v5.6H32.27v2.363H27.76v.8H37.781ZM29.914,362.1v-2.044H35.6V362.1Zm17.816-5.589h-.973v3.337H44.9v.8h1.859v2.5h.973Zm-9.062,1.946h6.39v-.788H42.335V356.41h-.949v1.256H38.663Zm.652,2.511c0,1.182,1.059,1.958,2.536,1.958s2.536-.776,2.549-1.958c-.012-1.145-1.059-1.946-2.549-1.946S39.32,359.82,39.32,360.965Zm.923,0c0-.7.658-1.194,1.613-1.194s1.613.493,1.613,1.194c0,.726-.658,1.21-1.613,1.219C40.9,362.171,40.243,361.691,40.243,360.965Zm.333,6.341h7.153v-3.57H40.576Zm.961-.788v-2.006h5.245v2.006Zm18.037-1.231H56.85v-2.08h1.714v-.8h-6.8v-1.773h6.537v-3.312H50.783v.8h6.575v1.711H50.807v3.374h1.564v2.08h-2.82v.812H59.573Zm-6.254,0v-2.08H55.9v2.08Z"/>
        </g>
        <path id="패스_2236" data-name="패스 2236" d="M228.456,366.574a2.785,2.785,0,0,0,3.1-2.548,2.062,2.062,0,0,0-1.859-2.142v-.062a1.983,1.983,0,0,0,1.513-2.018,2.474,2.474,0,0,0-2.723-2.389,2.7,2.7,0,0,0-2.955,2.365h1.071a1.7,1.7,0,0,1,1.871-1.4,1.486,1.486,0,0,1,1.664,1.489c0,.917-.756,1.526-1.834,1.526h-.726v.973h.726c1.386,0,2.16.69,2.166,1.664,0,.929-.856,1.564-2.032,1.564-1.059,0-1.909-.53-1.967-1.38h-1.121C225.409,365.631,226.683,366.574,228.456,366.574Zm7.62,0c1.976,0,3.115-1.664,3.115-4.58,0-2.893-1.157-4.579-3.115-4.579s-3.121,1.687-3.115,4.579C232.957,364.917,234.1,366.574,236.076,366.574Zm-2.044-4.58c0-2.309.756-3.613,2.044-3.619s2.038,1.312,2.032,3.619-.744,3.6-2.032,3.6-2.032-1.286-2.044-3.592Zm7.716,3.631h-1.194l-.678,3.348h.908Zm4.629.947a2.932,2.932,0,0,0,3.1-3,2.887,2.887,0,0,0-2.906-2.955,2.713,2.713,0,0,0-2.291,1.182h-.1c0-2.148.874-3.4,2.339-3.4a1.752,1.752,0,0,1,1.8,1.38h1.1a2.77,2.77,0,0,0-2.893-2.365c-2.092,0-3.386,1.767-3.386,4.924,0,3.307,1.7,4.225,3.248,4.238Zm-2.056-2.979a2.08,2.08,0,0,1,2.082-2.008,1.977,1.977,0,0,1,2.008,1.994,2.02,2.02,0,0,1-2.032,2.018,2.042,2.042,0,0,1-2.047-2Zm9.592,2.979a2.929,2.929,0,0,0,3.077-2.967,2.887,2.887,0,0,0-2.955-2.991,2.738,2.738,0,0,0-1.625.517h-.086l.331-2.611h3.9v-.985h-4.814l-.628,4.875h1.071a1.716,1.716,0,0,1,1.664-.8,1.988,1.988,0,0,1,2.068,2.02,1.932,1.932,0,0,1-1.994,1.967,1.716,1.716,0,0,1-1.815-1.39H251.04a2.66,2.66,0,0,0,2.878,2.368Zm7.534,0c1.976,0,3.115-1.664,3.115-4.579,0-2.893-1.157-4.579-3.115-4.579s-3.121,1.687-3.115,4.579c0,2.924,1.142,4.581,3.12,4.581Zm-2.044-4.579c0-2.309.756-3.613,2.044-3.619s2.038,1.312,2.032,3.619-.744,3.6-2.032,3.6-2.033-1.284-2.039-3.59Zm15.267-5.478H273.7v6.477h-2.269v.7H273.7v1.132h.973Zm-9.086,5.073.135.788c.918,0,1.967,0,3.077-.042v2.118h.973v-2.16c1-.062,2.032-.16,3-.315l-.062-.7a64.653,64.653,0,0,1-7.123.319Zm.887-2.723c0,1.169,1.089,1.9,2.71,1.9s2.7-.726,2.708-1.9-1.1-1.909-2.708-1.909-2.711.766-2.705,1.917Zm.69,8.347h7.781V366.4h-6.808v-2.387h-.973Zm.234-8.347c-.012-.7.714-1.183,1.785-1.169,1.039-.012,1.779.467,1.785,1.169s-.746,1.176-1.785,1.182c-1.068,0-1.794-.46-1.781-1.174Z"/>
        <path id="패스_2237" data-name="패스 2237" d="M13.869,385.787H289.551v26.9A13.448,13.448,0,0,1,276.1,426.132H27.317a13.448,13.448,0,0,1-13.448-13.448Z" fill="#f8f8f8"/>
        <path id="패스_2238" data-name="패스 2238" d="M151.708,410.795l-7.038-7.918a.421.421,0,1,1,.629-.559l6.409,7.211,6.409-7.211a.421.421,0,1,1,.629.559Z"/>
      </g>
      <path id="사각형_2100" data-name="사각형 2100" d="M13.027-.421H261.815a13.448,13.448,0,0,1,13.448,13.448V180.287a13.448,13.448,0,0,1-13.448,13.448H13.027A13.448,13.448,0,0,1-.421,180.287V13.028A13.448,13.448,0,0,1,13.027-.421ZM261.815,192.894a12.621,12.621,0,0,0,12.607-12.607V13.028A12.621,12.621,0,0,0,261.815.421H13.027A12.621,12.621,0,0,0,.421,13.028V180.287a12.621,12.621,0,0,0,12.607,12.607Z" transform="translate(14.288 232.397)" fill="#ddd"/>
      <g id="그룹_1682" data-name="그룹 1682" clip-path="url(#clip-path-7)">
        <rect id="사각형_2101" data-name="사각형 2101" width="275.682" height="194.154" rx="13.448" transform="translate(13.869 439.58)" fill="#fff"/>
        <g id="그룹_1680" data-name="그룹 1680" clip-path="url(#clip-path-8)">
          <rect id="사각형_2102" data-name="사각형 2102" width="20.171" height="20.171" rx="3.362" transform="translate(255.931 453.026)" fill="#3f3361"/>
          <path id="패스_2239" data-name="패스 2239" d="M265.675,467.443l-4.305-4.305a.63.63,0,0,1,.891-.891l3.259,3.259,5.03-6.965a.63.63,0,1,1,1.022.738Z" fill="#fff"/>
        </g>
        <rect id="사각형_2104" data-name="사각형 2104" width="64.718" height="20.171" rx="3.362" transform="translate(27.317 453.026)" fill="#e94560"/>
        <path id="패스_2240" data-name="패스 2240" d="M42.651,458.031h-.908v7.486h.908v-3.608h1.54v-.756h-1.54ZM34.677,463.6l.39.723c2.947-.918,4.826-2.874,4.826-5.5H35.1v.756h3.809c-.188,1.8-1.779,3.26-4.233,4.024Zm1.575,4.424h6.866v-.756H37.141V464.76h-.9Zm16.571-10h-.9v7.4h.9v-3.6h1.551v-.756H52.821Zm-7.5,5.586h.793a23.5,23.5,0,0,0,4.8-.345l-.115-.747a21.137,21.137,0,0,1-4.586.333V459.68h3.654v-.756H45.317Zm1.115,4.413h6.861v-.756H47.319v-2.586h-.885Zm17.029-10h-.9v2.483H60.5v.756h2.068v2.31h.9Zm-8.412,5.011.471.713a4.372,4.372,0,0,0,2.6-2.563,4.269,4.269,0,0,0,2.483,2.321l.471-.7a3.522,3.522,0,0,1-2.516-3.114v-.3h2.287v-.747H55.337v.747h2.3v.3a3.752,3.752,0,0,1-2.592,3.34Zm1.838,5.067h6.574v-4.033h-.9v1.275H57.792v-1.275h-.908Zm.908-.735v-1.3h4.769v1.3Zm12.5-8.387V458.4h-.93v.585c0,1.464-1.867,2.682-3.711,2.941l.368.735a5.275,5.275,0,0,0,3.816-2.4,5.319,5.319,0,0,0,3.815,2.4l.368-.735c-1.847-.26-3.72-1.5-3.726-2.944Zm-5.126,5.561h4.194v3.691h.885v-3.7h4.236v-.756H65.174Zm19.477-1.655H75.342v.747h9.307Zm-8.775-1.333.322.725a4.89,4.89,0,0,0,3.8-2.1,4.909,4.909,0,0,0,3.8,2.1l.333-.725c-1.815-.207-3.511-1.1-3.551-2.251h3.241v-.752H76.194v.747h3.218c-.041,1.168-1.758,2.047-3.54,2.253Zm.6,4.828c0,1.183,1.322,1.838,3.528,1.838s3.505-.655,3.516-1.838c-.012-1.172-1.327-1.85-3.516-1.85s-3.539.676-3.533,1.847Zm.92,0c-.012-.719.971-1.126,2.608-1.138,1.62.012,2.6.419,2.608,1.138S81.622,467.509,80,467.5s-2.625-.407-2.613-1.118Z" fill="#fff"/>
        <path id="패스_2241" data-name="패스 2241" d="M38.013,492.36H36.86v13.162h1.153v-6.988h2.2v-.976h-2.2Zm-9.589,9.869h1.035a33.123,33.123,0,0,0,6.278-.443l-.151-1a31.369,31.369,0,0,1-6.014.474v-6.648h4.979v-.961H28.424Zm23.329-9.869H50.587v13.162h1.166Zm-10.342,5.6c0,2.8,1.4,4.572,3.354,4.566s3.362-1.766,3.354-4.566-1.4-4.572-3.354-4.58-3.347,1.791-3.354,4.581Zm1.123,0c0-2.135.915-3.539,2.232-3.546S47,495.823,47,497.958s-.908,3.539-2.232,3.531-2.232-1.395-2.232-3.53Zm22.619,3.25H56.3v.932h7.716v3.354h1.138Zm-10.578-6.9h3.575v1.832H54.6v3.782h.843a23.928,23.928,0,0,0,4.979-.384l-.133-.961a21.156,21.156,0,0,1-4.566.413V497.01h3.531v-3.649h-4.69Zm5.2,2.393H61.44v3.753h1.107v-7.831H61.44v3.118H59.776Zm4.269,3.841h1.107v-8.17H64.045Zm13.666-1.079h-7.9v-2.118h7.475v-.93H69.808v-1.95h7.757v-.976h-8.94V500.4h9.086Zm-10.637,4.315H79.1v-.961H67.074Zm21.32-7.387v-1.714h2.955v-.961H84.2v.961h3.058v1.714a6.908,6.908,0,0,1-3.531,5.658l.71.917a7.536,7.536,0,0,0,3.39-4.387,7,7,0,0,0,3.318,4.056l.664-.917a6.328,6.328,0,0,1-3.412-5.324Zm4.566,9.1h1.153v-6.826h2.2v-.989h-2.2v-5.319H92.958ZM109,498.858h-5.43v-1.537H107.6v-.941H99.681v-2.468h7.831v-.932H98.544v4.344h3.9v1.537H97.022v.932H109Zm-10.534,4.256c0,1.513,1.7,2.363,4.539,2.378,2.814-.015,4.505-.864,4.521-2.378-.015-1.5-1.707-2.357-4.521-2.365s-4.539.867-4.531,2.366Zm1.182,0c-.014-.908,1.25-1.448,3.354-1.448,2.083,0,3.347.54,3.354,1.448s-1.271,1.455-3.354,1.448c-2.1.009-3.362-.523-3.347-1.446Zm14.819-6.471v-1.05h2.985v-.946H114.5v-2.038h-1.168v2.038h-3v.946h3.014v1.05a6.2,6.2,0,0,1-3.368,5.407l.664.908a6.746,6.746,0,0,0,3.288-4.085,6.457,6.457,0,0,0,3.139,3.841l.679-.908a6,6,0,0,1-3.278-5.162Zm4.64,8.849h1.153V498.74h2.2v-.989h-2.2v-5.392h-1.153Zm16.088-2.645h-5.474v-2.837h4v-6.722h-1.138v2.378h-6.826v-2.378H124.59v6.722h3.989v2.837h-5.407v.961H135.2Zm-9.44-3.782v-2.452h6.826v2.452Zm21.379-6.707h-1.168v4h-2.222v.959h2.23v3h1.168Zm-10.875,2.334h7.667v-.946h-3.257v-1.513h-1.138v1.513h-3.265Zm.784,3.014c0,1.419,1.263,2.35,3.044,2.35s3.044-.93,3.058-2.35c-.014-1.374-1.269-2.334-3.058-2.334s-3.036.961-3.036,2.336Zm1.107,0c0-.843.791-1.433,1.935-1.433s1.935.592,1.935,1.433c0,.871-.791,1.448-1.935,1.463-1.136-.014-1.927-.59-1.927-1.461Zm.4,7.608h8.584V501.03h-8.577Zm1.153-.946v-2.409h6.3v2.409Zm14.221-4.151a12.277,12.277,0,0,0,2.127,7.092h1.123a13.931,13.931,0,0,1,0-14.168h-1.123a12.226,12.226,0,0,0-2.114,7.077Zm15.188-7.846h-1.153v9.605h1.153Zm-10.534,4.136a3.449,3.449,0,1,0,3.442-3.221,3.219,3.219,0,0,0-3.428,3.224Zm1.138,0a2.307,2.307,0,1,1,2.3,2.216,2.171,2.171,0,0,1-2.291-2.213Zm.917,8.7h8.894v-.974H161.78V501h-1.153Zm21.6-12.86h-1.133v4.964h-2.784v.961h2.784v7.239h1.153Zm-10.288,9.985h1a34.889,34.889,0,0,0,6.052-.4l-.133-.961a30.877,30.877,0,0,1-5.761.4V498.2h4.387v-.946H173.1v-2.734h4.964v-.961h-6.132Zm14.332-8.791h-1.153v6.071h.828a21.808,21.808,0,0,0,4.741-.454l-.118-.959a21.13,21.13,0,0,1-4.3.428Zm-.163,10.978.443.908a6.486,6.486,0,0,0,4.639-2.785,6.471,6.471,0,0,0,4.64,2.785l.443-.908c-2.291-.339-4.505-1.743-4.505-3.472v-.487h-1.153v.487c.018,1.74-2.2,3.144-4.489,3.483Zm2.911-8.213h2.837v3.767h1.109v-7.446h-1.109v2.734h-2.819Zm5.466,4.949h1.107v-8.894h-1.107Zm16.961-8.908h-1.153v13.135h1.153v-6.808h2.127V497.7h-2.127Zm-10.077,9.722.651.917a9.887,9.887,0,0,0,6.027-9.22h-6.073v.976h4.9a8.946,8.946,0,0,1-5.483,7.336Zm23.831-9.722h-1.139v7.056h1.153Zm-10.534,3.664A3.48,3.48,0,1,0,218.106,493a3.109,3.109,0,0,0-3.427,3.023Zm1.138,0a2.321,2.321,0,1,1,2.3,2.05,2.322,2.322,0,0,1-2.3-2.05Zm.887,9.294h8.51v-5.245h-1.139v1.613h-6.2V500.08H216.7Zm1.153-.946v-1.773h6.2v1.773Zm12.869-4.151a12.227,12.227,0,0,0-2.129-7.076h-1.123a13.931,13.931,0,0,1,0,14.168h1.123a12.277,12.277,0,0,0,2.148-7.083Z"/>
        <g id="그룹_1681" data-name="그룹 1681" clip-path="url(#clip-path-9)">
          <path id="패스_2242" data-name="패스 2242" d="M37.732,541.582H27.76v.8h9.971Zm-9.406-1.428.345.776a5.237,5.237,0,0,0,4.076-2.247,5.257,5.257,0,0,0,4.076,2.247l.357-.776c-1.94-.222-3.761-1.176-3.8-2.421h3.472v-.8h-8.17v.8h3.448C32.073,538.99,30.234,539.931,28.326,540.154Zm.64,5.171c0,1.268,1.416,1.967,3.782,1.967s3.755-.7,3.767-1.967c-.012-1.256-1.422-1.982-3.767-1.982S28.96,544.069,28.966,545.325Zm.985,0c-.012-.769,1.041-1.21,2.794-1.219,1.735.012,2.788.454,2.794,1.219s-1.059,1.2-2.794,1.194-2.806-.43-2.79-1.194Zm12.557-6.008v-1.994h-.985v1.994a5.767,5.767,0,0,1-2.874,4.912l.628.776a6.164,6.164,0,0,0,2.758-3.7,5.9,5.9,0,0,0,2.747,3.5l.579-.788a5.384,5.384,0,0,1-2.849-4.7Zm1.664,1.589h2.6v6.439h.961v-10.97H46.77v3.743H44.176Zm14.454-4.519h-.973v3.077H55.069v-2.351h-.949v1.946H51.066v-1.946h-.961v5.5h4.964v-2.339h2.586v4.212h.973Zm-7.564,5.43v-1.994h3.053v1.994Zm.48,5.269h7.325v-.812H52.512v-2.586H51.54ZM69.9,538H65.9v-1.44h-.949V538H60.941v.8H69.9Zm-9.456,8.039H70.461v-.793H65.9v-1.539c1.933-.1,3.133-.862,3.127-2.092,0-1.3-1.392-2.068-3.595-2.056-2.235-.012-3.607.756-3.595,2.056-.012,1.23,1.163,1.988,3.115,2.092v1.539H60.448Zm2.365-4.431c-.012-.812.991-1.292,2.622-1.292s2.616.48,2.61,1.292-1,1.312-2.61,1.318-2.628-.489-2.616-1.319Z"/>
        </g>
        <path id="패스_2243" data-name="패스 2243" d="M211.7,546.322h5.787v-.985h-4.248v-.074l2.044-2.106c1.576-1.625,2.038-2.4,2.044-3.4a2.572,2.572,0,0,0-2.77-2.475,2.619,2.619,0,0,0-2.819,2.635h1.047a1.764,1.764,0,0,1,3.508-.16c0,.826-.511,1.428-1.563,2.549l-3.042,3.2Zm10.551-8.914h-1.121l-2.216,1.477v1.121l2.166-1.44h.05v7.757h1.121Zm5.446,9.036a2.785,2.785,0,0,0,3.1-2.548,2.061,2.061,0,0,0-1.859-2.142v-.062a1.982,1.982,0,0,0,1.513-2.018,2.474,2.474,0,0,0-2.723-2.389,2.7,2.7,0,0,0-2.955,2.365h1.071a1.7,1.7,0,0,1,1.871-1.4,1.486,1.486,0,0,1,1.664,1.489c0,.917-.756,1.526-1.835,1.526h-.726v.973h.726c1.386,0,2.16.69,2.166,1.664,0,.929-.856,1.564-2.032,1.564-1.059,0-1.908-.529-1.967-1.38h-1.121c.071,1.415,1.339,2.362,3.111,2.362Zm4.481-1.946H236.5v1.815h1.059V544.5H238.8v-.973h-1.244v-6.118H236.2l-4.014,6.18Zm1.194-.973v-.074l3.017-4.642h.11v4.716Zm9.443-1.109-.074-1.908,1.625,1.023.419-.726-1.687-.887,1.687-.9-.419-.726-1.625,1.023.074-1.908h-.837l.074,1.908-1.625-1.023-.419.726,1.7.9-1.7.887.419.726,1.635-1.021-.074,1.908Zm5.935,0-.074-1.908,1.625,1.023.419-.726-1.687-.887,1.687-.9-.419-.726-1.625,1.023.074-1.908h-.837l.074,1.908-1.625-1.023-.419.726,1.7.9-1.7.887.419.726,1.625-1.023-.074,1.908Zm5.934,0-.074-1.908,1.625,1.023.419-.726-1.687-.887,1.687-.9-.419-.726-1.625,1.023.074-1.908h-.837l.074,1.908-1.625-1.023-.419.726,1.7.9-1.7.887.419.726,1.625-1.023-.074,1.908Zm5.935,0-.074-1.908,1.625,1.023.419-.726-1.687-.887,1.687-.9-.419-.726-1.625,1.023.074-1.908h-.837l.074,1.908-1.625-1.023-.419.726,1.7.9-1.7.887.419.726,1.625-1.023-.074,1.908Zm3.386,3.9h5.787v-.985h-4.248v-.074l2.044-2.106c1.576-1.625,2.038-2.4,2.044-3.4a2.572,2.572,0,0,0-2.77-2.475,2.619,2.619,0,0,0-2.82,2.635h1.047a1.764,1.764,0,0,1,3.508-.16c0,.826-.511,1.428-1.563,2.549l-3.041,3.2Zm10.551-8.914h-1.121l-2.216,1.477V540l2.166-1.44h.05v7.757h1.121Z"/>
      </g>
      <path id="사각형_2107" data-name="사각형 2107" d="M13.027-.421H261.815a13.448,13.448,0,0,1,13.448,13.448V180.287a13.448,13.448,0,0,1-13.448,13.448H13.027A13.448,13.448,0,0,1-.421,180.287V13.028A13.448,13.448,0,0,1,13.027-.421ZM261.815,192.894a12.621,12.621,0,0,0,12.607-12.607V13.028A12.621,12.621,0,0,0,261.815.421H13.027A12.621,12.621,0,0,0,.421,13.028V180.287a12.621,12.621,0,0,0,12.607,12.607Z" transform="translate(14.288 439.999)" fill="#ddd"/>
      <rect id="사각형_2108" data-name="사각형 2108" width="275.682" height="117.67" rx="6.723" transform="translate(13.448 60.516)" fill="#f2f0f5"/>
      <rect id="사각형_2109" data-name="사각형 2109" width="100.019" height="13.448" rx="1.681" transform="translate(13.448 205.081)" fill="#f2f0f5"/>
      <rect id="사각형_2110" data-name="사각형 2110" width="13.448" height="13.448" rx="1.681" transform="translate(275.682 205.081)" fill="#f2f0f5"/>
      <rect id="사각형_2111" data-name="사각형 2111" width="13.448" height="13.448" rx="1.681" transform="translate(253.83 205.081)" fill="#f2f0f5"/>
      <rect id="사각형_2112" data-name="사각형 2112" width="13.448" height="13.448" rx="1.681" transform="translate(231.976 205.081)" fill="#f2f0f5"/>
      <rect id="사각형_2113" data-name="사각형 2113" width="53.792" height="26.896" rx="13.448" transform="translate(221.891 137.841)" opacity="0.5"/>
      <path id="패스_2244" data-name="패스 2244" d="M236.265,156.454a3.042,3.042,0,0,0,3.288-3.077,2.779,2.779,0,0,0-2.832-2.893,2.586,2.586,0,0,0-2.291,1.219h-.083c0-1.877.728-3.026,2.02-3.017a1.439,1.439,0,0,1,1.513,1.133h1.589a2.952,2.952,0,0,0-3.1-2.523c-2.185,0-3.57,1.779-3.57,4.826C232.787,155.409,234.524,156.444,236.265,156.454Zm-1.749-3.026a1.756,1.756,0,0,1,1.773-1.723A1.684,1.684,0,0,1,238,153.416a1.72,1.72,0,0,1-1.735,1.749,1.744,1.744,0,0,1-1.749-1.738Z" fill="#fff"/>
      <path id="패스_2245" data-name="패스 2245" d="M248.39,147h-1.362l-2.874,10.675h1.38Z" fill="#fff" opacity="0.6"/>
      <path id="패스_2246" data-name="패스 2246" d="M256.738,147.419H255.2l-2.2,1.428v1.464l2.082-1.33h.048v7.35h1.613Zm5.446,9.036c2.142,0,3.424-1.655,3.424-4.58s-1.287-4.58-3.424-4.58-3.428,1.675-3.422,4.58,1.275,4.578,3.422,4.578Zm-1.815-4.58c0-2.118.7-3.244,1.815-3.25s1.8,1.126,1.815,3.25-.7,3.232-1.815,3.239-1.808-1.1-1.808-3.241Z" fill="#fff" opacity="0.6"/>
      <path id="패스_2247" data-name="패스 2247" d="M0,478.452H302.578V548a6.725,6.725,0,0,1-6.722,6.723H6.723A6.724,6.724,0,0,1,0,548Z" fill="#fff"/>
      <path id="패스_2248" data-name="패스 2248" d="M26.058,520.631H21.347v6.584h4.711Zm-3.837,5.855V521.36h2.941v5.126Zm5.711,3.328h.9V524.46h1.713v-.781H28.828v-4.085h-.9ZM39.515,519.6h-.908v10.239h.908Zm-8.047,4.353c0,2.177,1.086,3.557,2.608,3.551s2.614-1.372,2.608-3.551-1.092-3.557-2.608-3.563S31.477,521.78,31.468,523.952Zm.873,0c0-1.664.713-2.752,1.735-2.758s1.735,1.1,1.735,2.758-.707,2.752-1.735,2.746-1.732-1.086-1.732-2.746Z" fill="#3f3361"/>
      <g id="그룹_1683" data-name="그룹 1683" opacity="0.2">
        <rect id="사각형_2114" data-name="사각형 2114" width="20.171" height="20.171" transform="translate(20.171 491.9)" fill="#3f3361"/>
      </g>
      <path id="패스_2249" data-name="패스 2249" d="M89.563,520.149H82.622v.747h6.052v.012a12.142,12.142,0,0,1-.281,3H81.437v.747H90.79v-.747h-1.5a13.2,13.2,0,0,0,.271-3Zm-6.976,9.531h7.021v-3.608H82.587Zm.9-.735v-2.16h5.229v2.16Zm17.427-4.557h-9.3v.735h2.356v1.39c-.8.3-1.236.8-1.23,1.471,0,1.166,1.31,1.815,3.528,1.826,2.189-.011,3.505-.661,3.516-1.826a1.592,1.592,0,0,0-1.183-1.448v-1.411h2.316Zm-8.272-2.666c0,1.2,1.378,1.89,3.619,1.9s3.6-.7,3.608-1.9S98.48,519.8,96.256,519.8s-3.614.707-3.614,1.918Zm.93,0c0-.756,1.035-1.194,2.688-1.194s2.684.436,2.69,1.194-1.051,1.185-2.69,1.185-2.69-.437-2.684-1.185Zm.08,6.263c-.012-.7.971-1.1,2.608-1.115,1.62.012,2.6.419,2.608,1.115s-.988,1.109-2.608,1.1-2.608-.4-2.608-1.1Zm1.21-1.7v-1.16h2.815v1.166a8.829,8.829,0,0,0-1.425-.109,8.527,8.527,0,0,0-1.378.1Z" fill="#aaa"/>
      <g id="그룹_1684" data-name="그룹 1684" opacity="0.2">
        <rect id="사각형_2115" data-name="사각형 2115" width="20.171" height="20.171" transform="translate(80.687 491.9)" fill="#3f3361"/>
      </g>
      <path id="패스_2250" data-name="패스 2250" d="M145.366,521.252v-1.12h-.885v1.059a3.794,3.794,0,0,1-2.561,3.516l.483.725a4.366,4.366,0,0,0,2.545-2.614,4.236,4.236,0,0,0,2.465,2.327l.495-.713a3.533,3.533,0,0,1-2.54-3.18Zm-2.1,6.676c0,1.189,1.287,1.862,3.39,1.862s3.368-.672,3.368-1.862c0-1.166-1.269-1.85-3.368-1.85S143.281,526.762,143.271,527.928Zm.908,0c-.012-.694.943-1.126,2.483-1.126s2.487.431,2.493,1.126c0,.725-.949,1.144-2.493,1.148s-2.483-.424-2.483-1.148Zm4.861-2.118h.9v-2.793h1.54v-.756H149.94v-2.666h-.9Zm12.388-1.275H152.12v.747h4.206v1.21h-3.07v3.177h7.032v-3.183h-3.08v-1.21h4.218Zm-8.434-3.861h1.575v2.15h-1.54v.747h7.49v-.747h-1.54v-2.147h1.575v-.746H153Zm1.16,8.262V527.2H159.4v1.735Zm1.31-6.114v-2.145h2.608v2.15Z" fill="#aaa"/>
      <g id="그룹_1685" data-name="그룹 1685" opacity="0.2">
        <rect id="사각형_2116" data-name="사각형 2116" width="20.171" height="20.171" transform="translate(141.203 491.9)" fill="#3f3361"/>
      </g>
      <path id="패스_2251" data-name="패스 2251" d="M211.823,527.755H207.56V525.55h3.114v-5.229h-.884v1.85h-5.309v-1.85h-.908v5.229h3.1v2.206h-4.2v.747h9.353Zm-7.342-2.941v-1.908h5.309v1.908Zm16.628-5.216H220.2V522.7h-1.74v.756H220.2v2.333h.908Zm-8.457,1.815h5.961v-.735h-2.54v-1.171h-.885v1.171h-2.539Zm.605,2.344c0,1.1.982,1.828,2.368,1.828s2.366-.723,2.378-1.828c-.012-1.068-.988-1.815-2.378-1.815s-2.366.746-2.366,1.822Zm.862,0c0-.655.614-1.115,1.513-1.115s1.505.454,1.505,1.115c0,.678-.616,1.126-1.505,1.138-.9-.012-1.511-.46-1.511-1.132Zm.31,5.918h6.676v-3.328H214.43Zm.9-.735v-1.873h4.9v1.873Z" fill="#aaa"/>
      <g id="그룹_1686" data-name="그룹 1686" opacity="0.2">
        <rect id="사각형_2117" data-name="사각형 2117" width="20.171" height="20.171" transform="translate(201.718 491.9)" fill="#3f3361"/>
      </g>
      <path id="패스_2252" data-name="패스 2252" d="M271.454,519.609h-.908v2.826h-2.1v.747h2.1V527.1h.908Zm-8.424,5.446.472.735a4.4,4.4,0,0,0,2.6-2.572,4.251,4.251,0,0,0,2.483,2.333l.471-.723a3.5,3.5,0,0,1-2.516-3.114v-.528h2.287v-.752h-5.5v.747h2.31v.528a3.716,3.716,0,0,1-2.6,3.345Zm1.862,4.539h6.849v-.756H265.8v-2.421h-.908Zm11.25-6.849v-.505h1.918v-.746h-1.908v-1.513h-.862v1.513h-1.941v.747h1.941v.505a5.049,5.049,0,0,1-2.218,4.286l.54.69a5.112,5.112,0,0,0,2.118-3.074,4.744,4.744,0,0,0,2.126,2.844l.517-.678a4.661,4.661,0,0,1-2.232-4.07Zm1.21,1.655h1.608v4.884h.85v-9.434h-.85v3.782h-1.608Zm3.666,5.412h.862V519.6h-.862Z" fill="#aaa"/>
      <g id="그룹_1687" data-name="그룹 1687" opacity="0.2">
        <rect id="사각형_2118" data-name="사각형 2118" width="20.171" height="20.171" transform="translate(262.234 491.9)" fill="#3f3361"/>
      </g>
      <path id="패스_2253" data-name="패스 2253" d="M0,477.611H302.578v1.681H0Zm302.578,77.115ZM0,554.726Zm302.578-76.274Z" fill="#ddd"/>
    </g>
  </g>
</svg>
