<svg width="141" height="140" viewBox="0 0 141 140" fill="none" xmlns="http://www.w3.org/2000/svg">
<rect x="0.875" width="140" height="140" rx="70" fill="#0F8A2E"/>
<path fill-rule="evenodd" clip-rule="evenodd" d="M53.0273 28.1833L70.1089 36.4618L87.2218 28.1833L70.1089 59.5191L53.0273 28.1833ZM92.9318 52.211L93.2016 52.4287H93.2078C98.6009 56.9589 102.431 62.9682 104.185 69.6531C105.94 76.338 105.536 83.3799 103.026 89.8374C100.517 96.2948 96.0228 101.86 90.1441 105.789C84.2654 109.717 77.2825 111.823 70.1292 111.823C62.9759 111.823 55.993 109.717 50.1143 105.789C44.2356 101.86 39.7412 96.2948 37.232 89.8374C34.7228 83.3799 34.3185 76.338 36.0731 69.6531C37.8276 62.9682 41.6575 56.9589 47.0505 52.4287L47.3015 52.1808L35.1191 47.2404V30.7078L56.3033 39.4155L68.0277 60.8583C63.5115 61.3712 59.3693 63.5283 56.4486 66.8882C53.5279 70.2482 52.0496 74.557 52.316 78.933C52.5825 83.3091 54.5737 87.4216 57.8821 90.4291C61.1905 93.4366 65.566 95.1117 70.1135 95.1117C74.661 95.1117 79.0365 93.4366 82.3449 90.4291C85.6533 87.4216 87.6445 83.3091 87.911 78.933C88.1774 74.557 86.6991 70.2482 83.7784 66.8882C80.8577 63.5283 76.7155 61.3712 72.1993 60.8583C72.4565 60.3806 83.9488 39.4155 83.9488 39.4155L105.139 30.7078V47.2706L92.9318 52.211Z" fill="white"/>
</svg>
