<svg width="190" height="190" viewBox="0 0 190 190" fill="none" xmlns="http://www.w3.org/2000/svg">
<circle cx="95" cy="95" r="95" fill="#FFE400"/>
<path d="M132.319 111.748C131.517 105.555 128.421 99.8891 123.642 95.8698C122.934 95.247 122.166 94.6631 121.317 93.9731C122.025 93.4458 122.609 93.0388 123.157 92.5823C126.606 89.7352 129.272 86.0559 130.903 81.8919C132.443 77.9566 132.931 73.6878 132.319 69.5065C131.644 64.4204 129.397 59.6721 125.892 55.925C123.393 53.1382 120.303 50.944 116.848 49.5022C113.497 48.1452 109.91 47.4656 106.295 47.5028H65.7912C65.5091 47.495 65.2267 47.5033 64.9455 47.5276C64.4987 47.5451 64.0768 47.7381 63.7714 48.0648C63.466 48.3914 63.3017 48.8252 63.3141 49.2722C63.3141 49.5518 63.3141 49.8348 63.3141 50.1144V137.619C63.3141 138.058 63.2929 138.501 63.3141 138.939C63.3336 139.302 63.4784 139.646 63.7237 139.913C63.969 140.18 64.2996 140.354 64.6588 140.404C64.937 140.438 65.2175 140.449 65.4975 140.436H107.466C111.692 140.452 115.845 139.342 119.498 137.219C124.725 134.29 128.76 129.622 130.903 124.027C132.434 120.127 132.922 115.894 132.319 111.748ZM100.078 114.897H92.519V73.1407H100.007H100.092L100.078 114.897Z" fill="#1E1719"/>
</svg>
