<svg width="80" height="80" viewBox="0 0 80 80" fill="none" xmlns="http://www.w3.org/2000/svg">
<circle cx="40" cy="40" r="40" fill="#3C7D73"/>
<path d="M47.757 43.7056C47.6599 43.1008 47.5045 42.506 47.2616 41.9617C46.5234 40.2984 45.4841 38.8871 43.9299 37.9496C41.5113 36.4879 38.5875 36.498 36.198 38C35.1101 38.6754 34.2262 39.6532 33.6531 40.8226C33.4588 41.2157 33.3034 41.6391 33.1674 42.0625C32.536 44.1391 32.5652 46.9314 33.7016 48.8266C34.0708 49.4516 34.605 49.9758 35.2655 50.2379C35.9163 50.5 36.7031 50.4697 37.2859 50.0766C38.0436 49.5625 38.1795 48.5947 38.0436 47.7278C37.8687 46.6189 37.723 45.5403 38.1213 44.4516C38.2475 44.1089 38.4224 43.7661 38.6749 43.5242C38.8303 43.3629 39.0149 43.2419 39.2092 43.1411C39.6171 42.9294 40.0931 42.8387 40.5399 42.9193C41.3267 43.0504 41.9775 43.6855 42.3272 44.4415C42.6769 45.1875 42.774 46.0343 42.8129 46.871C42.978 50.5 42.1523 54.2399 41.2587 57.7278C41.1713 58.0907 41.0742 58.4435 40.977 58.7964C40.8993 59.0685 40.773 59.4214 40.9382 59.6935C41.0159 59.8044 41.1227 59.8851 41.249 59.9456C41.7638 60.1572 42.1912 59.8347 42.5312 59.4718C44.5807 57.3347 45.892 54.5827 46.7857 51.7399C47.1159 50.6814 47.4073 49.6129 47.6016 48.5141C47.8639 47.0121 48.0193 45.2984 47.757 43.7157" fill="white"/>
<path d="M59.9999 26.5513C51.0052 30.0997 40.845 30.7751 31.3646 29.3537C29.7425 29.1118 28.1009 28.769 26.4691 28.5069C25.4491 28.3355 24.4389 28.1037 23.4093 28.013C22.5351 27.9525 21.4375 27.9122 20.7284 28.5472C19.7862 29.3839 19.8542 30.9767 20.3884 32.0251C21.0295 33.2751 22.1466 34.2327 23.3025 34.9384C24.4292 35.6339 25.7794 36.3799 27.1199 36.2892C30.743 36.0472 34.3564 35.6944 37.9601 35.2005C44.1087 34.3739 50.5487 33.5976 56.3185 31.1178" fill="white"/>
<path d="M36.5819 23.7723C36.5819 25.8086 38.1652 27.4517 40.1176 27.4517C42.07 27.4517 43.6533 25.8086 43.6533 23.7723C43.6533 23.4699 43.5853 23.1674 43.4591 22.8953C43.1579 22.2299 42.818 21.9074 42.8471 21.1009C42.8957 20.0223 41.5552 20.0122 40.8364 20.0122C40.0496 20.0122 39.224 20.1231 38.5149 20.4961C37.9515 20.7884 37.4659 21.242 37.1259 21.7965C36.7762 22.361 36.5819 23.0263 36.5625 23.7017V23.7824" fill="white"/>
</svg>
