<svg width="120" height="120" viewBox="0 0 120 120" fill="none" xmlns="http://www.w3.org/2000/svg">
<path d="M120 60C120 26.8629 93.1371 0 60 0C26.8629 0 0 26.8629 0 60C0 93.1371 26.8629 120 60 120C93.1371 120 120 93.1371 120 60Z" fill="#C6413C"/>
<path d="M98.7942 51.6215H101.031C101.099 51.6215 101.164 51.595 101.212 51.5477C101.26 51.5004 101.287 51.4361 101.289 51.3686V47.3958C101.286 47.3298 101.259 47.2672 101.212 47.2209C101.165 47.1746 101.102 47.1482 101.036 47.1472H97.8899C96.5589 46.936 95.1952 47.1545 93.9968 47.771C92.7984 48.3876 91.8277 49.37 91.2257 50.5758L84.3685 66.3472C84.2136 66.7917 83.9129 67.1708 83.5153 67.4228C83.1177 67.6749 82.6467 67.7852 82.1785 67.7358V47.3958C82.1764 47.3305 82.1495 47.2685 82.1034 47.2224C82.0572 47.1762 81.9952 47.1493 81.9299 47.1472H76.9028C76.869 47.146 76.8353 47.1516 76.8037 47.1634C76.7721 47.1753 76.7431 47.1933 76.7184 47.2164C76.6938 47.2395 76.6739 47.2672 76.6599 47.298C76.646 47.3288 76.6382 47.362 76.6371 47.3958V71.7558C76.6437 71.874 76.6963 71.9849 76.7836 72.065C76.8708 72.145 76.9859 72.1879 77.1043 72.1843H82.7399C86.3785 72.1843 88.0371 71.0915 89.1385 68.7558L95.8885 53.1858C96.1346 52.6415 96.5514 52.1922 97.0757 51.9061C97.6 51.62 98.2033 51.5125 98.7942 51.6" fill="white"/>
<path d="M37.3757 59.6702C38.4938 59.2644 39.4537 58.5132 40.1164 57.5254C40.779 56.5375 41.11 55.3644 41.0614 54.1759C41.0614 49.8002 37.0714 47.1474 32.2671 47.1474H17.4085C17.3748 47.1462 17.3411 47.1517 17.3095 47.1636C17.2778 47.1755 17.2488 47.1935 17.2242 47.2166C17.1995 47.2397 17.1796 47.2674 17.1656 47.2982C17.1517 47.3289 17.1439 47.3622 17.1428 47.3959V51.3688C17.1439 51.4026 17.1517 51.4358 17.1656 51.4666C17.1796 51.4973 17.1995 51.5251 17.2242 51.5482C17.2488 51.5712 17.2778 51.5892 17.3095 51.6011C17.3411 51.613 17.3748 51.6185 17.4085 51.6174H31.2343C33.4671 51.6174 34.9757 52.9031 34.9757 54.4802C34.9757 56.0574 33.4671 57.3431 31.2343 57.3431H23.0228V54.3945C23.0217 54.3607 23.014 54.3275 23 54.2967C22.986 54.266 22.9662 54.2382 22.9415 54.2151C22.9168 54.1921 22.8878 54.1741 22.8562 54.1622C22.8245 54.1503 22.7909 54.1448 22.7571 54.1459H17.4085C17.3748 54.1448 17.3411 54.1503 17.3095 54.1622C17.2778 54.1741 17.2488 54.1921 17.2242 54.2151C17.1995 54.2382 17.1796 54.266 17.1656 54.2967C17.1517 54.3275 17.1439 54.3607 17.1428 54.3945V71.9659C17.1439 71.9997 17.1517 72.0329 17.1656 72.0637C17.1796 72.0945 17.1995 72.1222 17.2242 72.1453C17.2488 72.1684 17.2778 72.1864 17.3095 72.1983C17.3411 72.2101 17.3748 72.2157 17.4085 72.2145H32.0485C37.5214 72.2145 41.4428 69.8102 41.4428 64.9288C41.4343 63.7318 41.0312 62.571 40.2958 61.6264C39.5605 60.6819 38.534 60.0063 37.3757 59.7045M31.5214 67.8474H23.0228V61.9588H31.5214C33.81 61.9588 35.3785 63.2745 35.3785 64.8945C35.3785 66.5145 33.8314 67.8302 31.5214 67.8302" fill="white"/>
<path d="M104.001 71.91L95.3871 61.5386C95.3836 61.5313 95.3781 61.5252 95.3713 61.521C95.3645 61.5167 95.3566 61.5144 95.3485 61.5144C95.3405 61.5144 95.3326 61.5167 95.3258 61.521C95.319 61.5252 95.3135 61.5313 95.31 61.5386L92.9914 66.8786C92.982 66.8941 92.9769 66.9119 92.9769 66.93C92.9769 66.9482 92.982 66.966 92.9914 66.9814L96.7586 71.73C96.8768 71.8855 97.032 72.009 97.2102 72.0891C97.3884 72.1692 97.5838 72.2034 97.7785 72.1886H103.851C103.886 72.1928 103.922 72.1861 103.953 72.1695C103.984 72.153 104.009 72.1273 104.025 72.0959C104.041 72.0646 104.046 72.0292 104.042 71.9944C104.037 71.9596 104.021 71.9271 103.997 71.9014" fill="white"/>
<path d="M50.88 54.1457H45.8486C45.8148 54.1445 45.7811 54.15 45.7495 54.1619C45.7179 54.1738 45.6889 54.1918 45.6642 54.2149C45.6395 54.238 45.6197 54.2657 45.6057 54.2965C45.5918 54.3272 45.584 54.3605 45.5829 54.3942V71.9657C45.584 71.9994 45.5918 72.0327 45.6057 72.0634C45.6197 72.0942 45.6395 72.1219 45.6642 72.145C45.6889 72.1681 45.7179 72.1861 45.7495 72.198C45.7811 72.2098 45.8148 72.2154 45.8486 72.2142H50.88C50.9138 72.2154 50.9475 72.2098 50.9791 72.198C51.0107 72.1861 51.0397 72.1681 51.0644 72.145C51.0891 72.1219 51.1089 72.0942 51.1229 72.0634C51.1369 72.0327 51.1446 71.9994 51.1457 71.9657V54.3942C51.1424 54.3264 51.1128 54.2625 51.0632 54.2161C51.0136 54.1697 50.9479 54.1445 50.88 54.1457" fill="white"/>
<path d="M71.5757 47.1472H66.5486C66.4811 47.146 66.4159 47.1714 66.367 47.2179C66.3181 47.2644 66.2894 47.3283 66.2872 47.3958V67.7186C65.819 67.768 65.3479 67.6578 64.9503 67.4057C64.5528 67.1536 64.2521 66.7745 64.0972 66.33L57.2529 50.5758C56.6508 49.37 55.6801 48.3876 54.4817 47.771C53.2834 47.1545 51.9196 46.936 50.5886 47.1472H45.8486C45.8148 47.146 45.7811 47.1516 45.7495 47.1634C45.7179 47.1753 45.6889 47.1933 45.6642 47.2164C45.6395 47.2395 45.6197 47.2672 45.6057 47.298C45.5918 47.3288 45.584 47.362 45.5829 47.3958V51.3686C45.584 51.4024 45.5918 51.4356 45.6057 51.4664C45.6197 51.4972 45.6395 51.5249 45.6642 51.548C45.6889 51.5711 45.7179 51.5891 45.7495 51.6009C45.7811 51.6128 45.8148 51.6183 45.8486 51.6172H49.68C50.2708 51.5304 50.8738 51.6381 51.398 51.9242C51.9222 52.2102 52.3391 52.6591 52.5857 53.2029L59.3229 68.7772C60.4243 71.1043 62.0829 72.2058 65.7214 72.2058H71.3572C71.4755 72.2093 71.5906 72.1665 71.6778 72.0864C71.7651 72.0064 71.8177 71.8954 71.8243 71.7772V47.3958C71.8222 47.3305 71.7953 47.2685 71.7491 47.2224C71.703 47.1762 71.641 47.1493 71.5757 47.1472" fill="white"/>
</svg>
