<svg width="160" height="160" viewBox="0 0 160 160" fill="none" xmlns="http://www.w3.org/2000/svg">
<rect width="160" height="160" rx="80" fill="#0067AC"/>
<path d="M80.0096 131.429C86.824 131.369 93.5597 129.99 99.8318 127.372C106.104 124.754 111.79 120.948 116.564 116.17C121.339 111.393 125.109 105.738 127.659 99.5282C130.209 93.3187 131.489 86.6765 131.426 79.9809C131.543 66.4637 126.191 53.4544 116.548 43.8137C106.904 34.173 93.7587 28.6904 80.0018 28.5715C66.2439 28.6884 53.0967 34.1702 43.4522 43.8112C33.8076 53.4522 28.4556 66.4628 28.5735 79.9809C28.511 86.6779 29.792 93.3215 32.3434 99.532C34.8949 105.742 38.6666 111.398 43.4433 116.176C48.2199 120.954 53.9078 124.76 60.182 127.377C66.4562 129.994 73.1937 131.371 80.0096 131.429" fill="#0072C0"/>
<mask id="mask0_545_625" style="mask-type:alpha" maskUnits="userSpaceOnUse" x="28" y="28" width="104" height="104">
<path d="M80.0096 131.429C86.824 131.369 93.5597 129.99 99.8318 127.372C106.104 124.754 111.79 120.948 116.564 116.17C121.339 111.393 125.109 105.738 127.659 99.5282C130.209 93.3187 131.489 86.6765 131.426 79.9809C131.543 66.4637 126.191 53.4544 116.548 43.8137C106.904 34.173 93.7587 28.6904 80.0018 28.5715C66.2439 28.6884 53.0967 34.1702 43.4522 43.8112C33.8076 53.4522 28.4556 66.4628 28.5735 79.9809C28.511 86.6779 29.792 93.3215 32.3434 99.532C34.8949 105.742 38.6666 111.398 43.4433 116.176C48.2199 120.954 53.9078 124.76 60.182 127.377C66.4562 129.994 73.1937 131.371 80.0096 131.429" fill="#0072C0"/>
</mask>
<g mask="url(#mask0_545_625)">
<path d="M79.067 102.403C101.603 102.403 120.917 108.69 129.191 117.632C132.045 111.064 133.51 103.995 133.499 96.8542C133.228 82.8477 127.376 69.5047 117.199 59.6932C107.023 49.8818 93.3342 44.3853 79.0768 44.3853C64.8194 44.3853 51.1311 49.8818 40.9544 59.6932C30.7777 69.5047 24.9251 82.8477 24.6547 96.8542C24.6453 103.995 26.1107 111.064 28.9623 117.632C37.2132 108.69 56.5463 102.403 79.0866 102.403" fill="#0072C0"/>
<path d="M79.0598 43.9565C64.7237 43.9248 50.9599 49.4806 40.7868 59.4057C30.6137 69.3308 24.8618 82.815 24.7924 96.9011C24.7924 97.5834 24.8054 98.2645 24.8315 98.9442C25.0676 105.357 26.5095 111.67 29.0843 117.567C37.3078 108.694 56.6017 102.461 79.0676 102.461C101.533 102.461 120.812 108.694 129.063 117.567C131.641 111.671 133.083 105.357 133.315 98.9442C133.339 98.2709 133.355 97.5898 133.355 96.9049C133.287 82.8132 127.532 69.3234 117.353 59.3964C107.174 49.4695 93.4016 43.9166 79.0598 43.9565" fill="#0074C2"/>
<path d="M79.0512 44.4016C64.7925 44.3482 51.0926 49.8461 40.949 59.6926C30.8054 69.539 25.0438 82.9323 24.9248 96.9421C24.9248 97.6219 24.9352 98.2978 24.9561 98.9699C25.1816 105.35 26.62 111.632 29.1971 117.493C37.4206 108.693 56.6441 102.51 79.0512 102.51C101.458 102.51 120.69 108.689 128.925 117.489C131.503 111.624 132.94 105.336 133.162 98.9506C133.186 98.2811 133.201 97.6039 133.201 96.9191C133.075 82.9095 127.307 69.5192 117.159 59.6773C107.011 49.8354 93.3097 44.343 79.0512 44.4016" fill="#0076C3"/>
<path d="M79.0518 44.8894C64.8734 44.8151 51.2403 50.2519 41.1251 60.0142C31.0099 69.7765 25.2332 83.0725 25.0546 97.0028C25.0546 97.6774 25.0663 98.3495 25.0898 99.019C25.3069 105.367 26.7432 111.618 29.323 117.442C37.5112 108.715 56.6994 102.586 79.0557 102.586C101.412 102.586 120.565 108.715 128.788 117.442C131.376 111.614 132.816 105.358 133.033 99.0036C133.057 98.3341 133.072 97.6608 133.065 96.9836C132.885 83.0526 127.105 69.7569 116.986 59.9975C106.867 50.238 93.2307 44.807 79.0518 44.8894" fill="#0078C5"/>
<path d="M79.046 45.3295C64.9445 45.2364 51.3758 50.6181 41.2916 60.3039C31.2074 69.9897 25.4234 83.1961 25.1976 97.0505C25.1976 97.72 25.1976 98.3933 25.225 99.0552C25.437 105.371 26.8696 111.589 29.4465 117.378C37.6151 108.724 56.7564 102.641 79.046 102.641C101.336 102.641 120.469 108.724 128.653 117.378C131.237 111.588 132.671 105.366 132.879 99.0475C132.902 98.3818 132.91 97.72 132.906 97.0428C132.682 83.1865 126.897 69.978 116.81 60.2926C106.722 50.6073 93.1495 45.2293 79.046 45.3295" fill="#007AC6"/>
<path d="M79.0413 45.7752C65.0169 45.6621 51.5127 50.9864 41.4577 60.5932C31.4027 70.1999 25.6078 83.3145 25.33 97.0922C25.33 97.7617 25.33 98.4235 25.3574 99.0853C25.562 105.367 26.9911 111.552 29.567 117.304C37.7122 108.716 56.8025 102.683 79.0374 102.683C101.272 102.683 120.355 108.708 128.516 117.304C131.101 111.549 132.533 105.358 132.733 99.0699C132.757 98.4056 132.764 97.7386 132.757 97.0691C132.48 83.2925 126.684 70.1792 116.627 60.5758C106.57 50.9723 93.0645 45.654 79.0413 45.7752" fill="#007BC8"/>
<path d="M79.0328 46.2313C65.0865 46.098 51.6475 51.3645 41.6224 60.8915C31.5973 70.4186 25.7921 83.4404 25.4624 97.1404C25.4624 97.8022 25.4624 98.464 25.4859 99.1143C25.6829 105.365 27.1098 111.519 29.6877 117.237C37.8173 108.726 56.8567 102.747 79.0288 102.747C101.201 102.747 120.24 108.726 128.37 117.237C130.953 111.517 132.38 105.358 132.572 99.1027C132.595 98.4461 132.603 97.783 132.595 97.1135C132.262 83.4186 126.455 70.403 116.432 60.8813C106.409 51.3596 92.9739 46.0969 79.0328 46.2313" fill="#007DC9"/>
<path d="M79.0205 46.6984C65.1572 46.5529 51.7905 51.7642 41.8004 61.2097C31.8102 70.6551 25.9961 83.5786 25.6107 97.1958C25.6107 97.8538 25.6107 98.5117 25.6342 99.1582C25.8229 105.377 27.2477 111.499 29.8282 117.181C37.9303 108.735 56.9227 102.813 79.0401 102.813C101.157 102.813 120.158 108.739 128.26 117.181C130.839 111.494 132.259 105.366 132.438 99.1428C132.462 98.4861 132.469 97.8268 132.462 97.165C132.074 83.5459 126.254 70.6221 116.257 61.1811C106.259 51.7401 92.8857 46.5386 79.0205 46.6984" fill="#007FCA"/>
<path d="M79.0157 47.1494C65.2266 46.9774 51.9193 52.1283 41.9545 61.4949C31.9898 70.8615 26.1632 83.6959 25.7273 97.239C25.7273 97.8931 25.7273 98.5447 25.7273 99.1937C25.9099 105.386 27.3379 111.481 29.9291 117.128C38.0117 108.755 56.9493 102.891 79.0118 102.891C101.074 102.891 120.008 108.767 128.106 117.128C130.69 111.481 132.112 105.387 132.288 99.1975C132.312 98.5434 132.312 97.8893 132.312 97.2313C131.877 83.6872 126.049 70.8519 116.082 61.4861C106.116 52.1203 92.8057 46.9723 79.0157 47.1494" fill="#0081CC"/>
<path d="M79.0151 47.595C65.3037 47.4044 52.0618 52.4986 42.1272 61.7861C32.1926 71.0736 26.3558 83.8153 25.8677 97.2806C25.8677 97.9308 25.8677 98.5734 25.8677 99.2044C26.0464 105.36 27.4708 111.418 30.0578 117.027C38.1207 108.728 57.0113 102.902 79.0073 102.902C101.003 102.902 119.894 108.728 127.957 117.027C130.542 111.415 131.96 105.351 132.127 99.1929C132.151 98.5465 132.151 97.8885 132.127 97.2344C131.629 83.7763 125.787 71.0449 115.852 61.7674C105.918 52.4898 92.6804 47.4039 78.9759 47.5989" fill="#0083CD"/>
<path d="M79 48.0562C49.967 48.0562 26.346 70.4268 25.9974 97.3262C25.9974 97.9687 25.9974 98.6151 25.9974 99.25C26.1661 105.364 27.5816 111.383 30.1601 116.95C38.2035 108.727 57.0432 102.952 78.9882 102.952C100.933 102.952 119.769 108.723 127.824 116.95C130.414 111.379 131.835 105.353 132.003 99.2308C132.003 98.5844 132.026 97.9379 132.003 97.2838C131.638 70.4075 108.045 48.0562 79 48.0562Z" fill="#0085CF"/>
<path d="M78.9979 48.5117C50.0629 48.5117 26.524 70.74 26.1324 97.3777C26.1324 98.0164 26.1324 98.6513 26.1324 99.3016C26.2931 105.391 27.7064 111.386 30.2873 116.924C38.3072 108.763 57.0999 103.042 78.9862 103.042C100.872 103.042 119.673 108.759 127.693 116.916C130.278 111.377 131.692 105.379 131.848 99.2862C131.863 98.6398 131.863 97.9985 131.848 97.3623C131.456 70.7284 107.921 48.5233 78.9823 48.5271" fill="#0087D0"/>
<path d="M78.9882 48.9619C50.1549 48.9619 26.6827 71.0363 26.2676 97.4239C26.2676 98.0575 26.2676 98.6898 26.2676 99.3208C26.419 105.378 27.8289 111.341 30.4107 116.843C38.411 108.763 57.1567 103.084 78.9686 103.084C100.78 103.084 119.538 108.755 127.55 116.843C130.134 111.339 131.544 105.373 131.693 99.3131C131.693 98.6706 131.717 98.028 131.693 97.3893C131.255 71.0209 107.806 48.9658 78.9608 48.9696" fill="#0089D2"/>
<path d="M78.9861 49.4178C50.2469 49.4178 26.8568 71.3421 26.4026 97.4758C26.4026 98.1029 26.4026 98.7301 26.4026 99.3611C26.5466 105.385 27.9544 111.315 30.5378 116.78C38.5147 108.761 57.2134 103.147 78.9822 103.147C100.751 103.147 119.446 108.761 127.43 116.78C130.02 111.306 131.429 105.365 131.57 99.3304C131.57 98.6955 131.57 98.0568 131.57 97.4065C131.096 71.2998 107.729 49.3909 78.9822 49.3909" fill="#008BD3"/>
<path d="M78.9776 49.8728C50.3402 49.8728 27.0245 71.6509 26.535 97.5191C26.535 98.1424 26.535 98.7696 26.535 99.3929C26.6705 105.383 28.0749 111.28 30.6585 116.708C38.6158 108.766 57.2597 103.198 78.9737 103.198C100.688 103.198 119.335 108.766 127.293 116.708C129.879 111.281 131.285 105.384 131.42 99.3929C131.436 98.7567 131.436 98.1155 131.42 97.469C130.919 71.6278 107.627 49.869 78.9776 49.8728Z" fill="#008DD5"/>
<path d="M78.9691 50.3337C50.4217 50.3337 27.1922 71.9618 26.6675 97.5683C26.6675 98.1916 26.6675 98.8073 26.6675 99.4344C26.795 105.394 28.1972 111.261 30.7832 116.653C38.7169 108.777 57.3138 103.263 78.9691 103.263C100.624 103.263 119.221 108.777 127.163 116.653C129.749 111.257 131.152 105.386 131.278 99.4229C131.278 98.7944 131.278 98.1647 131.278 97.5337C130.73 71.9348 107.516 50.326 78.9691 50.3337Z" fill="#0090D6"/>
<path d="M78.9788 50.7893C50.5293 50.7893 27.3625 72.2673 26.8025 97.6199C26.8025 98.2355 26.8025 98.8511 26.8025 99.4668C26.9238 105.394 28.3225 111.228 30.9064 116.585C38.8245 108.786 57.3705 103.326 78.9788 103.326C100.587 103.326 119.125 108.786 127.043 116.585C129.633 111.228 131.032 105.389 131.147 99.4591C131.147 98.8319 131.147 98.2009 131.147 97.5775C130.548 72.2365 107.409 50.7855 78.9788 50.7893Z" fill="#0092D8"/>
<path d="M78.9428 51.2236C50.6108 51.2236 27.5302 72.5592 26.9349 97.654C26.9349 98.2658 26.9349 98.8776 26.9349 99.4894C27.0464 105.383 28.4431 111.185 31.031 116.504C38.9139 108.778 57.405 103.364 78.9428 103.364C100.481 103.364 118.984 108.778 126.878 116.504C129.467 111.183 130.864 105.378 130.974 99.4817C130.974 98.8545 130.974 98.2312 130.974 97.604C130.359 72.5323 107.298 51.2236 78.9428 51.2236Z" fill="#0094DA"/>
<path d="M78.95 51.7004C50.7198 51.7004 27.6979 72.8744 27.0674 97.6999C27.0674 98.304 27.0674 98.9158 27.0674 99.5199C27.1686 105.387 28.562 111.163 31.1517 116.45C39.0228 108.793 57.4748 103.433 78.9539 103.433C100.433 103.433 118.897 108.793 126.756 116.45C129.347 111.163 130.741 105.387 130.84 99.5199C130.84 98.9004 130.84 98.277 130.84 97.6576C130.175 72.8475 107.2 51.6927 78.95 51.7004Z" fill="#0096DB"/>
<path d="M78.9439 52.1558C50.7999 52.1558 27.868 73.1835 27.1945 97.7666C27.1945 98.3707 27.1945 98.9709 27.1945 99.5712C27.2935 105.402 28.6846 111.141 31.271 116.39C39.1225 108.802 57.5079 103.492 78.9439 103.492C100.38 103.492 118.769 108.802 126.621 116.39C129.211 111.141 130.601 105.4 130.693 99.5673C130.693 98.9517 130.693 98.3322 130.693 97.7127C130.004 73.1527 107.104 52.1558 78.9556 52.1558" fill="#0099DD"/>
<path d="M78.938 52.6101C50.8919 52.6101 28.0305 73.4878 27.3373 97.8092C27.3373 98.4094 27.3139 99.0058 27.3373 99.6061C27.4232 105.404 28.807 111.111 31.3904 116.324C39.2223 108.81 57.5686 103.55 78.938 103.55C100.307 103.55 118.654 108.806 126.482 116.324C129.072 111.112 130.459 105.402 130.543 99.6022C130.543 98.9866 130.543 98.3709 130.543 97.7553C129.814 73.457 106.992 52.6062 78.9458 52.6062" fill="#009BDE"/>
<path d="M78.9308 53.0615C50.9865 53.0615 28.2073 73.7853 27.475 97.8528C27.475 98.4453 27.4515 99.0379 27.475 99.6343C27.5515 105.402 28.9305 111.08 31.5124 116.26C39.3443 108.819 57.624 103.609 78.9308 103.609C100.238 103.609 118.545 108.811 126.349 116.26C128.94 111.084 130.326 105.406 130.406 99.6381C130.406 99.0302 130.406 98.4222 130.406 97.8028C129.623 73.7622 106.91 53.0654 78.9464 53.0692" fill="#009DE0"/>
<path d="M78.9269 53.5171C51.0844 53.5171 28.3796 74.0947 27.6278 97.9005C27.6278 98.4892 27.6004 99.0779 27.6278 99.6743C27.7028 105.407 29.0865 111.051 31.6769 116.189C39.4618 108.813 57.718 103.661 78.9621 103.661C100.206 103.661 118.466 108.813 126.251 116.189C128.845 111.049 130.229 105.403 130.3 99.6666C130.3 99.0587 130.3 98.4546 130.3 97.8505C129.517 74.0639 106.832 53.5171 79.0013 53.5209" fill="#00A0E1"/>
<path d="M78.9188 53.978C51.1743 53.978 28.5478 74.4017 27.7451 97.9574C27.7216 98.5423 27.7216 99.1117 27.7216 99.7197C27.7948 105.419 29.179 111.027 31.7707 116.126C39.5321 108.816 57.7374 103.721 78.9267 103.721C100.116 103.721 118.321 108.823 126.091 116.126C128.68 111.022 130.059 105.407 130.124 99.7043C130.124 99.104 130.124 98.4961 130.097 97.892C129.278 74.3709 106.667 53.9742 78.9188 53.978Z" fill="#00A2E3"/>
<path d="M78.9119 54.4229C51.2652 54.4229 28.7171 74.7003 27.8752 97.9867C27.8752 98.5716 27.8478 99.141 27.8517 99.7374C27.9123 105.406 29.2892 110.986 31.8773 116.052C39.6231 108.826 57.7736 103.77 78.908 103.77C100.042 103.77 118.201 108.826 125.943 116.052C128.533 110.985 129.909 105.403 129.964 99.7336C129.964 99.1333 129.964 98.5369 129.941 97.9328C129.068 74.6657 106.559 54.4267 78.908 54.4267" fill="#00A5E5"/>
<path d="M78.9002 54.8784C51.3553 54.8784 28.8816 75.002 27.9927 98.0344C27.9692 98.6116 27.9653 99.1887 27.9692 99.7697C28.0265 105.408 29.4054 110.958 31.9987 115.988C39.7249 108.823 57.8245 103.825 78.9002 103.825C99.9759 103.825 118.083 108.827 125.806 115.988C128.396 110.956 129.771 105.405 129.823 99.7659C129.823 99.1656 129.823 98.5692 129.792 97.9728C128.884 74.9635 106.453 54.8784 78.8845 54.8784" fill="#00A7E6"/>
<path d="M78.9001 55.344C51.4531 55.344 29.0538 75.3252 28.1531 98.0921C28.1296 98.6654 28.1218 99.2465 28.1296 99.8121C28.1747 105.416 29.5462 110.933 32.1357 115.926C39.8384 108.839 57.891 103.887 78.9118 103.887C99.9327 103.887 117.974 108.846 125.661 115.934C128.254 110.942 129.626 105.424 129.667 99.8198C129.667 99.2234 129.667 98.6308 129.635 98.0383C128.692 75.2867 106.335 55.3286 78.8844 55.3286" fill="#00AAE8"/>
<path d="M78.8998 55.7949C51.5507 55.7949 29.2297 75.6222 28.286 98.1429C28.2625 98.7123 28.2507 99.2972 28.2546 99.8513C28.2916 105.422 29.6612 110.907 32.2528 115.862C39.936 108.847 57.9416 103.934 78.8998 103.934C99.858 103.934 117.871 108.832 125.543 115.862C128.14 110.907 129.513 105.421 129.549 99.8474C129.549 99.2587 129.549 98.6662 129.518 98.0775C128.539 75.5914 106.265 55.7949 78.9115 55.7949" fill="#00ACEA"/>
<path d="M78.8854 56.2502C51.6382 56.2502 29.3916 75.9275 28.4126 98.1903C28.4126 98.756 28.3774 99.3216 28.3813 99.8872C28.411 105.427 29.7772 110.881 32.3677 115.801C40.0313 108.875 57.986 104.016 78.8854 104.016C99.7849 104.016 117.767 108.849 125.403 115.794C127.997 110.874 129.364 105.42 129.39 99.8795C129.39 99.2908 129.39 98.7021 129.358 98.1172C128.34 75.889 106.137 56.2502 78.8854 56.2502Z" fill="#00AFEB"/>
<path d="M78.8811 56.7058C51.7318 56.7058 29.5635 76.233 28.5493 98.2342C28.5258 98.796 28.5101 99.3577 28.514 99.9195C28.5342 105.426 29.8985 110.848 32.4926 115.73C40.1327 108.858 58.0365 104.06 78.8811 104.06C99.7258 104.06 117.649 108.858 125.27 115.73C127.864 110.848 129.229 105.427 129.248 99.9195C129.248 99.3347 129.248 98.7652 129.209 98.1688C128.152 76.1945 106.034 56.7097 78.8811 56.7097" fill="#00B2ED"/>
<path d="M78.8719 57.1614C51.8204 57.1614 29.7305 76.5423 28.681 98.2819C28.6575 98.8398 28.6379 99.3939 28.6379 99.9518C28.657 105.427 30.0176 110.817 32.6048 115.666C40.2292 108.867 58.0821 104.123 78.868 104.123C99.6539 104.123 117.519 108.867 125.127 115.666C127.723 110.82 129.085 105.428 129.094 99.9518C129.094 99.3747 129.094 98.7975 129.051 98.2165C127.958 76.4962 105.916 57.1614 78.8641 57.1614" fill="#00B5F0"/>
<path d="M78.8687 104.184C99.5998 104.184 117.41 108.878 124.995 115.607C127.591 110.796 128.95 105.435 128.954 99.9895C128.954 77.8459 106.539 57.6223 78.8687 57.6223C51.1985 57.6223 28.7836 77.8498 28.7836 99.9934C28.7923 105.438 30.1512 110.799 32.7426 115.611C40.3396 108.882 58.1494 104.187 78.8766 104.187" fill="#00BAF2"/>
<path d="M78.8682 104.312C99.5719 104.312 117.358 108.975 124.936 115.659C127.525 110.883 128.882 105.556 128.887 100.145C128.887 78.1474 106.503 58.0354 78.8682 58.0354C51.2333 58.0354 28.8418 78.1474 28.8418 100.145C28.8491 105.556 30.2057 110.882 32.793 115.659C40.3861 108.975 58.1645 104.312 78.8682 104.312Z" fill="#12BBF3"/>
<path d="M78.8758 104.427C99.552 104.427 117.315 109.045 124.884 115.701C127.468 110.961 128.823 105.668 128.828 100.291C128.828 78.4361 106.475 58.4434 78.8758 58.4434C51.2761 58.4434 28.9081 78.4361 28.9081 100.291C28.918 105.668 30.2736 110.96 32.8554 115.701C40.4367 109.056 58.1956 104.427 78.8679 104.427" fill="#23BDF3"/>
<path d="M78.8558 104.565C99.5007 104.565 117.232 109.182 124.798 115.762C127.378 111.059 128.733 105.802 128.741 100.459C128.749 78.7468 106.424 58.8618 78.8558 58.8618C51.2874 58.8618 28.9742 78.7468 28.9742 100.459C28.9824 105.801 30.3358 111.059 32.9137 115.762C40.4833 109.167 58.2186 104.565 78.8636 104.565" fill="#2FBFF4"/>
<path d="M78.8659 104.694C99.4834 104.694 117.195 109.265 124.741 115.821C127.319 111.153 128.673 105.927 128.681 100.615C128.681 79.068 106.383 59.2908 78.862 59.2908C51.3406 59.2908 29.0431 79.0488 29.0431 100.615C29.0488 105.924 30.3943 111.149 32.9591 115.821C40.5208 109.28 58.2327 104.694 78.8502 104.694" fill="#39C1F4"/>
<path d="M78.8627 104.828C99.4528 104.828 117.141 109.372 124.679 115.878C127.245 111.245 128.591 106.055 128.595 100.78C128.595 79.3518 106.329 59.7092 78.8627 59.7092C51.3961 59.7092 29.0908 79.3557 29.0908 100.776C29.0975 106.053 30.4434 111.245 33.0068 115.882C40.5568 109.372 58.2452 104.828 78.8235 104.828" fill="#42C3F4"/>
<path d="M78.8652 104.968C99.424 104.968 117.089 109.477 124.619 115.949C127.181 111.348 128.527 106.188 128.535 100.943C128.535 79.6653 106.3 60.1382 78.8534 60.1382C51.4065 60.1382 29.1755 79.6653 29.1755 100.932C29.1859 106.176 30.5322 111.335 33.0915 115.938C40.6336 109.466 58.2985 104.96 78.8574 104.956" fill="#4AC4F5"/>
<path d="M78.8635 105.091C99.3949 105.091 117.036 109.57 124.555 115.996C127.113 111.43 128.46 106.305 128.471 101.093C128.471 79.9579 106.267 60.5461 78.8596 60.5461C51.4518 60.5461 29.2444 79.9617 29.2444 101.093C29.2552 106.305 30.602 111.43 33.1603 115.996C40.6868 109.57 58.3321 105.091 78.8635 105.091" fill="#52C6F5"/>
<path d="M78.8658 105.219C99.3698 105.219 116.988 109.674 124.495 116.054C127.049 111.525 128.396 106.434 128.411 101.256C128.411 80.2624 106.234 60.97 78.8658 60.97C51.4972 60.97 29.3132 80.2624 29.3132 101.248C29.327 106.427 30.6741 111.519 33.2292 116.05C40.7518 109.671 58.3697 105.219 78.8697 105.215" fill="#5AC8F5"/>
<path d="M78.8655 105.346C99.3421 105.346 116.933 109.771 124.432 116.12C126.983 111.627 128.33 106.571 128.348 101.426C128.348 80.5787 106.203 61.4094 78.8734 61.4094C51.5439 61.4094 29.3795 80.5634 29.3795 101.422C29.3975 106.568 30.7449 111.625 33.2955 116.12C40.8063 109.787 58.4007 105.346 78.8734 105.346" fill="#62CAF6"/>
<path d="M78.8691 105.486C99.3183 105.486 116.881 109.876 124.373 116.164C126.923 111.707 128.271 106.683 128.289 101.569C128.289 80.8685 106.175 61.8069 78.8848 61.8069C51.5945 61.8069 29.4536 80.8723 29.4536 101.569C29.4674 106.682 30.8085 111.706 33.35 116.167C40.8569 109.876 58.4122 105.486 78.8731 105.486" fill="#69CCF6"/>
<path d="M78.8636 105.612C99.2853 105.612 116.821 109.975 124.289 116.224C126.835 111.802 128.183 106.811 128.205 101.73C128.205 81.1715 106.115 62.2253 78.8636 62.2253C51.6124 62.2253 29.5225 81.1753 29.5225 101.73C29.5375 106.809 30.8776 111.799 33.4149 116.224C40.9101 109.975 58.4536 105.616 78.8714 105.612" fill="#70CEF7"/>
<path d="M78.8632 105.735C99.2575 105.735 116.77 110.072 124.241 116.274C126.775 111.884 128.116 106.927 128.134 101.88C128.134 81.4638 106.079 62.6331 78.8632 62.6331C51.6473 62.6331 29.5808 81.4676 29.5808 101.88C29.5947 106.928 30.9341 111.887 33.4694 116.278C40.9488 110.072 58.4728 105.739 78.8632 105.735Z" fill="#77D1F7"/>
<path d="M78.8707 105.872C99.2337 105.872 116.726 110.178 124.19 116.338C126.717 111.983 128.055 107.06 128.075 102.047C128.075 81.7737 106.051 63.0623 78.8746 63.0623C51.6979 63.0623 29.6549 81.7737 29.6549 102.047C29.6718 107.06 31.0088 111.983 33.5356 116.338C41.0073 110.181 58.5077 105.876 78.8707 105.872Z" fill="#7ED3F8"/>
<path d="M78.868 105.988C99.2075 105.988 116.669 110.263 124.125 116.377C126.648 112.054 127.987 107.162 128.009 102.179C128.009 82.0555 106.009 63.4595 78.8719 63.4595C51.7343 63.4595 29.7344 82.0824 29.7344 102.202C29.7512 107.185 31.0872 112.078 33.6112 116.4C41.0711 110.278 58.5441 106.011 78.8836 106.011" fill="#85D5F8"/>
<path d="M78.8647 106.13C99.1728 106.13 116.611 110.362 124.055 116.445C126.573 112.16 127.909 107.303 127.932 102.355C127.932 82.3739 105.963 63.8779 78.8647 63.8779C51.7662 63.8779 29.782 82.347 29.782 102.355C29.7985 107.304 31.1323 112.163 33.651 116.449C41.0913 110.378 58.5526 106.134 78.8607 106.13" fill="#8DD7F8"/>
<path d="M78.8684 106.265C99.1491 106.265 116.563 110.498 123.996 116.508C126.508 112.257 127.842 107.433 127.865 102.518C127.865 82.6789 105.936 64.3176 78.8645 64.3176C51.7934 64.3176 29.8562 82.6828 29.8562 102.514C29.8746 107.43 31.206 112.256 33.7173 116.508C41.1577 110.479 58.5876 106.269 78.8684 106.265" fill="#93D9F9"/>
<path d="M78.8664 106.388C99.1159 106.388 116.503 110.571 123.935 116.558C126.442 112.343 127.775 107.553 127.8 102.672C127.8 82.9751 105.894 64.7253 78.8508 64.7253C51.8071 64.7253 29.9012 82.9751 29.9012 102.664C29.9214 107.547 31.2519 112.338 33.7585 116.554C41.1988 110.567 58.5935 106.388 78.8469 106.385" fill="#9ADBF9"/>
<path d="M78.8677 106.534C99.0936 106.534 116.461 110.69 123.874 116.627C126.376 112.446 127.708 107.69 127.735 102.84C127.735 83.2901 105.853 65.1597 78.8677 65.1597C51.8828 65.1597 29.9886 83.2978 29.9886 102.84C30.0087 107.692 31.3383 112.452 33.842 116.634C41.2823 110.69 58.6457 106.542 78.8755 106.538" fill="#A1DEFA"/>
<path d="M78.8672 106.654C99.0618 106.654 116.406 110.779 123.807 116.658C126.305 112.516 127.637 107.795 127.664 102.98C127.664 83.5719 105.813 65.5569 78.8633 65.5569C51.9136 65.5569 30.0469 83.5911 30.0469 102.991C30.0665 107.808 31.394 112.533 33.8923 116.678C41.3053 110.779 58.6569 106.674 78.8554 106.654" fill="#A8E0FA"/>
<path d="M78.871 106.79C99.0382 106.79 116.355 110.884 123.748 116.736C126.242 112.629 127.573 107.941 127.601 103.158C127.601 83.8923 105.782 65.9966 78.871 65.9966C51.9605 65.9966 30.129 83.9154 30.129 103.154C30.1502 107.939 31.4753 112.632 33.9667 116.744C41.3718 110.884 58.7038 106.798 78.871 106.79Z" fill="#AFE2FA"/>
<path d="M78.8679 106.908C99.0116 106.908 116.297 110.972 123.686 116.782C126.171 112.712 127.498 108.061 127.528 103.315C127.528 84.1953 105.739 66.415 78.8679 66.415C51.9966 66.415 30.1925 84.2069 30.1925 103.307C30.2188 108.052 31.5429 112.704 34.0262 116.774C41.4196 110.979 58.7242 106.908 78.8679 106.908Z" fill="#B6E5FB"/>
<path d="M78.8663 107.043C98.9747 107.043 116.24 111.079 123.618 116.839C126.103 112.802 127.43 108.179 127.459 103.461C127.459 84.4879 105.702 66.823 78.8663 66.823C52.0302 66.823 30.2614 84.5032 30.2614 103.465C30.2846 108.184 31.6066 112.81 34.0872 116.851C41.4688 111.079 58.7578 107.051 78.8663 107.047" fill="#BCE7FB"/>
<path d="M78.8697 107.18C98.9547 107.18 116.189 111.189 123.563 116.907C126.039 112.901 127.364 108.311 127.396 103.624C127.396 84.7975 105.663 67.252 78.8697 67.252C52.0767 67.252 30.3118 84.8052 30.3118 103.624C30.3362 108.312 31.6573 112.904 34.1337 116.911C41.5114 111.185 58.7691 107.187 78.854 107.176" fill="#C3EAFC"/>
<path d="M78.8683 107.31C98.9258 107.31 116.136 111.28 123.51 116.96C125.983 112.992 127.307 108.437 127.34 103.785C127.34 85.1006 105.642 67.6704 78.8839 67.6704C52.1262 67.6704 30.3965 85.0967 30.3965 103.781C30.4213 108.435 31.7403 112.993 34.2106 116.964C41.5805 111.28 58.8107 107.313 78.8526 107.31" fill="#CAECFC"/>
<path d="M78.8639 107.437C98.8902 107.437 116.066 111.384 123.432 117.014C125.9 113.079 127.223 108.554 127.257 103.931C127.257 85.3892 105.583 68.0784 78.8639 68.0784C52.1453 68.0784 30.4626 85.3931 30.4626 103.939C30.4863 108.56 31.8031 113.086 34.269 117.021C41.6231 111.388 58.8377 107.448 78.8639 107.44" fill="#D1EEFC"/>
<path d="M78.8872 107.564C98.8899 107.564 116.054 111.481 123.392 117.068C125.855 113.17 127.176 108.681 127.21 104.093C127.21 85.6974 105.567 68.502 78.8872 68.502C52.2077 68.502 30.5289 85.7089 30.5289 104.093C30.5565 108.681 31.8737 113.173 34.3352 117.072C41.6855 111.466 58.8688 107.572 78.8872 107.564Z" fill="#D8F1FD"/>
<path d="M78.8671 107.691C98.8386 107.691 115.979 111.577 123.305 117.122C125.763 113.259 127.083 108.803 127.12 104.247C127.12 85.9899 105.507 68.9099 78.8671 68.9099C52.2269 68.9099 30.5951 86.0015 30.5951 104.251C30.6216 108.806 31.9368 113.263 34.3936 117.126C41.7282 111.577 58.8957 107.703 78.8671 107.691Z" fill="#DFF3FD"/>
<path d="M78.8538 107.827C98.7978 107.827 115.911 111.674 123.229 117.184C125.683 113.357 127.003 108.933 127.04 104.41C127.051 86.3026 105.482 69.3496 78.8538 69.3496C52.2252 69.3496 30.6639 86.3142 30.6639 104.41C30.6925 108.935 32.0067 113.362 34.4585 117.192C41.7814 111.674 58.9215 107.827 78.8538 107.827Z" fill="#E6F6FE"/>
<path d="M78.8599 107.957C98.7725 107.957 115.862 111.782 123.177 117.238C125.622 113.447 126.939 109.059 126.979 104.571C126.979 86.6065 105.441 69.7573 78.8599 69.7573C52.2783 69.7573 30.7249 86.6142 30.7249 104.571C30.7535 109.061 32.0656 113.453 34.5116 117.246C41.8266 111.782 58.9433 107.965 78.8599 107.961" fill="#EDF8FE"/>
<path d="M78.8636 108.098C98.7528 108.098 115.815 111.892 123.114 117.31C125.554 113.552 126.871 109.196 126.912 104.739C126.912 86.9202 105.375 70.1865 78.8636 70.1865C52.3525 70.1865 30.7991 86.9241 30.7991 104.739C30.826 109.195 32.1332 113.552 34.5701 117.31C41.8812 111.892 58.9705 108.102 78.8558 108.098" fill="#F4FBFE"/>
<path d="M78.8685 108.228C98.7264 108.228 115.769 111.999 123.06 117.362C125.493 113.642 126.807 109.322 126.851 104.9C126.851 87.2233 105.356 70.605 78.8685 70.605C52.381 70.605 30.8706 87.231 30.8706 104.88C30.9004 109.303 32.2081 113.626 34.6417 117.347C41.9371 111.96 59.0029 108.216 78.8646 108.209" fill="white"/>
</g>
<mask id="mask1_545_625" style="mask-type:alpha" maskUnits="userSpaceOnUse" x="28" y="28" width="104" height="104">
<path d="M80.0096 131.429C86.824 131.369 93.5597 129.99 99.8318 127.372C106.104 124.754 111.79 120.948 116.564 116.17C121.339 111.393 125.109 105.738 127.659 99.5282C130.209 93.3187 131.489 86.6765 131.426 79.9809C131.543 66.4637 126.191 53.4544 116.548 43.8137C106.904 34.173 93.7587 28.6904 80.0018 28.5715C66.2439 28.6884 53.0967 34.1702 43.4522 43.8112C33.8076 53.4522 28.4556 66.4628 28.5735 79.9809C28.511 86.6779 29.792 93.3215 32.3434 99.532C34.8949 105.742 38.6666 111.398 43.4433 116.176C48.2199 120.954 53.9078 124.76 60.182 127.377C66.4562 129.994 73.1937 131.371 80.0096 131.429" fill="#0072C0"/>
</mask>
<g mask="url(#mask1_545_625)">
<path d="M79.4915 90.1408C62.1291 89.9815 44.8804 92.9849 28.5713 99.0072C32.8261 109.095 39.9198 117.696 48.9708 123.741C58.0217 129.786 68.6306 133.009 79.4788 133.009C90.3269 133.009 100.936 129.786 109.987 123.741C119.038 117.696 126.132 109.095 130.386 99.0072C114.076 92.9888 96.8281 89.9855 79.4661 90.1408" fill="#0072C0"/>
</g>
</svg>
