<svg width="101" height="100" viewBox="0 0 101 100" fill="none" xmlns="http://www.w3.org/2000/svg">
<rect x="0.625" width="100" height="100" rx="50" fill="#163B7A"/>
<path d="M22.5776 53.3851C22.387 51.7908 22.5484 50.174 23.0504 48.6487C23.5524 47.1235 24.3827 45.7269 25.4829 44.5573C26.5831 43.3877 27.9264 42.4737 29.4182 41.8795C30.91 41.2853 32.5139 41.0256 34.1169 41.1184C35.739 41.0118 37.3632 41.2908 38.8567 41.9327C40.3502 42.5745 41.6705 43.5608 42.7095 44.811C43.4045 45.7877 43.8622 46.9129 44.0462 48.0974L44.1238 48.5442L39.4859 49.7295L39.3862 49.3602C39.1414 48.1622 38.4639 47.0963 37.4831 46.3661C36.5023 45.6359 35.2868 45.2926 34.0689 45.4018C33.0768 45.3998 32.0958 45.6112 31.1926 46.0218C30.2894 46.4324 29.4851 47.0324 28.8344 47.7813C28.1836 48.5302 27.7015 49.4103 27.4209 50.3619C27.1403 51.3135 27.0677 52.3144 27.2081 53.2965C27.2081 56.3835 28.2863 61.2909 33.792 61.2909C35.238 61.4095 36.6721 60.9497 37.7796 60.0125C38.8872 59.0752 39.5778 57.737 39.7001 56.2912L39.7407 55.8666L44.5189 56.6531L44.4413 57.0888C44.1002 59.5445 42.8471 61.7819 40.9313 63.3556C39.0155 64.9293 36.5774 65.724 34.1021 65.5817C32.5112 65.6543 30.9233 65.3829 29.4467 64.7861C27.9701 64.1894 26.6395 63.2812 25.5457 62.1236C24.4519 60.966 23.6205 59.5862 23.1083 58.0782C22.5961 56.5702 22.4151 54.9695 22.5776 53.3851V53.3851ZM57.0404 58.0009V45.4683H54.3079V41.6391H57.0404V37.4923L60.9803 35.0552L61.6413 34.6638V41.6391H65.4114V45.4683H61.6413V58.2187C61.6413 60.2275 61.7189 60.9254 63.314 60.9254L66.3087 60.3973L66.8885 64.2044L66.8257 64.677L62.6789 65.3638C57.0404 65.3601 57.0404 61.7784 57.0404 58.0009ZM71.4414 65.0463V41.6391H76.046V65.05L71.4414 65.0463ZM46.5535 65.0463V41.6391H51.1655V65.05L46.5535 65.0463Z" fill="white"/>
<path d="M49.0566 38.9469C50.3478 36.9483 52.1284 35.313 54.2295 34.1962C56.3305 33.0794 58.6822 32.5183 61.0611 32.5661C63.4654 32.5163 65.8433 33.0751 67.9737 34.1907C70.1042 35.3063 71.918 36.9424 73.2466 38.9469H78.7485C77.1985 35.6144 74.6991 32.8138 71.5637 30.8963C68.4283 28.9788 64.7965 28.0298 61.1239 28.1683C57.4541 28.0325 53.8259 28.9829 50.694 30.9003C47.562 32.8177 45.0657 35.6168 43.5177 38.9469H49.0566Z" fill="#D9000D"/>
</svg>
