<svg width="80" height="80" viewBox="0 0 80 80" fill="none" xmlns="http://www.w3.org/2000/svg">
<circle cx="40" cy="40" r="40" fill="#756C63"/>
<path d="M61.5174 38.76L61.1516 38.5298C59.9061 37.2883 58.1714 36.7498 55.8571 36.8814C53.9292 37.0006 52.4 37.7611 51.2285 38.4763C51.2285 38.4599 51.2285 38.4434 51.2285 38.4229C51.2285 37.8186 51.2983 37.165 51.3641 36.5279C51.434 35.8825 51.5039 35.2248 51.5039 34.6C51.5039 33.9752 51.4299 33.3627 51.212 32.8488C51.1586 32.7173 51.0353 32.6392 50.8791 32.6392C50.2583 32.6515 49.0416 33.079 48.7456 33.338L48.5853 33.6915C48.573 34.3821 48.4209 36.31 48.2688 36.5443C48.277 36.5361 48.1866 36.7786 48.1866 36.7786C47.9276 39.5328 47.9194 41.9498 48.1619 44.0298C48.1907 44.2353 48.5894 44.5519 48.8977 44.6629C49.2348 44.7903 50.2953 44.5067 50.9078 44.2723C50.9037 44.2723 51.138 44.2395 51.138 44.2395C51.3312 44.2189 51.4463 44.0545 51.434 43.8366L51.4504 43.2406C51.8903 41.4483 53.6784 39.3067 55.7913 38.986C56.9834 38.797 57.9288 39.1011 58.6729 39.9151C58.7756 40.063 58.9894 41.3497 58.2042 42.8336C57.6164 43.9312 56.4449 44.8561 54.9075 45.4357C53.4482 45.9865 51.8409 46.2126 49.8596 46.1427C49.7774 46.0893 48.0016 44.8889 48.0016 44.8889C46.4313 43.7873 44.4788 42.4143 42.7071 41.7402C42.3988 41.621 41.8397 41.1606 41.5068 40.8811L41.3218 40.729C40.2982 39.9068 38.358 38.6161 36.7959 37.572C36.7959 37.572 36.093 37.0993 35.9533 37.0088C35.9533 36.9513 35.9574 36.8321 35.9574 36.8321C35.9985 36.7827 36.9809 36.1949 36.9809 36.1949C38.3539 35.3933 38.9869 34.9946 39.1226 34.7932C39.0938 34.8261 39.3034 34.6863 39.3034 34.6863C39.3117 34.6822 42.7071 32.7584 42.7071 32.7584C45.9709 30.962 49.6746 28.9232 51.619 26.913L51.7135 26.6089L51.7546 26.3334C51.8821 25.9018 51.8944 25.5689 51.7834 25.1907C51.7546 25.0838 51.6519 24.9564 51.5203 24.9317C50.0035 24.7837 48.0427 25.6922 46.2628 27.3611C45.8599 27.7393 45.5229 27.9243 45.1652 28.1175L44.8939 28.2696C42.929 29.3877 38.5019 32.1336 36.1835 33.6175C36.3355 31.1265 36.7959 27.5831 37.3632 24.6275L37.3016 24.274L37.0631 23.8259L36.8823 23.5053L36.8288 23.493C36.3684 23.2587 35.9903 23.3532 35.7148 23.4272L35.2503 23.5957L34.6378 23.8177C34.5145 23.8424 34.4282 23.9164 34.3789 24.0356C33.2731 26.7116 32.3482 31.11 32.1303 34.6287C29.9188 33.2188 27.8717 32.2117 26.8728 31.7225L26.844 31.7061L26.7248 31.6814C26.3672 31.6321 25.9274 31.369 25.4999 31.1141C25.4587 31.0895 24.6613 30.5715 24.6613 30.5715L23.3746 29.7494L23.0376 29.6713C22.4826 29.7658 21.4262 30.477 21.1138 30.962C21.0686 31.0237 21.0562 31.0977 21.0562 31.1676C21.0562 31.2703 21.085 31.3731 21.1138 31.4718L21.1713 31.7348L21.233 31.8952C21.8496 32.5241 23.4034 33.5805 24.9285 34.3986L26.6961 35.3358L29.4009 36.8156L29.8654 37.1774L30.1819 37.3623C30.1819 37.3623 30.2148 37.3829 30.2353 37.3952C29.516 37.8762 25.319 40.6796 25.319 40.6796L22.7293 42.3897C22.4867 42.5582 21.4632 43.0145 21.2371 43.1049C20.6739 43.331 20.2505 43.6845 20.0738 44.0627L20.0039 44.2107L20.0738 44.3093L20.2711 44.4614L20.5342 44.6341L20.8178 44.8314L21.0891 44.8684C21.5454 44.8889 22.2196 44.63 23.4774 44.0791C24.6325 43.5653 27.7772 41.6703 29.1172 40.8646L29.6927 40.5193C29.927 40.5399 30.1942 40.3384 30.4244 40.1617C30.6957 39.9479 31.2794 39.5862 31.6371 39.43C31.6453 39.4259 31.8508 39.3108 32.0399 39.208C32.0399 39.2697 32.0399 39.3601 32.0399 39.3601C32.1016 43.4667 32.34 46.4551 32.7839 48.7571L32.7922 48.7982L32.8374 48.8886C33.0594 49.2134 33.3101 50.1876 33.5321 51.0467L34.0459 52.7608L34.1898 52.9212C34.4816 53.1185 35.3695 53.4597 35.9656 53.3898L36.1136 53.3733L36.2081 53.1637C36.2616 52.9088 36.2739 52.6581 36.2739 52.3786C36.2739 52.062 36.2533 51.7167 36.2204 51.2975L36.1835 50.6767C35.9944 47.8075 35.8053 43.664 35.8053 40.9139C35.8053 40.8358 35.8053 40.7701 35.8053 40.6961C36.2903 41.0044 38.4238 42.3486 38.4238 42.3486C42.0535 44.6999 47.5289 48.2556 50.8421 49.1969C51.0147 49.2462 51.1956 49.2092 51.323 49.0859C51.3271 49.0818 51.8327 48.7571 51.8327 48.7571L51.9273 48.7201C52.1164 48.6296 52.2479 48.309 52.2685 47.9596C55.0596 47.8198 58.9524 46.747 61.0365 44.1285C61.8422 43.1131 62.208 41.8717 62.208 40.803C62.208 39.9315 61.9655 39.1792 61.5257 38.7641" fill="#F9B000"/>
</svg>
