<svg width="146" height="146" viewBox="0 0 146 146" fill="none" xmlns="http://www.w3.org/2000/svg">
<g clip-path="url(#clip0_217_1887)">
<path d="M78.935 1.62169C77.4491 1.50905 76.436 2.18487 76.3459 3.22113C76.2559 4.37003 77.4716 4.93322 78.4172 5.2486L79.5654 5.65409C81.0963 6.14969 82.9649 7.16343 82.8073 9.37111C82.6272 11.4436 80.8711 12.8178 77.9894 12.57C75.2653 12.3447 73.6668 10.8354 73.7119 8.60518L75.558 8.76287C75.558 10.092 76.6836 10.8354 78.102 10.948C79.6554 11.0607 80.8486 10.3848 80.9612 9.19089C81.0287 8.1321 80.0607 7.61397 78.7999 7.16343L77.3816 6.66782C75.4679 5.96948 74.3422 4.86563 74.4548 3.17608C74.6349 1.08103 76.6161 -0.180501 79.0926 0.0222451C81.5691 0.224992 83.1675 1.77938 83.0775 3.76179L81.2764 3.6041C81.2539 2.4552 80.3083 1.73433 78.9125 1.62169H78.935Z" fill="black"/>
<path d="M91.568 3.96472C89.5418 3.42407 87.6056 4.57296 86.8402 7.43394C86.0747 10.3174 87.1779 12.2548 89.2266 12.7955C90.7125 13.201 92.1759 12.7054 92.8963 11.2861L94.6974 11.7817C93.7068 14.0119 91.3654 15.1383 88.7763 14.44C85.7145 13.629 84.071 10.7455 85.0841 6.96087C86.0972 3.19879 88.9565 1.50924 91.9958 2.32022C94.4948 2.97352 96.0707 4.97846 95.8006 7.61416L93.9995 7.14109C94.112 5.54164 93.0764 4.34769 91.5905 3.96472H91.568Z" fill="black"/>
<path d="M100.256 5.13672L104.196 6.98396C106.763 8.20044 107.348 10.2054 106.402 12.2328C105.704 13.7197 104.511 14.5306 102.935 14.418L103.296 20.0273L101.382 19.1262L101.089 13.8999L100.977 13.8548L98.7253 12.796L96.7666 16.9636L95.0781 16.1751L100.256 5.13672ZM101.472 12.3455C103.093 13.0889 104.106 12.7059 104.691 11.4669C105.277 10.2279 104.962 9.12407 103.341 8.35814L101.247 7.36693L99.3782 11.3768L101.472 12.3455Z" fill="black"/>
<path d="M108.227 23.6758C105.66 21.8285 105.143 18.5395 107.416 15.3631C109.69 12.1868 112.955 11.6461 115.544 13.4934C118.088 15.3406 118.628 18.6296 116.354 21.7835C114.08 24.9598 110.794 25.5005 108.25 23.6758H108.227ZM109.218 22.3016C110.906 23.5181 113.112 23.1351 114.846 20.7247C116.557 18.3142 116.242 16.1066 114.531 14.8901C112.82 13.6511 110.613 14.0566 108.88 16.4445C107.169 18.8549 107.484 21.0626 109.195 22.3016H109.218Z" fill="black"/>
<path d="M122.542 19.3281L123.848 20.6572L116.283 28.0913L120.155 32.0336L119.007 33.1599L113.852 27.9111L122.564 19.3507L122.542 19.3281Z" fill="black"/>
<path d="M129.792 27.0996L130.896 28.6089L122.34 34.8716L125.605 39.332L124.322 40.2781L119.977 34.3309L129.837 27.1221L129.792 27.0996Z" fill="black"/>
<path d="M127.051 44.8959L138.285 40.1201L139.883 43.8822C141.302 47.1937 140.019 50.0772 136.529 51.564C133.017 53.0508 130.045 51.9695 128.604 48.5454L127.051 44.8959ZM130.045 47.8245C131.126 50.3701 133.152 51.0008 135.809 49.8745C138.465 48.7481 139.388 46.8783 138.353 44.4228L137.52 42.4855L129.257 45.9998L130.045 47.847V47.8245Z" fill="black"/>
<path d="M132.228 60.3963C131.575 57.2875 133.399 54.5167 137.226 53.7057C141.053 52.8947 143.845 54.6969 144.498 57.8057C145.151 60.8919 143.327 63.6853 139.5 64.4963C135.672 65.3073 132.881 63.5051 132.228 60.4188V60.3963ZM133.894 60.0359C134.322 62.0859 136.213 63.2798 139.117 62.6716C142.021 62.0408 143.259 60.1936 142.832 58.1436C142.404 56.071 140.513 54.8771 137.609 55.5079C134.704 56.1386 133.466 57.9859 133.894 60.0584V60.0359Z" fill="black"/>
<path d="M146.004 66.1855V68.1454L136.503 70.3756V70.4658L145.891 73.1015V75.0163L136.39 77.3366V77.4267L145.778 79.9498V81.9097L133.621 78.3278V76.458L142.807 74.0476V73.9575L133.734 71.2542V69.3844L146.004 66.2081V66.1855Z" fill="black"/>
<path d="M130.809 92.1815L131.214 90.537L141.322 86.6398V86.5496L132.7 84.4321L133.15 82.6299L144.992 85.5134L144.587 87.1804L134.456 91.0777V91.1903L143.101 93.3079L142.673 95.065L130.831 92.1815H130.809Z" fill="black"/>
<path d="M133.329 99.9539C133.936 100.224 134.184 100.945 133.914 101.553C133.644 102.139 132.923 102.409 132.315 102.117C131.73 101.824 131.46 101.125 131.73 100.517C132.023 99.9314 132.721 99.661 133.329 99.9314V99.9539Z" fill="black"/>
<path d="M131.012 114.754C131.89 113.538 131.8 112.322 130.967 111.713C130.021 111.037 128.918 111.803 128.175 112.457L127.23 113.223C126.014 114.259 124.19 115.363 122.389 114.079C120.723 112.862 120.453 110.655 122.142 108.312C123.74 106.104 125.834 105.496 127.725 106.69L126.644 108.199C125.496 107.523 124.303 108.109 123.47 109.258C122.569 110.519 122.547 111.894 123.515 112.614C124.37 113.223 125.316 112.659 126.352 111.803L127.5 110.857C129.076 109.573 130.607 109.168 131.98 110.159C133.691 111.398 133.736 113.718 132.295 115.723C130.854 117.728 128.693 118.314 127.05 117.21L128.108 115.746C129.098 116.309 130.201 115.881 131.012 114.754Z" fill="black"/>
<path d="M122.543 124.441C124.051 122.976 124.051 120.724 122.002 118.606C119.931 116.466 117.68 116.421 116.194 117.885C115.091 118.944 114.753 120.476 115.609 121.805L114.258 123.089C112.862 121.084 113.087 118.516 115.023 116.624C117.297 114.416 120.606 114.484 123.331 117.299C126.055 120.093 126.032 123.427 123.758 125.635C121.912 127.437 119.368 127.775 117.252 126.175L118.603 124.869C119.909 125.792 121.462 125.522 122.565 124.418L122.543 124.441Z" fill="black"/>
<path d="M117.073 131.245L113.471 133.678C111.13 135.277 109.081 134.736 107.843 132.867C106.92 131.515 106.852 130.073 107.753 128.767L102.777 126.198L104.511 125.027L109.126 127.46L109.216 127.392L111.287 125.996L108.721 122.189L110.252 121.152L117.073 131.267V131.245ZM110.274 128.609C108.788 129.623 108.608 130.704 109.374 131.83C110.139 132.957 111.242 133.25 112.728 132.258L114.642 130.974L112.165 127.325L110.252 128.609H110.274Z" fill="black"/>
<path d="M97.0849 128.631C99.9891 127.369 103.096 128.631 104.649 132.19C106.203 135.772 105.01 138.881 102.105 140.142C99.2237 141.404 96.1168 140.165 94.5634 136.583C93.0099 133.001 94.2031 129.892 97.1074 128.631H97.0849ZM97.7603 130.185C95.8466 131.019 95.0587 133.114 96.2294 135.84C97.4226 138.566 99.4938 139.422 101.407 138.566C103.344 137.732 104.132 135.637 102.961 132.911C101.768 130.185 99.6964 129.329 97.7603 130.185Z" fill="black"/>
<path d="M93.459 143.161L91.6579 143.589L89.1589 133.294L83.8007 134.601L83.418 133.046L90.5548 131.312L93.4365 143.161H93.459Z" fill="black"/>
<path d="M83.1721 145.369L81.326 145.549L80.3354 135.006L74.8646 135.524L74.707 133.925L82.0239 133.227L83.1721 145.369Z" fill="black"/>
<path d="M69.2756 133.902L67.6321 145.999L63.6022 145.458C60.0451 144.985 58.2215 142.417 58.7168 138.655C59.2346 134.87 61.6661 132.888 65.3583 133.384L69.2756 133.924V133.902ZM65.2457 134.983C62.4991 134.623 60.9456 136.019 60.5404 138.88C60.1577 141.719 61.2833 143.498 63.9399 143.859L66.0337 144.152L67.2494 135.253L65.2682 134.983H65.2457Z" fill="black"/>
<path d="M53.295 130.41C56.2893 131.424 57.7527 134.443 56.4919 138.115C55.2312 141.809 52.2594 143.296 49.2651 142.282C46.2933 141.269 44.8299 138.272 46.0907 134.578C47.3515 130.883 50.3232 129.397 53.295 130.41ZM52.7547 132.01C50.7735 131.334 48.7923 132.348 47.8242 135.164C46.8787 137.98 47.8242 140.007 49.8054 140.66C51.7866 141.336 53.7903 140.322 54.7584 137.529C55.704 134.713 54.7584 132.686 52.7547 132.032V132.01Z" fill="black"/>
<path d="M41.2041 139.286L39.5381 138.25L42.4874 128.946L42.3973 128.901L35.3281 135.637L33.6846 134.623L36.5438 125.274L36.4538 125.229L29.4746 132.032L27.8086 130.996L37.1067 122.368L38.7051 123.359L36.0936 132.483L36.1836 132.528L43.1628 126.108L44.7613 127.099L41.2266 139.286H41.2041Z" fill="black"/>
<path d="M26.727 112.884L27.9427 114.078L26.0966 124.778L26.1642 124.846L32.4229 118.471L33.7512 119.777L25.1961 128.495L23.9804 127.279L25.8265 116.556L25.7364 116.466L19.4777 122.841L18.1719 121.557L26.727 112.839V112.884Z" fill="black"/>
<path d="M18.8045 111.082C18.2642 111.465 17.5213 111.307 17.1385 110.767C16.7783 110.226 16.9134 109.483 17.4537 109.1C17.9941 108.739 18.737 108.874 19.1197 109.415C19.4799 109.956 19.3449 110.722 18.8045 111.082Z" fill="black"/>
<path d="M7.24896 101.508C7.83431 102.882 8.93747 103.445 9.88304 103.04C10.9412 102.567 10.8511 101.238 10.671 100.269L10.4909 99.0524C10.2207 97.4755 10.2207 95.3354 12.247 94.4343C14.1381 93.6233 16.1868 94.5244 17.335 97.1601C18.4157 99.6607 17.8528 101.801 15.8716 102.792L15.1287 101.102C16.2994 100.472 16.412 99.1425 15.8491 97.8134C15.2187 96.3942 14.048 95.6733 12.9449 96.1239C11.9768 96.5519 11.9768 97.6557 12.1794 98.9848L12.4046 100.472C12.6972 102.499 12.2695 104.008 10.716 104.684C8.77988 105.518 6.75366 104.369 5.76307 102.094C4.77248 99.8183 5.38034 97.6782 7.15891 96.8222L7.87934 98.4892C6.88874 99.0524 6.68612 100.224 7.24896 101.508Z" fill="black"/>
<path d="M3.28868 89.1631C3.76147 91.2131 5.69763 92.362 8.57935 91.7087C11.4836 91.0104 12.6768 89.1181 12.1815 87.0906C11.8438 85.5813 10.6956 84.5225 9.11968 84.5676L8.71443 82.7428C11.1459 82.5626 13.2396 84.0945 13.8475 86.7302C14.5679 89.839 12.7894 92.6324 8.98459 93.5109C5.17981 94.3895 2.34312 92.6774 1.62268 89.5912C1.03733 87.0681 2.05044 84.7252 4.50441 83.734L4.93217 85.5588C3.46879 86.2121 2.90595 87.6763 3.26617 89.1857L3.28868 89.1631Z" fill="black"/>
<path d="M0.25204 81.0305L0.0269053 76.6827C-0.130689 73.8443 1.37772 72.38 3.62906 72.2448C5.27255 72.1547 6.55582 72.8306 7.1862 74.2948L11.9591 71.3438L12.0716 73.4388L7.61395 76.1646V76.2772L7.74903 78.7778L12.3418 78.53L12.4318 80.3772L0.25204 81.0305ZM6.01549 76.5476C5.90293 74.7454 5.06993 74.047 3.71912 74.1146C2.36831 74.1822 1.53531 74.9932 1.62536 76.7729L1.73793 79.0706L6.15058 78.8454L6.03801 76.5476H6.01549Z" fill="black"/>
<path d="M12.7944 65.2622C12.3892 68.4161 9.75508 70.421 5.88276 69.9254C2.01044 69.4298 -0.0382854 66.8166 0.366958 63.6628C0.7722 60.5315 3.40628 58.5265 7.2786 58.9996C11.1509 59.4727 13.1996 62.1084 12.7944 65.2397V65.2622ZM11.1059 65.037C11.3761 62.9644 9.98022 61.2073 7.05347 60.8243C4.12671 60.4639 2.32563 61.793 2.07798 63.8655C1.80782 65.9606 3.20366 67.6952 6.13041 68.0782C9.07968 68.4386 10.8582 67.1095 11.1284 65.0144L11.1059 65.037Z" fill="black"/>
<path d="M2.16406 54.6961L2.70439 52.9165L12.8129 56.0252L14.4339 50.7764L15.9648 51.2494L13.8035 58.278L2.16406 54.6961Z" fill="black"/>
<path d="M5.56641 44.6271L6.37689 42.9601L15.9226 47.5557L18.309 42.5771L19.7499 43.2755L16.5755 49.9211L5.58892 44.6497L5.56641 44.6271Z" fill="black"/>
<path d="M22.5398 38.612L13.0391 30.9527L15.6056 27.7764C17.857 24.9604 20.9863 24.7352 23.9581 27.1231C26.9299 29.511 27.3802 32.6423 25.0388 35.5258L22.5623 38.612H22.5398ZM23.7105 34.5796C25.444 32.417 25.0388 30.3445 22.8099 28.5423C20.5811 26.7401 18.4648 26.8077 16.7988 28.8802L15.4705 30.5247L22.4497 36.1565L23.7105 34.6022V34.5796Z" fill="black"/>
<path d="M33.7536 26.6717C31.3222 28.7442 28.0127 28.4288 25.4912 25.4552C22.9697 22.4816 23.2173 19.1701 25.6263 17.0976C28.0352 15.0476 31.3447 15.3404 33.8887 18.314C36.4102 21.2877 36.1626 24.6217 33.7762 26.6492L33.7536 26.6717ZM32.6505 25.3651C34.2489 24.0135 34.384 21.7833 32.4704 19.508C30.5342 17.2553 28.3054 17.03 26.7294 18.4042C25.1085 19.7558 24.9734 22.0085 26.887 24.2613C28.8232 26.514 31.052 26.7393 32.6505 25.3651Z" fill="black"/>
<path d="M32.3359 11.7362L34.0695 10.8351L40.5309 18.134L40.6209 18.0889L38.4821 8.55981L40.1931 7.68124L46.7446 14.9351L46.8346 14.89L44.6058 5.40598L46.3393 4.50488L48.9509 16.9175L47.2849 17.7735L40.801 10.8351L40.711 10.8801L42.6246 20.1614L40.9586 21.0175L32.3359 11.7362Z" fill="black"/>
<path d="M62.4113 12.8396L60.7678 13.2677L52.5054 6.17153H52.4153L54.6667 14.8446L52.8656 15.3177L49.7812 3.46825L51.4472 3.04023L59.7097 10.1589H59.8223L57.5709 1.46331L59.327 0.990234L62.4113 12.8396Z" fill="black"/>
<path d="M67.9949 6.98301C67.9499 6.32972 68.4677 5.76654 69.1206 5.72148C69.7735 5.67643 70.3363 6.19456 70.3813 6.84785C70.4039 7.50115 69.9086 8.06433 69.2557 8.10938C68.6028 8.13191 68.0174 7.63631 67.9949 6.98301Z" fill="black"/>
</g>
<defs>
<clipPath id="clip0_217_1887">
<rect width="146" height="146" fill="white"/>
</clipPath>
</defs>
</svg>
