<svg xmlns="http://www.w3.org/2000/svg" width="414.873" height="227.25" viewBox="0 0 414.873 227.25">
  <g id="말풍선" transform="translate(84.373 -52.591)">
    <path id="사각형_22514" data-name="사각형 22514" d="M95,0H285a95,95,0,0,1,95,95v85.5a9.5,9.5,0,0,1-9.5,9.5H95A95,95,0,0,1,0,95v0A95,95,0,0,1,95,0Z" transform="translate(-59 89.34)" fill="#ecf5d7"/>
    <path id="패스_28292" data-name="패스 28292" d="M378.7,201.7h-278a101.741,101.741,0,0,1-20.354-2.052,100.451,100.451,0,0,1-36.117-15.2A101.292,101.292,0,0,1,7.638,140.014a100.5,100.5,0,0,1-5.886-18.96A101.738,101.738,0,0,1-.3,100.7a1,1,0,1,1,2,0,99.112,99.112,0,0,0,99,99h278a9.01,9.01,0,0,0,9-9v-90a99.112,99.112,0,0,0-99-99H157.193a1,1,0,1,1,0-2H288.7a101.742,101.742,0,0,1,20.354,2.052,100.453,100.453,0,0,1,36.117,15.2,101.293,101.293,0,0,1,36.592,44.436,100.5,100.5,0,0,1,5.886,18.96A101.743,101.743,0,0,1,389.7,100.7v90a11,11,0,0,1-11,11Z" transform="translate(-59.2 78.14)" fill="#242424"/>
    <g id="_" data-name="&quot;" transform="translate(-370.079 -4267.139)">
      <path id="패스_28303" data-name="패스 28303" d="M28.668,27.352C32.505,15.731,45.393,7.263,45.393,7.263L41.247.914A83.857,83.857,0,0,0,6.486,32.6,40.024,40.024,0,0,0,.712,52.749l.044.029c0,.166-.052.318-.052.492A26.3,26.3,0,0,0,27.24,79.325,26.3,26.3,0,0,0,53.774,53.27C53.774,39.357,42.646,28.1,28.668,27.352Z" transform="translate(288.509 4320.61)" fill="#dcefb1"/>
      <path id="패스_28304" data-name="패스 28304" d="M28.216,26.917C31.991,15.487,44.671,7.159,44.671,7.159L40.592.914a82.492,82.492,0,0,0-34.2,31.167A39.356,39.356,0,0,0,.712,51.9l.043.028c0,.164-.051.313-.051.484A25.873,25.873,0,0,0,26.811,78.034,25.873,25.873,0,0,0,52.916,52.408C52.916,38.724,41.968,27.65,28.216,26.917Z" transform="translate(327.986 4321.899)" fill="#dcefb1"/>
      <path id="패스_28307" data-name="패스 28307" d="M19.426,31.064a1,1,0,0,1-.542-.16A26.544,26.544,0,0,0,9.26,27.075a1,1,0,0,1-.715-1.425A38.811,38.811,0,0,1,17.077,14.68a48.478,48.478,0,0,1,5.336-4.359l1.322-.886L18.96,1.989A1,1,0,1,1,20.643.909l5.3,8.27a1,1,0,0,1-.285,1.371l-2.138,1.433c-.086.058-8.248,5.612-12.582,13.4a28.537,28.537,0,0,1,9.027,3.84,1,1,0,0,1-.544,1.84Z" transform="translate(309.777 4321.291)" fill="#242424"/>
      <path id="패스_28308" data-name="패스 28308" d="M28.4,72.318A28.68,28.68,0,0,1-.255,44.806a1,1,0,0,1-.039-.291l.023-1.433A42.627,42.627,0,0,1,5.691,21.915,82.34,82.34,0,0,1,19.864,4.2a1,1,0,0,1,1.374,1.454A80.342,80.342,0,0,0,7.409,22.939a40.625,40.625,0,0,0-5.68,20.174L1.709,44.32a1,1,0,0,1,.026.2A26.661,26.661,0,0,0,44.748,64.7a1,1,0,1,1,1.228,1.578A28.53,28.53,0,0,1,28.4,72.318Z" transform="translate(286 4329.412)" fill="#242424"/>
      <path id="패스_28309" data-name="패스 28309" d="M39.4,81.91a28.782,28.782,0,0,1-19.95-7.956,28.181,28.181,0,0,1-6.2-8.662,27.515,27.515,0,0,1-2.5-10.419,1,1,0,0,1-.039-.292l.023-1.4a41.353,41.353,0,0,1,5.966-20.811A83.087,83.087,0,0,1,50.968,1.093L53.091.02a1,1,0,0,1,1.288.346l1.29,1.975,5.3,8.124a1,1,0,0,1-.288,1.383l-2.142,1.407c-.085.056-8.222,5.5-12.558,13.126a28.759,28.759,0,0,1,8.746,3.607A28.467,28.467,0,0,1,62.5,37.081,27.859,27.859,0,0,1,66.6,44.823a27.482,27.482,0,0,1,1.474,8.9,1,1,0,0,1-2,0A25.523,25.523,0,0,0,60.9,38.283a26.678,26.678,0,0,0-16.6-10.209,1,1,0,0,1-.715-1.432,38.221,38.221,0,0,1,8.533-10.779,48.336,48.336,0,0,1,5.334-4.281l1.307-.859-.846-1.295-4.713-7.22-1.324.669A81.118,81.118,0,0,0,18.4,33.4a39.352,39.352,0,0,0-5.676,19.8l-.019,1.178a1,1,0,0,1,.026.2A26.336,26.336,0,0,0,39.4,79.91a26.775,26.775,0,0,0,11.545-2.582,1,1,0,0,1,.856,1.808A28.76,28.76,0,0,1,39.4,81.91Z" transform="translate(315.631 4319.816)" fill="#242424"/>
    </g>
  </g>
</svg>
