<svg xmlns="http://www.w3.org/2000/svg" width="442" height="242.5" viewBox="0 0 442 242.5">
  <g id="말풍선" transform="translate(-1326.5 -4373.5)">
    <path id="사각형_22512" data-name="사각형 22512" d="M95,0H335a95,95,0,0,1,95,95v0a95,95,0,0,1-95,95H9.5A9.5,9.5,0,0,1,0,180.5V95A95,95,0,0,1,95,0Z" transform="translate(1327 4385)" fill="#e4f5eb"/>
    <path id="패스_28295" data-name="패스 28295" d="M226.881,202.154h0L10.7,201.7a11,11,0,0,1-11-11v-90A101.741,101.741,0,0,1,1.752,80.346a100.452,100.452,0,0,1,15.2-36.117A101.292,101.292,0,0,1,61.386,7.638a100.5,100.5,0,0,1,18.96-5.886A101.743,101.743,0,0,1,100.7-.3h240a101.741,101.741,0,0,1,20.354,2.052,100.452,100.452,0,0,1,36.117,15.2,101.293,101.293,0,0,1,36.592,44.436,100.5,100.5,0,0,1,5.886,18.96A101.742,101.742,0,0,1,441.7,100.7a89.965,89.965,0,0,1-2.523,20.84,105.861,105.861,0,0,1-6.926,19.817,115.931,115.931,0,0,1-23.26,33.3,1,1,0,0,1-1.409-1.42C427.393,153.582,439.7,125.789,439.7,100.7a99.112,99.112,0,0,0-99-99h-240a99.112,99.112,0,0,0-99,99v90a9.01,9.01,0,0,0,9,9l216.183.454a1,1,0,0,1,0,2Z" transform="translate(1326.8 4373.8)" fill="#242424"/>
    <g id="_" data-name="&quot;" transform="translate(2025.259 8935.729) rotate(180)">
      <path id="패스_28303" data-name="패스 28303" d="M28.487,27.362C32.3,15.737,45.1,7.266,45.1,7.266L40.984.914a83.527,83.527,0,0,0-34.535,31.7A40.244,40.244,0,0,0,.712,52.768l.044.029c0,.166-.051.318-.051.492A26.218,26.218,0,0,0,27.067,79.353a26.008,26.008,0,0,0,1.419-51.991Z" transform="translate(288.493 4320.596)" fill="#bfecd1"/>
      <path id="패스_28304" data-name="패스 28304" d="M28.038,26.934C31.788,15.5,44.386,7.163,44.386,7.163L40.333.914A82.176,82.176,0,0,0,6.356,32.1,39.594,39.594,0,0,0,.712,51.93l.043.028c0,.164-.05.313-.05.484A25.794,25.794,0,0,0,26.641,78.085a25.587,25.587,0,0,0,1.4-51.151Z" transform="translate(328.336 4321.863)" fill="#bfecd1"/>
      <path id="패스_28307" data-name="패스 28307" d="M19.361,30.556a1,1,0,0,1-.537-.157,26.547,26.547,0,0,0-9.561-3.761,1,1,0,0,1-.715-1.429,38.2,38.2,0,0,1,8.48-10.781,48.084,48.084,0,0,1,5.3-4.283l1.3-.859L18.9,1.993A1,1,0,0,1,20.573.9l5.269,8.124a1,1,0,0,1-.287,1.378l-2.124,1.407c-.085.057-8.174,5.5-12.482,13.132a28.522,28.522,0,0,1,8.95,3.768,1,1,0,0,1-.539,1.843Z" transform="translate(309.818 4321.255)" fill="#242424"/>
      <path id="패스_28308" data-name="패스 28308" d="M28.218,71.141A28.506,28.506,0,0,1,8.391,63.183a28.178,28.178,0,0,1-6.159-8.662A27.657,27.657,0,0,1-.255,44.1a1,1,0,0,1-.038-.291l.022-1.407A41.542,41.542,0,0,1,5.656,21.6,81.063,81.063,0,0,1,19.74,4.2a1,1,0,0,1,1.365,1.462A79.064,79.064,0,0,0,7.368,22.633a39.541,39.541,0,0,0-5.64,19.8l-.019,1.182a1,1,0,0,1,.026.2A26.237,26.237,0,0,0,28.218,69.141a26.406,26.406,0,0,0,16.245-5.514,1,1,0,1,1,1.22,1.585,28.552,28.552,0,0,1-17.464,5.929Z" transform="translate(286 4330.588)" fill="#242424"/>
      <path id="패스_28309" data-name="패스 28309" d="M39.218,81.91a28.506,28.506,0,0,1-19.827-7.959,28.178,28.178,0,0,1-6.159-8.662,27.657,27.657,0,0,1-2.487-10.418,1,1,0,0,1-.038-.291l.022-1.4a41.549,41.549,0,0,1,5.927-20.808A82.754,82.754,0,0,1,50.708,1.094L52.817.022a1,1,0,0,1,1.292.347l1.282,1.975,5.269,8.124a1,1,0,0,1-.287,1.379l-2.128,1.407c-.085.056-8.171,5.5-12.478,13.129a28.556,28.556,0,0,1,16.4,10.7,27.918,27.918,0,0,1,4.078,7.741,27.639,27.639,0,0,1,1.464,8.9,1,1,0,0,1-2,0A25.636,25.636,0,0,0,60.57,38.28,26.473,26.473,0,0,0,44.08,28.073a1,1,0,0,1-.715-1.429,38.186,38.186,0,0,1,8.478-10.779,48.085,48.085,0,0,1,5.3-4.281l1.3-.86-.843-1.3L52.922,2.212l-1.307.664A80.784,80.784,0,0,0,18.368,33.4a39.547,39.547,0,0,0-5.64,19.807l-.019,1.179a1,1,0,0,1,.026.2A26.555,26.555,0,0,0,50.683,77.328a1,1,0,1,1,.86,1.806A28.431,28.431,0,0,1,39.218,81.91Z" transform="translate(315.991 4319.816)" fill="#242424"/>
    </g>
  </g>
</svg>
